<svg width="414" height="8579" viewBox="0 0 414 8579" fill="none" xmlns="http://www.w3.org/2000/svg">
<g clip-path="url(#clip0_993_2437)">
<g filter="url(#filter0_f_993_2437)">
<circle cx="390.492" cy="634.594" r="266.594" fill="#8CFFF1"/>
</g>
<g filter="url(#filter1_f_993_2437)">
<path d="M-662.986 5760.4C-772.26 5963.22 -430.31 5924.49 -243.551 5842.26C-223.992 5932.7 -145.15 6076.49 13.7425 5928.11C212.358 5742.63 234.833 5852.41 79.7683 5706.74C-75.2965 5561.06 -57.1434 5625.51 -296.6 5544.74C-536.056 5463.98 -553.713 5557.58 -662.986 5760.4Z" fill="#52F5FF"/>
</g>
<g filter="url(#filter2_f_993_2437)">
<path d="M678.577 3232.31C427.802 3064.54 465.281 3605.69 562.34 3899.58C448.301 3933.04 265.45 4061.95 446.355 4309.87C672.487 4619.77 534.11 4658.38 721.796 4408.56C909.483 4158.75 828.079 4189.28 937.114 3807.41C1046.15 3425.55 929.351 3400.08 678.577 3232.31Z" fill="#6AFFD2"/>
</g>
<g filter="url(#filter3_f_993_2437)">
<path d="M584.349 7149.17C310.198 7074.45 399.014 7351.14 526.347 7497.85C411.853 7520.35 235.248 7595.12 444.782 7714.31C706.698 7863.29 567.583 7889.56 737.965 7752.35C908.346 7615.14 827.234 7634.61 904.268 7433.1C981.302 7231.59 858.501 7223.89 584.349 7149.17Z" fill="#6AFFD2"/>
</g>
</g>
<defs>
<filter id="filter0_f_993_2437" x="-323.102" y="-79" width="1427.19" height="1427.19" filterUnits="userSpaceOnUse" color-interpolation-filters="sRGB">
<feFlood flood-opacity="0" result="BackgroundImageFix"/>
<feBlend mode="normal" in="SourceGraphic" in2="BackgroundImageFix" result="shape"/>
<feGaussianBlur stdDeviation="223.5" result="effect1_foregroundBlur_993_2437"/>
</filter>
<filter id="filter1_f_993_2437" x="-1284.07" y="4915.82" width="2065.53" height="1676.34" filterUnits="userSpaceOnUse" color-interpolation-filters="sRGB">
<feFlood flood-opacity="0" result="BackgroundImageFix"/>
<feBlend mode="normal" in="SourceGraphic" in2="BackgroundImageFix" result="shape"/>
<feGaussianBlur stdDeviation="300" result="effect1_foregroundBlur_993_2437"/>
</filter>
<filter id="filter2_f_993_2437" x="70.0664" y="2900.72" width="1207.93" height="1971.54" filterUnits="userSpaceOnUse" color-interpolation-filters="sRGB">
<feFlood flood-opacity="0" result="BackgroundImageFix"/>
<feBlend mode="normal" in="SourceGraphic" in2="BackgroundImageFix" result="shape"/>
<feGaussianBlur stdDeviation="150" result="effect1_foregroundBlur_993_2437"/>
</filter>
<filter id="filter3_f_993_2437" x="-320.652" y="6468.6" width="1915.55" height="2041.4" filterUnits="userSpaceOnUse" color-interpolation-filters="sRGB">
<feFlood flood-opacity="0" result="BackgroundImageFix"/>
<feBlend mode="normal" in="SourceGraphic" in2="BackgroundImageFix" result="shape"/>
<feGaussianBlur stdDeviation="334" result="effect1_foregroundBlur_993_2437"/>
</filter>
<clipPath id="clip0_993_2437">
<rect width="414" height="8579" fill="white"/>
</clipPath>
</defs>
</svg>
