<svg width="768" height="10265" viewBox="0 0 768 10265" fill="none" xmlns="http://www.w3.org/2000/svg">
<g clip-path="url(#clip0_993_2436)">
<g filter="url(#filter0_f_993_2436)">
<circle cx="528.419" cy="633.099" r="300.099" fill="#8CFFF1"/>
</g>
<g filter="url(#filter1_f_993_2436)">
<path d="M-743.451 6070.09C-866.457 6298.4 -481.533 6254.81 -271.303 6162.24C-249.285 6264.05 -160.535 6425.91 18.3262 6258.88C241.903 6050.09 267.202 6173.67 92.6499 6009.69C-81.9028 5845.7 -61.4684 5918.25 -331.019 5827.34C-600.569 5736.42 -620.445 5841.79 -743.451 6070.09Z" fill="#52F5FF"/>
</g>
<g filter="url(#filter2_f_993_2436)">
<path d="M1621.89 4228.39C1471.89 3923.67 1203.77 4472.26 1132.92 4813.39C1002.92 4781.8 752.106 4804.51 788.871 5148.03C834.827 5577.42 678.204 5537.15 1001.8 5399.3C1325.39 5261.46 1228.86 5245.39 1550.13 4934.54C1871.4 4623.69 1771.89 4533.11 1621.89 4228.39Z" fill="#6AFFD2"/>
</g>
<g filter="url(#filter3_f_993_2436)">
<path d="M-78.032 3269.07C-228.027 2964.35 -496.154 3512.94 -567.004 3854.07C-697.005 3822.48 -947.816 3845.19 -911.051 4188.7C-865.094 4618.1 -1021.72 4577.83 -698.123 4439.98C-374.528 4302.14 -471.065 4286.07 -149.793 3975.22C171.479 3664.37 71.9633 3573.79 -78.032 3269.07Z" fill="#6AFFD2"/>
</g>
<g filter="url(#filter4_f_993_2436)">
<path d="M982.201 7962.1C673.596 7877.99 773.574 8189.45 916.91 8354.6C788.026 8379.92 589.227 8464.1 825.093 8598.26C1119.93 8765.97 963.328 8795.54 1155.12 8641.08C1346.92 8486.63 1255.61 8508.55 1342.33 8281.71C1429.04 8054.87 1290.81 8046.21 982.201 7962.1Z" fill="#6AFFD2"/>
</g>
</g>
<defs>
<filter id="filter0_f_993_2436" x="-218.68" y="-114" width="1494.2" height="1494.2" filterUnits="userSpaceOnUse" color-interpolation-filters="sRGB">
<feFlood flood-opacity="0" result="BackgroundImageFix"/>
<feBlend mode="normal" in="SourceGraphic" in2="BackgroundImageFix" result="shape"/>
<feGaussianBlur stdDeviation="223.5" result="effect1_foregroundBlur_993_2436"/>
</filter>
<filter id="filter1_f_993_2436" x="-1367.18" y="5194.78" width="2174.31" height="1736.21" filterUnits="userSpaceOnUse" color-interpolation-filters="sRGB">
<feFlood flood-opacity="0" result="BackgroundImageFix"/>
<feBlend mode="normal" in="SourceGraphic" in2="BackgroundImageFix" result="shape"/>
<feGaussianBlur stdDeviation="300" result="effect1_foregroundBlur_993_2436"/>
</filter>
<filter id="filter2_f_993_2436" x="117.23" y="3471.43" width="2313.66" height="2690.64" filterUnits="userSpaceOnUse" color-interpolation-filters="sRGB">
<feFlood flood-opacity="0" result="BackgroundImageFix"/>
<feBlend mode="normal" in="SourceGraphic" in2="BackgroundImageFix" result="shape"/>
<feGaussianBlur stdDeviation="334" result="effect1_foregroundBlur_993_2436"/>
</filter>
<filter id="filter3_f_993_2436" x="-1582.69" y="2512.11" width="2313.66" height="2690.64" filterUnits="userSpaceOnUse" color-interpolation-filters="sRGB">
<feFlood flood-opacity="0" result="BackgroundImageFix"/>
<feBlend mode="normal" in="SourceGraphic" in2="BackgroundImageFix" result="shape"/>
<feGaussianBlur stdDeviation="334" result="effect1_foregroundBlur_993_2436"/>
</filter>
<filter id="filter4_f_993_2436" x="47.4141" y="7279.95" width="1988.39" height="2130.05" filterUnits="userSpaceOnUse" color-interpolation-filters="sRGB">
<feFlood flood-opacity="0" result="BackgroundImageFix"/>
<feBlend mode="normal" in="SourceGraphic" in2="BackgroundImageFix" result="shape"/>
<feGaussianBlur stdDeviation="334" result="effect1_foregroundBlur_993_2436"/>
</filter>
<clipPath id="clip0_993_2436">
<rect width="768" height="10265" fill="white"/>
</clipPath>
</defs>
</svg>
