<svg width="1280" height="9422" viewBox="0 0 1280 9422" fill="none" xmlns="http://www.w3.org/2000/svg">
<g clip-path="url(#clip0_993_2435)">
<g filter="url(#filter0_f_993_2435)">
<circle cx="881.067" cy="460.567" r="318.567" fill="#8CFFF1"/>
</g>
<g filter="url(#filter1_f_993_2435)">
<path d="M-1014.7 6585.66C-1145.28 6828.02 -736.667 6781.74 -513.5 6683.48C-490.127 6791.55 -395.915 6963.37 -206.046 6786.06C31.2898 6564.43 58.1464 6695.61 -127.149 6521.53C-312.443 6347.46 -290.752 6424.48 -576.89 6327.96C-863.029 6231.45 -884.129 6343.3 -1014.7 6585.66Z" fill="#52F5FF"/>
</g>
<g filter="url(#filter2_f_993_2435)">
<path d="M2368.79 4630.61C2209.56 4307.14 1924.93 4889.49 1849.72 5251.61C1711.72 5218.08 1445.48 5242.19 1484.5 5606.85C1533.29 6062.67 1367.03 6019.92 1710.54 5873.59C2054.05 5727.26 1951.57 5710.2 2292.61 5380.22C2633.66 5050.24 2528.02 4954.09 2368.79 4630.61Z" fill="#6AFFD2"/>
</g>
<g filter="url(#filter3_f_993_2435)">
<path d="M-383.707 3612.25C-542.934 3288.78 -827.561 3871.13 -902.772 4233.25C-1040.77 4199.72 -1307.02 4223.83 -1267.99 4588.49C-1219.21 5044.31 -1385.47 5001.56 -1041.96 4855.23C-698.45 4708.9 -800.928 4691.84 -459.884 4361.86C-118.84 4031.88 -224.481 3935.73 -383.707 3612.25Z" fill="#6AFFD2"/>
</g>
<g filter="url(#filter4_f_993_2435)">
<path d="M1232.21 8594.1C904.608 8504.82 1010.74 8835.44 1162.9 9010.76C1026.08 9037.64 815.047 9127 1065.43 9269.42C1378.41 9447.45 1212.17 9478.83 1415.77 9314.87C1619.37 9150.91 1522.44 9174.18 1614.49 8933.38C1706.55 8692.58 1559.8 8683.39 1232.21 8594.1Z" fill="#6AFFD2"/>
</g>
</g>
<defs>
<filter id="filter0_f_993_2435" x="115.5" y="-305" width="1531.13" height="1531.13" filterUnits="userSpaceOnUse" color-interpolation-filters="sRGB">
<feFlood flood-opacity="0" result="BackgroundImageFix"/>
<feBlend mode="normal" in="SourceGraphic" in2="BackgroundImageFix" result="shape"/>
<feGaussianBlur stdDeviation="223.5" result="effect1_foregroundBlur_993_2435"/>
</filter>
<filter id="filter1_f_993_2435" x="-1639.89" y="5693.4" width="2234.27" height="1769.21" filterUnits="userSpaceOnUse" color-interpolation-filters="sRGB">
<feFlood flood-opacity="0" result="BackgroundImageFix"/>
<feBlend mode="normal" in="SourceGraphic" in2="BackgroundImageFix" result="shape"/>
<feGaussianBlur stdDeviation="300" result="effect1_foregroundBlur_993_2435"/>
</filter>
<filter id="filter2_f_993_2435" x="812.641" y="3868.18" width="2373.82" height="2774.01" filterUnits="userSpaceOnUse" color-interpolation-filters="sRGB">
<feFlood flood-opacity="0" result="BackgroundImageFix"/>
<feBlend mode="normal" in="SourceGraphic" in2="BackgroundImageFix" result="shape"/>
<feGaussianBlur stdDeviation="334" result="effect1_foregroundBlur_993_2435"/>
</filter>
<filter id="filter3_f_993_2435" x="-1939.86" y="2849.82" width="2373.82" height="2774.01" filterUnits="userSpaceOnUse" color-interpolation-filters="sRGB">
<feFlood flood-opacity="0" result="BackgroundImageFix"/>
<feBlend mode="normal" in="SourceGraphic" in2="BackgroundImageFix" result="shape"/>
<feGaussianBlur stdDeviation="334" result="effect1_foregroundBlur_993_2435"/>
</filter>
<filter id="filter4_f_993_2435" x="281" y="7911.08" width="2028.54" height="2178.92" filterUnits="userSpaceOnUse" color-interpolation-filters="sRGB">
<feFlood flood-opacity="0" result="BackgroundImageFix"/>
<feBlend mode="normal" in="SourceGraphic" in2="BackgroundImageFix" result="shape"/>
<feGaussianBlur stdDeviation="334" result="effect1_foregroundBlur_993_2435"/>
</filter>
<clipPath id="clip0_993_2435">
<rect width="1280" height="9422" fill="white"/>
</clipPath>
</defs>
</svg>
