<svg width="338" height="256" viewBox="0 0 338 256" fill="none" xmlns="http://www.w3.org/2000/svg">
<g filter="url(#filter0_d_547_4406)">
<rect x="44.9883" y="4" width="276.247" height="180.004" rx="10" transform="rotate(8.30068 44.9883 4)" fill="#190C39"/>
</g>
<g clip-path="url(#clip0_547_4406)">
<path d="M155.888 131.51C156.707 131.172 157.639 131.107 158.543 131.24C159.245 131.344 159.925 131.597 160.483 131.985C161.091 132.38 161.577 132.91 161.955 133.475L163.853 132.075C163.319 131.182 162.605 130.465 161.76 129.934C160.723 129.322 159.598 128.952 158.387 128.824C157.175 128.696 155.97 128.875 154.885 129.274C153.686 129.759 152.65 130.522 151.829 131.572C151 132.671 150.508 133.922 150.309 135.267C150.11 136.612 150.22 137.952 150.695 139.244C151.136 140.429 151.899 141.509 152.907 142.32C153.965 143.138 155.218 143.68 156.53 143.823C157.584 143.978 158.667 143.935 159.729 143.684C160.691 143.419 161.64 142.897 162.352 142.239L160.939 140.35C160.407 140.832 159.789 141.198 159.092 141.401C158.396 141.604 157.671 141.649 156.969 141.546C156.066 141.412 155.242 141.087 154.506 140.52C153.82 139.96 153.306 139.274 153.015 138.467C152.731 137.611 152.62 136.627 152.753 135.73C152.885 134.833 153.218 133.966 153.795 133.186C154.372 132.406 155.069 131.847 155.888 131.51ZM155.817 114.292L162.841 115.33L161.921 121.557L164.43 121.928L166.579 107.38L164.07 107.01L163.187 112.988L156.163 111.951L157.046 105.972L154.537 105.601L152.388 120.149L154.897 120.52L155.817 114.292ZM167.54 122.387L170.049 122.758L172.198 108.21L169.689 107.84L167.54 122.387ZM182.839 110.444C181.952 109.855 180.928 109.5 179.867 109.394L175.351 108.727L173.21 123.225L175.718 123.595L176.337 119.411L178.343 119.707C179.397 119.863 180.48 119.819 181.492 119.561C182.404 119.289 183.195 118.795 183.764 118.064C184.341 117.284 184.731 116.374 184.871 115.428C185.011 114.481 184.9 113.497 184.574 112.584C184.247 111.67 183.633 110.968 182.839 110.444ZM181.15 117.016C180.525 117.433 179.635 117.556 178.531 117.393L176.675 117.119L177.529 111.339L179.385 111.614C180.489 111.777 181.305 112.152 181.783 112.732C182.262 113.311 182.46 114.053 182.32 115C182.18 115.946 181.826 116.607 181.15 117.016ZM207.612 113.492L198.697 126.99L201.557 127.412L203.555 124.297L211.081 125.408L212.093 128.969L215.003 129.398L210.379 113.85L207.619 113.443L207.612 113.492ZM204.825 122.295L208.569 116.383L210.444 123.125L204.825 122.295ZM177.262 132.58C176.204 131.762 174.944 131.27 173.589 131.07C172.234 130.87 170.928 131.033 169.636 131.453C168.437 131.938 167.351 132.694 166.579 133.751C165.751 134.85 165.258 136.101 165.06 137.446C164.861 138.791 165.021 140.139 165.446 141.423C165.886 142.608 166.7 143.696 167.708 144.506C168.766 145.325 170.026 145.816 171.381 146.016C172.736 146.216 174.042 146.053 175.334 145.633C176.534 145.148 177.569 144.385 178.391 143.335C179.219 142.236 179.712 140.985 179.911 139.64C180.109 138.295 179.949 136.948 179.524 135.663C179.041 134.421 178.27 133.39 177.262 132.58ZM176.317 141.756C175.805 142.444 175.107 143.003 174.339 143.348C173.52 143.685 172.637 143.758 171.785 143.632C170.932 143.506 170.115 143.131 169.422 142.621C168.735 142.062 168.222 141.375 167.988 140.526C167.705 139.67 167.586 138.736 167.726 137.789C167.866 136.843 168.192 136.025 168.768 135.245C169.28 134.557 169.978 133.998 170.746 133.654C171.565 133.316 172.448 133.243 173.301 133.369C174.154 133.495 174.97 133.87 175.663 134.38C176.35 134.939 176.863 135.626 177.097 136.475C177.381 137.332 177.499 138.266 177.359 139.212C177.219 140.159 176.836 141.018 176.317 141.756ZM263.067 144.491L262.728 146.783L267.294 147.457L265.484 159.713L268.042 160.091L269.853 147.835L274.418 148.509L274.757 146.218L263.067 144.491ZM257.553 153.705L251.427 142.771L249.32 142.46L247.171 157.008L249.729 157.386L251.179 147.571L257.306 158.505L259.413 158.816L261.562 144.268L259.003 143.891L257.553 153.705ZM195.685 134.538L190.28 141.63L187.056 133.263L183.895 132.796L181.746 147.344L184.455 147.744L185.942 137.68L189.472 146.754L195.597 138.953L194.096 149.117L196.805 149.517L198.954 134.969L195.693 134.488L195.685 134.538ZM209.445 137.181C208.558 136.592 207.483 136.229 206.422 136.124L201.857 135.449L199.708 149.997L202.267 150.375L202.885 146.19L204.892 146.486C205.945 146.642 207.078 146.606 208.091 146.348C209.002 146.075 209.793 145.581 210.413 144.858C210.989 144.078 211.38 143.168 211.52 142.222C211.66 141.275 211.549 140.292 211.222 139.378C210.845 138.457 210.239 137.705 209.445 137.181ZM207.749 143.803C207.123 144.22 206.234 144.343 205.08 144.172L203.173 143.891L204.027 138.111L205.933 138.393C207.037 138.556 207.853 138.931 208.382 139.518C208.86 140.098 209.058 140.84 208.918 141.787C208.836 142.691 208.424 143.394 207.749 143.803ZM194.374 122.94L195.386 126.501L198.296 126.931L193.672 111.382L190.912 110.975L182.04 124.529L184.9 124.952L186.898 121.836L194.374 122.94ZM191.912 113.922L193.787 120.665L188.168 119.835L191.912 113.922ZM217.209 137.717L214.651 137.339L212.502 151.887L222.235 153.325L222.574 151.033L215.399 149.973L217.209 137.717ZM224.35 153.586L226.908 153.964L229.057 139.416L226.499 139.038L224.35 153.586ZM119.075 154.784C118.61 158.279 118.285 160.827 118.151 162.08C118.179 162.237 118.15 162.436 118.078 162.578C118.048 162.778 118.026 162.927 118.026 162.927C117.923 163.625 117.92 164.337 118.026 165.014C118.322 164.396 118.525 163.714 118.628 163.016C118.665 162.767 119.303 159.145 120.314 153.338C120.257 153.38 120.199 153.423 120.192 153.473C119.774 153.869 119.4 154.323 119.075 154.784ZM119.384 80.5037C120.312 79.7753 121.212 78.89 121.918 77.9253C121.384 78.7628 119.329 81.9209 120.79 82.4422C122.401 82.9857 124.331 82.7617 128.318 79.0234C129.02 73.5781 129.619 68.8302 130.099 65.2357L128.292 64.9689C128.192 64.9541 128.142 64.9467 128.041 64.9319C127.038 64.7836 125.397 64.4394 124.536 62.6323C123.597 60.6608 123.819 58.81 123.968 57.4575C124.204 55.507 124.225 51.8956 122.061 49.5396C120.554 47.9425 116.093 46.2144 111.578 47.2783C110.092 47.6189 107.069 48.6486 104.111 49.5862C101.418 50.4612 97.979 51.5313 96.9756 51.3831C98.7417 50.8803 101.111 50.1104 103.718 49.1209C106.698 48.0339 109.844 46.8695 111.387 46.4866C114.466 45.7705 120.087 46.2444 122.608 48.9586C124.994 51.551 124.986 55.4189 124.735 57.469C124.586 58.8216 124.394 60.4731 125.204 62.2728C125.952 63.8086 127.457 64.031 128.36 64.1644L128.561 64.194L130.166 64.4312C130.232 63.9828 130.291 63.5842 130.357 63.1358C128.737 62.9983 126.415 62.757 125.728 60.4665C124.906 57.6979 127.189 51.2644 123.588 47.8815C119.986 44.4986 113.461 44.2475 107.256 46.6908C101.108 49.0917 92.9564 52.2148 83.13 54.5305C73.3035 56.8462 67.3129 57.4885 66.187 57.4749C65.104 57.5186 66.9075 58.4977 70.8564 59.1828C74.8053 59.868 78.1608 60.0582 78.1608 60.0582L109.204 51.2039C109.204 51.2039 82.285 59.9038 79.979 60.9377C77.6731 61.9716 75.901 62.168 75.8675 63.4357C75.8341 64.7035 77.4617 64.7912 81.8915 65.3438C86.3214 65.8963 87.3336 65.6385 88.905 65.4125C90.4764 65.1864 107.886 60.1219 107.886 60.1219C107.886 60.1219 89.1531 66.1619 86.3502 67.7841C83.5472 69.4064 86.1608 70.4543 87.8593 70.7561C89.608 71.0653 94.3108 71.5055 97.1111 70.5955C99.9114 69.6855 108.805 65.7048 108.805 65.7048C108.805 65.7048 99.9308 70.2484 98.1841 71.314C96.7752 72.175 95.9905 72.9754 96.1297 74.1159C96.3752 75.5776 98.8055 75.7839 102.186 75.1123C102.186 75.1123 105.666 74.4556 107.083 73.5448C108.506 72.5842 112.475 70.0141 112.475 70.0141C112.475 70.0141 107.677 73.6836 106.351 75.3713C105.076 77.0665 104.809 77.4852 105.156 78.6056C105.638 80.204 111.184 79.4451 112.925 78.0732C114.212 76.9907 115.457 75.851 116.617 74.5968C116.617 74.5968 114.629 76.9503 114.057 78.3931C113.485 79.8358 112.907 80.9723 114.339 81.3366C115.908 81.8229 117.406 82.0951 119.384 80.5037ZM124.307 115.899C124.472 115.822 124.637 115.744 124.802 115.667C125.133 115.512 125.406 115.4 125.636 115.23C126.074 115.04 126.519 114.801 126.958 114.611C127.427 111.779 127.954 108.904 128.424 106.071C127.673 105.604 126.871 105.129 126.02 104.647C125.97 104.64 125.927 104.582 125.877 104.575C125.784 104.51 125.734 104.503 125.641 104.438C125.068 104.15 124.553 103.82 123.93 103.524C123.222 103.114 122.506 102.754 121.797 102.343C116.39 104.243 115.203 105.34 114.842 107.781C114.334 111.219 117.066 113.201 121.706 117.195C122.597 116.716 123.48 116.286 124.307 115.899ZM119.041 108.86C119.041 108.86 119.013 106.616 125.058 104.912C125.216 104.885 125.381 104.807 125.539 104.78C125.081 108.225 124.624 111.67 124.216 115.122C121.686 112.814 118.79 110.554 119.041 108.86ZM121.372 152.425C121.077 152.687 120.782 152.949 120.494 153.161C121.662 155.319 121.282 157.197 120.119 159.52C120.996 158.784 122.818 156.864 121.976 153.889C121.791 153.404 121.607 152.918 121.372 152.425ZM122.081 131.658C122.552 132.287 123.109 133.031 123.665 133.775C124.008 134.233 124.35 134.691 124.736 135.206C124.779 135.263 124.871 135.328 124.957 135.442C128.803 133.007 132.326 130.676 132.841 127.189C133.246 124.449 130.955 121.565 128.59 119.179C128.317 119.292 128.044 119.404 127.764 119.566C127.103 119.876 126.499 120.143 125.946 120.418C125.946 120.418 125.896 120.41 125.889 120.46C125.773 120.545 125.616 120.573 125.501 120.657C124.725 121.052 124.006 121.404 123.338 121.763C122.945 125.116 122.502 128.462 122.081 131.658ZM125.865 120.966C128.823 123.846 129.9 125.584 129.649 127.277C129.392 129.021 127.234 130.79 123.782 133.334C124.421 129.356 125.132 125.236 125.865 120.966ZM151.25 75.7928C151.25 75.7928 154.306 79.4005 155.391 80.7316C156.476 82.0628 159.626 83.648 159.626 83.648C162.667 85.2682 165.054 85.7734 165.711 84.4451C166.224 83.401 165.662 82.3506 164.555 81.1689C163.191 79.6438 156.009 72.7286 156.009 72.7286C156.009 72.7286 163.372 79.1106 165.79 80.7913C168.207 82.4721 172.836 83.4104 174.6 83.62C176.363 83.8295 179.118 83.5747 176.904 81.2113C174.69 78.8478 158.503 67.6497 158.503 67.6497C158.503 67.6497 173.647 77.5739 175.144 78.2022C176.583 78.873 177.484 79.3625 181.878 80.1642C186.278 80.916 187.811 81.2952 188.196 80.0793C188.573 78.9133 186.883 78.2055 184.982 76.4992C183.074 74.8428 159.82 58.7317 159.82 58.7317L186.977 76.183C186.977 76.183 190.244 76.9711 194.223 77.4569C198.201 77.9428 200.211 77.5269 199.186 77.172C198.162 76.817 192.556 74.5125 183.818 69.4547C175.081 64.3968 168.173 59.1002 162.99 54.9745C157.799 50.8987 151.437 49.1953 147.011 51.3924C142.585 53.5895 142.918 60.3585 141.324 62.8212C140.004 64.8153 137.711 64.3747 136.12 64.0379C136.061 64.4365 135.995 64.8849 135.878 65.3259L137.534 65.5704L137.735 65.6001C138.638 65.7335 140.143 65.9558 141.302 64.7016C142.591 63.263 142.892 61.5765 143.141 60.2387C143.493 58.2035 144.604 54.4986 147.637 52.7067C150.835 50.8373 156.353 52.0087 159.094 53.5845C160.468 54.3474 163.142 56.3716 165.674 58.3236C167.883 60.0245 169.929 61.4467 171.474 62.4386C170.42 62.283 167.488 60.2716 165.163 58.6555C162.66 56.8603 160.056 55.0503 158.682 54.2873C154.668 51.9634 149.897 52.3278 147.993 53.421C145.19 55.0433 144.216 58.5139 143.879 60.4495C143.63 61.7873 143.3 63.6731 141.838 65.239C140.542 66.7274 138.871 66.5825 137.818 66.4269C137.717 66.412 137.667 66.4046 137.567 66.3898L135.761 66.123C135.13 69.6953 134.338 74.3637 133.45 79.6797C136.222 84.5181 138.098 85.3552 139.755 85.2436C141.304 85.167 140.299 81.5568 139.98 80.5934C140.428 81.7285 140.99 82.7789 141.661 83.7943C143.044 85.8822 144.607 86.0621 146.141 86.0852C147.676 86.1082 147.394 84.8957 147.263 83.3491C147.133 81.8026 145.91 78.9748 145.91 78.9748C146.665 80.4608 147.519 81.9616 148.439 83.3701C149.709 85.1867 154.792 87.5666 155.722 86.1259C156.321 85.1962 156.244 84.6758 155.513 82.6841C154.832 80.6999 151.25 75.7928 151.25 75.7928ZM134.186 57.6942C134.989 57.8128 135.828 57.6822 136.547 57.3302C137.265 56.9781 137.913 56.412 138.317 55.759C138.728 55.0561 138.946 54.2738 138.914 53.4544C138.881 52.635 138.583 51.8783 138.119 51.1989C137.648 50.5693 136.954 50.0596 136.174 49.7915C135.393 49.5235 134.583 49.4547 133.779 49.6923C132.982 49.8801 132.249 50.3318 131.752 50.9202C131.205 51.5011 130.836 52.2612 130.718 53.0583C130.637 53.6064 130.664 54.1194 130.791 54.6473C130.918 55.1751 131.153 55.668 131.503 56.076C131.845 56.5339 132.203 56.8921 132.675 57.1655C133.097 57.4315 133.634 57.6127 134.186 57.6942ZM143.057 89.9568C143.057 89.9568 143.369 87.152 138.848 86.1787C134.226 85.1905 133.731 87.1537 133.721 87.9159C134.072 87.9677 134.358 88.1118 134.343 88.2115C134.329 88.3111 134.063 88.3737 133.762 88.3292C133.903 89.1136 134.472 90.1142 136.332 91.407C137.87 92.4487 138.68 92.5175 139.656 92.5088C139.656 92.5088 140.664 93.3196 140.509 94.3658C140.362 95.3622 138.319 97.0459 129.487 99.9158C133.242 77.9689 136.549 58.705 136.549 58.705L137.05 58.7791C137.251 58.8088 137.467 58.7388 137.639 58.6115C137.812 58.4843 137.942 58.2998 137.971 58.1006L138.008 57.8514C138.023 57.7518 138.037 57.6522 138.002 57.5451C137.966 57.4381 137.931 57.331 137.838 57.2664C137.313 57.6979 136.752 58.0223 136.106 58.2323C135.46 58.4423 134.793 58.4456 134.141 58.3493C133.488 58.2529 132.858 58.0071 132.293 57.6691C131.728 57.331 131.242 56.8011 130.914 56.2436C130.799 56.3284 130.742 56.3708 130.677 56.4631C130.612 56.5553 130.597 56.6549 130.582 56.7546L130.546 57.0037C130.516 57.203 130.587 57.4171 130.715 57.5888C130.844 57.7605 131.03 57.8898 131.231 57.9194L131.732 57.9935C131.732 57.9935 129.309 76.828 126.466 98.5023C127.117 98.9548 127.768 99.4073 128.512 99.9244C128.605 99.9891 128.748 100.061 128.841 100.126C130.565 101.297 132.01 102.274 133.211 103.164C137.877 102.122 142.479 100.817 144.188 98.2691C147.246 93.5283 143.057 89.9568 143.057 89.9568ZM137.106 87.9068C136.604 87.8327 136.239 87.5243 136.283 87.2253C136.328 86.9264 136.766 86.7366 137.267 86.8107C137.769 86.8848 138.134 87.1932 138.09 87.4922C138.045 87.7911 137.607 87.9809 137.106 87.9068ZM119.811 149.802C120.286 149.363 120.711 148.917 121.179 148.528C121.648 145.695 122.22 142.522 122.778 139.091C122.349 138.519 121.871 137.939 121.35 137.302C121.171 137.123 121.05 136.902 120.872 136.723C120.658 136.436 120.436 136.2 120.215 135.964C118.619 137.051 115.432 139.533 115.064 142.025C114.63 144.964 117.048 148.376 118.889 150.837C119.156 150.418 119.459 150.106 119.811 149.802ZM121.262 137.9C120.737 142.15 120.213 146.043 119.77 149.389C118.438 146.952 117.013 144.451 117.241 142.906C117.455 141.461 118.55 139.943 121.262 137.9ZM127.965 100.505C118.873 94.377 117.182 91.9382 117.337 90.892C117.491 89.8458 118.691 89.3611 118.691 89.3611C119.615 89.7012 120.418 89.8198 122.191 89.2672C124.338 88.6171 125.18 87.7742 125.541 87.064C125.24 87.0195 125.004 86.8828 125.019 86.7832C125.033 86.6835 125.349 86.6284 125.7 86.6802L125.708 86.6304C125.868 85.8905 125.904 83.9104 121.244 83.5275C116.635 83.152 116.122 85.9272 116.122 85.9272C116.122 85.9272 111.072 88.1848 112.744 93.5227C114.197 98.268 123.735 102.07 129.079 105.455C134.373 108.834 133.698 110.974 133.698 110.974C133.419 112.867 129.311 114.297 125.992 115.945C122.672 117.592 115.763 120.288 115.13 124.573C114.549 128.509 118.063 132.133 121.426 136.092C124.839 140.058 125.792 142.286 125.512 144.179C125.13 146.769 120.3 149.62 117.452 153.628C114.604 157.636 117.975 165.007 117.143 161.27C116.261 157.525 117.381 155.145 119.556 152.921C122.212 150.208 127.37 147.915 127.966 143.879C128.466 140.492 124.088 135.772 124.088 135.772C120.321 130.736 117.879 127.83 118.203 125.638C118.527 123.445 120.921 121.814 127.408 118.852C133.837 115.933 137.52 114.949 138.065 111.263C138.543 108.024 137.056 106.634 127.965 100.505ZM122.61 84.6965C123.112 84.7706 123.476 85.079 123.432 85.3779C123.388 85.6768 122.95 85.8666 122.448 85.7925C121.946 85.7184 121.582 85.41 121.626 85.1111C121.67 84.8122 122.108 84.6223 122.61 84.6965ZM237.78 140.756L228.858 154.303L231.718 154.725L233.716 151.61L241.242 152.721L242.254 156.282L245.164 156.711L240.539 141.163L237.78 140.756ZM234.986 149.608L238.73 143.696L240.605 150.438L234.986 149.608Z" fill="white"/>
</g>
<defs>
<filter id="filter0_d_547_4406" x="0.339844" y="0.337616" width="336.664" height="255.325" filterUnits="userSpaceOnUse" color-interpolation-filters="sRGB">
<feFlood flood-opacity="0" result="BackgroundImageFix"/>
<feColorMatrix in="SourceAlpha" type="matrix" values="0 0 0 0 0 0 0 0 0 0 0 0 0 0 0 0 0 0 127 0" result="hardAlpha"/>
<feOffset dy="15"/>
<feGaussianBlur stdDeviation="10"/>
<feComposite in2="hardAlpha" operator="out"/>
<feColorMatrix type="matrix" values="0 0 0 0 0 0 0 0 0 0 0 0 0 0 0 0 0 0 0.11 0"/>
<feBlend mode="normal" in2="BackgroundImageFix" result="effect1_dropShadow_547_4406"/>
<feBlend mode="normal" in="SourceGraphic" in2="effect1_dropShadow_547_4406" result="shape"/>
</filter>
<clipPath id="clip0_547_4406">
<rect width="221.309" height="134.127" fill="white" transform="translate(68.6172 25.5332) rotate(8.40273)"/>
</clipPath>
</defs>
</svg>
