<svg width="153" height="36" viewBox="0 0 153 36" fill="none" xmlns="http://www.w3.org/2000/svg">
<g clip-path="url(#clip0_767_1861)">
<path d="M42.0191 15.0117L38.7812 20.6126H61.1634V15.0117H42.0191Z" fill="url(#paint0_linear_767_1861)"/>
<path d="M50.0352 28.272H55.8435L55.893 0.190918L50.0352 6.70755V28.272Z" fill="url(#paint1_linear_767_1861)"/>
<path d="M49.3412 0.190918L35.1484 15.3918L38.8669 20.6128L55.8938 0.190918H49.3412Z" fill="url(#paint2_linear_767_1861)"/>
<path d="M53.5116 31.8994L58.7405 26.0962C59.1607 25.6288 58.8284 24.8853 58.1967 24.8853H47.7389C47.1073 24.8853 46.775 25.6288 47.1951 26.0962L52.4241 31.8994C52.7152 32.2219 53.2205 32.2219 53.5116 31.8994Z" fill="url(#paint3_linear_767_1861)"/>
<path d="M66.9336 27.5976H64.9838L64.5801 28.5106H64.0391L65.7006 24.856H66.2196L67.8866 28.5106H67.3346L66.9336 27.5976ZM66.7496 27.1822L65.9587 25.3917L65.1678 27.1822H66.7496Z" fill="#3C3C3B"/>
<path d="M70.9551 24.6399V28.5133H70.4717V28.0759C70.2465 28.3903 69.8895 28.5461 69.4803 28.5461C68.6674 28.5461 68.0742 27.9775 68.0742 27.1301C68.0742 26.2855 68.6674 25.7197 69.4803 25.7197C69.873 25.7197 70.2191 25.8645 70.4497 26.1625V24.6372H70.9551V24.6399ZM70.4552 27.1301C70.4552 26.5397 70.0515 26.1598 69.5215 26.1598C68.986 26.1598 68.5823 26.5397 68.5823 27.1301C68.5823 27.7206 68.986 28.106 69.5215 28.106C70.0515 28.106 70.4552 27.7178 70.4552 27.1301Z" fill="#3C3C3B"/>
<path d="M74.3725 25.7471L73.1559 28.5134H72.6424L71.4258 25.7471H71.9503L72.906 27.9667L73.881 25.7471H74.3725Z" fill="#3C3C3B"/>
<path d="M76.9519 26.8432V28.5133H76.474V28.1471C76.3065 28.3985 75.9962 28.5434 75.5623 28.5434C74.9334 28.5434 74.5352 28.2099 74.5352 27.7288C74.5352 27.286 74.8235 26.9197 75.6529 26.9197H76.4493V26.8213C76.4493 26.3976 76.2022 26.1544 75.7051 26.1544C75.3755 26.1544 75.0377 26.2692 74.8235 26.4523L74.6148 26.0751C74.9032 25.8455 75.3178 25.7197 75.7627 25.7197C76.5235 25.7197 76.9519 26.086 76.9519 26.8432ZM76.4493 27.666V27.2805H75.6721C75.175 27.2805 75.0322 27.4746 75.0322 27.7097C75.0322 27.9858 75.2629 28.158 75.6447 28.158C76.0236 28.158 76.323 27.9858 76.4493 27.666Z" fill="#3C3C3B"/>
<path d="M80.5271 26.9199V28.5108H80.0245V26.9773C80.0245 26.4334 79.7526 26.1682 79.2748 26.1682C78.7392 26.1682 78.3932 26.4853 78.3932 27.0867V28.5108H77.8906V25.7473H78.374V26.1655C78.5772 25.8839 78.9342 25.7227 79.3764 25.7227C80.0492 25.7199 80.5271 26.1054 80.5271 26.9199Z" fill="#3C3C3B"/>
<path d="M81.2188 27.1302C81.2188 26.3047 81.8312 25.7197 82.688 25.7197C83.1851 25.7197 83.5998 25.9247 83.8222 26.3102L83.4405 26.5562C83.262 26.2856 82.9901 26.1598 82.6853 26.1598C82.1388 26.1598 81.7296 26.5398 81.7296 27.1302C81.7296 27.7316 82.1388 28.1061 82.6853 28.1061C82.9901 28.1061 83.262 27.9803 83.4405 27.7097L83.8222 27.9503C83.6025 28.3357 83.1878 28.5462 82.688 28.5462C81.8339 28.5434 81.2188 27.953 81.2188 27.1302Z" fill="#3C3C3B"/>
<path d="M86.933 27.2968H84.6783C84.7415 27.7833 85.1342 28.1059 85.6862 28.1059C86.0103 28.1059 86.2849 27.9965 86.4882 27.7724L86.7655 28.0949C86.5129 28.3874 86.1311 28.5432 85.6698 28.5432C84.7717 28.5432 84.1758 27.9528 84.1758 27.1273C84.1758 26.3072 84.769 25.7168 85.5709 25.7168C86.3728 25.7168 86.944 26.2908 86.944 27.1409C86.944 27.1874 86.9385 27.2503 86.933 27.2968ZM84.6783 26.9359H86.4607C86.4085 26.4712 86.057 26.1432 85.5681 26.1432C85.0875 26.1432 84.7305 26.4658 84.6783 26.9359Z" fill="#3C3C3B"/>
<path d="M91.5109 25.7472L90.1625 28.7895C89.9153 29.3745 89.5967 29.5576 89.1711 29.5576C88.9047 29.5576 88.63 29.4702 88.457 29.3007L88.6712 28.9235C88.8086 29.0547 88.9816 29.1258 89.1683 29.1258C89.41 29.1258 89.561 29.0164 89.6983 28.6966L89.7862 28.5025L88.5586 25.7417H89.0832L90.0526 27.9558L91.0138 25.7417H91.5109V25.7472Z" fill="#3C3C3B"/>
<path d="M91.6484 27.1302C91.6484 26.3047 92.2609 25.7197 93.0957 25.7197C93.9306 25.7197 94.5375 26.3047 94.5375 27.1302C94.5375 27.9557 93.9279 28.5462 93.0957 28.5462C92.2609 28.5434 91.6484 27.953 91.6484 27.1302ZM94.0295 27.1302C94.0295 26.5398 93.6313 26.1598 93.0957 26.1598C92.5602 26.1598 92.1565 26.5398 92.1565 27.1302C92.1565 27.7206 92.5602 28.1061 93.0957 28.1061C93.6313 28.1061 94.0295 27.7179 94.0295 27.1302Z" fill="#3C3C3B"/>
<path d="M97.8242 25.7469V28.5132H97.3464V28.0949C97.1432 28.382 96.7944 28.5432 96.4017 28.5432C95.6821 28.5432 95.207 28.1523 95.207 27.3378V25.7441H95.7096V27.2804C95.7096 27.8243 95.9815 28.0949 96.4593 28.0949C96.9839 28.0949 97.3189 27.7724 97.3189 27.1765V25.7469H97.8242Z" fill="#3C3C3B"/>
<path d="M100.283 25.7197V26.2063C100.242 26.2008 100.203 26.2008 100.168 26.2008C99.6267 26.2008 99.2916 26.5288 99.2916 27.1357V28.5133H98.7891V25.7471H99.2724V26.2118C99.4509 25.8865 99.7969 25.7197 100.283 25.7197Z" fill="#3C3C3B"/>
<path d="M67.4015 33.5726C67.4015 34.4227 66.8083 34.9885 65.9954 34.9885C65.6027 34.9885 65.2567 34.8382 65.026 34.5402V35.9699H64.5234V32.1894H65.0068V32.6268C65.232 32.3179 65.589 32.1621 65.9982 32.1621C66.8083 32.1621 67.4015 32.7252 67.4015 33.5726ZM66.8907 33.5726C66.8907 32.9876 66.487 32.6022 65.9515 32.6022C65.4215 32.6022 65.0178 32.9876 65.0178 33.5726C65.0178 34.163 65.4215 34.5484 65.9515 34.5484C66.487 34.5484 66.8907 34.1603 66.8907 33.5726Z" fill="#3C3C3B"/>
<path d="M70.7341 33.3625V34.9534H70.2315V33.4199C70.2315 32.876 69.9596 32.6108 69.4818 32.6108C68.9463 32.6108 68.6002 32.9306 68.6002 33.5293V34.9534H68.0977V31.0801H68.6002V32.578C68.8089 32.3129 69.155 32.1598 69.5806 32.1598C70.259 32.1625 70.7341 32.548 70.7341 33.3625Z" fill="#3C3C3B"/>
<path d="M73.8699 33.2856V34.9557H73.392V34.5894C73.2245 34.8409 72.9142 34.9858 72.4802 34.9858C71.8513 34.9858 71.4531 34.6523 71.4531 34.1712C71.4531 33.7284 71.7415 33.3621 72.5709 33.3621H73.3673V33.2637C73.3673 32.84 73.1201 32.5967 72.623 32.5967C72.2935 32.5967 71.9557 32.7115 71.7415 32.8947L71.5328 32.5175C71.8211 32.2878 72.2358 32.1621 72.6807 32.1621C73.4414 32.1621 73.8699 32.5284 73.8699 33.2856ZM73.3673 34.1083V33.7229H72.5901C72.093 33.7229 71.9502 33.917 71.9502 34.1521C71.9502 34.4282 72.1809 34.6004 72.5626 34.6004C72.9416 34.6004 73.241 34.4282 73.3673 34.1083Z" fill="#3C3C3B"/>
<path d="M76.3026 32.1621V32.6487C76.2614 32.6432 76.2229 32.6432 76.1872 32.6432C75.6462 32.6432 75.3112 32.9712 75.3112 33.5781V34.9557H74.8086V32.1894H75.2919V32.6541C75.4677 32.3289 75.8137 32.1621 76.3026 32.1621Z" fill="#3C3C3B"/>
<path d="M81.5345 33.3621V34.953H81.0319V33.4195C81.0319 32.8755 80.771 32.6104 80.3124 32.6104C79.8098 32.6104 79.4775 32.9302 79.4775 33.5289V34.953H78.9749V33.4195C78.9749 32.8755 78.7113 32.6104 78.2554 32.6104C77.7528 32.6104 77.4205 32.9302 77.4205 33.5289V34.953H76.918V32.1867H77.4013V32.5995C77.6018 32.3179 77.9423 32.1621 78.3598 32.1621C78.7854 32.1621 79.1425 32.3289 79.3237 32.6733C79.5324 32.3589 79.9224 32.1621 80.3948 32.1621C81.0731 32.1621 81.5345 32.5475 81.5345 33.3621Z" fill="#3C3C3B"/>
<path d="M84.6667 33.2856V34.9557H84.1889V34.5894C84.0214 34.8409 83.711 34.9858 83.2771 34.9858C82.6482 34.9858 82.25 34.6523 82.25 34.1712C82.25 33.7284 82.5384 33.3621 83.3677 33.3621H84.1642V33.2637C84.1642 32.84 83.917 32.5967 83.4199 32.5967C83.0904 32.5967 82.7526 32.7115 82.5384 32.8947L82.3296 32.5175C82.618 32.2878 83.0327 32.1621 83.4776 32.1621C84.2356 32.1621 84.6667 32.5284 84.6667 33.2856ZM84.1642 34.1083V33.7229H83.387C82.8899 33.7229 82.7471 33.917 82.7471 34.1521C82.7471 34.4282 82.9778 34.6004 83.3595 34.6004C83.7385 34.6004 84.0378 34.4282 84.1642 34.1083Z" fill="#3C3C3B"/>
<path d="M85.3594 33.5726C85.3594 32.7471 85.9718 32.1621 86.8286 32.1621C87.3257 32.1621 87.7404 32.3644 87.9629 32.7525L87.5811 32.9986C87.4026 32.7279 87.1307 32.6022 86.8259 32.6022C86.2794 32.6022 85.8702 32.9822 85.8702 33.5726C85.8702 34.174 86.2794 34.5484 86.8259 34.5484C87.1307 34.5484 87.4026 34.4227 87.5811 34.1521L87.9629 34.3926C87.7431 34.7781 87.3285 34.9885 86.8286 34.9885C85.9718 34.9858 85.3594 34.3954 85.3594 33.5726Z" fill="#3C3C3B"/>
<path d="M91.0304 32.19L89.682 35.2324C89.4348 35.8174 89.1163 36.0005 88.6906 36.0005C88.4242 36.0005 88.1496 35.913 87.9766 35.7436L88.1908 35.3663C88.3281 35.4976 88.5011 35.5686 88.6878 35.5686C88.9295 35.5686 89.0806 35.4593 89.2179 35.1395L89.3058 34.9454L88.0782 32.1846H88.6027L89.5722 34.3987L90.5333 32.1846H91.0304V32.19Z" fill="#3C3C3B"/>
<path d="M97.1249 32.1895L96.0868 34.9557H95.6034L94.8015 32.8564L93.9886 34.9557H93.5053L92.4727 32.1895H92.9505L93.7579 34.3926L94.5983 32.1895H95.024L95.8478 34.4036L96.6772 32.1895H97.1249Z" fill="#3C3C3B"/>
<path d="M97.5391 31.3314C97.5391 31.1483 97.6846 31.0034 97.8796 31.0034C98.0746 31.0034 98.2201 31.1456 98.2201 31.3232C98.2201 31.5118 98.0773 31.6567 97.8796 31.6567C97.6874 31.6567 97.5391 31.5146 97.5391 31.3314ZM97.6297 32.1898H98.1323V34.956H97.6297V32.1898Z" fill="#3C3C3B"/>
<path d="M100.659 34.7949C100.508 34.9261 100.277 34.9889 100.049 34.9889C99.489 34.9889 99.1677 34.68 99.1677 34.1224V32.6026H98.6953V32.1898H99.1677V31.583H99.6702V32.1898H100.467V32.6026H99.6702V34.1005C99.6702 34.3985 99.8268 34.5652 100.107 34.5652C100.252 34.5652 100.395 34.5188 100.5 34.434L100.659 34.7949Z" fill="#3C3C3B"/>
<path d="M103.906 33.3625V34.9534H103.403V33.4199C103.403 32.876 103.132 32.6108 102.654 32.6108C102.118 32.6108 101.772 32.9306 101.772 33.5293V34.9534H101.27V31.0801H101.772V32.578C101.981 32.3129 102.327 32.1598 102.753 32.1598C103.428 32.1625 103.906 32.548 103.906 33.3625Z" fill="#3C3C3B"/>
<path d="M108.84 32.1902V34.9565H108.362V34.5383C108.159 34.8253 107.81 34.9866 107.417 34.9866C106.698 34.9866 106.223 34.5957 106.223 33.7811V32.1875H106.725V33.721C106.725 34.2649 106.997 34.5356 107.475 34.5356C107.999 34.5356 108.335 34.213 108.335 33.6171V32.1875H108.84V32.1902Z" fill="#3C3C3B"/>
<path d="M109.449 34.6635L109.658 34.2672C109.894 34.4339 110.27 34.5542 110.633 34.5542C111.1 34.5542 111.295 34.4121 111.295 34.177C111.295 33.5565 109.537 34.0922 109.537 32.9906C109.537 32.4959 109.982 32.1597 110.696 32.1597C111.059 32.1597 111.468 32.2526 111.709 32.4111L111.495 32.8075C111.243 32.6462 110.965 32.5888 110.693 32.5888C110.254 32.5888 110.037 32.7501 110.037 32.9688C110.037 33.6221 111.8 33.0891 111.8 34.1633C111.8 34.6635 111.339 34.9834 110.6 34.9834C110.136 34.9861 109.68 34.8467 109.449 34.6635Z" fill="#3C3C3B"/>
<path d="M13.1657 20.5695L9.18082 14.8401H8.94464H4.78402V20.5695H0V0H8.94464C14.4647 0 17.9195 2.85102 17.9195 7.46241C17.9195 10.5485 16.3568 12.8091 13.6682 13.9572L18.304 20.5695H13.1657ZM8.68099 3.87882H4.78402V11.0487H8.68099C11.603 11.0487 13.0805 9.69841 13.0805 7.46515C13.0778 5.20182 11.603 3.87882 8.68099 3.87882Z" fill="#3C3C3B"/>
<path d="M31.465 20.57L27.9827 15.7207L24.3796 20.57H19.3594L25.4698 12.6073L19.5653 4.76221H24.7311L28.098 9.37633L31.5501 4.76221H36.4522L30.5477 12.4898L36.6884 20.57H31.465Z" fill="#3C3C3B"/>
<path d="M76.3961 20.5695L72.4113 14.8401H72.1751H68.0117V20.5695H63.2305V0H72.1751C77.6951 0 81.1499 2.85102 81.1499 7.46241C81.1499 10.5485 79.5846 12.8091 76.8987 13.9572L81.5344 20.5695H76.3961ZM71.9087 3.87882H68.0117V11.0487H71.9087C74.8308 11.0487 76.3083 9.69841 76.3083 7.46515C76.3083 5.20182 74.8308 3.87882 71.9087 3.87882Z" fill="#3C3C3B"/>
<path d="M83.418 12.6642C83.418 7.90251 87.1062 4.52393 92.1566 4.52393C97.207 4.52393 100.865 7.90251 100.865 12.6642C100.865 17.426 97.2043 20.8046 92.1566 20.8046C87.109 20.8046 83.418 17.426 83.418 12.6642ZM96.2019 12.6642C96.2019 9.93076 94.4608 8.2852 92.1566 8.2852C89.8525 8.2852 88.0812 9.93076 88.0812 12.6642C88.0812 15.3977 89.8525 17.0433 92.1566 17.0433C94.4608 17.0433 96.2019 15.3977 96.2019 12.6642Z" fill="#3C3C3B"/>
<path d="M119.931 4.76172V20.5695H115.562V18.6888C114.351 20.0692 112.58 20.8045 110.633 20.8045C106.648 20.8045 103.844 18.5713 103.844 13.692V4.76172H108.449V13.0196C108.449 15.6629 109.63 16.841 111.668 16.841C113.794 16.841 115.329 15.4879 115.329 12.5795V4.76172H119.931Z" fill="#3C3C3B"/>
<path d="M134.449 19.8067C133.505 20.4818 132.118 20.8071 130.701 20.8071C126.949 20.8071 124.766 18.8964 124.766 15.1351V8.64037H122.316V5.11144H124.766V1.2627H129.372V5.11144H133.329V8.63764H129.372V15.0723C129.372 16.4226 130.11 17.1579 131.349 17.1579C132.027 17.1579 132.708 16.9529 133.211 16.5702L134.449 19.8067Z" fill="#3C3C3B"/>
<path d="M152.014 13.957H139.999C140.441 15.9251 142.125 17.1306 144.544 17.1306C146.228 17.1306 147.439 16.6303 148.532 15.6025L150.981 18.2458C149.507 19.9215 147.29 20.8016 144.426 20.8016C138.936 20.8016 135.363 17.3629 135.363 12.6613C135.363 7.92965 138.994 4.521 143.836 4.521C148.499 4.521 152.102 7.63717 152.102 12.7187C152.102 13.0768 152.044 13.5743 152.014 13.957ZM139.939 11.2836H147.763C147.439 9.28546 145.934 7.99252 143.866 7.99252C141.77 7.99252 140.263 9.25539 139.939 11.2836Z" fill="#3C3C3B"/>
</g>
<defs>
<linearGradient id="paint0_linear_767_1861" x1="61.3066" y1="19.8025" x2="39.605" y2="15.958" gradientUnits="userSpaceOnUse">
<stop stop-color="#77E2D4"/>
<stop offset="0.1767" stop-color="#77E2D4"/>
<stop offset="0.2057" stop-color="#77E2D4"/>
<stop offset="0.2393" stop-color="#66D4C9"/>
<stop offset="0.3054" stop-color="#3AAFAD"/>
<stop offset="0.3568" stop-color="#138F95"/>
<stop offset="0.6276" stop-color="#77E2D4"/>
<stop offset="0.7287" stop-color="#75E2D3"/>
<stop offset="0.7651" stop-color="#6EE1D0"/>
<stop offset="0.791" stop-color="#63DFCA"/>
<stop offset="0.812" stop-color="#52DDC1"/>
<stop offset="0.83" stop-color="#3CDAB7"/>
<stop offset="0.8456" stop-color="#21D6A9"/>
<stop offset="0.8597" stop-color="#02D29A"/>
<stop offset="0.8603" stop-color="#00D299"/>
<stop offset="1" stop-color="#138F95"/>
</linearGradient>
<linearGradient id="paint1_linear_767_1861" x1="57.8351" y1="27.5492" x2="48.8482" y2="2.74252" gradientUnits="userSpaceOnUse">
<stop stop-color="#138F95"/>
<stop offset="0.1406" stop-color="#77E2D4"/>
<stop offset="0.4532" stop-color="#75E2D3"/>
<stop offset="0.5658" stop-color="#6EE1D0"/>
<stop offset="0.646" stop-color="#63DFCA"/>
<stop offset="0.7109" stop-color="#52DDC1"/>
<stop offset="0.7665" stop-color="#3CDAB7"/>
<stop offset="0.8148" stop-color="#21D6A9"/>
<stop offset="0.8583" stop-color="#02D29A"/>
<stop offset="0.8603" stop-color="#00D299"/>
<stop offset="1" stop-color="#138F95"/>
</linearGradient>
<linearGradient id="paint2_linear_767_1861" x1="35.1486" y1="10.4019" x2="55.8944" y2="10.4019" gradientUnits="userSpaceOnUse">
<stop stop-color="#77E2D4"/>
<stop offset="0.1038" stop-color="#7EE4D7"/>
<stop offset="0.259" stop-color="#93EBDE"/>
<stop offset="0.4454" stop-color="#B4F6EA"/>
<stop offset="0.5" stop-color="#BFFAEE"/>
<stop offset="1" stop-color="#77E2D4"/>
</linearGradient>
<linearGradient id="paint3_linear_767_1861" x1="58.9271" y1="28.5125" x2="47.0073" y2="28.5125" gradientUnits="userSpaceOnUse">
<stop stop-color="#77E2D4"/>
<stop offset="0.1038" stop-color="#7EE4D7"/>
<stop offset="0.259" stop-color="#93EBDE"/>
<stop offset="0.4454" stop-color="#B4F6EA"/>
<stop offset="0.5" stop-color="#BFFAEE"/>
<stop offset="1" stop-color="#77E2D4"/>
</linearGradient>
<clipPath id="clip0_767_1861">
<rect width="152.1" height="36" fill="white"/>
</clipPath>
</defs>
</svg>
