<svg width="130" height="31" viewBox="0 0 130 31" fill="none" xmlns="http://www.w3.org/2000/svg">
<g clip-path="url(#clip0_547_4173)">
<path d="M35.9158 12.9258L33.1484 17.7488H52.2785V12.9258H35.9158Z" fill="url(#paint0_linear_547_4173)"/>
<path d="M42.7656 24.345H47.7301L47.7723 0.164062L42.7656 5.7756V24.345Z" fill="url(#paint1_linear_547_4173)"/>
<path d="M42.1735 0.164062L30.043 13.2537L33.2211 17.7496L47.7741 0.164062H42.1735Z" fill="url(#paint2_linear_547_4173)"/>
<path d="M45.7385 27.4696L50.2076 22.4724C50.5668 22.0699 50.2827 21.4297 49.7429 21.4297H40.8046C40.2647 21.4297 39.9807 22.0699 40.3398 22.4724L44.809 27.4696C45.0578 27.7474 45.4897 27.7474 45.7385 27.4696Z" fill="url(#paint3_linear_547_4173)"/>
<path d="M57.2084 23.7632H55.5418L55.1968 24.5494H54.7344L56.1545 21.4023H56.5981L58.0229 24.5494H57.5511L57.2084 23.7632ZM57.0511 23.4055L56.3751 21.8637L55.6991 23.4055H57.0511Z" fill="#3C3C3B"/>
<path d="M60.6459 21.2172V24.5526H60.2327V24.176C60.0403 24.4467 59.7351 24.5808 59.3854 24.5808C58.6906 24.5808 58.1836 24.0912 58.1836 23.3615C58.1836 22.6342 58.6906 22.147 59.3854 22.147C59.721 22.147 60.0168 22.2717 60.214 22.5283V21.2148H60.6459V21.2172ZM60.2187 23.3615C60.2187 22.8531 59.8736 22.5259 59.4206 22.5259C58.9629 22.5259 58.6178 22.8531 58.6178 23.3615C58.6178 23.87 58.9629 24.2019 59.4206 24.2019C59.8736 24.2019 60.2187 23.8676 60.2187 23.3615Z" fill="#3C3C3B"/>
<path d="M63.5655 22.1719L62.5256 24.554H62.0867L61.0469 22.1719H61.4952L62.312 24.0832L63.1453 22.1719H63.5655Z" fill="#3C3C3B"/>
<path d="M65.7726 23.1139V24.5521H65.3642V24.2367C65.221 24.4532 64.9558 24.578 64.5849 24.578C64.0474 24.578 63.707 24.2908 63.707 23.8766C63.707 23.4952 63.9535 23.1798 64.6624 23.1798H65.3431V23.0951C65.3431 22.7302 65.1318 22.5207 64.707 22.5207C64.4253 22.5207 64.1366 22.6196 63.9535 22.7773L63.7751 22.4525C64.0216 22.2548 64.376 22.1465 64.7563 22.1465C65.4064 22.1465 65.7726 22.4619 65.7726 23.1139ZM65.3431 23.8224V23.4905H64.6788C64.2539 23.4905 64.1319 23.6576 64.1319 23.8601C64.1319 24.0978 64.3291 24.2461 64.6553 24.2461C64.9792 24.2461 65.2351 24.0978 65.3431 23.8224Z" fill="#3C3C3B"/>
<path d="M68.8276 23.1794V24.5494H68.398V23.2289C68.398 22.7604 68.1657 22.5321 67.7572 22.5321C67.2995 22.5321 67.0038 22.8052 67.0038 23.323V24.5494H66.5742V22.1696H66.9873V22.5298C67.161 22.2873 67.4662 22.1484 67.8441 22.1484C68.4192 22.1461 68.8276 22.478 68.8276 23.1794Z" fill="#3C3C3B"/>
<path d="M69.418 23.3611C69.418 22.6502 69.9414 22.1465 70.6737 22.1465C71.0986 22.1465 71.453 22.323 71.6432 22.6549L71.3169 22.8668C71.1643 22.6337 70.9319 22.5255 70.6714 22.5255C70.2043 22.5255 69.8546 22.8526 69.8546 23.3611C69.8546 23.8789 70.2043 24.2014 70.6714 24.2014C70.9319 24.2014 71.1643 24.0931 71.3169 23.8601L71.6432 24.0672C71.4554 24.3991 71.1009 24.5804 70.6737 24.5804C69.9438 24.578 69.418 24.0696 69.418 23.3611Z" fill="#3C3C3B"/>
<path d="M74.302 23.505H72.3749C72.4288 23.924 72.7645 24.2018 73.2363 24.2018C73.5133 24.2018 73.748 24.1076 73.9217 23.9146L74.1588 24.1924C73.9428 24.4442 73.6166 24.5784 73.2222 24.5784C72.4547 24.5784 71.9453 24.07 71.9453 23.3591C71.9453 22.653 72.4523 22.1445 73.1377 22.1445C73.8231 22.1445 74.3113 22.6388 74.3113 23.3709C74.3113 23.4109 74.3066 23.465 74.302 23.505ZM72.3749 23.1943H73.8982C73.8536 22.7942 73.5532 22.5117 73.1354 22.5117C72.7246 22.5117 72.4195 22.7895 72.3749 23.1943Z" fill="#3C3C3B"/>
<path d="M78.2156 22.1707L77.0631 24.7905C76.8519 25.2943 76.5796 25.452 76.2158 25.452C75.9881 25.452 75.7533 25.3766 75.6055 25.2307L75.7886 24.9059C75.9059 25.0189 76.0538 25.0801 76.2134 25.0801C76.42 25.0801 76.5491 24.9859 76.6664 24.7105L76.7415 24.5434L75.6923 22.166H76.1406L76.9692 24.0726L77.7908 22.166H78.2156V22.1707Z" fill="#3C3C3B"/>
<path d="M78.332 23.3611C78.332 22.6502 78.8555 22.1465 79.569 22.1465C80.2826 22.1465 80.8013 22.6502 80.8013 23.3611C80.8013 24.0719 80.2803 24.5804 79.569 24.5804C78.8555 24.578 78.332 24.0696 78.332 23.3611ZM80.3671 23.3611C80.3671 22.8526 80.0267 22.5255 79.569 22.5255C79.1113 22.5255 78.7663 22.8526 78.7663 23.3611C78.7663 23.8695 79.1113 24.2014 79.569 24.2014C80.0267 24.2014 80.3671 23.8671 80.3671 23.3611Z" fill="#3C3C3B"/>
<path d="M83.6119 22.1703V24.5524H83.2035V24.1923C83.0298 24.4394 82.7317 24.5783 82.3961 24.5783C81.7811 24.5783 81.375 24.2417 81.375 23.5403V22.168H81.8046V23.4908C81.8046 23.9592 82.0369 24.1923 82.4453 24.1923C82.8937 24.1923 83.18 23.9145 83.18 23.4014V22.1703H83.6119Z" fill="#3C3C3B"/>
<path d="M85.7105 22.1465V22.5655C85.6753 22.5608 85.6424 22.5608 85.6119 22.5608C85.1495 22.5608 84.8631 22.8432 84.8631 23.3658V24.5521H84.4336V22.17H84.8467V22.5702C84.9993 22.2901 85.295 22.1465 85.7105 22.1465Z" fill="#3C3C3B"/>
<path d="M57.6084 28.9099C57.6084 29.6419 57.1013 30.1292 56.4066 30.1292C56.0709 30.1292 55.7752 29.9997 55.578 29.7431V30.9742H55.1484V27.7189H55.5616V28.0955C55.754 27.8295 56.0592 27.6953 56.4089 27.6953C57.1013 27.6953 57.6084 28.1802 57.6084 28.9099ZM57.1718 28.9099C57.1718 28.4062 56.8267 28.0743 56.369 28.0743C55.916 28.0743 55.5709 28.4062 55.5709 28.9099C55.5709 29.4183 55.916 29.7502 56.369 29.7502C56.8267 29.7502 57.1718 29.416 57.1718 28.9099Z" fill="#3C3C3B"/>
<path d="M60.4565 28.7272V30.0971H60.0269V28.7766C60.0269 28.3082 59.7946 28.0799 59.3861 28.0799C58.9284 28.0799 58.6327 28.3553 58.6327 28.8708V30.0971H58.2031V26.7617H58.6327V28.0516C58.8111 27.8233 59.1068 27.6915 59.4706 27.6915C60.0504 27.6938 60.4565 28.0257 60.4565 28.7272Z" fill="#3C3C3B"/>
<path d="M63.1359 28.6627V30.1009H62.7275V29.7855C62.5843 30.0021 62.3191 30.1268 61.9482 30.1268C61.4107 30.1268 61.0703 29.8397 61.0703 29.4254C61.0703 29.0441 61.3168 28.7286 62.0256 28.7286H62.7063V28.6439C62.7063 28.2791 62.4951 28.0696 62.0702 28.0696C61.7886 28.0696 61.4999 28.1684 61.3168 28.3261L61.1384 28.0013C61.3848 27.8036 61.7393 27.6953 62.1195 27.6953C62.7697 27.6953 63.1359 28.0107 63.1359 28.6627ZM62.7063 29.3712V29.0394H62.0421C61.6172 29.0394 61.4952 29.2065 61.4952 29.4089C61.4952 29.6466 61.6923 29.7949 62.0186 29.7949C62.3425 29.7949 62.5984 29.6466 62.7063 29.3712Z" fill="#3C3C3B"/>
<path d="M65.2144 27.6953V28.1143C65.1792 28.1096 65.1463 28.1096 65.1158 28.1096C64.6534 28.1096 64.367 28.392 64.367 28.9146V30.1009H63.9375V27.7189H64.3506V28.119C64.5008 27.8389 64.7966 27.6953 65.2144 27.6953Z" fill="#3C3C3B"/>
<path d="M69.6879 28.7286V30.0986H69.2584V28.7781C69.2584 28.3097 69.0354 28.0813 68.6434 28.0813C68.2138 28.0813 67.9298 28.3567 67.9298 28.8722V30.0986H67.5003V28.7781C67.5003 28.3097 67.2749 28.0813 66.8853 28.0813C66.4558 28.0813 66.1717 28.3567 66.1717 28.8722V30.0986H65.7422V27.7165H66.1553V28.0719C66.3267 27.8295 66.6177 27.6953 66.9745 27.6953C67.3383 27.6953 67.6435 27.8389 67.7984 28.1355C67.9768 27.8648 68.3101 27.6953 68.7138 27.6953C69.2936 27.6953 69.6879 28.0272 69.6879 28.7286Z" fill="#3C3C3B"/>
<path d="M72.3664 28.6627V30.1009H71.9579V29.7855C71.8148 30.0021 71.5495 30.1268 71.1787 30.1268C70.6411 30.1268 70.3008 29.8397 70.3008 29.4254C70.3008 29.0441 70.5472 28.7286 71.2561 28.7286H71.9368V28.6439C71.9368 28.2791 71.7256 28.0696 71.3007 28.0696C71.019 28.0696 70.7303 28.1684 70.5472 28.3261L70.3689 28.0013C70.6153 27.8036 70.9697 27.6953 71.35 27.6953C71.9978 27.6953 72.3664 28.0107 72.3664 28.6627ZM71.9368 29.3712V29.0394H71.2725C70.8477 29.0394 70.7256 29.2065 70.7256 29.4089C70.7256 29.6466 70.9228 29.7949 71.2491 29.7949C71.573 29.7949 71.8288 29.6466 71.9368 29.3712Z" fill="#3C3C3B"/>
<path d="M72.957 28.9099C72.957 28.199 73.4805 27.6953 74.2128 27.6953C74.6377 27.6953 74.9921 27.8695 75.1822 28.2037L74.856 28.4156C74.7034 28.1826 74.471 28.0743 74.2105 28.0743C73.7434 28.0743 73.3936 28.4015 73.3936 28.9099C73.3936 29.4277 73.7434 29.7502 74.2105 29.7502C74.471 29.7502 74.7034 29.6419 74.856 29.4089L75.1822 29.616C74.9944 29.9479 74.64 30.1292 74.2128 30.1292C73.4805 30.1268 72.957 29.6184 72.957 28.9099Z" fill="#3C3C3B"/>
<path d="M77.8055 27.7176L76.653 30.3374C76.4417 30.8411 76.1694 30.9988 75.8056 30.9988C75.5779 30.9988 75.3432 30.9235 75.1953 30.7776L75.3784 30.4528C75.4958 30.5657 75.6436 30.6269 75.8032 30.6269C76.0098 30.6269 76.1389 30.5328 76.2563 30.2574L76.3314 30.0903L75.2822 27.7129H75.7305L76.5591 29.6195L77.3806 27.7129H77.8055V27.7176Z" fill="#3C3C3B"/>
<path d="M83.0114 27.7188L82.1241 30.1008H81.711L81.0256 28.2931L80.3308 30.1008H79.9177L79.0352 27.7188H79.4436L80.1337 29.6159L80.8519 27.7188H81.2158L81.9199 29.6254L82.6288 27.7188H83.0114Z" fill="#3C3C3B"/>
<path d="M83.3672 26.9797C83.3672 26.822 83.4916 26.6973 83.6582 26.6973C83.8249 26.6973 83.9493 26.8197 83.9493 26.9727C83.9493 27.1351 83.8272 27.2598 83.6582 27.2598C83.4939 27.2598 83.3672 27.1374 83.3672 26.9797ZM83.4446 27.7188H83.8742V30.1009H83.4446V27.7188Z" fill="#3C3C3B"/>
<path d="M86.0337 29.9611C85.9047 30.0741 85.7075 30.1282 85.5127 30.1282C85.0338 30.1282 84.7592 29.8622 84.7592 29.382V28.0733H84.3555V27.7179H84.7592V27.1953H85.1887V27.7179H85.8694V28.0733H85.1887V29.3632C85.1887 29.6198 85.3225 29.7633 85.562 29.7633C85.6864 29.7633 85.8084 29.7233 85.8976 29.6504L86.0337 29.9611Z" fill="#3C3C3B"/>
<path d="M88.808 28.7272V30.0971H88.3785V28.7766C88.3785 28.3082 88.1461 28.0799 87.7377 28.0799C87.28 28.0799 86.9842 28.3553 86.9842 28.8708V30.0971H86.5547V26.7617H86.9842V28.0516C87.1626 27.8233 87.4584 27.6915 87.8222 27.6915C88.3996 27.6938 88.808 28.0257 88.808 28.7272Z" fill="#3C3C3B"/>
<path d="M93.026 27.7172V30.0993H92.6176V29.7391C92.4439 29.9863 92.1458 30.1252 91.8101 30.1252C91.1951 30.1252 90.7891 29.7886 90.7891 29.0871V27.7148H91.2186V29.0353C91.2186 29.5038 91.451 29.7368 91.8594 29.7368C92.3077 29.7368 92.5941 29.459 92.5941 28.9459V27.7148H93.026V27.7172Z" fill="#3C3C3B"/>
<path d="M93.5469 29.8475L93.7253 29.5062C93.9271 29.6498 94.2487 29.7534 94.5585 29.7534C94.9576 29.7534 95.1242 29.631 95.1242 29.4285C95.1242 28.8942 93.622 29.3556 93.622 28.407C93.622 27.9809 94.0022 27.6914 94.6125 27.6914C94.9224 27.6914 95.2721 27.7714 95.4787 27.908L95.2956 28.2493C95.0796 28.1104 94.8426 28.061 94.6102 28.061C94.2346 28.061 94.0492 28.1998 94.0492 28.3881C94.0492 28.9507 95.5561 28.4917 95.5561 29.4168C95.5561 29.8475 95.1618 30.1229 94.5304 30.1229C94.1337 30.1253 93.744 30.0052 93.5469 29.8475Z" fill="#3C3C3B"/>
<path d="M11.2527 17.7126L7.84685 12.779H7.64499H4.08891V17.7126H0V0H7.64499C12.363 0 15.3158 2.45505 15.3158 6.42597C15.3158 9.08345 13.9802 11.0301 11.6823 12.0187L15.6444 17.7126H11.2527ZM7.41965 3.34009H4.08891V9.5142H7.41965C9.91712 9.5142 11.1799 8.35141 11.1799 6.42832C11.1776 4.47935 9.91712 3.34009 7.41965 3.34009Z" fill="#3C3C3B"/>
<path d="M26.8935 17.7138L23.9172 13.5381L20.8376 17.7138H16.5469L21.7695 10.8571L16.7229 4.10156H21.1381L24.0158 8.07484L26.9663 4.10156H31.1561L26.1096 10.7559L31.358 17.7138H26.8935Z" fill="#3C3C3B"/>
<path d="M65.2957 17.7126L61.8898 12.779H61.688H58.1295V17.7126H54.043V0H61.688C66.4059 0 69.3588 2.45505 69.3588 6.42597C69.3588 9.08345 68.0208 11.0301 65.7252 12.0187L69.6874 17.7126H65.2957ZM61.4603 3.34009H58.1295V9.5142H61.4603C63.9577 9.5142 65.2206 8.35141 65.2206 6.42832C65.2206 4.47935 63.9577 3.34009 61.4603 3.34009Z" fill="#3C3C3B"/>
<path d="M71.2969 10.9043C71.2969 6.80387 74.4492 3.89453 78.7658 3.89453C83.0824 3.89453 86.2089 6.80387 86.2089 10.9043C86.2089 15.0046 83.0801 17.914 78.7658 17.914C74.4516 17.914 71.2969 15.0046 71.2969 10.9043ZM82.2233 10.9043C82.2233 8.55042 80.7352 7.13341 78.7658 7.13341C76.7965 7.13341 75.2825 8.55042 75.2825 10.9043C75.2825 13.2581 76.7965 14.6751 78.7658 14.6751C80.7352 14.6751 82.2233 13.2581 82.2233 10.9043Z" fill="#3C3C3B"/>
<path d="M102.504 4.09961V17.7118H98.7696V16.0924C97.7345 17.2811 96.2205 17.9143 94.5563 17.9143C91.1504 17.9143 88.7539 15.9912 88.7539 11.7896V4.09961H92.6902V11.2105C92.6902 13.4867 93.6996 14.5012 95.4412 14.5012C97.258 14.5012 98.5701 13.3361 98.5701 10.8316V4.09961H102.504Z" fill="#3C3C3B"/>
<path d="M114.913 17.0563C114.106 17.6377 112.92 17.9178 111.709 17.9178C108.503 17.9178 106.637 16.2725 106.637 13.0336V7.44089H104.543V4.40209H106.637V1.08789H110.573V4.40209H113.955V7.43854H110.573V12.9795C110.573 14.1423 111.204 14.7754 112.263 14.7754C112.843 14.7754 113.425 14.5989 113.854 14.2694L114.913 17.0563Z" fill="#3C3C3B"/>
<path d="M129.927 12.02H119.657C120.035 13.7147 121.474 14.7528 123.542 14.7528C124.981 14.7528 126.016 14.322 126.95 13.437L129.044 15.7131C127.784 17.156 125.889 17.914 123.441 17.914C118.749 17.914 115.695 14.9528 115.695 10.9043C115.695 6.82976 118.798 3.89453 122.937 3.89453C126.922 3.89453 130.002 6.5779 130.002 10.9537C130.002 11.262 129.952 11.6904 129.927 12.02ZM119.606 9.71792H126.293C126.016 7.99726 124.73 6.8839 122.962 6.8839C121.171 6.8839 119.883 7.97137 119.606 9.71792Z" fill="#3C3C3B"/>
</g>
<defs>
<linearGradient id="paint0_linear_547_4173" x1="52.4008" y1="17.0511" x2="33.8442" y2="13.7882" gradientUnits="userSpaceOnUse">
<stop stop-color="#77E2D4"/>
<stop offset="0.1767" stop-color="#77E2D4"/>
<stop offset="0.2057" stop-color="#77E2D4"/>
<stop offset="0.2393" stop-color="#66D4C9"/>
<stop offset="0.3054" stop-color="#3AAFAD"/>
<stop offset="0.3568" stop-color="#138F95"/>
<stop offset="0.6276" stop-color="#77E2D4"/>
<stop offset="0.7287" stop-color="#75E2D3"/>
<stop offset="0.7651" stop-color="#6EE1D0"/>
<stop offset="0.791" stop-color="#63DFCA"/>
<stop offset="0.812" stop-color="#52DDC1"/>
<stop offset="0.83" stop-color="#3CDAB7"/>
<stop offset="0.8456" stop-color="#21D6A9"/>
<stop offset="0.8597" stop-color="#02D29A"/>
<stop offset="0.8603" stop-color="#00D299"/>
<stop offset="1" stop-color="#138F95"/>
</linearGradient>
<linearGradient id="paint1_linear_547_4173" x1="49.4322" y1="23.7226" x2="41.6491" y2="2.39852" gradientUnits="userSpaceOnUse">
<stop stop-color="#138F95"/>
<stop offset="0.1406" stop-color="#77E2D4"/>
<stop offset="0.4532" stop-color="#75E2D3"/>
<stop offset="0.5658" stop-color="#6EE1D0"/>
<stop offset="0.646" stop-color="#63DFCA"/>
<stop offset="0.7109" stop-color="#52DDC1"/>
<stop offset="0.7665" stop-color="#3CDAB7"/>
<stop offset="0.8148" stop-color="#21D6A9"/>
<stop offset="0.8583" stop-color="#02D29A"/>
<stop offset="0.8603" stop-color="#00D299"/>
<stop offset="1" stop-color="#138F95"/>
</linearGradient>
<linearGradient id="paint2_linear_547_4173" x1="30.0431" y1="8.95686" x2="47.7745" y2="8.95686" gradientUnits="userSpaceOnUse">
<stop stop-color="#77E2D4"/>
<stop offset="0.1038" stop-color="#7EE4D7"/>
<stop offset="0.259" stop-color="#93EBDE"/>
<stop offset="0.4454" stop-color="#B4F6EA"/>
<stop offset="0.5" stop-color="#BFFAEE"/>
<stop offset="1" stop-color="#77E2D4"/>
</linearGradient>
<linearGradient id="paint3_linear_547_4173" x1="50.3671" y1="24.5532" x2="40.1793" y2="24.5532" gradientUnits="userSpaceOnUse">
<stop stop-color="#77E2D4"/>
<stop offset="0.1038" stop-color="#7EE4D7"/>
<stop offset="0.259" stop-color="#93EBDE"/>
<stop offset="0.4454" stop-color="#B4F6EA"/>
<stop offset="0.5" stop-color="#BFFAEE"/>
<stop offset="1" stop-color="#77E2D4"/>
</linearGradient>
<clipPath id="clip0_547_4173">
<rect width="130" height="31" fill="white"/>
</clipPath>
</defs>
</svg>
