<svg width="512" height="87" viewBox="0 0 512 87" fill="none" xmlns="http://www.w3.org/2000/svg">
<rect y="24.2705" width="508.919" height="62" rx="12" transform="rotate(-2.62287 0 24.2705)" fill="url(#paint0_linear_1051_318)"/>
<path d="M26.0525 63.2464L33.2126 45.2749L35.9098 45.1514L44.7829 62.3884L41.5113 62.5383L39.137 57.6918L40.4757 58.5064L29.9118 58.9903L31.2203 58.0545L29.2991 63.0977L26.0525 63.2464ZM34.6941 48.6607L31.5549 57.1632L30.8701 56.4188L39.2613 56.0344L38.7723 56.8326L34.794 48.6561L34.6941 48.6607ZM51.2655 62.3417C50.1666 62.392 49.1808 62.1786 48.3081 61.7013C47.4512 61.2067 46.7672 60.4789 46.256 59.518C45.7448 58.557 45.458 57.3939 45.3954 56.0287C45.3329 54.6635 45.5126 53.4873 45.9345 52.5003C46.3557 51.4967 46.9707 50.7177 47.7795 50.1634C48.6042 49.5918 49.566 49.2808 50.6648 49.2304C51.7137 49.1824 52.6496 49.3981 53.4724 49.8776C54.3111 50.3397 54.8835 50.9976 55.1895 51.8511L54.8648 51.866L54.4827 43.5247L57.6045 43.3817L58.4465 61.7625L55.3747 61.9032L55.2523 59.231L55.552 59.2172C55.3268 60.1285 54.8185 60.8692 54.0271 61.4394C53.2515 61.9921 52.331 62.2929 51.2655 62.3417ZM52.0297 59.9042C53.012 59.8592 53.7872 59.4816 54.3553 58.7715C54.9227 58.0448 55.1743 56.9822 55.1102 55.5837C55.0462 54.1851 54.6988 53.1583 54.0682 52.5031C53.4375 51.848 52.6311 51.5429 51.6487 51.5879C50.6664 51.6329 49.8829 52.0108 49.2982 52.7216C48.7301 53.4317 48.4781 54.486 48.5421 55.8845C48.6062 57.2831 48.9539 58.3182 49.5853 58.9901C50.2326 59.6445 51.0474 59.9491 52.0297 59.9042ZM65.542 61.4374L59.5199 49.075L62.8415 48.9229L67.2392 58.6068L66.465 58.6422L70.0589 48.5923L73.1806 48.4493L68.2891 61.3116L65.542 61.4374ZM80.0677 61.0223C78.9688 61.0726 77.9914 60.8588 77.1352 60.3808C76.2784 59.8861 75.5944 59.1583 75.0832 58.1974C74.572 57.2364 74.2851 56.0734 74.2226 54.7081C74.1601 53.3429 74.3398 52.1668 74.7617 51.1798C75.1829 50.1761 75.7979 49.3971 76.6067 48.8429C77.4148 48.272 78.3682 47.9613 79.4671 47.911C80.5326 47.8622 81.4772 48.0859 82.3007 48.582C83.1402 49.0608 83.7133 49.7353 84.0201 50.6055L83.7454 50.6181L83.8989 47.9583L86.8957 47.821C86.8694 48.3394 86.8435 48.8661 86.8179 49.4012C86.8091 49.9355 86.8164 50.4607 86.8401 50.9768L87.2737 60.4419L84.1769 60.5838L84.033 57.9876L84.3326 57.9739C84.1059 58.8519 83.5965 59.5676 82.8043 60.1211C82.0121 60.6746 81.0999 60.975 80.0677 61.0223ZM80.8319 58.5847C81.8142 58.5397 82.5894 58.1622 83.1575 57.4521C83.7249 56.7254 83.9765 55.6628 83.9124 54.2642C83.8484 52.8657 83.501 51.8389 82.8704 51.1837C82.2397 50.5285 81.4333 50.2235 80.451 50.2685C79.4687 50.3135 78.6935 50.691 78.1254 51.4011C77.5573 52.1111 77.3052 53.1654 77.3693 54.564C77.4334 55.9625 77.7728 56.9981 78.3875 57.6706C79.0182 58.3258 79.833 58.6305 80.8319 58.5847ZM90.673 60.2862L90.2394 50.8211C90.2158 50.305 90.1751 49.7813 90.1174 49.25C90.0597 48.7188 89.9857 48.1966 89.8955 47.6835L92.9173 47.5451L93.2815 50.0311L92.9818 50.0448C93.3409 49.1441 93.9011 48.4427 94.6623 47.9407C95.4227 47.422 96.319 47.139 97.3512 47.0917C98.833 47.0239 99.9676 47.389 100.755 48.1871C101.542 48.9853 101.976 50.2667 102.057 52.0316L102.411 59.7485L99.289 59.8915L98.9424 52.3244C98.8958 51.3088 98.6629 50.5937 98.2434 50.1791C97.8399 49.7472 97.2469 49.5491 96.4644 49.5849C95.4987 49.6292 94.7466 49.9639 94.208 50.5892C93.6694 51.2145 93.4229 52.0267 93.4687 53.0256L93.7948 60.1432L90.673 60.2862ZM111.526 59.5812C110.227 59.6406 109.075 59.4265 108.068 58.9387C107.078 58.4502 106.294 57.727 105.716 56.7691C105.138 55.7945 104.817 54.6246 104.755 53.2594C104.692 51.8942 104.905 50.7165 105.394 49.7265C105.899 48.7356 106.622 47.96 107.564 47.3997C108.507 46.8393 109.627 46.5294 110.925 46.4699C111.758 46.4318 112.572 46.528 113.366 46.7585C114.177 46.9716 114.843 47.3082 115.365 47.7681L114.515 49.9843C114.046 49.5887 113.525 49.3039 112.949 49.1301C112.39 48.9388 111.844 48.8554 111.311 48.8798C110.196 48.9309 109.338 49.3206 108.737 50.0488C108.153 50.7763 107.891 51.806 107.952 53.1379C108.014 54.4699 108.368 55.4797 109.017 56.1674C109.683 56.8543 110.573 57.1722 111.689 57.1211C112.205 57.0975 112.733 56.9732 113.273 56.7482C113.83 56.5225 114.332 56.1909 114.779 55.7533L115.827 57.8575C115.333 58.364 114.692 58.7688 113.905 59.0717C113.135 59.374 112.342 59.5438 111.526 59.5812ZM124.166 59.0021C122.052 59.099 120.369 58.5921 119.116 57.4816C117.864 56.3711 117.192 54.8002 117.099 52.769C117.038 51.4537 117.244 50.2931 117.715 49.2872C118.186 48.2812 118.867 47.4826 119.758 46.8912C120.665 46.299 121.734 45.9748 122.966 45.9183C124.182 45.8626 125.209 46.0742 126.049 46.5529C126.888 47.0317 127.537 47.7277 127.996 48.641C128.472 49.5535 128.738 50.6341 128.795 51.8828L128.833 52.707L119.643 53.128L119.567 51.4797L126.535 51.1605L126.126 51.5296C126.073 50.3641 125.783 49.4848 125.255 48.8917C124.744 48.2978 124.022 48.0222 123.09 48.0649C122.057 48.1122 121.275 48.5151 120.743 49.2736C120.227 50.0313 119.999 51.0678 120.059 52.3831L120.074 52.7078C120.137 54.073 120.516 55.0817 121.214 55.7338C121.927 56.3685 122.899 56.6576 124.131 56.6012C124.847 56.5684 125.509 56.4463 126.117 56.235C126.74 56.0062 127.325 55.6624 127.871 55.2036L128.892 57.2591C128.314 57.7693 127.616 58.1767 126.795 58.4813C125.975 58.7858 125.099 58.9594 124.166 59.0021ZM136.65 58.4303C135.551 58.4806 134.565 58.2672 133.692 57.7899C132.835 57.2953 132.151 56.5675 131.64 55.6065C131.129 54.6456 130.842 53.4825 130.78 52.1173C130.717 50.752 130.897 49.5759 131.319 48.5889C131.74 47.5852 132.355 46.8063 133.164 46.252C133.988 45.6804 134.95 45.3693 136.049 45.319C137.098 45.271 138.034 45.4867 138.856 45.9662C139.695 46.4283 140.268 47.0861 140.574 47.9397L140.249 47.9546L139.867 39.6133L142.989 39.4703L143.831 57.851L140.759 57.9918L140.636 55.3196L140.936 55.3058C140.711 56.2171 140.203 56.9578 139.411 57.5279C138.636 58.0807 137.715 58.3814 136.65 58.4303ZM137.414 55.9927C138.396 55.9477 139.171 55.5702 139.739 54.8601C140.307 54.1334 140.558 53.0708 140.494 51.6722C140.43 50.2737 140.083 49.2469 139.452 48.5917C138.822 47.9365 138.015 47.6315 137.033 47.6765C136.051 47.7215 135.267 48.0994 134.682 48.8102C134.114 49.5203 133.862 50.5746 133.926 51.9731C133.99 53.3717 134.338 54.4068 134.969 55.0786C135.617 55.733 136.432 56.0377 137.414 55.9927ZM159.489 57.384C157.99 57.4526 156.84 57.1132 156.039 56.3658C155.237 55.6184 154.8 54.4622 154.729 52.8971L154.462 47.0782L152.04 47.1892L151.932 44.8417L154.354 44.7307L154.207 41.5091L157.292 40.5669L157.476 44.5877L160.848 44.4333L160.955 46.7808L157.584 46.9352L157.841 52.5543C157.881 53.4201 158.075 54.0202 158.424 54.3545C158.773 54.6889 159.239 54.8428 159.822 54.8161C160.138 54.8016 160.403 54.7644 160.617 54.7045C160.848 54.6439 161.07 54.567 161.283 54.4739L161.396 56.9463C161.118 57.0758 160.806 57.1735 160.458 57.2395C160.128 57.3213 159.805 57.3695 159.489 57.384ZM169.529 56.9241C167.414 57.0209 165.731 56.5141 164.479 55.4036C163.227 54.293 162.554 52.7222 162.461 50.691C162.401 49.3757 162.606 48.2151 163.078 47.2091C163.549 46.2032 164.23 45.4045 165.12 44.8131C166.027 44.221 167.097 43.8967 168.329 43.8403C169.544 43.7846 170.572 43.9961 171.411 44.4749C172.251 44.9536 172.9 45.6497 173.359 46.563C173.834 47.4755 174.101 48.5561 174.158 49.8048L174.196 50.6289L165.005 51.0499L164.93 49.4016L171.898 49.0825L171.489 49.4515C171.436 48.2861 171.145 47.4068 170.617 46.8137C170.106 46.2198 169.385 45.9442 168.452 45.9869C167.42 46.0342 166.638 46.4371 166.105 47.1956C165.589 47.9533 165.361 48.9898 165.422 50.3051L165.437 50.6297C165.499 51.995 165.879 53.0037 166.576 53.6558C167.289 54.2905 168.262 54.5796 169.494 54.5231C170.21 54.4904 170.872 54.3683 171.479 54.1569C172.103 53.9281 172.688 53.5843 173.234 53.1255L174.254 55.181C173.677 55.6913 172.978 56.0987 172.158 56.4032C171.338 56.7077 170.461 56.8814 169.529 56.9241ZM182.911 56.311C181.613 56.3705 180.46 56.1564 179.453 55.6686C178.463 55.1801 177.679 54.4568 177.101 53.4989C176.523 52.5244 176.202 51.3545 176.14 49.9893C176.077 48.624 176.29 47.4464 176.779 46.4563C177.284 45.4655 178.008 44.6899 178.95 44.1296C179.892 43.5692 181.012 43.2593 182.311 43.1998C183.143 43.1616 183.957 43.2578 184.751 43.4884C185.562 43.7015 186.228 44.0381 186.75 44.498L185.9 46.7142C185.432 46.3186 184.91 46.0338 184.334 45.86C183.775 45.6687 183.229 45.5852 182.696 45.6097C181.581 45.6608 180.723 46.0504 180.122 46.7787C179.538 47.5062 179.277 48.5359 179.338 49.8678C179.399 51.1997 179.754 52.2096 180.402 52.8973C181.068 53.5842 181.958 53.9021 183.074 53.851C183.59 53.8274 184.118 53.7031 184.658 53.4781C185.215 53.2524 185.717 52.9207 186.164 52.4831L187.212 54.5874C186.718 55.0939 186.077 55.4986 185.29 55.8016C184.52 56.1039 183.727 56.2737 182.911 56.311ZM189.69 55.7502L188.848 37.3695L191.97 37.2265L192.35 45.5178L192 45.5338C192.342 44.6172 192.902 43.9075 193.68 43.4047C194.457 42.8853 195.361 42.6019 196.393 42.5546C197.892 42.486 199.027 42.8595 199.798 43.675C200.569 44.4739 200.994 45.7308 201.072 47.4457L201.428 55.2125L198.306 55.3555L197.957 47.7385C197.912 46.7562 197.688 46.0574 197.286 45.6421C196.899 45.2093 196.297 45.0116 195.482 45.049C194.533 45.0925 193.781 45.4272 193.225 46.0533C192.686 46.6619 192.439 47.4574 192.484 48.4397L192.812 55.6072L189.69 55.7502ZM212.44 54.7081L211.97 44.4438L209.548 44.5548L209.44 42.2072L212.737 42.0562L211.899 42.8954L211.811 40.9725C211.739 39.4074 212.085 38.207 212.847 37.3713C213.627 36.5347 214.799 36.0806 216.364 36.0089C216.73 35.9921 217.114 35.9996 217.516 36.0312C217.934 36.0621 218.297 36.1373 218.602 36.2567L218.714 38.7042C218.494 38.6308 218.233 38.5761 217.931 38.5398C217.629 38.5036 217.337 38.492 217.054 38.505C216.621 38.5248 216.233 38.626 215.891 38.8085C215.566 38.9902 215.311 39.2605 215.128 39.6193C214.96 39.9606 214.889 40.4144 214.915 40.9804L214.984 42.5038L214.51 41.975L218.281 41.8023L218.388 44.1498L215.092 44.3008L215.562 54.565L212.44 54.7081ZM226.174 54.3292C224.875 54.3887 223.739 54.1738 222.766 53.6845C221.793 53.1952 221.017 52.4716 220.439 51.5137C219.878 50.555 219.567 49.4014 219.505 48.0528C219.443 46.7042 219.648 45.5353 220.12 44.546C220.608 43.5393 221.314 42.7478 222.239 42.1715C223.163 41.5953 224.275 41.2774 225.573 41.2179C226.872 41.1584 228.008 41.3733 228.981 41.8626C229.972 42.3512 230.747 43.0748 231.308 44.0334C231.885 44.9747 232.205 46.1196 232.266 47.4682C232.328 48.8168 232.115 49.9944 231.627 51.0011C231.156 52.0071 230.45 52.7986 229.509 53.3756C228.584 53.9518 227.473 54.2697 226.174 54.3292ZM226.064 51.9317C227.046 51.8867 227.813 51.5095 228.365 50.8002C228.916 50.0743 229.159 49.012 229.095 47.6135C229.031 46.2149 228.692 45.1877 228.078 44.5318C227.464 43.8759 226.666 43.5704 225.683 43.6154C224.701 43.6604 223.934 44.0376 223.383 44.7469C222.831 45.4562 222.587 46.5101 222.652 47.9086C222.716 49.3072 223.055 50.3427 223.67 51.0153C224.284 51.6712 225.082 51.9767 226.064 51.9317ZM235.223 53.6644L234.793 44.2742C234.768 43.7415 234.727 43.2011 234.669 42.6532C234.627 42.1046 234.561 41.5737 234.47 41.0606L237.492 40.9222L238 44.3526L237.5 44.3754C237.629 43.5353 237.872 42.8318 238.229 42.2649C238.604 41.6971 239.068 41.2671 239.622 40.9748C240.176 40.6825 240.786 40.5211 241.452 40.4905C241.751 40.4768 241.994 40.4824 242.178 40.5073C242.362 40.5156 242.547 40.5488 242.733 40.607L242.834 43.3553C242.512 43.2366 242.233 43.1659 241.999 43.1433C241.781 43.1199 241.505 43.1158 241.172 43.1311C240.456 43.1639 239.855 43.3416 239.37 43.6641C238.901 43.9859 238.553 44.419 238.328 44.9632C238.119 45.5066 238.031 46.1197 238.062 46.8023L238.37 53.5202L235.223 53.6644ZM256.812 52.9257C255.713 52.976 254.727 52.7626 253.854 52.2853C252.997 51.7907 252.313 51.0629 251.802 50.102C251.291 49.141 251.004 47.9779 250.942 46.6127C250.879 45.2474 251.059 44.0713 251.481 43.0843C251.902 42.0807 252.517 41.3017 253.326 40.7474C254.15 40.1758 255.112 39.8648 256.211 39.8144C257.26 39.7664 258.196 39.9821 259.019 40.4616C259.857 40.9237 260.43 41.5816 260.736 42.4351L260.411 42.45L260.029 34.1087L263.151 33.9657L263.993 52.3465L260.921 52.4872L260.798 49.815L261.098 49.8012C260.873 50.7125 260.365 51.4532 259.573 52.0234C258.798 52.5761 257.877 52.8769 256.812 52.9257ZM257.576 50.4881C258.558 50.4431 259.333 50.0656 259.901 49.3555C260.469 48.6288 260.72 47.5662 260.656 46.1677C260.592 44.7691 260.245 43.7423 259.614 43.0871C258.984 42.432 258.177 42.1269 257.195 42.1719C256.213 42.2169 255.429 42.5948 254.844 43.3056C254.276 44.0157 254.024 45.07 254.088 46.4685C254.152 47.8671 254.5 48.9022 255.131 49.574C255.779 50.2284 256.594 50.5331 257.576 50.4881ZM267.367 52.1919L266.937 42.8017C266.912 42.2689 266.871 41.7286 266.813 41.1807C266.771 40.632 266.705 40.1012 266.614 39.5881L269.636 39.4497L270.144 42.88L269.644 42.9029C269.773 42.0628 270.016 41.3593 270.374 40.7923C270.748 40.2246 271.212 39.7946 271.766 39.5023C272.32 39.21 272.93 39.0485 273.596 39.018C273.895 39.0043 274.138 39.0099 274.322 39.0348C274.506 39.0431 274.691 39.0763 274.877 39.1345L274.978 41.8828C274.656 41.7641 274.377 41.6934 274.143 41.6708C273.925 41.6474 273.649 41.6433 273.316 41.6586C272.6 41.6914 271.999 41.8691 271.514 42.1916C271.045 42.5134 270.697 42.9464 270.472 43.4907C270.263 44.0341 270.175 44.6472 270.206 45.3298L270.514 52.0477L267.367 52.1919ZM277.196 51.7416L276.618 39.1298L279.74 38.9868L280.318 51.5986L277.196 51.7416ZM276.335 36.7653L276.195 33.7185L279.667 33.5595L279.806 36.6063L276.335 36.7653ZM287.404 51.274L281.382 38.9116L284.704 38.7595L289.101 48.4434L288.327 48.4788L291.921 38.4288L295.043 38.2858L290.151 51.1481L287.404 51.274ZM303.153 50.8028C301.039 50.8996 299.356 50.3928 298.104 49.2823C296.851 48.1717 296.179 46.6009 296.086 44.5697C296.026 43.2544 296.231 42.0938 296.702 41.0878C297.173 40.0819 297.854 39.2832 298.745 38.6918C299.652 38.0997 300.721 37.7754 301.953 37.719C303.169 37.6633 304.196 37.8748 305.036 38.3536C305.875 38.8323 306.524 39.5284 306.983 40.4417C307.459 41.3542 307.725 42.4348 307.783 43.6835L307.82 44.5076L298.63 44.9286L298.554 43.2804L305.522 42.9612L305.114 43.3302C305.06 42.1648 304.77 41.2855 304.242 40.6924C303.731 40.0985 303.009 39.8229 302.077 39.8656C301.045 39.9129 300.262 40.3158 299.73 41.0743C299.214 41.832 298.986 42.8685 299.046 44.1838L299.061 44.5084C299.124 45.8737 299.504 46.8824 300.201 47.5345C300.914 48.1692 301.887 48.4583 303.119 48.4019C303.834 48.3691 304.496 48.247 305.104 48.0356C305.727 47.8068 306.312 47.4631 306.859 47.0042L307.879 49.0597C307.301 49.57 306.603 49.9774 305.782 50.2819C304.962 50.5864 304.086 50.7601 303.153 50.8028ZM310.705 50.2066L310.275 40.8164C310.251 40.2836 310.209 39.7433 310.151 39.1954C310.109 38.6467 310.043 38.1159 309.953 37.6028L312.975 37.4644L313.482 40.8947L312.983 40.9176C313.111 40.0775 313.354 39.374 313.712 38.807C314.086 38.2393 314.55 37.8093 315.104 37.517C315.658 37.2246 316.268 37.0632 316.934 37.0327C317.234 37.019 317.476 37.0246 317.661 37.0495C317.844 37.0578 318.03 37.091 318.216 37.1492L318.317 39.8975C317.994 39.7788 317.716 39.7081 317.481 39.6855C317.263 39.6621 316.988 39.658 316.655 39.6733C315.939 39.7061 315.338 39.8838 314.852 40.2063C314.383 40.5281 314.036 40.9611 313.81 41.5053C313.602 42.0488 313.513 42.6618 313.544 43.3445L313.852 50.0624L310.705 50.2066ZM324.919 49.8057C323.837 49.8553 322.832 49.7762 321.905 49.5684C320.994 49.3432 320.22 49.0116 319.582 48.5736L320.36 46.4358C321.013 46.8397 321.727 47.1406 322.504 47.3386C323.28 47.5366 324.06 47.6177 324.842 47.5819C325.675 47.5437 326.284 47.374 326.671 47.0727C327.074 46.7706 327.265 46.3781 327.243 45.8953C327.225 45.5123 327.078 45.2187 326.802 45.0145C326.542 44.7929 326.126 44.6367 325.554 44.5461L323.035 44.186C321.959 44.0017 321.125 43.6395 320.533 43.0994C319.957 42.5585 319.649 41.8302 319.607 40.9145C319.571 40.132 319.747 39.4315 320.136 38.813C320.542 38.1938 321.128 37.6998 321.895 37.331C322.678 36.9448 323.603 36.7272 324.668 36.6784C325.601 36.6357 326.48 36.7205 327.308 36.9329C328.152 37.1445 328.868 37.4871 329.457 37.9606L328.651 40.0247C328.115 39.6321 327.509 39.3345 326.833 39.1319C326.156 38.9294 325.502 38.8426 324.869 38.8715C324.003 38.9112 323.378 39.0983 322.993 39.433C322.607 39.751 322.425 40.1514 322.447 40.6342C322.464 41.0005 322.594 41.3032 322.839 41.5422C323.099 41.7639 323.49 41.9212 324.012 42.0141L326.531 42.3741C327.656 42.5395 328.515 42.8839 329.106 43.4074C329.713 43.9135 330.038 44.6327 330.081 45.565C330.119 46.3975 329.927 47.1237 329.505 47.7437C329.083 48.3637 328.479 48.8501 327.695 49.203C326.91 49.556 325.985 49.7569 324.919 49.8057ZM344.658 48.9014C343.56 48.9518 342.582 48.738 341.726 48.26C340.869 47.7653 340.185 47.0375 339.674 46.0766C339.163 45.1156 338.876 43.9525 338.813 42.5873C338.751 41.2221 338.93 40.046 339.352 39.0589C339.774 38.0553 340.389 37.2763 341.197 36.7221C342.005 36.1512 342.959 35.8405 344.058 35.7902C345.123 35.7414 346.068 35.9651 346.891 36.4612C347.731 36.94 348.304 37.6145 348.611 38.4847L348.336 38.4972L348.49 35.8374L351.486 35.7002C351.46 36.2186 351.434 36.7453 351.409 37.2804C351.4 37.8147 351.407 38.3399 351.431 38.856L351.864 48.3211L348.768 48.4629L348.624 45.8668L348.923 45.8531C348.697 46.731 348.187 47.4468 347.395 48.0003C346.603 48.5538 345.691 48.8542 344.658 48.9014ZM345.423 46.4639C346.405 46.4189 347.18 46.0414 347.748 45.3313C348.316 44.6046 348.567 43.542 348.503 42.1434C348.439 40.7449 348.092 39.718 347.461 39.0629C346.83 38.4077 346.024 38.1026 345.042 38.1476C344.059 38.1926 343.284 38.5702 342.716 39.2802C342.148 39.9903 341.896 41.0446 341.96 42.4432C342.024 43.8417 342.363 44.8772 342.978 45.5498C343.609 46.205 344.424 46.5097 345.423 46.4639ZM355.264 48.1654L354.83 38.7003C354.806 38.1842 354.766 37.6605 354.708 37.1292C354.65 36.598 354.576 36.0758 354.486 35.5627L357.508 35.4243L357.872 37.9102L357.572 37.924C357.932 37.0233 358.492 36.3219 359.253 35.8199C360.013 35.3012 360.91 35.0182 361.942 34.9709C363.424 34.903 364.558 35.2682 365.346 36.0663C366.133 36.8645 366.567 38.1459 366.648 39.9107L367.001 47.6277L363.88 47.7707L363.533 40.2036C363.487 39.188 363.254 38.4729 362.834 38.0583C362.431 37.6263 361.838 37.4283 361.055 37.4641C360.089 37.5084 359.337 37.8431 358.799 38.4684C358.26 39.0937 358.014 39.9059 358.059 40.9048L358.385 48.0223L355.264 48.1654ZM375.218 47.5015C374.119 47.5519 373.133 47.3384 372.26 46.8612C371.403 46.3666 370.719 45.6388 370.208 44.6778C369.697 43.7169 369.41 42.5538 369.348 41.1885C369.285 39.8233 369.465 38.6472 369.887 37.6602C370.308 36.6565 370.923 35.8776 371.732 35.3233C372.556 34.7516 373.518 34.4406 374.617 34.3903C375.666 34.3422 376.602 34.558 377.425 35.0375C378.263 35.4996 378.836 36.1574 379.142 37.011L378.817 37.0258L378.435 28.6846L381.557 28.5416L382.399 46.9223L379.327 47.063L379.205 44.3908L379.504 44.3771C379.279 45.2884 378.771 46.0291 377.979 46.5992C377.204 47.1519 376.283 47.4527 375.218 47.5015ZM375.982 45.064C376.964 45.019 377.739 44.6415 378.308 43.9314C378.875 43.2047 379.127 42.142 379.062 40.7435C378.998 39.345 378.651 38.3181 378.02 37.663C377.39 37.0078 376.583 36.7027 375.601 36.7477C374.619 36.7927 373.835 37.1706 373.25 37.8815C372.682 38.5916 372.43 39.6459 372.494 41.0444C372.558 42.4429 372.906 43.4781 373.538 44.1499C374.185 44.8043 375 45.109 375.982 45.064ZM392.898 51.847L392.218 36.9876C392.194 36.4714 392.153 35.9478 392.096 35.4165C392.038 34.8853 391.964 34.3631 391.874 33.85L394.896 33.7116L395.292 36.3462L395.017 36.3588C395.226 35.465 395.719 34.7417 396.494 34.1889C397.285 33.6188 398.214 33.3093 399.28 33.2605C400.395 33.2094 401.381 33.4312 402.238 33.9258C403.094 34.4038 403.778 35.1233 404.289 36.0842C404.799 37.0285 405.086 38.1833 405.148 39.5485C405.211 40.9138 405.032 42.0982 404.61 43.1019C404.189 44.1055 403.575 44.8928 402.767 45.4637C401.958 46.018 400.996 46.3207 399.88 46.3718C398.831 46.4198 397.895 46.2041 397.073 45.7246C396.25 45.245 395.685 44.5785 395.379 43.7249L395.654 43.7124L396.02 51.704L392.898 51.847ZM398.896 44.0143C399.895 43.9685 400.679 43.5906 401.247 42.8806C401.814 42.1538 402.066 41.0912 402.002 39.6927C401.938 38.2941 401.59 37.2673 400.96 36.6121C400.329 35.957 399.514 35.6523 398.515 35.698C397.533 35.743 396.758 36.1206 396.19 36.8306C395.622 37.5407 395.37 38.595 395.434 39.9936C395.498 41.3921 395.845 42.4273 396.477 43.0991C397.107 43.7542 397.914 44.0593 398.896 44.0143ZM413.019 45.7699C411.92 45.8202 410.943 45.6064 410.087 45.1284C409.23 44.6337 408.546 43.9059 408.035 42.945C407.524 41.984 407.237 40.821 407.174 39.4557C407.112 38.0905 407.291 36.9144 407.713 35.9274C408.134 34.9237 408.749 34.1447 409.558 33.5905C410.366 33.0196 411.32 32.7089 412.419 32.6586C413.484 32.6098 414.429 32.8335 415.252 33.3296C416.092 33.8084 416.665 34.4829 416.972 35.3531L416.697 35.3657L416.85 32.7058L419.847 32.5686C419.821 33.087 419.795 33.6137 419.77 34.1488C419.761 34.6831 419.768 35.2083 419.792 35.7244L420.225 45.1895L417.129 45.3313L416.985 42.7352L417.284 42.7215C417.058 43.5994 416.548 44.3152 415.756 44.8687C414.964 45.4222 414.052 45.7226 413.019 45.7699ZM413.784 43.3323C414.766 43.2873 415.541 42.9098 416.109 42.1997C416.676 41.473 416.928 40.4104 416.864 39.0118C416.8 37.6133 416.453 36.5864 415.822 35.9313C415.191 35.2761 414.385 34.971 413.403 35.016C412.42 35.061 411.645 35.4386 411.077 36.1487C410.509 36.8587 410.257 37.913 410.321 39.3116C410.385 40.7101 410.724 41.7457 411.339 42.4182C411.97 43.0734 412.785 43.3781 413.784 43.3323ZM429.03 45.0364C427.532 45.105 426.382 44.7656 425.58 44.0182C424.779 43.2708 424.342 42.1146 424.27 40.5495L424.004 34.7306L421.581 34.8416L421.474 32.4941L423.896 32.3831L423.748 29.1615L426.834 28.2193L427.018 32.2401L430.389 32.0856L430.497 34.4332L427.125 34.5876L427.383 40.2067C427.422 41.0725 427.617 41.6726 427.966 42.0069C428.315 42.3413 428.781 42.4952 429.363 42.4685C429.68 42.454 429.945 42.4168 430.159 42.3569C430.39 42.2963 430.612 42.2194 430.824 42.1263L430.937 44.5987C430.66 44.7282 430.347 44.8259 430 44.8919C429.67 44.9737 429.347 45.0219 429.03 45.0364ZM433.087 44.6003L432.51 31.9885L435.631 31.8455L436.209 44.4573L433.087 44.6003ZM432.226 29.624L432.087 26.5772L435.558 26.4182L435.697 29.465L432.226 29.624ZM445.704 44.2726C443.59 44.3694 441.906 43.8626 440.654 42.7521C439.402 41.6415 438.73 40.0707 438.637 38.0395C438.576 36.7242 438.782 35.5636 439.253 34.5576C439.724 33.5517 440.405 32.753 441.295 32.1616C442.203 31.5695 443.272 31.2452 444.504 31.1888C445.72 31.1331 446.747 31.3446 447.586 31.8234C448.426 32.3021 449.075 32.9982 449.534 33.9115C450.01 34.824 450.276 35.9046 450.333 37.1533L450.371 37.9774L441.181 38.3984L441.105 36.7501L448.073 36.431L447.664 36.8C447.611 35.6346 447.32 34.7553 446.793 34.1622C446.282 33.5683 445.56 33.2927 444.628 33.3354C443.595 33.3827 442.813 33.7856 442.28 34.5441C441.765 35.3018 441.537 36.3383 441.597 37.6536L441.612 37.9782C441.674 39.3435 442.054 40.3522 442.751 41.0043C443.465 41.639 444.437 41.9281 445.669 41.8717C446.385 41.8389 447.047 41.7168 447.655 41.5054C448.278 41.2766 448.863 40.9329 449.409 40.474L450.429 42.5295C449.852 43.0398 449.153 43.4472 448.333 43.7517C447.513 44.0562 446.637 44.2299 445.704 44.2726ZM453.281 43.6752L452.847 34.2101C452.824 33.694 452.783 33.1703 452.725 32.6391C452.668 32.1078 452.594 31.5857 452.504 31.0726L455.525 30.9342L455.889 33.4201L455.59 33.4338C455.949 32.5331 456.509 31.8317 457.27 31.3297C458.031 30.8111 458.927 30.5281 459.959 30.4808C461.441 30.4129 462.576 30.778 463.363 31.5762C464.15 32.3743 464.584 33.6558 464.665 35.4206L465.019 43.1375L461.897 43.2805L461.55 35.7135C461.504 34.6979 461.271 33.9828 460.851 33.5682C460.448 33.1362 459.855 32.9381 459.072 32.974C458.107 33.0182 457.355 33.353 456.816 33.9783C456.277 34.6036 456.031 35.4157 456.077 36.4147L456.403 43.5322L453.281 43.6752ZM473.735 42.9885C472.236 43.0571 471.086 42.7178 470.284 41.9703C469.483 41.2229 469.046 40.0667 468.974 38.5016L468.708 32.6827L466.285 32.7937L466.178 30.4462L468.6 30.3352L468.453 27.1136L471.538 26.1714L471.722 30.1922L475.093 30.0378L475.201 32.3853L471.829 32.5397L472.087 38.1589C472.126 39.0246 472.321 39.6247 472.67 39.9591C473.019 40.2934 473.485 40.4473 474.067 40.4206C474.384 40.4061 474.649 40.3689 474.863 40.3091C475.094 40.2484 475.316 40.1715 475.528 40.0784L475.641 42.5508C475.364 42.6803 475.051 42.778 474.704 42.844C474.374 42.9258 474.051 42.974 473.735 42.9885ZM482.298 42.5962C481.216 42.6458 480.211 42.5667 479.284 42.3589C478.373 42.1337 477.599 41.8021 476.961 41.3641L477.739 39.2263C478.392 39.6302 479.106 39.9312 479.883 40.1292C480.659 40.3272 481.439 40.4082 482.221 40.3724C483.054 40.3343 483.663 40.1645 484.05 39.8632C484.453 39.5611 484.644 39.1686 484.622 38.6858C484.604 38.3029 484.457 38.0093 484.181 37.805C483.921 37.5834 483.505 37.4273 482.933 37.3366L480.414 36.9765C479.338 36.7923 478.504 36.4301 477.912 35.8899C477.336 35.349 477.028 34.6207 476.986 33.705C476.95 32.9225 477.126 32.222 477.515 31.6036C477.921 30.9844 478.507 30.4904 479.274 30.1215C480.057 29.7353 480.982 29.5178 482.047 29.4689C482.98 29.4262 483.859 29.5111 484.687 29.7234C485.531 29.935 486.247 30.2776 486.836 30.7511L486.03 32.8152C485.494 32.4226 484.888 32.125 484.212 31.9225C483.535 31.7199 482.88 31.6331 482.248 31.6621C481.382 31.7017 480.757 31.8889 480.372 32.2235C479.986 32.5415 479.804 32.9419 479.826 33.4247C479.843 33.791 479.973 34.0937 480.218 34.3328C480.478 34.5544 480.869 34.7117 481.391 34.8046L483.91 35.1647C485.035 35.33 485.894 35.6744 486.485 36.1979C487.092 36.704 487.417 37.4232 487.46 38.3556C487.498 39.188 487.306 39.9142 486.884 40.5342C486.462 41.1542 485.858 41.6406 485.074 41.9936C484.289 42.3465 483.364 42.5474 482.298 42.5962Z" fill="white"/>
<defs>
<linearGradient id="paint0_linear_1051_318" x1="254.46" y1="24.2705" x2="254.46" y2="86.2705" gradientUnits="userSpaceOnUse">
<stop stop-color="#8871F6"/>
<stop offset="1" stop-color="#7960F6"/>
</linearGradient>
</defs>
</svg>
