<svg width="299" height="332" viewBox="0 0 299 332" fill="none" xmlns="http://www.w3.org/2000/svg">
<g filter="url(#filter0_d_898_2818)">
<rect x="53.3281" y="17" width="204" height="217" rx="10" transform="rotate(8.30068 53.3281 17)" fill="white"/>
</g>
<path d="M75.3638 81.0333C74.3782 80.8895 73.524 80.5102 72.8012 79.8954C72.0903 79.2824 71.5785 78.468 71.2658 77.4522C70.9549 76.4245 70.8991 75.2279 71.0983 73.8624C71.2976 72.4969 71.6921 71.372 72.2819 70.4879C72.8735 69.5919 73.5975 68.9518 74.4539 68.5674C75.3223 68.1847 76.2492 68.0653 77.2348 68.2091C78.2322 68.3546 79.0864 68.7339 79.7974 69.347C80.5083 69.96 81.0192 70.7804 81.3301 71.808C81.6546 72.8255 81.7173 74.0171 81.518 75.3826C81.3188 76.7481 80.9175 77.878 80.3141 78.7723C79.7242 79.6564 79.0011 80.2907 78.1446 80.675C77.2882 81.0594 76.3612 81.1788 75.3638 81.0333ZM75.6574 79.0206C76.2393 79.1055 76.7664 79.0248 77.239 78.7784C77.7132 78.5202 78.1167 78.0818 78.4495 77.4634C78.7941 76.8467 79.0392 76.0396 79.1847 75.0422C79.332 74.0329 79.3277 73.1894 79.1719 72.5118C79.0297 71.8241 78.7674 71.2947 78.3849 70.9236C78.0042 70.5406 77.523 70.3067 76.9411 70.2218C76.383 70.1404 75.8609 70.2279 75.3748 70.4844C74.9023 70.7308 74.4937 71.1623 74.1491 71.779C73.818 72.3856 73.5789 73.1935 73.4316 74.2028C73.2861 75.2003 73.2845 76.0429 73.4267 76.7306C73.5807 77.4201 73.8481 77.9563 74.2288 78.3392C74.6231 78.7121 75.0993 78.9392 75.6574 79.0206ZM81.9956 81.819L82.2217 80.2694L87.8593 76.2896C88.332 75.9584 88.691 75.659 88.9362 75.3916C89.1814 75.1242 89.3518 74.8702 89.4476 74.6295C89.5569 74.3786 89.6281 74.1404 89.661 73.9148C89.7441 73.3448 89.6123 72.8769 89.2655 72.511C88.9204 72.1332 88.3679 71.8889 87.608 71.778C87.0024 71.6897 86.4346 71.716 85.9047 71.857C85.3867 71.9997 84.9175 72.2647 84.4972 72.6521L83.0582 71.1688C83.6404 70.5868 84.3671 70.1774 85.2384 69.9407C86.1233 69.6939 87.0763 69.6449 88.0975 69.7939C89 69.9256 89.762 70.1884 90.3837 70.5822C91.0189 70.966 91.4757 71.451 91.754 72.0373C92.0441 72.6253 92.1355 73.2875 92.0281 74.0237C91.9692 74.4274 91.8568 74.8233 91.6911 75.2115C91.527 75.5877 91.2645 75.9739 90.9036 76.3699C90.5426 76.766 90.0373 77.1955 89.3876 77.6586L84.5408 81.0807L84.1872 80.1378L91.4721 81.2006L91.1863 83.1599L81.9956 81.819ZM94.8839 76.8961C94.4801 76.8371 94.1557 76.6504 93.9106 76.3357C93.6672 76.0091 93.5766 75.6321 93.639 75.2046C93.7048 74.7534 93.8993 74.418 94.2224 74.1983C94.5472 73.9668 94.9115 73.8805 95.3152 73.9394C95.719 73.9983 96.0434 74.1851 96.2885 74.4997C96.5354 74.8025 96.6259 75.1796 96.5601 75.6308C96.4977 76.0583 96.3033 76.3937 95.9767 76.6371C95.6519 76.8686 95.2876 76.955 94.8839 76.8961ZM93.8938 83.6822C93.4901 83.6233 93.1656 83.4365 92.9205 83.1218C92.6771 82.7953 92.5866 82.4182 92.6489 81.9908C92.7148 81.5395 92.9092 81.2041 93.2323 80.9845C93.5572 80.7529 93.9214 80.6666 94.3252 80.7255C94.7289 80.7844 95.0533 80.9712 95.2985 81.2859C95.5453 81.5887 95.6358 81.9657 95.57 82.4169C95.5076 82.8444 95.3132 83.1799 94.9866 83.4233C94.6618 83.6548 94.2975 83.7411 93.8938 83.6822ZM102.046 84.9262C101.061 84.7824 100.206 84.4031 99.4836 83.7883C98.7726 83.1752 98.2608 82.3608 97.9482 81.3451C97.6373 80.3174 97.5815 79.1208 97.7807 77.7553C97.9799 76.3897 98.3745 75.2649 98.9643 74.3808C99.5558 73.4848 100.28 72.8446 101.136 72.4602C102.005 72.0776 102.932 71.9582 103.917 72.1019C104.915 72.2475 105.769 72.6268 106.48 73.2398C107.191 73.8529 107.702 74.6732 108.012 75.7009C108.337 76.7184 108.4 77.9099 108.2 79.2755C108.001 80.641 107.6 81.7709 106.996 82.6652C106.407 83.5493 105.683 84.1835 104.827 84.5679C103.971 84.9523 103.044 85.0717 102.046 84.9262ZM102.34 82.9135C102.922 82.9984 103.449 82.9176 103.921 82.6713C104.396 82.413 104.799 81.9747 105.132 81.3563C105.476 80.7396 105.722 79.9325 105.867 78.935C106.014 77.9257 106.01 77.0823 105.854 76.4047C105.712 75.7169 105.45 75.1875 105.067 74.8164C104.687 74.4335 104.205 74.1995 103.624 74.1146C103.065 74.0332 102.543 74.1208 102.057 74.3773C101.585 74.6236 101.176 75.0552 100.831 75.6719C100.5 76.2784 100.261 77.0864 100.114 78.0957C99.9685 79.0931 99.9668 79.9357 100.109 80.6234C100.263 81.3129 100.53 81.8491 100.911 82.2321C101.305 82.6049 101.782 82.8321 102.34 82.9135ZM110.833 86.0263L112.522 74.4488L113.384 75.6478L109.733 75.1151L110.016 73.1737L114.968 73.8961L113.149 86.3641L110.833 86.0263ZM121.435 87.573L123.254 75.105L128.384 75.8534C129.488 76.0145 130.406 76.3304 131.138 76.801C131.881 77.2733 132.418 77.8731 132.749 78.6004C133.079 79.3277 133.178 80.1485 133.044 81.0629C132.911 81.9772 132.582 82.7356 132.058 83.3382C131.533 83.9408 130.847 84.3622 130 84.6024C129.164 84.8443 128.194 84.8846 127.09 84.7235L123.242 84.1622L124.434 83.2264L123.75 87.9109L121.435 87.573ZM124.398 83.4758L123.528 82.203L127.269 82.7487C128.29 82.8977 129.087 82.7957 129.66 82.4427C130.246 82.0796 130.597 81.5062 130.711 80.7224C130.827 79.9269 130.655 79.2772 130.195 78.7735C129.747 78.2716 129.012 77.9461 127.991 77.7971L124.251 77.2514L125.45 76.2622L124.398 83.4758ZM134.185 89.4332L136.004 76.9652L137.91 77.2432L142.032 87.14L141.035 86.9945L147.724 78.6751L149.63 78.9531L147.828 91.4237L145.637 91.1041L146.937 82.0711L147.4 82.1387L141.731 89.0789L140.698 88.9282L137.177 80.6471L137.711 80.725L136.393 89.7554L134.185 89.4332Z" fill="#24222F"/>
<path opacity="0.4" d="M76.8923 50.3842L82.5919 51.2158L82.3956 52.5615L76.6959 51.73L76.8923 50.3842ZM76.3164 55.3289L82.776 56.2713L82.5751 57.6487L74.5322 56.4753L76.1491 45.3926L83.9703 46.5337L83.7694 47.9111L77.5314 47.0011L76.3164 55.3289ZM87.3394 58.3438L88.7553 48.6386L84.9556 48.0842L85.1565 46.7068L94.3235 48.0442L94.1225 49.4216L90.3227 48.8673L88.9068 58.5725L87.3394 58.3438ZM92.1961 59.0524L98.8319 48.702L100.399 48.9307L103.817 60.7479L102.155 60.5053L99.1616 49.6556L99.7949 49.748L93.8268 59.2903L92.1961 59.0524ZM94.7377 56.5936L95.3499 55.3894L101.588 56.2994L101.862 57.633L94.7377 56.5936ZM106.687 54.7311C106.391 54.688 106.153 54.5508 105.971 54.3194C105.79 54.0775 105.723 53.7983 105.77 53.4816C105.816 53.165 105.959 52.9218 106.199 52.752C106.44 52.5823 106.708 52.519 107.003 52.5621C107.288 52.6037 107.516 52.7394 107.688 52.9692C107.869 53.2005 107.937 53.4745 107.891 53.7911C107.845 54.1078 107.701 54.3563 107.459 54.5366C107.229 54.7079 106.972 54.7727 106.687 54.7311ZM105.754 61.1274C105.458 61.0843 105.219 60.9471 105.037 60.7157C104.857 60.4738 104.79 60.1946 104.836 59.8779C104.883 59.5613 105.026 59.3181 105.266 59.1483C105.507 58.9786 105.774 58.9153 106.07 58.9584C106.355 59 106.583 59.1356 106.754 59.3654C106.936 59.5968 107.004 59.8708 106.958 60.1874C106.912 60.5041 106.768 60.7525 106.526 60.9328C106.296 61.1041 106.039 61.169 105.754 61.1274Z" fill="#24222F"/>
<path opacity="0.4" d="M67.3501 121.115L68.7661 111.409L64.9663 110.855L65.1672 109.478L74.3342 110.815L74.1332 112.193L70.3335 111.638L68.9175 121.343L67.3501 121.115ZM79.9363 114.3C80.6224 114.401 81.2048 114.62 81.6835 114.96C82.1727 115.3 82.5259 115.762 82.7429 116.343C82.9599 116.924 83.0083 117.627 82.8882 118.45L82.1837 123.279L80.6638 123.057L81.3429 118.402C81.4614 117.59 81.3502 116.948 81.0092 116.478C80.6787 116.009 80.1546 115.723 79.4369 115.618C78.8986 115.54 78.4135 115.577 77.9816 115.729C77.5497 115.882 77.1929 116.148 76.9112 116.527C76.64 116.908 76.4598 117.404 76.3705 118.017L75.7399 122.339L74.22 122.117L75.9339 110.369L77.4538 110.591L76.6338 116.212L76.4208 115.566C76.7753 115.057 77.2598 114.691 77.8745 114.469C78.4891 114.246 79.1764 114.19 79.9363 114.3ZM88.7191 124.329C87.8219 124.199 87.0573 123.898 86.4251 123.429C85.8035 122.961 85.3496 122.377 85.0636 121.678C84.7881 120.98 84.7112 120.214 84.8329 119.381C84.9545 118.547 85.2417 117.834 85.6945 117.243C86.1579 116.653 86.7324 116.224 87.4181 115.958C88.1158 115.682 88.8658 115.603 89.6679 115.72C90.4807 115.839 91.1722 116.123 91.7426 116.573C92.313 117.022 92.7246 117.6 92.9774 118.305C93.2424 119.001 93.3117 119.782 93.1854 120.648C93.1762 120.711 93.1601 120.784 93.1373 120.867C93.1249 120.951 93.1081 121.03 93.0868 121.102L85.9464 120.06L86.1057 118.968L92.4545 119.894L91.7816 120.184C91.8707 119.647 91.83 119.151 91.6594 118.695C91.4887 118.239 91.2146 117.865 90.8368 117.572C90.4711 117.271 90.0191 117.081 89.4808 117.003C88.9531 116.926 88.4657 116.978 88.0186 117.161C87.5731 117.333 87.2027 117.619 86.9073 118.018C86.6135 118.406 86.4266 118.875 86.3465 119.424L86.3095 119.677C86.2279 120.236 86.2814 120.756 86.4701 121.236C86.6708 121.708 86.9857 122.098 87.4147 122.409C87.8437 122.72 88.359 122.919 88.9606 123.006C89.4567 123.079 89.9176 123.06 90.3433 122.949C90.7796 122.841 91.1754 122.64 91.5308 122.347L92.2267 123.451C91.7821 123.838 91.2578 124.107 90.654 124.256C90.0607 124.407 89.4157 124.431 88.7191 124.329ZM102.396 126.325C101.583 126.206 100.881 125.921 100.29 125.468C99.7088 125.017 99.2806 124.442 99.0051 123.744C98.7296 123.047 98.6542 122.27 98.779 121.415C98.9037 120.56 99.197 119.843 99.6588 119.264C100.122 118.674 100.697 118.246 101.382 117.979C102.079 117.714 102.833 117.641 103.646 117.76C104.353 117.863 104.968 118.114 105.492 118.514C106.016 118.914 106.4 119.455 106.646 120.138C106.902 120.822 106.96 121.639 106.822 122.589C106.683 123.539 106.399 124.306 105.969 124.89C105.549 125.475 105.03 125.89 104.413 126.134C103.797 126.367 103.124 126.431 102.396 126.325ZM102.717 125.013C103.244 125.09 103.737 125.038 104.195 124.857C104.663 124.678 105.051 124.384 105.358 123.976C105.678 123.559 105.881 123.055 105.967 122.464C106.055 121.862 106.003 121.327 105.813 120.857C105.635 120.378 105.347 119.986 104.95 119.68C104.563 119.376 104.106 119.185 103.578 119.108C103.04 119.029 102.542 119.081 102.084 119.262C101.627 119.443 101.239 119.737 100.921 120.143C100.605 120.539 100.402 121.038 100.315 121.639C100.228 122.23 100.279 122.771 100.466 123.262C100.655 123.742 100.942 124.135 101.329 124.439C101.716 124.743 102.178 124.935 102.717 125.013ZM105.402 126.666L105.733 124.402L106.112 122.469L106.237 120.498L107.053 114.91L108.573 115.131L106.859 126.879L105.402 126.666ZM109.735 127.298L110.959 118.907L112.415 119.12L112.083 121.4L112.023 120.809C112.34 120.262 112.796 119.876 113.389 119.65C113.983 119.424 114.68 119.369 115.483 119.486L115.268 120.959C115.206 120.939 115.143 120.925 115.08 120.915C115.027 120.908 114.975 120.9 114.922 120.892C114.109 120.774 113.43 120.923 112.884 121.339C112.338 121.755 111.998 122.422 111.864 123.34L111.255 127.52L109.735 127.298ZM116.12 128.23L117.344 119.839L118.864 120.061L117.64 128.452L116.12 128.23ZM118.34 118.335C118.044 118.292 117.81 118.161 117.637 117.941C117.475 117.724 117.414 117.478 117.454 117.203C117.496 116.918 117.625 116.695 117.843 116.532C118.071 116.372 118.333 116.313 118.629 116.356C118.924 116.399 119.153 116.529 119.315 116.747C119.49 116.956 119.557 117.197 119.517 117.472C119.475 117.757 119.345 117.986 119.126 118.159C118.908 118.321 118.646 118.38 118.34 118.335ZM122.743 129.196L120.294 120.269L121.877 120.5L124.03 128.576L123.27 128.465L127.703 121.35L129.192 121.567L124.294 129.423L122.743 129.196ZM132.877 130.772C131.979 130.641 131.215 130.341 130.583 129.871C129.961 129.403 129.507 128.82 129.221 128.12C128.946 127.423 128.869 126.657 128.99 125.823C129.112 124.989 129.399 124.276 129.852 123.685C130.315 123.095 130.89 122.667 131.576 122.4C132.273 122.125 133.023 122.046 133.825 122.163C134.638 122.281 135.33 122.565 135.9 123.015C136.47 123.465 136.882 124.042 137.135 124.748C137.4 125.444 137.469 126.225 137.343 127.09C137.334 127.153 137.318 127.227 137.295 127.309C137.282 127.394 137.266 127.472 137.244 127.545L130.104 126.503L130.263 125.41L136.612 126.337L135.939 126.627C136.028 126.09 135.987 125.593 135.817 125.137C135.646 124.681 135.372 124.307 134.994 124.015C134.629 123.714 134.177 123.524 133.638 123.445C133.111 123.368 132.623 123.421 132.176 123.604C131.731 123.776 131.36 124.061 131.065 124.46C130.771 124.848 130.584 125.317 130.504 125.866L130.467 126.119C130.385 126.679 130.439 127.198 130.628 127.679C130.828 128.15 131.143 128.541 131.572 128.851C132.001 129.162 132.517 129.361 133.118 129.449C133.614 129.521 134.075 129.502 134.501 129.392C134.937 129.283 135.333 129.082 135.688 128.789L136.384 129.893C135.94 130.281 135.415 130.549 134.811 130.698C134.218 130.849 133.573 130.873 132.877 130.772ZM138.848 131.546L140.073 123.155L141.529 123.367L141.196 125.647L141.137 125.057C141.454 124.51 141.909 124.124 142.503 123.898C143.096 123.672 143.794 123.617 144.596 123.734L144.381 125.206C144.32 125.187 144.257 125.172 144.194 125.163C144.141 125.155 144.088 125.148 144.035 125.14C143.223 125.021 142.543 125.17 141.998 125.586C141.452 126.003 141.112 126.67 140.978 127.588L140.368 131.768L138.848 131.546ZM151.367 133.373L149.472 124.526L150.913 124.737L152.575 132.74L151.894 132.641L155.884 125.462L157.167 125.649L158.876 133.66L158.211 133.563L162.154 126.377L163.516 126.575L159.157 134.509L157.7 134.296L156.068 126.976L156.511 127.041L152.824 133.585L151.367 133.373ZM163.834 135.191L165.058 126.8L166.578 127.022L165.354 135.413L163.834 135.191ZM166.054 125.296C165.758 125.253 165.524 125.122 165.351 124.903C165.189 124.685 165.128 124.439 165.168 124.164C165.209 123.879 165.339 123.656 165.557 123.494C165.785 123.333 166.047 123.274 166.342 123.317C166.638 123.36 166.867 123.491 167.029 123.708C167.203 123.917 167.271 124.159 167.23 124.433C167.189 124.718 167.059 124.947 166.839 125.12C166.622 125.282 166.36 125.341 166.054 125.296ZM168.256 135.837L169.97 124.089L171.49 124.311L169.776 136.058L168.256 135.837ZM172.678 136.482L174.392 124.734L175.911 124.956L174.198 136.703L172.678 136.482ZM185.786 138.491C185.069 138.386 184.443 138.133 183.908 137.732C183.386 137.322 183.002 136.775 182.757 136.093C182.522 135.412 182.474 134.596 182.613 133.646C182.751 132.696 183.036 131.929 183.466 131.345C183.907 130.763 184.435 130.355 185.051 130.121C185.678 129.889 186.339 129.824 187.036 129.926C187.859 130.046 188.562 130.332 189.142 130.783C189.723 131.234 190.152 131.809 190.427 132.506C190.704 133.194 190.78 133.965 190.656 134.82C190.531 135.675 190.237 136.397 189.773 136.987C189.31 137.577 188.736 138.005 188.05 138.272C187.364 138.538 186.61 138.611 185.786 138.491ZM181.351 137.747L183.065 126L184.585 126.221L183.77 131.81L183.327 133.734L183.138 135.696L182.808 137.96L181.351 137.747ZM185.854 137.143C186.392 137.221 186.89 137.17 187.348 136.989C187.816 136.809 188.204 136.515 188.511 136.108C188.831 135.691 189.034 135.187 189.12 134.596C189.208 133.994 189.156 133.458 188.966 132.989C188.788 132.51 188.5 132.118 188.103 131.812C187.716 131.507 187.254 131.316 186.715 131.237C186.188 131.16 185.69 131.212 185.222 131.391C184.764 131.572 184.376 131.866 184.058 132.273C183.752 132.67 183.555 133.169 183.468 133.771C183.381 134.362 183.427 134.902 183.603 135.392C183.792 135.872 184.079 136.264 184.466 136.568C184.864 136.874 185.326 137.066 185.854 137.143ZM195.866 139.962C194.969 139.831 194.204 139.531 193.572 139.061C192.95 138.593 192.497 138.01 192.211 137.31C191.935 136.613 191.858 135.847 191.98 135.013C192.101 134.179 192.389 133.466 192.841 132.875C193.305 132.285 193.879 131.857 194.565 131.59C195.263 131.315 196.013 131.236 196.815 131.353C197.628 131.471 198.319 131.755 198.89 132.205C199.46 132.655 199.872 133.232 200.124 133.937C200.389 134.634 200.459 135.414 200.332 136.28C200.323 136.343 200.307 136.416 200.284 136.499C200.272 136.584 200.255 136.662 200.234 136.735L193.093 135.693L193.253 134.6L199.601 135.527L198.929 135.816C199.018 135.28 198.977 134.783 198.806 134.327C198.636 133.871 198.361 133.497 197.984 133.205C197.618 132.903 197.166 132.714 196.628 132.635C196.1 132.558 195.613 132.611 195.166 132.794C194.72 132.966 194.35 133.251 194.054 133.65C193.76 134.038 193.573 134.507 193.493 135.056L193.456 135.309C193.375 135.869 193.428 136.388 193.617 136.869C193.818 137.34 194.133 137.731 194.562 138.041C194.991 138.352 195.506 138.551 196.108 138.639C196.604 138.711 197.065 138.692 197.49 138.582C197.927 138.473 198.322 138.272 198.678 137.979L199.374 139.083C198.929 139.471 198.405 139.739 197.801 139.888C197.208 140.039 196.563 140.063 195.866 139.962ZM203.121 134.488C202.826 134.445 202.587 134.307 202.405 134.076C202.225 133.834 202.158 133.555 202.204 133.238C202.25 132.922 202.393 132.678 202.634 132.509C202.874 132.339 203.142 132.276 203.438 132.319C203.723 132.36 203.951 132.496 204.122 132.726C204.304 132.957 204.372 133.231 204.325 133.548C204.279 133.865 204.135 134.113 203.893 134.293C203.664 134.465 203.406 134.529 203.121 134.488ZM202.188 140.884C201.892 140.841 201.654 140.704 201.472 140.472C201.292 140.231 201.225 139.951 201.271 139.635C201.317 139.318 201.46 139.075 201.701 138.905C201.941 138.735 202.209 138.672 202.504 138.715C202.789 138.757 203.018 138.892 203.189 139.122C203.371 139.353 203.438 139.627 203.392 139.944C203.346 140.261 203.202 140.509 202.96 140.69C202.73 140.861 202.473 140.926 202.188 140.884Z" fill="#24222F"/>
<rect x="62.6211" y="126.488" width="89" height="24" rx="12" transform="rotate(8.30068 62.6211 126.488)" fill="#171717"/>
<path d="M74.7298 141.752C74.3024 141.69 73.9405 141.552 73.6441 141.339C73.3477 141.126 73.0786 140.893 72.8367 140.639C72.6066 140.388 72.385 140.161 72.1718 139.96C71.9704 139.761 71.7391 139.642 71.4779 139.604C71.1216 139.552 70.8227 139.648 70.581 139.892C70.341 140.124 70.1753 140.469 70.084 140.929L68.6591 140.721C68.8388 139.656 69.1983 138.896 69.7376 138.441C70.2769 137.986 70.9028 137.811 71.6153 137.915C72.0427 137.977 72.4038 138.121 72.6984 138.345C73.0066 138.56 73.2758 138.793 73.5058 139.045C73.7359 139.297 73.9575 139.524 74.1708 139.724C74.384 139.925 74.6153 140.044 74.8646 140.08C75.2327 140.134 75.5377 140.039 75.7794 139.795C76.0329 139.553 76.1995 139.202 76.2789 138.74L77.686 138.946C77.5182 140.013 77.1646 140.774 76.6253 141.229C76.086 141.683 75.4542 141.858 74.7298 141.752ZM78.6178 144.12L78.8516 142.517L86.1686 135.381L88.6444 135.742L81.4165 142.892L80.3107 142.366L90.1961 143.809L89.9102 145.768L78.6178 144.12ZM85.0442 147.95L85.4574 145.118L85.8145 143.169L86.1809 140.658L88.3539 140.975L87.2884 148.278L85.0442 147.95ZM94.5778 149.523C93.6991 149.395 92.8564 149.145 92.0497 148.772C91.2566 148.39 90.608 147.931 90.1039 147.397L91.346 145.741C91.7435 146.175 92.2464 146.551 92.8547 146.871C93.4748 147.192 94.1352 147.403 94.8358 147.505C95.6551 147.625 96.3215 147.546 96.8348 147.269C97.36 146.994 97.6651 146.566 97.75 145.984C97.8071 145.592 97.7564 145.233 97.5979 144.907C97.4512 144.582 97.1398 144.306 96.6636 144.079C96.1992 143.854 95.5396 143.679 94.6847 143.554L91.6745 143.115L93.3058 136.422L100.626 137.49L100.343 139.432L93.8775 138.488L95.2498 137.561L94.0283 142.567L92.9756 141.304L95.487 141.67C96.722 141.85 97.6892 142.161 98.3888 142.603C99.102 143.034 99.5883 143.566 99.8477 144.198C100.121 144.82 100.204 145.499 100.096 146.235C99.9906 146.96 99.7154 147.599 99.2709 148.152C98.8263 148.706 98.209 149.113 97.4191 149.374C96.6411 149.636 95.694 149.686 94.5778 149.523ZM119.881 143.21C120.641 143.321 121.29 143.567 121.828 143.949C122.379 144.332 122.775 144.857 123.018 145.523C123.262 146.177 123.314 146.985 123.173 147.947L122.378 153.397L120.152 153.072L120.905 147.907C121.028 147.064 120.936 146.408 120.629 145.939C120.321 145.469 119.823 145.184 119.134 145.084C118.647 145.013 118.198 145.056 117.787 145.215C117.388 145.375 117.051 145.647 116.777 146.031C116.514 146.418 116.336 146.931 116.243 147.572L115.538 152.399L113.312 152.075L114.066 146.909C114.189 146.066 114.096 145.41 113.789 144.941C113.481 144.471 112.983 144.186 112.295 144.086C111.808 144.015 111.359 144.059 110.948 144.217C110.548 144.377 110.212 144.649 109.937 145.034C109.675 145.42 109.497 145.933 109.403 146.575L108.699 151.401L106.472 151.077L107.86 141.565L109.98 141.875L109.611 144.404L109.346 143.601C109.756 143.03 110.288 142.629 110.94 142.397C111.605 142.166 112.329 142.108 113.112 142.222C114.003 142.352 114.743 142.685 115.332 143.219C115.932 143.756 116.275 144.485 116.359 145.406L115.53 144.976C115.943 144.309 116.536 143.813 117.311 143.49C118.086 143.166 118.943 143.073 119.881 143.21ZM125.223 153.812L126.611 144.301L128.837 144.626L127.45 154.137L125.223 153.812ZM127.962 142.897C127.546 142.837 127.221 142.656 126.986 142.355C126.763 142.055 126.678 141.722 126.732 141.354C126.787 140.974 126.964 140.678 127.261 140.467C127.572 140.245 127.936 140.165 128.351 140.226C128.767 140.286 129.087 140.46 129.312 140.748C129.551 141.025 129.643 141.348 129.589 141.716C129.532 142.108 129.353 142.421 129.052 142.656C128.753 142.879 128.389 142.96 127.962 142.897ZM137.172 145.733C137.932 145.844 138.587 146.091 139.137 146.474C139.7 146.859 140.108 147.386 140.362 148.054C140.618 148.709 140.676 149.518 140.536 150.48L139.741 155.93L137.514 155.606L138.268 150.44C138.391 149.597 138.281 148.938 137.938 148.464C137.606 147.991 137.085 147.703 136.372 147.599C135.85 147.523 135.371 147.562 134.936 147.717C134.501 147.872 134.14 148.146 133.852 148.541C133.577 148.925 133.393 149.438 133.3 150.079L132.598 154.888L130.372 154.563L131.759 145.052L133.879 145.361L133.505 147.926L133.245 147.088C133.666 146.531 134.214 146.138 134.891 145.909C135.58 145.67 136.341 145.611 137.172 145.733Z" fill="#F1F1F1"/>
<rect x="53.0898" y="191.797" width="25" height="24" rx="12" transform="rotate(8.30068 53.0898 191.797)" fill="#171717"/>
<path d="M58.2992 210.748L58.5253 209.198L64.1629 205.218C64.6357 204.887 64.9947 204.588 65.2398 204.32C65.485 204.053 65.6555 203.799 65.7512 203.558C65.8606 203.307 65.9317 203.069 65.9646 202.843C66.0478 202.273 65.916 201.805 65.5691 201.44C65.2241 201.062 64.6716 200.817 63.9116 200.707C63.306 200.618 62.7383 200.645 62.2084 200.786C61.6903 200.928 61.2212 201.193 60.8008 201.581L59.3619 200.097C59.944 199.515 60.6707 199.106 61.542 198.869C62.4269 198.622 63.38 198.573 64.4012 198.722C65.3036 198.854 66.0657 199.117 66.6873 199.511C67.3226 199.895 67.7793 200.38 68.0576 200.966C68.3477 201.554 68.4391 202.216 68.3317 202.952C68.2728 203.356 68.1605 203.752 67.9947 204.14C67.8307 204.516 67.5682 204.902 67.2072 205.298C66.8462 205.695 66.3409 206.124 65.6913 206.587L60.8445 210.009L60.4909 209.066L67.7758 210.129L67.4899 212.088L58.2992 210.748Z" fill="#F1F1F1"/>
<path opacity="0.4" d="M58.8295 186.7C57.9851 186.577 57.1961 186.332 56.4625 185.967C55.7305 185.59 55.1729 185.164 54.7897 184.688L55.5556 183.538C55.9239 183.969 56.4176 184.354 57.0366 184.692C57.6555 185.031 58.3186 185.251 59.0258 185.354C59.6697 185.448 60.2029 185.451 60.6256 185.361C61.0482 185.272 61.373 185.115 61.5999 184.889C61.8284 184.653 61.9665 184.371 62.0143 184.044C62.0697 183.664 61.9877 183.34 61.7683 183.07C61.5594 182.803 61.2644 182.571 60.8833 182.375C60.5144 182.171 60.1001 181.981 59.6405 181.806C59.181 181.631 58.7184 181.44 58.2529 181.232C57.7995 181.015 57.3884 180.766 57.0197 180.486C56.6615 180.207 56.3879 179.865 56.1991 179.461C56.0117 179.045 55.9612 178.542 56.0474 177.951C56.1306 177.381 56.3546 176.88 56.7194 176.448C57.0964 176.007 57.617 175.69 58.2813 175.496C58.9577 175.292 59.7814 175.262 60.7525 175.403C61.3963 175.497 62.0226 175.675 62.6313 175.936C63.2399 176.198 63.7534 176.52 64.1716 176.905L63.4643 178.095C63.0355 177.709 62.5673 177.409 62.0596 177.195C61.5534 176.97 61.0522 176.822 60.5562 176.749C59.9334 176.658 59.41 176.663 58.9858 176.763C58.5616 176.862 58.2352 177.03 58.0068 177.267C57.7888 177.504 57.656 177.787 57.6083 178.114C57.5513 178.504 57.6272 178.834 57.8361 179.101C58.0556 179.37 58.3505 179.602 58.721 179.796C59.1021 179.992 59.5217 180.182 59.9797 180.368C60.4393 180.543 60.8965 180.733 61.3515 180.94C61.817 181.148 62.2288 181.391 62.587 181.67C62.9558 181.95 63.2346 182.293 63.4235 182.697C63.6123 183.102 63.6644 183.595 63.5797 184.175C63.4981 184.735 63.2688 185.235 62.8919 185.676C62.5165 186.106 61.9853 186.422 61.2984 186.624C60.6235 186.816 59.8005 186.842 58.8295 186.7ZM68.0975 188.02C67.2531 187.897 66.6318 187.574 66.2336 187.053C65.8354 186.531 65.6979 185.848 65.8211 185.004L66.9437 177.309L68.4636 177.531L67.3503 185.162C67.284 185.616 67.3441 185.981 67.5303 186.256C67.7271 186.532 68.0366 186.701 68.4588 186.763C68.9337 186.832 69.3488 186.758 69.7039 186.54L70.0195 187.702C69.7581 187.869 69.4568 187.976 69.1157 188.023C68.7852 188.072 68.4458 188.071 68.0975 188.02ZM65.0684 180.189L65.2509 178.938L70.6022 179.719L70.4197 180.969L65.0684 180.189ZM75.0873 189.04C74.2429 188.917 73.5204 188.623 72.9199 188.158C72.3194 187.693 71.8761 187.111 71.5901 186.411C71.3056 185.702 71.2234 184.935 71.3435 184.112C71.4652 183.278 71.7629 182.567 72.2369 181.978C72.7108 181.39 73.3011 180.964 74.0079 180.701C74.7162 180.427 75.4925 180.351 76.3369 180.474C77.1708 180.596 77.8879 180.889 78.4884 181.354C79.101 181.81 79.5451 182.387 79.8206 183.085C80.1082 183.773 80.1903 184.54 80.0672 185.384C79.9455 186.218 79.6477 186.929 79.1738 187.518C78.7104 188.108 78.1193 188.539 77.4005 188.811C76.6922 189.085 75.9211 189.161 75.0873 189.04ZM75.2813 187.71C75.8196 187.788 76.3176 187.737 76.7752 187.556C77.2433 187.376 77.6311 187.083 77.9386 186.675C78.2476 186.256 78.4452 185.751 78.5314 185.16C78.6192 184.559 78.5733 184.024 78.3936 183.556C78.2155 183.077 77.9278 182.685 77.5305 182.379C77.1437 182.074 76.6812 181.883 76.1429 181.804C75.6046 181.726 75.1066 181.777 74.649 181.958C74.1914 182.139 73.8036 182.433 73.4856 182.84C73.1691 183.235 72.967 183.734 72.8792 184.336C72.793 184.927 72.8434 185.468 73.0305 185.959C73.2192 186.439 73.5069 186.831 73.8937 187.135C74.2805 187.44 74.743 187.631 75.2813 187.71ZM85.9921 190.631C85.2954 190.529 84.68 190.278 84.1456 189.876C83.6234 189.466 83.2343 188.919 82.9784 188.235C82.7331 187.552 82.6797 186.736 82.8183 185.786C82.9569 184.836 83.236 184.068 83.6556 183.483C84.0857 182.899 84.6089 182.49 85.225 182.256C85.8518 182.024 86.524 181.961 87.2417 182.065C88.065 182.186 88.7671 182.471 89.3481 182.922C89.929 183.374 90.3572 183.948 90.6327 184.646C90.9097 185.333 90.9859 186.104 90.8611 186.959C90.7364 187.814 90.4423 188.537 89.979 189.127C89.5156 189.717 88.9411 190.145 88.2555 190.411C87.5698 190.678 86.8154 190.751 85.9921 190.631ZM81.1089 192.958L82.7813 181.495L84.2378 181.708L83.9075 183.972L83.5284 185.906L83.4026 187.876L82.6288 193.18L81.1089 192.958ZM86.0594 189.282C86.5977 189.361 87.0957 189.31 87.5533 189.128C88.0215 188.949 88.4093 188.655 88.7167 188.247C89.0363 187.83 89.2391 187.326 89.3254 186.735C89.4132 186.134 89.362 185.598 89.1718 185.128C88.9937 184.649 88.706 184.257 88.3086 183.951C87.9219 183.647 87.4593 183.455 86.921 183.377C86.3933 183.3 85.8953 183.351 85.4272 183.531C84.9695 183.712 84.5817 184.006 84.2637 184.412C83.9578 184.809 83.761 185.309 83.6732 185.911C83.587 186.502 83.6321 187.042 83.8087 187.531C83.9973 188.011 84.285 188.404 84.6718 188.708C85.0692 189.014 85.5317 189.205 86.0594 189.282ZM94.7417 191.907C94.0451 191.806 93.394 191.614 92.7884 191.331C92.1934 191.05 91.7364 190.747 91.4176 190.42L92.2265 189.309C92.5499 189.604 92.9632 189.875 93.4663 190.12C93.9694 190.366 94.4954 190.529 95.0442 190.609C95.7514 190.713 96.2727 190.686 96.608 190.53C96.9539 190.376 97.1531 190.119 97.2054 189.76C97.2439 189.497 97.179 189.277 97.0105 189.101C96.8421 188.926 96.605 188.778 96.2991 188.658C96.0038 188.54 95.67 188.426 95.2977 188.318C94.927 188.199 94.5578 188.07 94.1901 187.93C93.824 187.78 93.4942 187.602 93.2006 187.398C92.9086 187.182 92.6884 186.919 92.54 186.606C92.3931 186.283 92.3551 185.878 92.4259 185.393C92.4998 184.886 92.707 184.464 93.0474 184.125C93.3878 183.787 93.8313 183.555 94.3777 183.43C94.9363 183.296 95.5744 183.281 96.2922 183.386C96.841 183.466 97.3851 183.615 97.9245 183.834C98.476 184.044 98.9135 184.296 99.2369 184.592L98.4122 185.7C98.0692 185.391 97.6988 185.159 97.301 185.004C96.9033 184.849 96.4986 184.742 96.0869 184.682C95.4219 184.585 94.9097 184.623 94.5502 184.797C94.1922 184.96 93.9885 185.211 93.9392 185.549C93.8977 185.834 93.9603 186.069 94.1272 186.255C94.3062 186.432 94.5426 186.585 94.8363 186.715C95.1407 186.845 95.4782 186.97 95.8489 187.089C96.2212 187.197 96.5904 187.326 96.9565 187.477C97.3242 187.616 97.6495 187.788 97.9325 187.991C98.2261 188.195 98.447 188.454 98.5955 188.767C98.7544 189.081 98.7993 189.476 98.73 189.951C98.656 190.457 98.4444 190.874 98.0949 191.2C97.7455 191.526 97.2862 191.756 96.7171 191.888C96.1496 192.01 95.4911 192.017 94.7417 191.907ZM108.968 193.983C108.25 193.878 107.624 193.625 107.089 193.224C106.567 192.813 106.183 192.267 105.938 191.584C105.703 190.903 105.655 190.088 105.794 189.138C105.932 188.188 106.217 187.421 106.647 186.837C107.088 186.254 107.616 185.846 108.232 185.613C108.859 185.381 109.521 185.316 110.217 185.417C111.041 185.538 111.743 185.823 112.324 186.275C112.905 186.726 113.333 187.3 113.608 187.998C113.885 188.685 113.961 189.456 113.837 190.311C113.712 191.166 113.418 191.889 112.955 192.479C112.491 193.069 111.917 193.497 111.231 193.763C110.545 194.03 109.791 194.103 108.968 193.983ZM104.533 193.239L106.246 181.491L107.766 181.713L106.951 187.302L106.509 189.226L106.319 191.187L105.989 193.451L104.533 193.239ZM109.035 192.634C109.573 192.713 110.071 192.662 110.529 192.48C110.997 192.301 111.385 192.007 111.692 191.599C112.012 191.182 112.215 190.678 112.301 190.087C112.389 189.486 112.337 188.95 112.147 188.48C111.969 188.001 111.681 187.609 111.284 187.303C110.897 186.999 110.435 186.807 109.897 186.729C109.369 186.652 108.871 186.703 108.403 186.883C107.945 187.064 107.557 187.358 107.239 187.764C106.933 188.161 106.737 188.661 106.649 189.263C106.562 189.854 106.608 190.394 106.784 190.883C106.973 191.363 107.261 191.756 107.647 192.06C108.045 192.366 108.507 192.557 109.035 192.634ZM119.047 195.453C118.15 195.322 117.385 195.022 116.753 194.553C116.131 194.085 115.678 193.501 115.392 192.802C115.116 192.104 115.039 191.338 115.161 190.504C115.283 189.671 115.57 188.958 116.023 188.366C116.486 187.776 117.06 187.348 117.746 187.082C118.444 186.806 119.194 186.727 119.996 186.844C120.809 186.963 121.5 187.247 122.071 187.697C122.641 188.146 123.053 188.724 123.305 189.429C123.57 190.125 123.64 190.906 123.513 191.772C123.504 191.835 123.488 191.908 123.465 191.991C123.453 192.075 123.436 192.154 123.415 192.226L116.274 191.184L116.434 190.092L122.783 191.018L122.11 191.308C122.199 190.771 122.158 190.275 121.987 189.819C121.817 189.363 121.543 188.989 121.165 188.696C120.799 188.395 120.347 188.205 119.809 188.127C119.281 188.05 118.794 188.102 118.347 188.285C117.901 188.457 117.531 188.743 117.235 189.142C116.942 189.53 116.755 189.999 116.675 190.547L116.638 190.801C116.556 191.36 116.609 191.88 116.798 192.36C116.999 192.832 117.314 193.222 117.743 193.533C118.172 193.843 118.687 194.043 119.289 194.13C119.785 194.203 120.246 194.184 120.671 194.073C121.108 193.965 121.503 193.764 121.859 193.47L122.555 194.575C122.11 194.962 121.586 195.231 120.982 195.38C120.389 195.53 119.744 195.555 119.047 195.453ZM125.24 196.26L126.573 187.125C126.693 186.301 127.026 185.682 127.572 185.265C128.13 184.84 128.852 184.692 129.739 184.822C130.066 184.869 130.371 184.957 130.655 185.084C130.95 185.203 131.191 185.362 131.377 185.562L130.749 186.651C130.61 186.501 130.444 186.38 130.253 186.287C130.063 186.184 129.857 186.116 129.636 186.084C129.192 186.019 128.836 186.097 128.567 186.316C128.299 186.525 128.13 186.872 128.059 187.358L127.895 188.482L127.825 189.183L126.76 196.482L125.24 196.26ZM124.857 188.912L125.04 187.661L130.391 188.442L130.209 189.692L124.857 188.912ZM134.057 197.643C133.212 197.52 132.49 197.226 131.889 196.761C131.289 196.296 130.846 195.714 130.56 195.015C130.275 194.305 130.193 193.538 130.313 192.715C130.435 191.881 130.732 191.17 131.206 190.582C131.68 189.993 132.271 189.567 132.977 189.304C133.686 189.03 134.462 188.955 135.306 189.078C136.14 189.2 136.857 189.493 137.458 189.958C138.07 190.414 138.515 190.99 138.79 191.688C139.078 192.377 139.16 193.143 139.037 193.988C138.915 194.822 138.617 195.533 138.143 196.121C137.68 196.711 137.089 197.142 136.37 197.415C135.662 197.689 134.891 197.765 134.057 197.643ZM134.251 196.313C134.789 196.392 135.287 196.34 135.745 196.159C136.213 195.98 136.601 195.686 136.908 195.278C137.217 194.86 137.415 194.355 137.501 193.764C137.589 193.162 137.543 192.627 137.363 192.159C137.185 191.68 136.897 191.288 136.5 190.982C136.113 190.678 135.651 190.486 135.112 190.408C134.574 190.329 134.076 190.381 133.618 190.562C133.161 190.743 132.773 191.037 132.455 191.443C132.139 191.839 131.936 192.338 131.849 192.939C131.762 193.53 131.813 194.071 132 194.562C132.189 195.042 132.476 195.435 132.863 195.739C133.25 196.043 133.712 196.235 134.251 196.313ZM140.526 198.49L141.751 190.099L143.207 190.311L142.875 192.591L142.815 192.001C143.132 191.454 143.587 191.068 144.181 190.842C144.774 190.616 145.472 190.561 146.274 190.678L146.06 192.15C145.998 192.131 145.935 192.116 145.872 192.107C145.819 192.099 145.766 192.092 145.714 192.084C144.901 191.965 144.222 192.114 143.676 192.53C143.13 192.947 142.79 193.614 142.656 194.532L142.046 198.712L140.526 198.49ZM150.557 200.051C149.66 199.92 148.895 199.619 148.263 199.15C147.642 198.682 147.188 198.098 146.902 197.399C146.626 196.701 146.549 195.936 146.671 195.102C146.793 194.268 147.08 193.555 147.533 192.964C147.996 192.374 148.571 191.946 149.256 191.679C149.954 191.404 150.704 191.324 151.506 191.441C152.319 191.56 153.01 191.844 153.581 192.294C154.151 192.744 154.563 193.321 154.816 194.026C155.081 194.722 155.15 195.503 155.024 196.369C155.014 196.432 154.998 196.505 154.975 196.588C154.963 196.673 154.946 196.751 154.925 196.823L147.785 195.782L147.944 194.689L154.293 195.615L153.62 195.905C153.709 195.369 153.668 194.872 153.498 194.416C153.327 193.96 153.053 193.586 152.675 193.294C152.309 192.992 151.857 192.802 151.319 192.724C150.791 192.647 150.304 192.7 149.857 192.882C149.411 193.054 149.041 193.34 148.746 193.739C148.452 194.127 148.265 194.596 148.185 195.145L148.148 195.398C148.066 195.957 148.12 196.477 148.308 196.957C148.509 197.429 148.824 197.82 149.253 198.13C149.682 198.441 150.197 198.64 150.799 198.728C151.295 198.8 151.756 198.781 152.182 198.671C152.618 198.562 153.014 198.361 153.369 198.068L154.065 199.172C153.62 199.56 153.096 199.828 152.492 199.977C151.899 200.128 151.254 200.152 150.557 200.051ZM164.361 202.064C163.516 201.941 162.794 201.647 162.194 201.182C161.593 200.717 161.15 200.135 160.864 199.436C160.579 198.726 160.497 197.96 160.617 197.136C160.739 196.303 161.037 195.591 161.51 195.003C161.984 194.415 162.575 193.989 163.281 193.725C163.99 193.451 164.766 193.376 165.611 193.499C166.444 193.621 167.162 193.914 167.762 194.379C168.375 194.835 168.819 195.412 169.094 196.109C169.382 196.798 169.464 197.565 169.341 198.409C169.219 199.243 168.921 199.954 168.447 200.542C167.984 201.132 167.393 201.564 166.674 201.836C165.966 202.11 165.195 202.186 164.361 202.064ZM164.555 200.735C165.093 200.813 165.591 200.762 166.049 200.581C166.517 200.401 166.905 200.107 167.212 199.699C167.521 199.281 167.719 198.776 167.805 198.185C167.893 197.583 167.847 197.049 167.667 196.58C167.489 196.102 167.201 195.709 166.804 195.403C166.417 195.099 165.955 194.908 165.417 194.829C164.878 194.751 164.38 194.802 163.923 194.983C163.465 195.164 163.077 195.458 162.759 195.864C162.443 196.26 162.241 196.759 162.153 197.36C162.067 197.951 162.117 198.492 162.304 198.983C162.493 199.464 162.781 199.856 163.167 200.16C163.554 200.465 164.017 200.656 164.555 200.735ZM170.831 202.911L172.055 194.52L173.511 194.733L173.179 197.013L173.12 196.422C173.436 195.875 173.892 195.489 174.485 195.263C175.079 195.037 175.776 194.982 176.579 195.099L176.364 196.572C176.302 196.552 176.24 196.537 176.176 196.528C176.123 196.521 176.071 196.513 176.018 196.505C175.205 196.387 174.526 196.535 173.98 196.952C173.434 197.368 173.094 198.035 172.96 198.953L172.351 203.133L170.831 202.911ZM180.592 204.433C179.78 204.314 179.077 204.028 178.486 203.575C177.905 203.124 177.477 202.55 177.201 201.852C176.926 201.154 176.85 200.378 176.975 199.523C177.1 198.668 177.393 197.951 177.855 197.371C178.318 196.781 178.893 196.353 179.579 196.087C180.275 195.822 181.029 195.749 181.842 195.867C182.549 195.97 183.165 196.222 183.688 196.622C184.212 197.022 184.597 197.563 184.842 198.245C185.098 198.929 185.157 199.746 185.018 200.696C184.879 201.646 184.595 202.413 184.165 202.997C183.745 203.583 183.227 203.998 182.609 204.242C181.993 204.475 181.321 204.539 180.592 204.433ZM180.913 203.121C181.441 203.198 181.933 203.146 182.391 202.965C182.859 202.785 183.247 202.491 183.554 202.084C183.874 201.667 184.077 201.163 184.163 200.572C184.251 199.97 184.2 199.434 184.009 198.965C183.831 198.486 183.544 198.094 183.146 197.788C182.76 197.483 182.302 197.293 181.775 197.216C181.236 197.137 180.738 197.188 180.281 197.37C179.823 197.551 179.435 197.845 179.117 198.251C178.801 198.647 178.599 199.145 178.511 199.747C178.425 200.338 178.475 200.879 178.662 201.37C178.851 201.85 179.139 202.242 179.525 202.547C179.912 202.851 180.375 203.043 180.913 203.121ZM183.598 204.774L183.929 202.51L184.308 200.577L184.434 198.606L185.249 193.017L186.769 193.239L185.055 204.987L183.598 204.774ZM191.653 206.046C190.756 205.915 189.992 205.615 189.359 205.146C188.738 204.678 188.284 204.094 187.998 203.395C187.722 202.697 187.646 201.931 187.767 201.097C187.889 200.264 188.176 199.551 188.629 198.959C189.092 198.369 189.667 197.941 190.352 197.675C191.05 197.399 191.8 197.32 192.602 197.437C193.415 197.556 194.107 197.84 194.677 198.29C195.247 198.739 195.659 199.317 195.912 200.022C196.177 200.718 196.246 201.499 196.12 202.365C196.111 202.428 196.094 202.501 196.072 202.584C196.059 202.668 196.042 202.747 196.021 202.819L188.881 201.777L189.04 200.685L195.389 201.611L194.716 201.901C194.805 201.364 194.764 200.868 194.594 200.412C194.423 199.956 194.149 199.582 193.771 199.289C193.405 198.988 192.953 198.798 192.415 198.72C191.887 198.643 191.4 198.695 190.953 198.878C190.507 199.05 190.137 199.336 189.842 199.735C189.548 200.123 189.361 200.592 189.281 201.14L189.244 201.394C189.162 201.953 189.216 202.473 189.404 202.953C189.605 203.425 189.92 203.815 190.349 204.126C190.778 204.436 191.293 204.636 191.895 204.723C192.391 204.796 192.852 204.777 193.278 204.666C193.714 204.558 194.11 204.357 194.465 204.063L195.161 205.168C194.716 205.555 194.192 205.824 193.588 205.973C192.995 206.124 192.35 206.148 191.653 206.046ZM197.625 206.821L198.849 198.429L200.306 198.642L199.973 200.922L199.914 200.331C200.231 199.784 200.686 199.398 201.28 199.172C201.873 198.946 202.571 198.892 203.373 199.009L203.158 200.481C203.097 200.461 203.034 200.447 202.971 200.437C202.918 200.43 202.865 200.422 202.812 200.414C202 200.296 201.32 200.445 200.774 200.861C200.229 201.277 199.889 201.944 199.755 202.863L199.145 207.042L197.625 206.821ZM205.402 201.52C205.107 201.477 204.868 201.339 204.686 201.108C204.506 200.866 204.439 200.587 204.485 200.27C204.531 199.954 204.675 199.71 204.915 199.541C205.155 199.371 205.423 199.308 205.719 199.351C206.004 199.392 206.232 199.528 206.403 199.758C206.585 199.989 206.653 200.263 206.607 200.58C206.56 200.896 206.416 201.145 206.175 201.325C205.945 201.497 205.687 201.561 205.402 201.52ZM204.469 207.916C204.174 207.873 203.935 207.736 203.753 207.504C203.573 207.263 203.506 206.983 203.552 206.667C203.598 206.35 203.741 206.107 203.982 205.937C204.222 205.767 204.49 205.704 204.786 205.747C205.071 205.789 205.299 205.924 205.47 206.154C205.652 206.385 205.72 206.659 205.673 206.976C205.627 207.293 205.483 207.541 205.241 207.722C205.012 207.893 204.754 207.958 204.469 207.916Z" fill="#24222F"/>
<defs>
<filter id="filter0_d_898_2818" x="-21.6641" y="0.337646" width="320.516" height="331.502" filterUnits="userSpaceOnUse" color-interpolation-filters="sRGB">
<feFlood flood-opacity="0" result="BackgroundImageFix"/>
<feColorMatrix in="SourceAlpha" type="matrix" values="0 0 0 0 0 0 0 0 0 0 0 0 0 0 0 0 0 0 127 0" result="hardAlpha"/>
<feOffset dy="27"/>
<feGaussianBlur stdDeviation="22.5"/>
<feComposite in2="hardAlpha" operator="out"/>
<feColorMatrix type="matrix" values="0 0 0 0 0 0 0 0 0 0 0 0 0 0 0 0 0 0 0.1 0"/>
<feBlend mode="normal" in2="BackgroundImageFix" result="effect1_dropShadow_898_2818"/>
<feBlend mode="normal" in="SourceGraphic" in2="effect1_dropShadow_898_2818" result="shape"/>
</filter>
</defs>
</svg>
