<svg width="328" height="310" viewBox="0 0 328 310" fill="none" xmlns="http://www.w3.org/2000/svg">
<g filter="url(#filter0_d_910_7849)">
<rect x="57.4531" y="13" width="250" height="229" rx="15" transform="rotate(8.6533 57.4531 13)" fill="white"/>
</g>
<g filter="url(#filter1_b_910_7849)">
<rect x="269.488" y="55.3848" width="24" height="24" rx="12" transform="rotate(8.6533 269.488 55.3848)" fill="#24222F"/>
<path d="M275.129 71.7648C274.846 71.9733 274.774 72.4093 274.991 72.7043C275.213 73.0001 275.651 73.0616 275.929 72.8573L279.353 70.3375L281.868 73.7561C282.081 74.0453 282.513 74.111 282.808 73.8939C283.104 73.6718 283.169 73.2451 282.956 72.9559L280.44 69.5374L283.86 67.0169C284.149 66.8041 284.22 66.3731 283.998 66.0773C283.781 65.7823 283.349 65.7166 283.06 65.9294L279.641 68.4449L277.121 65.0256C276.917 64.7429 276.477 64.6656 276.181 64.8877C275.886 65.1048 275.824 65.5473 276.033 65.8257L278.548 69.2493L275.129 71.7648Z" fill="white"/>
</g>
<rect x="59.8164" y="63.9355" width="230" height="36" rx="5" transform="rotate(8.6533 59.8164 63.9355)" fill="#F6F6F6"/>
<g clip-path="url(#clip0_910_7849)">
<path d="M74.0642 83.3001C76.3574 83.6491 78.4993 82.073 78.8483 79.7798C79.1973 77.4866 77.6212 75.3447 75.328 74.9957C73.0348 74.6467 70.8929 76.2228 70.5439 78.516C70.1949 80.8092 71.771 82.9511 74.0642 83.3001Z" fill="#29B6FF"/>
<path d="M73.8572 84.6837C70.4184 84.1643 67.2081 86.5265 66.681 89.9642C66.6229 90.3464 66.8855 90.7033 67.2677 90.7615L78.3403 92.4466C78.7225 92.5048 79.0795 92.2421 79.1376 91.8599C79.6571 88.4211 77.2949 85.2108 73.8572 84.6837Z" fill="#29B6FF"/>
</g>
<path d="M96.9081 92.0926L96.6457 93.8168L88.3413 92.5529L90.0264 81.4804L98.1093 82.7106L97.847 84.4347L91.8203 83.5175L91.3822 86.3964L96.7287 87.21L96.4711 88.9026L91.1246 88.0889L90.66 91.1417L96.9081 92.0926ZM100.534 82.3999L102.512 82.7008L100.725 94.4377L98.7482 94.1367L100.534 82.3999ZM107.1 95.5211C106.246 95.3911 105.504 95.0894 104.875 94.616C104.246 94.1426 103.786 93.5493 103.495 92.8361C103.216 92.114 103.141 91.3364 103.267 90.5033C103.394 89.6702 103.697 88.9557 104.176 88.3597C104.666 87.7652 105.282 87.3356 106.023 87.0709C106.765 86.8061 107.563 86.7387 108.417 86.8687C109.282 87.0003 110.029 87.3028 110.658 87.7762C111.287 88.2496 111.742 88.8421 112.022 89.5537C112.313 90.2668 112.395 91.04 112.268 91.8731C112.141 92.7061 111.832 93.4252 111.341 94.0301C110.861 94.6262 110.251 95.0566 109.51 95.3213C108.768 95.5861 107.965 95.6527 107.1 95.5211ZM107.358 93.8286C108.085 93.9393 108.723 93.7882 109.272 93.3754C109.82 92.9625 110.154 92.3606 110.275 91.5697C110.395 90.7788 110.255 90.1047 109.854 89.5474C109.453 88.9901 108.889 88.6561 108.162 88.5454C107.434 88.4347 106.796 88.5857 106.248 88.9986C105.71 89.4131 105.381 90.0157 105.26 90.8066C105.14 91.5975 105.275 92.2708 105.665 92.8265C106.066 93.3838 106.63 93.7178 107.358 93.8286ZM119.608 88.5719C120.674 88.734 121.48 89.1751 122.029 89.8952C122.577 90.6152 122.759 91.5869 122.573 92.8101L121.836 97.6504L119.859 97.3495L120.557 92.7623C120.669 92.0241 120.579 91.444 120.288 91.022C119.997 90.5894 119.531 90.3242 118.887 90.2263C118.16 90.1155 117.551 90.2495 117.062 90.6282C116.574 90.9964 116.268 91.5917 116.143 92.4143L115.493 96.6851L113.516 96.3842L114.801 87.9374L116.684 88.2239L116.517 89.3153C116.904 88.9749 117.36 88.7422 117.886 88.6173C118.412 88.4924 118.986 88.4772 119.608 88.5719ZM139.076 100.274L140.178 92.9323L135.615 98.4527L134.698 98.3131L131.969 91.7802L130.867 99.0248L128.906 98.7263L130.591 87.6538L132.283 87.9114L135.563 95.9201L140.999 89.2378L142.691 89.4954L141.022 100.57L139.076 100.274ZM153.286 93.7944L152.001 102.241L150.118 101.955L150.282 100.879C149.908 101.211 149.468 101.446 148.961 101.584C148.456 101.712 147.929 101.735 147.381 101.651C146.253 101.48 145.409 101.033 144.85 100.311C144.303 99.5806 144.123 98.5984 144.311 97.3646L145.045 92.5402L147.022 92.8411L146.329 97.3966C146.214 98.1559 146.296 98.751 146.575 99.182C146.867 99.6041 147.329 99.8632 147.962 99.9595C148.669 100.067 149.26 99.9359 149.738 99.5662C150.227 99.1874 150.534 98.5868 150.659 97.7643L151.309 93.4935L153.286 93.7944ZM157.183 103.143C156.497 103.039 155.841 102.847 155.215 102.568C154.588 102.29 154.101 101.983 153.752 101.65L154.74 100.263C155.081 100.574 155.504 100.848 156.007 101.087C156.522 101.316 157.038 101.47 157.555 101.549C158.736 101.729 159.374 101.507 159.468 100.885C159.513 100.59 159.392 100.361 159.104 100.199C158.826 100.038 158.363 99.8538 157.715 99.6473C157.035 99.4359 156.484 99.228 156.062 99.0235C155.65 98.8206 155.307 98.5256 155.031 98.1384C154.768 97.7422 154.683 97.2383 154.776 96.6267C154.898 95.8253 155.327 95.2378 156.064 94.8644C156.812 94.482 157.756 94.3775 158.895 94.5508C159.475 94.6391 160.045 94.7959 160.604 95.0213C161.164 95.2361 161.612 95.4823 161.948 95.7599L160.96 97.1471C160.307 96.6161 159.532 96.2825 158.636 96.146C158.056 96.0578 157.599 96.08 157.266 96.2127C156.945 96.3365 156.763 96.5408 156.72 96.8255C156.672 97.1419 156.796 97.3927 157.091 97.5779C157.399 97.7542 157.881 97.9517 158.538 98.1704C159.197 98.3786 159.732 98.5841 160.144 98.787C160.555 98.9899 160.889 99.278 161.145 99.6515C161.412 100.027 161.499 100.515 161.408 101.116C161.288 101.907 160.848 102.487 160.091 102.857C159.333 103.228 158.364 103.323 157.183 103.143ZM166.73 100.777L165.047 101.945L164.708 104.175L162.73 103.874L164.516 92.1372L166.494 92.4381L165.415 99.5245L170.09 96.3517L172.463 96.7128L168.396 99.7191L171.509 105.21L169.105 104.844L166.73 100.777Z" fill="#24222F"/>
<rect x="45.3711" y="158.843" width="230" height="34" rx="5" transform="rotate(8.6533 45.3711 158.843)" fill="#F6F6F6"/>
<g clip-path="url(#clip1_910_7849)">
<path d="M60.9153 186.598L55.8896 185.833C55.6305 185.793 55.4524 185.551 55.4918 185.292L56.1852 180.736L51.6287 180.042C51.3696 180.003 51.1915 179.761 51.2309 179.502L51.9958 174.476C52.0352 174.217 52.2773 174.039 52.5364 174.078L57.0929 174.772L57.7864 170.215C57.8258 169.956 58.0678 169.778 58.327 169.817L63.3527 170.582C63.6118 170.622 63.7899 170.864 63.7505 171.123L63.057 175.679L67.6136 176.373C67.8727 176.412 68.0508 176.654 68.0114 176.913L67.2465 181.939C67.2071 182.198 66.965 182.376 66.7059 182.337L62.1494 181.643L61.4559 186.2C61.4165 186.459 61.1744 186.637 60.9153 186.598Z" fill="#29B6FF"/>
</g>
<path d="M84.9076 176.492L83.3278 186.873L81.4 186.579L82.077 182.13L76.7088 181.313L76.0318 185.762L74.104 185.469L75.6838 175.088L77.6116 175.382L76.9593 179.667L82.3275 180.484L82.9798 176.199L84.9076 176.492ZM94.5511 180.478L89.5416 188.471C89.0647 189.278 88.5528 189.817 88.0058 190.088C87.4573 190.369 86.8321 190.456 86.1302 190.349C85.7348 190.289 85.354 190.165 84.988 189.978C84.622 189.79 84.3328 189.564 84.1202 189.299L85.0693 188.048C85.2217 188.243 85.409 188.408 85.6312 188.543C85.8633 188.68 86.1029 188.767 86.3501 188.804C86.6763 188.854 86.9561 188.81 87.1892 188.674C87.4323 188.539 87.6729 188.287 87.9111 187.919L88.0919 187.628L85.8464 179.154L87.7742 179.447L89.374 185.684L92.7716 180.208L94.5511 180.478ZM100.113 181.234C100.884 181.351 101.545 181.624 102.097 182.052C102.659 182.481 103.066 183.029 103.319 183.694C103.572 184.36 103.637 185.093 103.515 185.894C103.393 186.694 103.112 187.38 102.671 187.95C102.232 188.51 101.68 188.912 101.016 189.155C100.362 189.399 99.6493 189.463 98.8782 189.345C97.8105 189.183 97.0194 188.698 96.5049 187.892L95.9203 191.732L94.0667 191.45L95.7097 180.655L97.4743 180.923L97.3164 181.961C97.68 181.632 98.0986 181.408 98.572 181.288C99.0554 181.169 99.5689 181.151 100.113 181.234ZM98.912 187.727C99.5942 187.831 100.187 187.688 100.692 187.3C101.206 186.913 101.519 186.349 101.632 185.607C101.745 184.866 101.613 184.234 101.238 183.711C100.872 183.19 100.348 182.878 99.6658 182.774C99.221 182.706 98.8048 182.749 98.4173 182.903C98.0313 183.046 97.7059 183.29 97.4411 183.634C97.1763 183.978 97.0063 184.397 96.9311 184.892C96.8559 185.386 96.8935 185.837 97.0439 186.244C97.1943 186.651 97.4317 186.986 97.756 187.248C98.0818 187.499 98.4672 187.659 98.912 187.727ZM112.711 187.339C112.691 187.467 112.653 187.649 112.598 187.883L106.384 186.937C106.404 187.537 106.615 188.045 107.017 188.46C107.431 188.867 107.979 189.122 108.661 189.226C109.531 189.358 110.291 189.181 110.942 188.693L111.762 189.986C111.341 190.357 110.842 190.61 110.265 190.745C109.689 190.879 109.059 190.895 108.377 190.791C107.507 190.659 106.767 190.369 106.157 189.922C105.548 189.475 105.107 188.918 104.834 188.249C104.573 187.572 104.502 186.843 104.621 186.062C104.738 185.291 105.016 184.625 105.456 184.065C105.906 183.496 106.47 183.086 107.145 182.835C107.82 182.584 108.549 182.518 109.33 182.636C110.101 182.754 110.762 183.031 111.312 183.469C111.874 183.899 112.275 184.45 112.517 185.124C112.769 185.79 112.834 186.528 112.711 187.339ZM109.104 184.119C108.511 184.029 107.98 184.13 107.51 184.423C107.052 184.707 106.734 185.134 106.557 185.704L111.05 186.388C111.058 185.803 110.887 185.301 110.535 184.883C110.184 184.466 109.707 184.211 109.104 184.119ZM116.689 185.031C117.35 184.282 118.352 184.01 119.696 184.214L119.428 185.979C119.274 185.925 119.133 185.888 119.005 185.869C118.283 185.759 117.687 185.886 117.217 186.249C116.748 186.603 116.454 187.175 116.334 187.966L115.749 191.807L113.896 191.525L115.101 183.606L116.865 183.874L116.689 185.031ZM126.006 182.747C126.906 182.884 127.664 183.151 128.282 183.548C128.909 183.947 129.358 184.45 129.63 185.058C129.901 185.666 129.979 186.351 129.864 187.112C129.749 187.863 129.471 188.494 129.03 189.003C128.589 189.502 128.011 189.849 127.293 190.043C126.586 190.239 125.782 190.269 124.882 190.132L122.539 189.775L122.084 192.771L120.156 192.477L121.736 182.097L126.006 182.747ZM125.042 188.487C125.882 188.615 126.547 188.534 127.036 188.244C127.525 187.955 127.82 187.479 127.921 186.816C128.022 186.154 127.882 185.612 127.501 185.189C127.12 184.767 126.509 184.492 125.669 184.364L123.415 184.021L122.788 188.144L125.042 188.487ZM136.45 186.764C137.448 186.916 138.205 187.329 138.719 188.004C139.233 188.679 139.403 189.59 139.228 190.737L138.538 195.275L136.684 194.993L137.339 190.692C137.444 190 137.36 189.456 137.086 189.061C136.814 188.655 136.377 188.406 135.774 188.315C135.091 188.211 134.521 188.336 134.062 188.692C133.605 189.037 133.318 189.595 133.201 190.366L132.591 194.37L130.738 194.088L132.412 183.084L134.266 183.367L133.657 187.37C134.013 187.091 134.426 186.901 134.896 186.8C135.378 186.692 135.896 186.68 136.45 186.764ZM145.133 188.085C146.3 188.263 147.147 188.68 147.674 189.337C148.212 189.985 148.396 190.873 148.224 192L147.518 196.641L145.768 196.375L145.915 195.411C145.635 195.723 145.268 195.94 144.814 196.063C144.372 196.178 143.854 196.19 143.261 196.1C142.668 196.01 142.164 195.832 141.749 195.566C141.336 195.291 141.033 194.957 140.84 194.563C140.658 194.161 140.602 193.733 140.671 193.278C140.779 192.566 141.128 192.038 141.717 191.692C142.317 191.339 143.185 191.248 144.322 191.421L146.369 191.733L146.387 191.614C146.471 191.06 146.367 190.61 146.076 190.262C145.795 189.916 145.329 189.693 144.676 189.594C144.231 189.526 143.781 189.528 143.325 189.6C142.879 189.674 142.488 189.812 142.154 190.014L141.633 188.554C142.096 188.301 142.632 188.135 143.241 188.055C143.85 187.976 144.481 187.986 145.133 188.085ZM143.852 194.809C144.317 194.88 144.743 194.838 145.13 194.685C145.529 194.523 145.833 194.256 146.041 193.883L146.181 192.963L144.268 192.672C143.201 192.51 142.613 192.78 142.506 193.482C142.455 193.818 142.548 194.105 142.785 194.343C143.022 194.582 143.377 194.737 143.852 194.809ZM152.691 190.51C153.351 189.761 154.353 189.488 155.698 189.693L155.429 191.458C155.276 191.404 155.135 191.367 155.006 191.348C154.284 191.238 153.689 191.365 153.218 191.728C152.75 192.082 152.456 192.654 152.335 193.445L151.751 197.286L149.897 197.004L151.102 189.085L152.867 189.353L152.691 190.51ZM167.265 191.454C168.264 191.605 169.01 192.017 169.505 192.69C170.001 193.352 170.161 194.261 169.985 195.418L169.294 199.956L167.441 199.673L168.095 195.373C168.2 194.681 168.126 194.139 167.872 193.746C167.62 193.343 167.207 193.098 166.634 193.011C166.011 192.916 165.48 193.048 165.041 193.406C164.604 193.754 164.327 194.309 164.211 195.07L163.6 199.089L161.746 198.807L162.401 194.506C162.506 193.814 162.432 193.272 162.178 192.879C161.926 192.477 161.513 192.232 160.939 192.145C160.307 192.048 159.772 192.174 159.334 192.522C158.907 192.872 158.634 193.432 158.517 194.204L157.905 198.222L156.052 197.94L157.257 190.021L159.022 190.29L158.868 191.298C159.219 190.988 159.631 190.772 160.104 190.652C160.578 190.532 161.086 190.513 161.63 190.596C162.223 190.686 162.73 190.88 163.15 191.176C163.582 191.464 163.898 191.846 164.099 192.322C164.488 191.956 164.957 191.699 165.506 191.55C166.056 191.391 166.642 191.359 167.265 191.454Z" fill="#24222F"/>
<rect x="39.5039" y="197.398" width="230" height="34" rx="5" transform="rotate(8.6533 39.5039 197.398)" fill="#F6F6F6"/>
<g clip-path="url(#clip2_910_7849)">
<path d="M54.9959 208.607C53.3828 208.361 51.7331 208.6 50.2555 209.292C48.7778 209.984 47.5386 211.099 46.6944 212.495C45.8503 213.891 45.4392 215.507 45.5132 217.137C45.5871 218.767 46.1427 220.338 47.1098 221.653C48.0768 222.967 49.4119 223.965 50.9461 224.52C52.4803 225.076 54.1448 225.164 55.7291 224.773C57.3134 224.383 58.7463 223.531 59.8466 222.326C60.9469 221.122 61.6653 219.617 61.9108 218.004C62.2373 215.842 61.6927 213.638 60.3964 211.876C59.1 210.114 57.1579 208.939 54.9959 208.607ZM56.085 219.93C55.9248 220.048 55.7243 220.097 55.5277 220.067C55.3311 220.037 55.1544 219.931 55.0366 219.77L53.1507 217.208C53.0328 217.047 52.9833 216.847 53.0132 216.65L53.6903 212.201C53.7202 212.005 53.827 211.828 53.9872 211.71C54.1474 211.592 54.3479 211.543 54.5446 211.573C54.7412 211.603 54.9179 211.71 55.0358 211.87C55.1537 212.03 55.2031 212.23 55.1732 212.427L54.5429 216.569L56.2445 218.882C56.3624 219.042 56.4118 219.242 56.3818 219.439C56.3519 219.635 56.2451 219.812 56.085 219.93Z" fill="#29B6FF"/>
</g>
<path d="M72.6638 214.077L71.084 224.458L69.1562 224.164L70.49 215.4L68.2953 215.066L68.5413 213.45L72.6638 214.077ZM78.3117 214.937L76.7319 225.317L74.8041 225.024L76.1379 216.26L73.9431 215.926L74.1891 214.309L78.3117 214.937ZM80.7918 220.261C80.4557 220.209 80.1863 220.052 79.9836 219.789C79.7824 219.515 79.7089 219.201 79.7631 218.845C79.8188 218.479 79.9776 218.2 80.2396 218.007C80.5115 217.816 80.8204 217.746 81.1664 217.799C81.5124 217.852 81.7818 218.009 81.9746 218.271C82.1773 218.534 82.2508 218.849 82.1951 219.215C82.1409 219.571 81.9772 219.849 81.7038 220.05C81.4319 220.242 81.1279 220.312 80.7918 220.261ZM79.9319 225.911C79.5958 225.859 79.3264 225.702 79.1237 225.439C78.9226 225.165 78.8491 224.851 78.9033 224.495C78.9589 224.129 79.1178 223.85 79.3797 223.657C79.6516 223.466 79.9606 223.396 80.3066 223.449C80.6526 223.502 80.922 223.659 81.1148 223.921C81.3174 224.184 81.3909 224.499 81.3353 224.865C81.2811 225.221 81.1173 225.499 80.8439 225.7C80.5721 225.892 80.2681 225.962 79.9319 225.911ZM90.1782 225.695L89.9299 227.326L82.278 226.161L82.4744 224.871L87.1927 221.584C87.725 221.21 88.0951 220.871 88.303 220.569C88.5222 220.259 88.6566 219.94 88.7063 219.614C88.78 219.13 88.6733 218.734 88.3862 218.427C88.099 218.121 87.6391 217.919 87.0064 217.823C85.9486 217.662 85.083 217.899 84.4097 218.535L83.2182 217.292C83.7063 216.81 84.3139 216.472 85.0412 216.28C85.7799 216.078 86.5743 216.043 87.4246 216.172C88.5516 216.343 89.4106 216.747 90.0016 217.383C90.5926 218.02 90.8182 218.797 90.6782 219.717C90.5925 220.28 90.3934 220.791 90.0809 221.249C89.7684 221.708 89.2278 222.202 88.4593 222.732L85.2845 224.95L90.1782 225.695ZM96.6898 221.8C97.3719 221.904 97.9645 222.131 98.4677 222.48C98.9723 222.82 99.341 223.255 99.5737 223.787C99.8065 224.318 99.8747 224.9 99.7784 225.532C99.6761 226.204 99.4178 226.772 99.0034 227.235C98.5905 227.688 98.0763 228.009 97.4608 228.199C96.8453 228.388 96.1816 228.429 95.4698 228.321C94.0462 228.104 93.0067 227.491 92.3512 226.481C91.7056 225.472 91.5092 224.137 91.7619 222.476C91.9395 221.31 92.3032 220.349 92.8532 219.593C93.4047 218.827 94.0934 218.289 94.9193 217.98C95.7567 217.663 96.6795 217.58 97.6879 217.734C98.2218 217.815 98.712 217.95 99.1586 218.14C99.6166 218.321 100.002 218.546 100.315 218.816L99.382 220.161C98.919 219.747 98.2872 219.479 97.4864 219.357C96.4879 219.205 95.6602 219.393 95.0034 219.92C94.3467 220.447 93.9302 221.289 93.7542 222.446L93.752 222.461C94.1126 222.151 94.5437 221.944 95.0453 221.838C95.5485 221.722 96.0966 221.71 96.6898 221.8ZM95.5962 226.792C96.1993 226.884 96.7127 226.8 97.1365 226.541C97.5618 226.272 97.8151 225.871 97.8964 225.337C97.9791 224.793 97.8567 224.334 97.5292 223.961C97.2017 223.587 96.7216 223.352 96.0888 223.256C95.466 223.161 94.9313 223.252 94.4847 223.528C94.048 223.805 93.7905 224.201 93.7123 224.715C93.6355 225.219 93.7594 225.668 94.084 226.061C94.4199 226.446 94.9239 226.69 95.5962 226.792ZM109.202 222.066C110.369 222.243 111.215 222.66 111.743 223.317C112.281 223.966 112.465 224.853 112.293 225.98L111.587 230.622L109.837 230.355L109.984 229.392C109.704 229.703 109.337 229.92 108.883 230.043C108.441 230.158 107.923 230.17 107.33 230.08C106.737 229.99 106.233 229.812 105.818 229.547C105.405 229.271 105.102 228.937 104.909 228.543C104.727 228.141 104.671 227.713 104.74 227.258C104.848 226.547 105.197 226.018 105.785 225.673C106.386 225.319 107.254 225.229 108.391 225.402L110.437 225.713L110.455 225.594C110.54 225.041 110.436 224.59 110.145 224.242C109.864 223.896 109.397 223.673 108.745 223.574C108.3 223.506 107.85 223.509 107.394 223.581C106.947 223.654 106.557 223.792 106.223 223.994L105.702 222.534C106.165 222.281 106.701 222.115 107.31 222.036C107.919 221.956 108.55 221.966 109.202 222.066ZM107.921 228.789C108.385 228.86 108.812 228.819 109.199 228.665C109.598 228.503 109.902 228.236 110.11 227.863L110.25 226.944L108.337 226.653C107.269 226.49 106.682 226.76 106.575 227.462C106.524 227.798 106.617 228.085 106.854 228.324C107.091 228.562 107.446 228.717 107.921 228.789ZM125.179 224.497C126.178 224.649 126.924 225.061 127.419 225.733C127.915 226.395 128.075 227.305 127.899 228.461L127.208 232.999L125.355 232.717L126.009 228.417C126.114 227.725 126.04 227.182 125.786 226.79C125.534 226.387 125.121 226.142 124.548 226.055C123.925 225.96 123.394 226.092 122.955 226.45C122.518 226.798 122.241 227.353 122.125 228.114L121.514 232.133L119.66 231.85L120.315 227.55C120.42 226.858 120.346 226.316 120.092 225.923C119.84 225.52 119.427 225.276 118.853 225.188C118.221 225.092 117.686 225.218 117.248 225.566C116.821 225.916 116.548 226.476 116.431 227.247L115.819 231.266L113.966 230.984L115.171 223.065L116.936 223.334L116.782 224.342C117.133 224.031 117.545 223.816 118.018 223.696C118.492 223.575 119.001 223.557 119.544 223.64C120.137 223.73 120.644 223.923 121.064 224.22C121.496 224.508 121.812 224.89 122.013 225.366C122.402 225 122.871 224.743 123.42 224.594C123.97 224.434 124.557 224.402 125.179 224.497ZM134.02 229.029L138.098 229.649L137.863 231.192L133.785 230.571L134.02 229.029ZM147.224 236.197C146.393 236.071 145.683 235.75 145.094 235.236C144.506 234.711 144.085 234.02 143.832 233.162C143.579 232.294 143.537 231.307 143.706 230.199C143.874 229.092 144.207 228.167 144.705 227.423C145.204 226.67 145.811 226.135 146.527 225.819C147.244 225.493 148.018 225.394 148.848 225.52C149.679 225.646 150.388 225.972 150.976 226.496C151.575 227.012 152.001 227.704 152.253 228.572C152.507 229.43 152.549 230.412 152.381 231.52C152.212 232.627 151.879 233.557 151.38 234.311C150.882 235.054 150.27 235.588 149.543 235.913C148.827 236.229 148.054 236.323 147.224 236.197ZM147.479 234.521C148.22 234.634 148.85 234.416 149.368 233.868C149.897 233.321 150.253 232.44 150.438 231.224C150.623 230.008 150.545 229.06 150.203 228.381C149.872 227.704 149.335 227.308 148.593 227.196C147.862 227.084 147.232 227.302 146.704 227.849C146.185 228.397 145.834 229.279 145.649 230.495C145.463 231.711 145.537 232.658 145.869 233.336C146.21 234.015 146.747 234.41 147.479 234.521ZM160.588 236.41L160.34 238.041L152.688 236.877L152.884 235.587L157.603 232.299C158.135 231.925 158.505 231.587 158.713 231.285C158.932 230.974 159.067 230.656 159.116 230.33C159.19 229.845 159.083 229.45 158.796 229.143C158.509 228.836 158.049 228.635 157.416 228.538C156.359 228.377 155.493 228.615 154.82 229.251L153.628 228.007C154.116 227.525 154.724 227.188 155.451 226.995C156.19 226.794 156.984 226.758 157.835 226.887C158.962 227.059 159.821 227.463 160.412 228.099C161.003 228.735 161.228 229.513 161.088 230.432C161.002 230.996 160.803 231.507 160.491 231.965C160.178 232.423 159.638 232.917 158.869 233.448L155.694 235.665L160.588 236.41ZM163.453 232.841C163.117 232.789 162.848 232.632 162.645 232.369C162.444 232.095 162.37 231.781 162.425 231.425C162.48 231.059 162.639 230.78 162.901 230.587C163.173 230.396 163.482 230.326 163.828 230.379C164.174 230.432 164.443 230.589 164.636 230.851C164.839 231.114 164.912 231.429 164.857 231.795C164.802 232.151 164.639 232.429 164.365 232.63C164.093 232.822 163.789 232.892 163.453 232.841ZM162.593 238.491C162.257 238.439 161.988 238.282 161.785 238.019C161.584 237.745 161.511 237.431 161.565 237.075C161.62 236.709 161.779 236.43 162.041 236.237C162.313 236.046 162.622 235.976 162.968 236.029C163.314 236.082 163.583 236.239 163.776 236.501C163.979 236.764 164.052 237.079 163.997 237.445C163.943 237.801 163.779 238.079 163.505 238.28C163.234 238.472 162.93 238.542 162.593 238.491ZM172.84 238.275L172.591 239.906L164.94 238.741L165.136 237.451L169.854 234.164C170.387 233.79 170.757 233.451 170.964 233.149C171.184 232.839 171.318 232.52 171.368 232.194C171.441 231.71 171.335 231.314 171.048 231.007C170.761 230.701 170.301 230.499 169.668 230.403C168.61 230.242 167.745 230.479 167.071 231.115L165.88 229.872C166.368 229.39 166.975 229.052 167.703 228.86C168.441 228.659 169.236 228.623 170.086 228.752C171.213 228.924 172.072 229.327 172.663 229.964C173.254 230.6 173.48 231.377 173.34 232.297C173.254 232.86 173.055 233.371 172.742 233.829C172.43 234.288 171.889 234.782 171.121 235.312L167.946 237.53L172.84 238.275ZM179.351 234.38C180.033 234.484 180.626 234.711 181.129 235.06C181.634 235.4 182.002 235.836 182.235 236.367C182.468 236.898 182.536 237.48 182.44 238.112C182.338 238.785 182.079 239.352 181.665 239.815C181.252 240.268 180.738 240.589 180.122 240.779C179.507 240.968 178.843 241.009 178.131 240.901C176.708 240.684 175.668 240.071 175.013 239.061C174.367 238.052 174.171 236.717 174.423 235.056C174.601 233.89 174.965 232.929 175.515 232.173C176.066 231.407 176.755 230.869 177.581 230.56C178.418 230.243 179.341 230.161 180.349 230.314C180.883 230.395 181.373 230.531 181.82 230.72C182.278 230.901 182.664 231.126 182.976 231.397L182.043 232.741C181.581 232.327 180.949 232.059 180.148 231.937C179.149 231.785 178.322 231.973 177.665 232.5C177.008 233.027 176.592 233.869 176.416 235.026L176.413 235.041C176.774 234.731 177.205 234.524 177.707 234.418C178.21 234.302 178.758 234.29 179.351 234.38ZM178.258 239.372C178.861 239.464 179.374 239.38 179.798 239.121C180.223 238.852 180.477 238.451 180.558 237.917C180.641 237.373 180.518 236.915 180.191 236.541C179.863 236.167 179.383 235.933 178.75 235.836C178.128 235.741 177.593 235.832 177.146 236.108C176.709 236.385 176.452 236.781 176.374 237.295C176.297 237.799 176.421 238.248 176.745 238.642C177.081 239.026 177.585 239.27 178.258 239.372ZM193.228 234.853C193.999 234.971 194.66 235.243 195.212 235.671C195.774 236.101 196.181 236.648 196.434 237.314C196.687 237.979 196.752 238.712 196.63 239.513C196.509 240.314 196.227 241 195.786 241.57C195.347 242.13 194.795 242.532 194.131 242.774C193.477 243.019 192.764 243.082 191.993 242.965C190.926 242.802 190.135 242.318 189.62 241.511L189.036 245.352L187.182 245.07L188.825 234.274L190.59 234.543L190.432 235.581C190.795 235.252 191.214 235.027 191.687 234.907C192.171 234.788 192.684 234.771 193.228 234.853ZM192.027 241.347C192.709 241.45 193.303 241.308 193.807 240.919C194.321 240.532 194.634 239.968 194.747 239.227C194.86 238.485 194.729 237.853 194.353 237.331C193.987 236.81 193.463 236.497 192.781 236.394C192.336 236.326 191.92 236.369 191.532 236.522C191.146 236.666 190.821 236.91 190.556 237.254C190.291 237.598 190.121 238.017 190.046 238.511C189.971 239.006 190.009 239.456 190.159 239.864C190.31 240.271 190.547 240.605 190.871 240.867C191.197 241.119 191.582 241.279 192.027 241.347ZM208.999 237.254C209.998 237.405 210.744 237.817 211.239 238.49C211.735 239.152 211.895 240.061 211.719 241.218L211.028 245.756L209.175 245.473L209.829 241.173C209.935 240.481 209.86 239.939 209.606 239.546C209.354 239.143 208.941 238.898 208.368 238.811C207.745 238.716 207.214 238.848 206.775 239.206C206.338 239.554 206.061 240.109 205.946 240.87L205.334 244.889L203.48 244.607L204.135 240.306C204.24 239.614 204.166 239.072 203.912 238.679C203.66 238.277 203.247 238.032 202.673 237.945C202.041 237.848 201.506 237.974 201.068 238.322C200.641 238.672 200.368 239.232 200.251 240.004L199.639 244.022L197.786 243.74L198.991 235.821L200.756 236.09L200.602 237.098C200.953 236.788 201.365 236.572 201.839 236.452C202.312 236.332 202.821 236.313 203.364 236.396C203.957 236.486 204.464 236.68 204.884 236.976C205.316 237.264 205.632 237.646 205.833 238.122C206.222 237.756 206.691 237.499 207.24 237.35C207.79 237.191 208.377 237.159 208.999 237.254Z" fill="#24222F"/>
<g clip-path="url(#clip3_910_7849)">
<rect x="53.9492" y="102.491" width="230" height="52" rx="5" transform="rotate(8.6533 53.9492 102.491)" fill="#F6F6F6"/>
<g clip-path="url(#clip4_910_7849)">
<path d="M76.8988 122.5L69.9744 114.163C69.8336 113.993 69.6352 113.881 69.417 113.848C69.1989 113.815 68.9761 113.863 68.7911 113.983L59.7002 119.882C59.6011 119.947 59.5156 120.03 59.4487 120.127C59.3818 120.225 59.3347 120.334 59.3102 120.45C59.2857 120.566 59.2842 120.685 59.3057 120.801C59.3273 120.917 59.3716 121.028 59.436 121.127C59.5004 121.226 59.5837 121.312 59.6812 121.379C59.7786 121.446 59.8883 121.493 60.0039 121.517C60.1195 121.542 60.2389 121.543 60.3551 121.522C60.4713 121.5 60.5821 121.456 60.6812 121.392L61.0199 121.17L59.9972 127.89C59.9613 128.126 60.0206 128.367 60.162 128.559C60.3035 128.751 60.5155 128.879 60.7515 128.915L64.3105 129.457C64.5464 129.493 64.787 129.434 64.9793 129.292C65.1715 129.151 65.2997 128.939 65.3356 128.703L65.7418 126.033C65.7777 125.797 65.9059 125.585 66.0982 125.444C66.2904 125.302 66.531 125.243 66.767 125.279L68.5464 125.55C68.7824 125.586 68.9945 125.714 69.1359 125.906C69.2774 126.098 69.3367 126.339 69.3008 126.575L68.8946 129.244C68.8586 129.48 68.9179 129.721 69.0594 129.913C69.2009 130.105 69.4129 130.233 69.6489 130.269L73.2078 130.811C73.4438 130.847 73.6844 130.788 73.8766 130.646C74.0689 130.505 74.1971 130.293 74.233 130.057L75.2555 123.338L75.5129 123.651C75.5883 123.742 75.681 123.817 75.7855 123.872C75.89 123.927 76.0044 123.961 76.1221 123.972C76.2398 123.983 76.3585 123.971 76.4714 123.936C76.5844 123.901 76.6893 123.844 76.7803 123.769C76.8713 123.693 76.9465 123.601 77.0017 123.496C77.0569 123.392 77.0909 123.277 77.1019 123.16C77.1129 123.042 77.1006 122.923 77.0657 122.81C77.0308 122.697 76.974 122.592 76.8985 122.501L76.8988 122.5Z" fill="#29B6FF"/>
</g>
<path d="M87.1091 119.17L85.5293 129.551L83.6015 129.257L84.9353 120.493L82.7406 120.159L82.9866 118.543L87.1091 119.17ZM95.3552 129.377L95.1069 131.008L87.455 129.844L87.6514 128.553L92.3697 125.266C92.9021 124.892 93.2722 124.554 93.48 124.251C93.6992 123.941 93.8337 123.622 93.8833 123.296C93.957 122.812 93.8503 122.416 93.5632 122.11C93.2761 121.803 92.8162 121.601 92.1834 121.505C91.1256 121.344 90.26 121.582 89.5867 122.218L88.3952 120.974C88.8833 120.492 89.491 120.155 90.2183 119.962C90.9569 119.761 91.7514 119.725 92.6016 119.854C93.7286 120.026 94.5876 120.43 95.1786 121.066C95.7697 121.702 95.9952 122.48 95.8553 123.399C95.7695 123.963 95.5704 124.473 95.2579 124.932C94.9454 125.39 94.4049 125.884 93.6363 126.415L90.4615 128.632L95.3552 129.377ZM101.566 125.755C102.507 126.02 103.189 126.457 103.612 127.068C104.035 127.679 104.186 128.384 104.064 129.185C103.972 129.788 103.735 130.313 103.353 130.761C102.972 131.209 102.447 131.533 101.779 131.735C101.122 131.929 100.349 131.958 99.4595 131.822C98.718 131.709 98.017 131.497 97.3566 131.184C96.7076 130.862 96.1694 130.477 95.7422 130.028L96.8005 128.656C97.1281 129.03 97.5445 129.351 98.0497 129.62C98.5664 129.881 99.1114 130.055 99.6848 130.142C100.367 130.246 100.922 130.189 101.35 129.971C101.789 129.744 102.045 129.389 102.119 128.904C102.193 128.42 102.062 128.015 101.727 127.691C101.403 127.359 100.861 127.135 100.099 127.019L99.1504 126.874L99.3512 125.555L102.136 123.111L97.4199 122.393L97.6659 120.777L104.739 121.853L104.543 123.143L101.566 125.755ZM119.226 134.679L120.258 127.796L115.981 132.971L115.121 132.84L112.563 126.716L111.529 133.507L109.69 133.228L111.27 122.847L112.857 123.089L115.932 130.597L121.028 124.332L122.615 124.574L121.05 134.956L119.226 134.679ZM127.919 127.809C129.086 127.986 129.933 128.403 130.46 129.06C130.999 129.708 131.182 130.596 131.011 131.723L130.304 136.365L128.554 136.098L128.701 135.135C128.421 135.446 128.054 135.663 127.601 135.786C127.158 135.901 126.64 135.913 126.047 135.823C125.454 135.733 124.95 135.555 124.535 135.29C124.122 135.014 123.819 134.68 123.626 134.286C123.444 133.884 123.388 133.456 123.457 133.001C123.566 132.289 123.914 131.761 124.503 131.416C125.103 131.062 125.971 130.971 127.108 131.144L129.155 131.456L129.173 131.337C129.257 130.784 129.154 130.333 128.863 129.985C128.582 129.639 128.115 129.416 127.462 129.317C127.017 129.249 126.567 129.251 126.111 129.324C125.665 129.397 125.275 129.535 124.94 129.737L124.419 128.277C124.882 128.024 125.419 127.858 126.027 127.779C126.636 127.699 127.267 127.709 127.919 127.809ZM126.638 134.532C127.103 134.603 127.529 134.562 127.916 134.408C128.315 134.246 128.619 133.979 128.828 133.606L128.967 132.687L127.054 132.396C125.987 132.233 125.399 132.503 125.293 133.205C125.242 133.541 125.334 133.828 125.571 134.066C125.808 134.305 126.164 134.46 126.638 134.532ZM133.888 128.808L135.742 129.09L134.537 137.009L132.683 136.727L133.888 128.808ZM135.021 127.645C134.685 127.594 134.419 127.447 134.223 127.205C134.029 126.953 133.956 126.669 134.004 126.352C134.052 126.036 134.206 125.791 134.465 125.618C134.725 125.435 135.024 125.37 135.36 125.421C135.696 125.472 135.962 125.619 136.158 125.861C136.355 126.093 136.43 126.363 136.384 126.669C136.334 126.995 136.178 127.255 135.916 127.448C135.666 127.632 135.367 127.698 135.021 127.645ZM142.682 130.055C143.68 130.207 144.437 130.621 144.951 131.296C145.465 131.971 145.635 132.882 145.461 134.028L144.77 138.566L142.916 138.284L143.571 133.984C143.676 133.292 143.592 132.748 143.318 132.352C143.046 131.947 142.609 131.698 142.006 131.606C141.324 131.502 140.753 131.628 140.295 131.983C139.837 132.328 139.55 132.886 139.433 133.657L138.823 137.661L136.97 137.379L138.175 129.46L139.94 129.729L139.784 130.752C140.146 130.433 140.574 130.215 141.067 130.098C141.56 129.981 142.098 129.966 142.682 130.055ZM154.593 140.213C153.792 140.091 153.034 139.859 152.317 139.518C151.61 139.177 151.068 138.786 150.69 138.344L151.585 136.948C151.959 137.349 152.436 137.705 153.016 138.016C153.607 138.318 154.214 138.517 154.837 138.611C155.608 138.729 156.2 138.692 156.613 138.502C157.037 138.314 157.279 138.017 157.341 137.612C157.386 137.315 157.314 137.056 157.125 136.835C156.948 136.606 156.704 136.412 156.394 136.254C156.085 136.095 155.659 135.904 155.116 135.68C154.354 135.372 153.74 135.086 153.274 134.823C152.818 134.562 152.442 134.206 152.147 133.756C151.862 133.298 151.772 132.728 151.876 132.046C151.963 131.473 152.195 130.977 152.573 130.559C152.961 130.133 153.488 129.828 154.153 129.646C154.828 129.466 155.62 129.445 156.529 129.583C157.162 129.68 157.773 129.853 158.362 130.105C158.951 130.356 159.445 130.664 159.845 131.029L159.009 132.434C158.595 132.098 158.151 131.823 157.678 131.609C157.204 131.395 156.736 131.253 156.271 131.183C155.51 131.067 154.922 131.109 154.507 131.309C154.102 131.51 153.867 131.823 153.802 132.248C153.757 132.545 153.824 132.803 154.003 133.022C154.192 133.243 154.441 133.433 154.751 133.591C155.061 133.75 155.487 133.941 156.029 134.165C156.773 134.46 157.378 134.745 157.842 135.018C158.307 135.281 158.683 135.636 158.969 136.084C159.265 136.534 159.362 137.095 159.259 137.767C159.172 138.341 158.935 138.835 158.548 139.252C158.171 139.67 157.645 139.969 156.97 140.15C156.295 140.33 155.503 140.351 154.593 140.213ZM165.372 141.262C165.127 141.406 164.84 141.499 164.51 141.54C164.19 141.582 163.857 141.577 163.511 141.525C162.641 141.392 162.003 141.062 161.598 140.535C161.193 140.009 161.056 139.31 161.189 138.44L161.769 134.629L160.464 134.43L160.689 132.947L161.994 133.146L162.27 131.337L164.123 131.619L163.848 133.428L165.968 133.751L165.743 135.234L163.622 134.911L163.049 138.678C162.99 139.063 163.039 139.374 163.195 139.61C163.353 139.837 163.61 139.977 163.966 140.031C164.381 140.094 164.744 140.038 165.053 139.863L165.372 141.262ZM169.625 135.43C170.285 134.681 171.287 134.409 172.632 134.613L172.363 136.378C172.21 136.324 172.069 136.288 171.94 136.268C171.218 136.158 170.623 136.285 170.153 136.648C169.684 137.002 169.39 137.574 169.269 138.365L168.685 142.206L166.831 141.924L168.036 134.005L169.801 134.273L169.625 135.43ZM180.953 140.067C180.934 140.196 180.896 140.377 180.84 140.611L174.627 139.666C174.647 140.266 174.858 140.773 175.26 141.188C175.673 141.595 176.221 141.851 176.903 141.954C177.773 142.087 178.534 141.909 179.185 141.422L180.004 142.715C179.584 143.086 179.085 143.338 178.508 143.473C177.931 143.608 177.302 143.623 176.62 143.52C175.75 143.387 175.01 143.098 174.4 142.651C173.79 142.204 173.349 141.646 173.077 140.978C172.816 140.301 172.745 139.572 172.863 138.791C172.981 138.019 173.259 137.354 173.698 136.793C174.149 136.225 174.712 135.815 175.388 135.564C176.063 135.312 176.791 135.246 177.572 135.365C178.344 135.482 179.004 135.76 179.555 136.198C180.116 136.627 180.518 137.179 180.759 137.853C181.012 138.519 181.077 139.257 180.953 140.067ZM177.347 136.848C176.754 136.758 176.222 136.859 175.753 137.152C175.295 137.436 174.977 137.863 174.799 138.433L179.293 139.117C179.301 138.531 179.129 138.03 178.778 137.612C178.427 137.194 177.95 136.94 177.347 136.848ZM190.178 141.471C190.159 141.6 190.121 141.781 190.065 142.015L183.852 141.07C183.872 141.67 184.083 142.177 184.485 142.592C184.898 142.999 185.446 143.255 186.128 143.358C186.998 143.491 187.759 143.313 188.409 142.825L189.229 144.119C188.809 144.489 188.31 144.742 187.733 144.877C187.156 145.012 186.527 145.027 185.845 144.923C184.975 144.791 184.235 144.501 183.625 144.055C183.015 143.608 182.574 143.05 182.302 142.381C182.041 141.705 181.969 140.976 182.088 140.194C182.206 139.423 182.484 138.758 182.923 138.197C183.374 137.629 183.937 137.219 184.613 136.968C185.288 136.716 186.016 136.65 186.797 136.769C187.568 136.886 188.229 137.164 188.78 137.602C189.341 138.031 189.743 138.583 189.984 139.257C190.237 139.922 190.302 140.661 190.178 141.471ZM186.572 138.252C185.978 138.162 185.447 138.263 184.978 138.556C184.52 138.84 184.202 139.267 184.024 139.837L188.517 140.521C188.526 139.935 188.354 139.434 188.003 139.016C187.652 138.598 187.175 138.344 186.572 138.252ZM196.189 145.952C195.944 146.096 195.657 146.189 195.327 146.23C195.007 146.272 194.674 146.267 194.328 146.215C193.458 146.082 192.82 145.752 192.415 145.225C192.01 144.698 191.873 144 192.006 143.13L192.586 139.319L191.281 139.12L191.506 137.637L192.811 137.836L193.087 136.027L194.94 136.309L194.665 138.118L196.785 138.441L196.56 139.924L194.439 139.601L193.866 143.368C193.807 143.753 193.856 144.064 194.012 144.3C194.17 144.527 194.427 144.667 194.783 144.721C195.198 144.784 195.561 144.728 195.871 144.553L196.189 145.952ZM198.76 144.37C199.106 144.423 199.375 144.58 199.568 144.842C199.761 145.104 199.829 145.418 199.774 145.784C199.75 145.942 199.699 146.106 199.623 146.277C199.558 146.439 199.429 146.682 199.238 147.007L198.164 148.983L196.963 148.8L197.901 146.622C197.697 146.5 197.545 146.335 197.445 146.128C197.357 145.912 197.332 145.675 197.371 145.418C197.427 145.053 197.586 144.773 197.848 144.581C198.11 144.388 198.414 144.318 198.76 144.37ZM216.493 138.861L214.913 149.241L213.327 149L208.672 141.1L207.603 148.129L205.69 147.837L207.269 137.457L208.856 137.698L213.51 145.599L214.58 138.57L216.493 138.861ZM225.557 146.855C225.537 146.984 225.5 147.165 225.444 147.4L219.23 146.454C219.25 147.054 219.461 147.561 219.864 147.977C220.277 148.383 220.825 148.639 221.507 148.743C222.377 148.875 223.137 148.697 223.788 148.21L224.608 149.503C224.187 149.874 223.689 150.127 223.112 150.261C222.535 150.396 221.905 150.411 221.223 150.308C220.353 150.175 219.613 149.886 219.004 149.439C218.394 148.992 217.953 148.434 217.68 147.766C217.419 147.089 217.348 146.36 217.467 145.579C217.584 144.808 217.863 144.142 218.302 143.582C218.753 143.013 219.316 142.603 219.991 142.352C220.667 142.101 221.395 142.034 222.176 142.153C222.947 142.271 223.608 142.548 224.158 142.986C224.72 143.415 225.122 143.967 225.363 144.641C225.616 145.307 225.68 146.045 225.557 146.855ZM221.95 143.636C221.357 143.546 220.826 143.647 220.357 143.94C219.899 144.224 219.581 144.651 219.403 145.221L223.896 145.905C223.904 145.319 223.733 144.818 223.382 144.4C223.031 143.983 222.553 143.728 221.95 143.636ZM240.155 144.98L236.028 152.455L234.249 152.184L233.033 146.415L230.126 151.556L228.347 151.286L226.645 142.924L228.395 143.191L229.597 149.352L232.666 143.841L234.223 144.078L235.465 150.275L238.509 144.73L240.155 144.98ZM85.0098 143.931L84.4524 147.594L82.5245 147.301L83.0775 143.667L80.0263 136.299L82.0875 136.613L84.358 142.133L88.1972 137.543L90.0953 137.832L85.0098 143.931ZM92.2599 148.888C91.4591 148.766 90.7638 148.484 90.1738 148.04C89.5839 147.596 89.1527 147.04 88.8802 146.371C88.619 145.694 88.5479 144.965 88.6668 144.184C88.7856 143.403 89.0697 142.733 89.5188 142.174C89.9779 141.617 90.5551 141.214 91.2503 140.966C91.9456 140.718 92.6936 140.655 93.4944 140.777C94.3051 140.9 95.0054 141.184 95.5953 141.627C96.1852 142.071 96.6115 142.627 96.8741 143.294C97.1467 143.962 97.2235 144.687 97.1046 145.468C96.9858 146.249 96.696 146.923 96.2355 147.491C95.7863 148.049 95.2141 148.453 94.5188 148.701C93.8235 148.949 93.0706 149.012 92.2599 148.888ZM92.5014 147.302C93.1835 147.405 93.7817 147.264 94.2957 146.877C94.8098 146.49 95.1233 145.925 95.2361 145.184C95.349 144.442 95.2176 143.811 94.8419 143.288C94.4662 142.766 93.9373 142.452 93.2552 142.349C92.573 142.245 91.9749 142.386 91.4608 142.773C90.9566 143.162 90.6481 143.727 90.5353 144.469C90.4224 145.21 90.5489 145.841 90.9147 146.362C91.2903 146.885 91.8192 147.198 92.5014 147.302ZM101.068 143.204C101.729 142.455 102.731 142.182 104.076 142.387L103.807 144.152C103.653 144.098 103.512 144.061 103.384 144.042C102.662 143.932 102.066 144.059 101.596 144.422C101.128 144.776 100.833 145.348 100.713 146.139L100.128 149.98L98.2746 149.697L99.4797 141.779L101.244 142.047L101.068 143.204ZM108.179 147.73L106.601 148.825L106.283 150.916L104.429 150.634L106.104 139.631L107.958 139.913L106.946 146.556L111.329 143.582L113.553 143.92L109.741 146.739L112.66 151.887L110.406 151.544L108.179 147.73ZM122.56 142.773L120.98 153.153L119.053 152.86L120.386 144.096L118.192 143.762L118.438 142.145L122.56 142.773ZM127.347 154.274C126.517 154.147 125.807 153.827 125.218 153.312C124.63 152.788 124.209 152.097 123.955 151.239C123.703 150.371 123.661 149.383 123.829 148.276C123.998 147.169 124.331 146.243 124.829 145.5C125.328 144.746 125.935 144.212 126.651 143.896C127.368 143.57 128.142 143.47 128.972 143.597C129.802 143.723 130.512 144.048 131.099 144.573C131.699 145.089 132.124 145.781 132.377 146.649C132.63 147.507 132.673 148.489 132.505 149.596C132.336 150.704 132.002 151.634 131.503 152.388C131.006 153.131 130.393 153.665 129.666 153.989C128.951 154.305 128.178 154.4 127.347 154.274ZM127.602 152.598C128.344 152.711 128.974 152.493 129.492 151.945C130.02 151.398 130.377 150.517 130.562 149.301C130.747 148.085 130.669 147.137 130.327 146.458C129.995 145.78 129.459 145.385 128.717 145.272C127.985 145.161 127.356 145.379 126.827 145.925C126.309 146.474 125.957 147.356 125.772 148.572C125.587 149.788 125.66 150.735 125.992 151.412C126.334 152.091 126.871 152.487 127.602 152.598ZM137.325 155.792C136.495 155.666 135.785 155.345 135.195 154.831C134.608 154.306 134.187 153.615 133.933 152.757C133.681 151.889 133.639 150.902 133.807 149.795C133.976 148.687 134.309 147.762 134.806 147.018C135.305 146.265 135.913 145.73 136.629 145.414C137.346 145.088 138.12 144.989 138.95 145.115C139.78 145.242 140.489 145.567 141.077 146.091C141.676 146.607 142.102 147.299 142.355 148.167C142.608 149.025 142.651 150.008 142.482 151.115C142.314 152.222 141.98 153.153 141.481 153.906C140.984 154.65 140.371 155.184 139.644 155.508C138.929 155.824 138.155 155.919 137.325 155.792ZM137.58 154.116C138.322 154.229 138.951 154.012 139.47 153.463C139.998 152.917 140.355 152.035 140.54 150.819C140.725 149.603 140.647 148.656 140.305 147.977C139.973 147.299 139.436 146.904 138.695 146.791C137.963 146.679 137.333 146.897 136.805 147.444C136.287 147.992 135.935 148.874 135.75 150.09C135.565 151.306 135.638 152.253 135.97 152.931C136.312 153.61 136.848 154.005 137.58 154.116ZM147.303 157.311C146.472 157.184 145.763 156.864 145.173 156.349C144.586 155.825 144.165 155.134 143.911 154.276C143.659 153.408 143.617 152.42 143.785 151.313C143.954 150.206 144.287 149.28 144.784 148.537C145.283 147.783 145.891 147.249 146.606 146.933C147.324 146.607 148.097 146.507 148.928 146.634C149.758 146.76 150.467 147.085 151.055 147.61C151.654 148.126 152.08 148.818 152.332 149.686C152.586 150.544 152.629 151.526 152.46 152.633C152.292 153.741 151.958 154.671 151.459 155.425C150.961 156.168 150.349 156.702 149.622 157.026C148.906 157.342 148.133 157.437 147.303 157.311ZM147.558 155.635C148.299 155.748 148.929 155.53 149.448 154.982C149.976 154.435 150.333 153.554 150.518 152.338C150.703 151.122 150.624 150.174 150.283 149.495C149.951 148.817 149.414 148.422 148.673 148.309C147.941 148.198 147.311 148.416 146.783 148.962C146.265 149.511 145.913 150.393 145.728 151.609C145.543 152.825 145.616 153.772 145.948 154.449C146.29 155.128 146.826 155.524 147.558 155.635ZM158.069 148.177L156.489 158.557L154.562 158.264L155.895 149.5L153.701 149.166L153.947 147.549L158.069 148.177Z" fill="#24222F"/>
</g>
<rect x="65.8359" y="24.3906" width="129" height="30" rx="15" transform="rotate(8.6533 65.8359 24.3906)" fill="#29B6FF"/>
<rect x="74.8203" y="31.8267" width="21" height="18" rx="9" transform="rotate(8.6533 74.8203 31.8267)" fill="white"/>
<path d="M78.6462 46.5699L79.898 38.3446L80.6607 39.3812L77.9618 38.9704L78.216 37.2997L82.0974 37.8903L80.7282 46.8868L78.6462 46.5699ZM85.3263 47.7443C84.7009 47.6491 84.0921 47.4732 83.5 47.2165C82.9177 46.9526 82.4316 46.6332 82.0416 46.2582L83.1066 44.7897C83.4115 45.0904 83.7757 45.3474 84.199 45.5609C84.631 45.7756 85.0783 45.9182 85.5409 45.9886C86.0636 46.0682 86.4905 46.028 86.8217 45.868C87.1529 45.708 87.3465 45.4438 87.4025 45.0753C87.4378 44.844 87.4091 44.6292 87.3165 44.431C87.2239 44.2329 87.0306 44.0632 86.7365 43.922C86.451 43.7821 86.034 43.6704 85.4857 43.587L83.1851 43.2369L84.4184 38.2436L89.9063 39.0788L89.652 40.7495L84.9096 40.0278L86.1339 39.241L85.263 42.8036L84.3282 41.6882L86.2303 41.9777C87.1213 42.1133 87.8179 42.3464 88.3198 42.677C88.8317 43.0004 89.1799 43.3909 89.3645 43.8485C89.549 44.3062 89.6009 44.8006 89.5201 45.3318C89.4392 45.8631 89.2314 46.3355 88.8967 46.7492C88.5633 47.1543 88.0966 47.4559 87.4967 47.6538C86.9066 47.8446 86.1831 47.8747 85.3263 47.7443Z" fill="#29B6FF"/>
<path d="M101.438 39.722L106.279 40.4586C107.46 40.6384 108.474 41.03 109.321 41.6336C110.169 42.2267 110.782 42.9836 111.16 43.9042C111.539 44.8143 111.646 45.8177 111.479 46.9144C111.312 48.0112 110.911 48.9428 110.276 49.7094C109.643 50.4654 108.833 51.0056 107.845 51.33C106.858 51.6438 105.775 51.7109 104.594 51.5311L99.7534 50.7945L101.438 39.722ZM104.764 49.7767C105.576 49.9003 106.311 49.8557 106.969 49.643C107.639 49.4213 108.181 49.0506 108.595 48.5309C109.02 48.0023 109.291 47.3583 109.406 46.5991C109.522 45.8398 109.454 45.1498 109.204 44.529C108.965 43.8993 108.558 43.3841 107.982 42.9837C107.419 42.5742 106.731 42.3077 105.919 42.1841L103.23 41.7749L102.074 49.3675L104.764 49.7767ZM115.612 45.8279C116.316 45.0288 117.385 44.7384 118.819 44.9566L118.533 46.839C118.369 46.7816 118.219 46.7426 118.082 46.7217C117.312 46.6045 116.676 46.7398 116.175 47.1274C115.675 47.5045 115.361 48.1149 115.233 48.9585L114.609 53.0553L112.632 52.7544L113.917 44.3077L115.8 44.5942L115.612 45.8279ZM120.482 45.3068L122.46 45.6077L121.174 54.0545L119.197 53.7535L120.482 45.3068ZM121.691 44.0665C121.332 44.0119 121.048 43.8555 120.84 43.5971C120.632 43.3282 120.554 43.025 120.606 42.6876C120.657 42.3501 120.821 42.0891 121.097 41.9046C121.375 41.7095 121.693 41.6392 122.052 41.6938C122.41 41.7484 122.694 41.9048 122.903 42.1632C123.113 42.411 123.194 42.6984 123.144 43.0253C123.091 43.3733 122.925 43.6501 122.645 43.8557C122.378 44.0524 122.06 44.1227 121.691 44.0665ZM132.964 47.2063L128.056 55.1018L126.015 54.7912L123.679 45.7932L125.735 46.1062L127.407 52.7697L131.065 46.9174L132.964 47.2063ZM141.258 52.8384C141.237 52.9755 141.197 53.169 141.138 53.4188L134.51 52.4102C134.531 53.05 134.756 53.5914 135.185 54.0343C135.626 54.4682 136.211 54.7406 136.938 54.8513C137.866 54.9926 138.677 54.8031 139.371 54.2829L140.246 55.6622C139.797 56.0579 139.265 56.3276 138.65 56.4713C138.035 56.615 137.363 56.6315 136.636 56.5208C135.708 56.3796 134.918 56.0707 134.268 55.594C133.618 55.1174 133.147 54.5225 132.857 53.8094C132.578 53.0872 132.502 52.3096 132.629 51.4766C132.754 50.654 133.051 49.9439 133.52 49.3463C134 48.7397 134.601 48.3025 135.321 48.0345C136.042 47.7665 136.819 47.6959 137.652 47.8227C138.474 47.9479 139.179 48.2439 139.766 48.7109C140.366 49.169 140.794 49.7574 141.051 50.4764C141.321 51.1863 141.39 51.9737 141.258 52.8384ZM137.411 49.4045C136.778 49.3082 136.212 49.4162 135.711 49.7284C135.223 50.0317 134.883 50.4872 134.694 51.0949L139.487 51.8243C139.495 51.1998 139.313 50.6649 138.938 50.2195C138.563 49.774 138.054 49.5024 137.411 49.4045ZM145.502 50.3769C146.206 49.5777 147.276 49.2873 148.71 49.5055L148.423 51.3879C148.259 51.3306 148.109 51.2915 147.972 51.2706C147.202 51.1535 146.566 51.2887 146.065 51.6763C145.565 52.0535 145.251 52.6638 145.123 53.5074L144.499 57.6043L142.522 57.3033L143.808 48.8566L145.69 49.1431L145.502 50.3769ZM157.315 59.668C156.461 59.538 155.719 59.2363 155.09 58.7629C154.461 58.2895 154.001 57.6962 153.71 56.983C153.432 56.2609 153.356 55.4833 153.483 54.6502C153.609 53.8171 153.912 53.1026 154.391 52.5066C154.881 51.9121 155.497 51.4825 156.238 51.2178C156.98 50.953 157.778 50.8856 158.632 51.0156C159.497 51.1472 160.244 51.4497 160.873 51.9231C161.502 52.3965 161.957 52.989 162.237 53.7006C162.528 54.4138 162.61 55.1869 162.483 56.02C162.356 56.853 162.047 57.5721 161.556 58.177C161.077 58.7731 160.466 59.2035 159.725 59.4682C158.983 59.733 158.18 59.7996 157.315 59.668ZM157.573 57.9755C158.3 58.0862 158.938 57.9351 159.487 57.5223C160.035 57.1094 160.37 56.5075 160.49 55.7166C160.61 54.9258 160.47 54.2517 160.069 53.6944C159.669 53.1371 159.105 52.803 158.377 52.6923C157.649 52.5816 157.011 52.7326 156.463 53.1455C155.925 53.56 155.596 54.1626 155.476 54.9535C155.355 55.7444 155.49 56.4177 155.88 56.9734C156.281 57.5307 156.845 57.8647 157.573 57.9755ZM173.194 53.3289L171.909 61.7756L170.026 61.4892L170.19 60.4136C169.816 60.745 169.376 60.9801 168.869 61.1188C168.364 61.247 167.837 61.2693 167.289 61.1859C166.161 61.0141 165.317 60.5674 164.758 59.8458C164.211 59.1152 164.031 58.133 164.219 56.8992L164.953 52.0747L166.93 52.3756L166.237 56.9312C166.122 57.6904 166.204 58.2855 166.483 58.7165C166.775 59.1386 167.237 59.3977 167.87 59.494C168.577 59.6016 169.168 59.4704 169.645 59.1007C170.135 58.722 170.442 58.1213 170.567 57.2988L171.217 53.028L173.194 53.3289ZM179.645 62.4837C179.384 62.6382 179.078 62.7372 178.726 62.7807C178.384 62.8259 178.029 62.8204 177.66 62.7642C176.732 62.623 176.052 62.2713 175.62 61.7092C175.187 61.1471 175.042 60.402 175.183 59.4741L175.802 55.4089L174.41 55.197L174.65 53.6152L176.042 53.8271L176.336 51.8973L178.313 52.1982L178.02 54.128L180.282 54.4722L180.041 56.054L177.779 55.7098L177.167 59.7275C177.105 60.1388 177.157 60.4704 177.324 60.7223C177.492 60.9637 177.766 61.1133 178.145 61.1711C178.588 61.2385 178.975 61.1787 179.306 60.9916L179.645 62.4837Z" fill="white"/>
<defs>
<filter id="filter0_d_910_7849" x="0.0820312" y="0.0839844" width="327.441" height="309.839" filterUnits="userSpaceOnUse" color-interpolation-filters="sRGB">
<feFlood flood-opacity="0" result="BackgroundImageFix"/>
<feColorMatrix in="SourceAlpha" type="matrix" values="0 0 0 0 0 0 0 0 0 0 0 0 0 0 0 0 0 0 127 0" result="hardAlpha"/>
<feOffset dy="10"/>
<feGaussianBlur stdDeviation="12.5"/>
<feComposite in2="hardAlpha" operator="out"/>
<feColorMatrix type="matrix" values="0 0 0 0 0 0 0 0 0 0 0 0 0 0 0 0 0 0 0.15 0"/>
<feBlend mode="normal" in2="BackgroundImageFix" result="effect1_dropShadow_910_7849"/>
<feBlend mode="normal" in="SourceGraphic" in2="effect1_dropShadow_910_7849" result="shape"/>
</filter>
<filter id="filter1_b_910_7849" x="211.513" y="1.01913" width="136.067" height="136.069" filterUnits="userSpaceOnUse" color-interpolation-filters="sRGB">
<feFlood flood-opacity="0" result="BackgroundImageFix"/>
<feGaussianBlur in="BackgroundImageFix" stdDeviation="27.1828"/>
<feComposite in2="SourceAlpha" operator="in" result="effect1_backgroundBlur_910_7849"/>
<feBlend mode="normal" in="SourceGraphic" in2="effect1_backgroundBlur_910_7849" result="shape"/>
</filter>
<clipPath id="clip0_910_7849">
<rect width="18" height="18" fill="white" transform="translate(66.5234 73.0483) rotate(8.6533)"/>
</clipPath>
<clipPath id="clip1_910_7849">
<rect width="18" height="18" fill="white" transform="translate(52.0781 167.956) rotate(8.6533)"/>
</clipPath>
<clipPath id="clip2_910_7849">
<rect width="18" height="18" fill="white" transform="translate(46.2109 206.511) rotate(8.6533)"/>
</clipPath>
<clipPath id="clip3_910_7849">
<rect x="53.9492" y="102.491" width="230" height="52" rx="5" transform="rotate(8.6533 53.9492 102.491)" fill="white"/>
</clipPath>
<clipPath id="clip4_910_7849">
<rect width="18" height="18" fill="white" transform="translate(60.6562 111.604) rotate(8.6533)"/>
</clipPath>
</defs>
</svg>
