<svg width="235" height="129" viewBox="0 0 235 129" fill="none" xmlns="http://www.w3.org/2000/svg">
<rect width="235" height="129" rx="26" fill="white"/>
<g clip-path="url(#clip0_370_5273)">
<path d="M67.6935 39.9401C65.6228 39.8256 63.6071 40.0981 61.6464 40.7576C61.7209 40.1841 61.7075 39.5027 61.6061 38.7134C61.4789 37.7318 61.2038 36.5743 60.1931 36.2103C59.1953 35.8516 57.9972 36.1599 57.0217 36.5811C56.894 36.6363 56.8046 36.5996 56.7536 36.4709L56.329 35.3945C56.3223 35.3778 56.3226 35.359 56.3299 35.3424C56.3371 35.3258 56.3507 35.3126 56.3677 35.3057C59.4262 34.0619 62.4071 32.8422 65.3103 31.6468C66.0821 31.329 66.7954 31.3547 67.6428 31.3683C67.6747 31.369 67.7051 31.3821 67.7275 31.4048C67.7498 31.4274 67.7623 31.4579 67.7623 31.4896C67.7571 34.1373 67.7557 36.8041 67.758 39.4899C67.7588 39.6343 67.7176 39.7855 67.6935 39.9401Z" fill="#2CA1D9"/>
<path d="M67.6939 39.9398C68.1104 39.9187 68.4972 39.9298 68.8542 39.9731C70.9237 40.222 72.9151 40.7579 74.8282 41.5809C75.7031 41.9567 76.4852 42.2592 77.1745 42.4881C78.4473 42.911 79.6394 42.6043 80.1834 41.3024C80.3232 40.9692 80.4587 40.521 80.5899 39.9578C80.5934 39.9436 80.6015 39.9311 80.6128 39.9221C80.6242 39.9131 80.6382 39.9082 80.6527 39.9082H81.953C81.9669 39.9082 81.9803 39.9137 81.9901 39.9235C81.9999 39.9332 82.0054 39.9465 82.0054 39.9603L81.9857 42.3856C81.949 44.2582 81.961 46.1304 82.0218 48.0024V48.0238C81.9943 48.0349 81.9444 49.7733 81.9272 49.9784C81.9252 50.0037 81.9154 50.0278 81.8991 50.0475C81.8828 50.0672 81.8609 50.0815 81.8361 50.0886C81.0655 50.3044 80.3287 50.6173 79.6256 51.0274C79.5062 51.0966 79.409 51.0812 79.2784 51.0778C78.0729 47.9147 75.916 45.5939 72.8076 44.1155C71.1999 43.3506 69.5526 42.9246 67.8658 42.8375C66.0678 42.6598 64.3753 42.987 62.7882 43.8191C62.3765 44.0343 61.9115 44.2112 61.6167 44.5853C60.2038 45.6515 59.1725 47.0738 58.7556 48.7807C58.7373 48.8558 58.7161 48.9299 58.692 49.0028C58.5287 49.8701 58.5353 50.69 58.7118 51.4622C58.8734 52.1713 59.1664 53.0085 59.6048 53.6526C59.8666 54.0381 60.0623 54.2916 60.1918 54.4129C62.3834 56.4665 64.8474 58.0777 67.4618 59.5453C67.5512 59.5955 67.638 59.6481 67.7223 59.7034C68.4906 60.1476 69.2627 60.585 70.0385 61.0155C70.0729 61.0343 70.09 61.0301 70.1304 61.0343C69.045 63.4553 68.3858 66.0284 68.274 68.6792C68.2666 68.8478 68.1895 68.8899 68.0428 68.8056C66.0226 67.6461 64.0092 66.478 62.0026 65.3014C61.9482 65.2695 61.8757 65.2493 61.7852 65.2408C58.9009 63.422 56.0613 61.4743 54.3381 58.4818C53.2855 56.6548 52.779 54.6472 52.8186 52.4592C52.8214 52.302 52.8535 51.7846 52.9148 50.9069C53.0065 50.6672 53.0555 50.5177 53.0618 50.4585C53.1368 49.7437 53.3076 49.0532 53.574 48.3868C55.0007 44.8023 58.0294 42.0148 61.6468 40.7573C63.6075 40.0979 65.6232 39.8253 67.6939 39.9398Z" fill="#04528F"/>
<path d="M81.9856 42.3857L82.0217 48.0026C81.9609 46.1306 81.9489 44.2583 81.9856 42.3857Z" fill="#2CA1D9"/>
<path d="M67.8657 42.8374L67.7918 42.8605C67.7811 42.8638 67.7718 42.8703 67.7651 42.8792C67.7585 42.8882 67.7549 42.899 67.7548 42.91C67.7606 48.4782 67.758 54.0466 67.7471 59.6153C67.7471 59.6318 67.7388 59.6612 67.7222 59.7033C67.6379 59.6481 67.5511 59.5954 67.4618 59.5453C64.8473 58.0776 62.3833 56.4665 60.1917 54.4128C60.0622 54.2915 59.8665 54.0381 59.6047 53.6525C59.1664 53.0084 58.8733 52.1712 58.7117 51.4622C58.5352 50.6899 58.5286 49.8701 58.6919 49.0027C58.7372 49.0431 58.7707 49.0679 58.7925 49.077C59.6365 49.4068 60.4097 49.8558 61.1121 50.4242C61.3133 50.5871 61.5081 50.7414 61.6966 50.8872C61.7814 50.9533 61.8241 50.9328 61.8246 50.8257C61.8286 49.5204 61.8355 48.2165 61.8453 46.914C61.8496 46.398 61.8049 45.4293 61.8633 44.6698C61.8646 44.6541 61.8621 44.6382 61.8561 44.6236C61.8501 44.6089 61.8408 44.5958 61.8288 44.5853C61.8168 44.5748 61.8025 44.5671 61.787 44.563C61.7715 44.5588 61.7553 44.5583 61.7395 44.5613L61.6166 44.5853C61.9114 44.2111 62.3764 44.0343 62.7881 43.819C64.3752 42.9869 66.0677 42.6597 67.8657 42.8374Z" fill="#2CA1D9"/>
<path d="M82.0236 48.0239L82.009 49.9392C82.0089 49.9482 82.011 49.957 82.0151 49.965C82.0192 49.973 82.0251 49.98 82.0324 49.9852C82.0397 49.9905 82.0482 49.994 82.0571 49.9953C82.0661 49.9967 82.0752 49.9959 82.0837 49.993C84.6329 49.1294 87.1691 48.8722 89.8497 48.9816C92.0216 49.0713 94.1582 49.6129 96.1512 50.4714C96.5082 50.6252 97.1909 50.9435 98.1993 51.4265C98.8868 51.7551 99.5062 51.7793 100.057 51.4991C100.887 51.0779 101.417 50.0135 101.59 49.0901C101.594 49.0666 101.606 49.0451 101.623 49.0283C101.64 49.0115 101.662 49.0003 101.685 48.9961C102.018 48.9374 102.352 48.9337 102.688 48.985C102.715 48.989 102.74 49.0023 102.759 49.0225C102.778 49.0427 102.789 49.0687 102.79 49.096C102.9 50.89 103.013 52.6897 103.129 54.495C103.132 54.5417 103.139 54.5773 103.151 54.6018C103.162 54.6217 103.167 54.6428 103.169 54.665C103.31 57.0613 103.514 59.4549 103.634 61.8512C103.644 62.0382 103.717 62.368 103.684 62.632C103.683 62.6442 103.676 62.6555 103.667 62.6635C103.658 62.6716 103.646 62.6758 103.634 62.6755L102.835 62.6721C102.801 62.6719 102.769 62.6613 102.741 62.6417C102.714 62.6221 102.694 62.5945 102.683 62.5628C102.564 62.2194 102.442 61.8594 102.317 61.483C100.624 56.3958 97.5392 52.4285 91.9949 51.3564C88.6456 50.7089 85.048 51.2941 82.1035 53.0769C82.0671 53.0991 82.037 53.1303 82.0163 53.1674C81.9955 53.2045 81.9847 53.2463 81.9849 53.2888L82.0124 56.6777C82.0124 56.6877 82.0085 56.6972 82.0016 56.7043C81.9947 56.7113 81.9853 56.7153 81.9755 56.7153L80.8057 56.717C80.6602 56.717 80.5774 56.6455 80.5574 56.5026L80.3004 54.6462C80.2989 54.6366 80.2952 54.6274 80.2896 54.6194C80.2839 54.6114 80.2764 54.6049 80.2677 54.6004C80.2591 54.5959 80.2495 54.5935 80.2398 54.5934C80.2301 54.5934 80.2205 54.5957 80.2119 54.6001C80.091 54.661 79.9867 54.7394 79.899 54.835C77.5914 57.3586 76.2189 60.6432 75.6155 63.9689C75.6134 63.9818 75.6141 63.9949 75.6177 64.0075C75.6213 64.02 75.6276 64.0317 75.6362 64.0415L75.7101 64.1235C75.6184 64.1697 75.5677 64.2203 75.5579 64.2756C75.4004 65.1731 75.2852 66.27 75.2125 67.5662C75.1093 69.4166 74.9804 71.2746 75.1626 73.125C75.1701 73.2019 75.2368 73.2921 75.3629 73.3958L75.209 73.3761C75.2012 73.3752 75.1932 73.3761 75.1857 73.3786C75.1782 73.3811 75.1714 73.3853 75.1657 73.3907C75.16 73.3962 75.1556 73.4029 75.1529 73.4103C75.1501 73.4176 75.149 73.4255 75.1497 73.4334C75.435 76.4934 76.2489 79.438 77.8389 82.0846C77.934 82.2429 78.0432 82.3918 78.1664 82.5314C78.1696 82.535 78.1736 82.5379 78.178 82.5399C78.1825 82.5419 78.1873 82.5429 78.1922 82.5429C78.197 82.5429 78.2019 82.5419 78.2063 82.5399C78.2108 82.5379 78.2147 82.535 78.2179 82.5314L78.3065 82.4297C78.3351 82.4941 78.3388 82.5365 78.3176 82.557C78.2927 82.5818 78.2776 82.6148 78.2753 82.6498C78.2729 82.6849 78.2834 82.7196 78.3048 82.7475C79.241 83.9645 80.3044 84.9891 81.495 85.8212C81.5454 85.8565 81.6176 85.871 81.7116 85.8647C81.715 85.9581 81.7474 86.0242 81.8087 86.0629C83.3019 86.9986 84.8933 87.6442 86.583 87.9996C86.7669 88.0377 87.2181 88.0912 87.9366 88.1602C87.9647 88.1629 87.9917 88.1733 88.0148 88.1901C88.0457 88.2131 88.0767 88.2413 88.1162 88.2456C91.823 88.6411 95.6716 87.9833 98.6204 85.5965C100.513 84.0656 102.189 82.0641 103.587 80.0651C103.599 80.0476 103.618 80.0354 103.639 80.0311C103.66 80.0268 103.681 80.0307 103.7 80.042L104.448 80.5076C104.583 80.5913 104.608 80.6998 104.524 80.8331C104.248 81.2733 103.95 81.746 103.631 82.2512C101.505 85.6119 98.6006 88.4199 94.8199 89.855C91.8823 90.9699 89.0771 91.0596 85.8937 90.9075C83.5376 90.7947 81.2541 90.2306 79.043 89.2152C78.76 89.0853 78.5345 88.9697 78.3666 88.8683C78.1638 88.7453 78.022 88.7428 77.8192 88.8367C77.8616 88.79 77.8765 88.7368 77.8639 88.677C77.8609 88.663 77.8549 88.6498 77.8464 88.6382C77.8378 88.6266 77.8267 88.6168 77.814 88.6095C76.7638 88.0035 75.7909 87.2925 74.8953 86.4764C74.8742 86.4576 74.8472 86.4465 74.8188 86.4448L74.7217 86.4414C74.7463 86.381 74.7355 86.3289 74.689 86.285C72.8212 84.5275 71.3415 82.5003 70.25 80.2035C70.2419 80.1865 70.2276 80.1733 70.21 80.1666C70.1924 80.1599 70.1728 80.1603 70.1555 80.1676C68.0785 81.0441 65.9977 81.9069 63.9133 82.756C63.3486 82.9858 62.5416 82.9081 61.9572 82.8919C61.9233 82.891 61.8912 82.877 61.8676 82.8529C61.844 82.8288 61.8308 82.7965 61.8308 82.7629C61.8285 81.7155 61.8288 80.6896 61.8317 79.6849C61.8334 79.3509 61.8833 78.9101 61.8609 78.5547C61.8494 78.3657 61.7778 78.3395 61.646 78.4761C60.3964 79.7678 58.9826 80.927 57.3763 81.7395C57.3293 81.7634 57.2884 81.8263 57.2534 81.9282C56.5779 80.9977 56.1132 79.9705 55.8594 78.8469C55.9574 78.9056 56.0281 78.9332 56.0717 78.9298C58.2504 78.7367 60.1884 77.4715 61.6443 75.892C61.9778 75.5298 61.8325 74.5849 61.8317 74.1228C61.8231 71.5121 61.8245 69.848 61.836 69.1304C61.8558 67.8994 61.8128 66.8324 61.8601 65.8312C61.8692 65.6319 61.8449 65.4351 61.787 65.2409C61.8775 65.2495 61.95 65.2697 62.0044 65.3016C64.011 66.4782 66.0244 67.6463 68.0446 68.8058C68.1913 68.8901 68.2684 68.8479 68.2758 68.6794C68.3876 66.0285 69.0468 63.4555 70.1322 61.0345C70.1517 60.9952 70.1712 60.9542 70.1907 60.9115C72.0694 56.7862 75.1334 53.3409 79.1719 51.2505C79.2527 51.2089 79.2888 51.1514 79.2802 51.0779C79.4109 51.0814 79.508 51.0967 79.6274 51.0275C80.3305 50.6175 81.0673 50.3045 81.8379 50.0887C81.8627 50.0817 81.8847 50.0673 81.9009 50.0476C81.9172 50.0279 81.927 50.0038 81.929 49.9785C81.9462 49.7735 81.9961 48.035 82.0236 48.0239ZM67.8985 74.8429C67.9587 75.7937 68.1813 77.4963 69.2092 77.9303C69.2217 77.9354 69.2352 77.9372 69.2484 77.9353C69.2615 77.9335 69.2738 77.9282 69.284 77.92C69.3166 77.8921 69.3261 77.8574 69.3123 77.8158C68.5904 75.7023 68.2395 73.5669 68.2595 71.4096C68.267 70.6356 68.2627 69.8597 68.2466 69.0817C68.2462 69.0561 68.2375 69.0313 68.2218 69.011C68.2062 68.9906 68.1845 68.9759 68.1598 68.969L67.7481 68.8502C67.7425 68.8486 67.7366 68.8483 67.7308 68.8494C67.7251 68.8505 67.7197 68.8529 67.715 68.8565C67.7104 68.8601 67.7067 68.8648 67.7043 68.87C67.7018 68.8753 67.7006 68.8811 67.7009 68.8869C67.7215 69.4465 67.7679 70.0086 67.767 70.5622C67.7648 71.9899 67.8086 73.4169 67.8985 74.8429Z" fill="#2CA1D9"/>
<path d="M53.576 48.3867C53.3095 49.0531 53.1388 49.7436 53.0637 50.4583C53.0574 50.5176 53.0084 50.6671 52.9168 50.9068L52.9125 50.8077C52.9118 50.7923 52.9076 50.7772 52.9002 50.7636C52.8928 50.75 52.8824 50.7383 52.8698 50.7294C52.8571 50.7205 52.8426 50.7146 52.8274 50.7121C52.8121 50.7097 52.7965 50.7109 52.7818 50.7155C45.2393 53.0527 44.7021 63.2382 45.9724 69.4231C46.66 72.7702 48.3754 75.5961 51.1996 77.5772C51.5416 77.8164 52.8721 78.6185 53.3001 78.5604C53.3247 78.5935 53.3373 78.6177 53.3379 78.633C53.3568 80.0483 53.343 81.4632 53.2966 82.8779C52.0246 82.9164 50.6839 82.9155 49.4729 82.6165C43.7576 81.207 39.738 75.679 39.065 70.0186C39.0152 69.6005 38.9722 69.0325 38.9361 68.3143C38.8407 66.4178 38.8871 64.3795 39.3143 62.5215C40.2138 58.6112 42.0585 55.2209 44.8482 52.3505C47.1215 50.0124 50.2748 48.5516 53.576 48.3867Z" fill="#2CA1D9"/>
<path d="M182.881 59.8092L182.137 59.834C182.035 59.8374 181.967 59.8869 181.935 59.9826C181.864 60.1894 181.933 60.3001 182.141 60.3149C182.154 60.3157 182.166 60.3135 182.178 60.3084C182.189 60.3034 182.2 60.2957 182.208 60.2859C182.292 60.1834 182.409 60.1335 182.559 60.1364L182.338 60.2654C182.231 60.328 182.185 60.4206 182.2 60.543C182.219 60.7048 182.152 60.8218 181.998 60.8941C181.987 60.8997 181.977 60.908 181.969 60.9182C181.961 60.9285 181.956 60.9405 181.954 60.9531L181.927 61.1231C181.924 61.1399 181.916 61.1553 181.904 61.1667C181.891 61.1782 181.875 61.1851 181.858 61.1863L181.687 61.2008C181.679 61.2015 181.67 61.2005 181.662 61.1977C181.654 61.1949 181.647 61.1905 181.641 61.1847C181.635 61.1789 181.63 61.1719 181.626 61.1641C181.623 61.1563 181.621 61.1478 181.621 61.1393L181.622 59.7913C181.622 59.7782 181.627 59.7657 181.636 59.7562C181.645 59.7467 181.657 59.7409 181.67 59.74C181.845 59.7272 181.996 59.775 182.169 59.7554C182.407 59.7286 182.644 59.7466 182.881 59.8092Z" fill="#04528F"/>
<path d="M191.004 60.0659L191.079 60.0385C191.092 60.0337 191.103 60.0239 191.11 60.011C191.117 59.9982 191.118 59.9833 191.114 59.9693L191.089 59.8796C191.085 59.8642 191.075 59.8507 191.062 59.8418C191.049 59.8328 191.033 59.829 191.017 59.8309C190.725 59.8662 190.434 59.8662 190.145 59.8309C190.478 59.77 190.804 59.7466 191.123 59.7609C191.14 59.7615 191.157 59.7663 191.173 59.7747C191.188 59.7832 191.202 59.7952 191.212 59.8097C191.222 59.8242 191.228 59.8408 191.231 59.8583C191.233 59.8758 191.231 59.8936 191.226 59.9104C191.183 60.0357 191.109 60.0875 191.004 60.0659Z" fill="#04528F"/>
<path d="M184.428 59.7949L183.846 59.8556C183.834 59.8569 183.823 59.855 183.812 59.8502C183.801 59.8454 183.792 59.8378 183.786 59.8282L183.762 59.7949H184.428Z" fill="#04528F"/>
<path d="M183.764 59.7949L183.788 59.8282C183.795 59.8378 183.804 59.8454 183.814 59.8502C183.825 59.855 183.837 59.8569 183.848 59.8556L184.43 59.7949L185.472 59.8325C185.485 59.833 185.497 59.8381 185.506 59.8467C185.515 59.8554 185.521 59.867 185.523 59.8795C185.559 60.2315 185.561 60.584 185.53 60.9371C185.529 60.9507 185.524 60.9637 185.514 60.9736C185.504 60.9836 185.492 60.99 185.478 60.9918C185.253 61.0182 185.049 60.4852 184.976 60.2878C184.971 60.2752 184.964 60.2638 184.954 60.2544C184.944 60.245 184.933 60.2377 184.92 60.2332C184.652 60.1415 184.36 60.0973 184.043 60.1007C183.881 60.2334 183.839 60.4222 183.918 60.6671C183.931 61.4929 183.929 62.3187 183.91 63.1445C183.904 63.3934 183.931 63.636 183.991 63.8724C183.996 63.8914 184.006 63.9087 184.02 63.922C184.035 63.9354 184.053 63.9443 184.073 63.9475L184.599 64.0381C184.616 64.0411 184.632 64.0498 184.645 64.0629C184.657 64.0759 184.665 64.0927 184.667 64.1107L184.679 64.2141C184.68 64.2216 184.68 64.2292 184.678 64.2364C184.675 64.2437 184.672 64.2504 184.666 64.256C184.661 64.2617 184.655 64.2662 184.648 64.2693C184.641 64.2724 184.634 64.2739 184.626 64.2739L182.6 64.2824C182.588 64.2824 182.576 64.2786 182.565 64.2714C182.555 64.2642 182.547 64.254 182.543 64.2423C182.405 63.8621 183.273 64.1474 183.209 63.8066C183.29 63.6164 183.309 63.417 183.266 63.2086L183.273 62.1408L183.328 60.2152C183.328 60.2018 183.324 60.1887 183.318 60.1772C183.311 60.1658 183.301 60.1565 183.29 60.1503C183.264 60.1372 183.236 60.1326 183.205 60.1366C182.991 60.066 182.776 60.066 182.561 60.1366C182.411 60.1338 182.294 60.1836 182.21 60.2861C182.202 60.2959 182.192 60.3036 182.18 60.3087C182.168 60.3137 182.156 60.3159 182.143 60.3152C181.935 60.3004 181.866 60.1896 181.937 59.9829C181.97 59.8872 182.037 59.8376 182.139 59.8342L182.883 59.8094L183.764 59.7949Z" fill="black"/>
<path d="M190.146 59.8308C190.436 59.8661 190.726 59.8661 191.019 59.8308C191.034 59.8289 191.05 59.8327 191.064 59.8417C191.077 59.8506 191.087 59.864 191.091 59.8795L191.116 59.9692C191.12 59.9832 191.118 59.9981 191.112 60.0109C191.105 60.0238 191.094 60.0336 191.08 60.0384L191.006 60.0657L190.68 60.3032C190.67 60.3106 190.661 60.3203 190.655 60.3314C190.649 60.3425 190.646 60.3548 190.646 60.3673C190.626 61.4989 190.635 62.6303 190.674 63.7613C190.675 63.7992 190.69 63.8356 190.715 63.8642C190.74 63.8929 190.774 63.912 190.811 63.9185L191.198 63.9834C191.207 63.9848 191.215 63.988 191.223 63.9927C191.23 63.9974 191.236 64.0036 191.241 64.0108C191.246 64.0181 191.25 64.0263 191.252 64.0349C191.253 64.0436 191.253 64.0525 191.251 64.0612L191.209 64.2662C191.206 64.281 191.198 64.2942 191.186 64.3034C191.174 64.3125 191.158 64.3169 191.143 64.3157L190.662 64.2798L190.692 64.2764C190.709 64.2742 190.71 64.2699 190.694 64.2636C190.573 64.2135 190.45 64.1956 190.324 64.2098C190.145 64.2303 190.022 64.1978 189.855 64.1884C189.842 64.1874 189.829 64.1825 189.819 64.1745C189.809 64.1664 189.801 64.1555 189.797 64.1432C189.785 64.103 189.831 64.0449 189.872 64.0167C189.992 63.9347 190.052 63.8131 190.053 63.652C190.06 63.0056 190.061 62.4913 190.058 62.1091C190.053 61.6632 190.038 61.2087 189.999 60.7739C190.01 60.7016 189.995 60.6327 189.954 60.5672C189.938 60.5421 189.924 60.543 189.912 60.5698C189.839 60.7304 189.727 60.8687 189.676 61.0276C189.327 62.122 188.835 63.0822 188.53 64.0688C188.527 64.0817 188.52 64.0935 188.51 64.103C188.501 64.1125 188.489 64.1196 188.476 64.1235C188.344 64.1651 188.259 64.1355 188.223 64.0347C187.87 63.0682 187.516 62.102 187.162 61.1361C187.061 60.8599 186.945 60.629 186.812 60.4433C186.782 60.4006 186.768 60.4054 186.769 60.4578L186.856 63.6161C186.861 63.7727 186.94 63.8695 187.093 63.9065C187.238 63.9418 187.377 63.992 187.508 64.0569C187.637 64.121 187.625 64.273 187.47 64.2739C186.919 64.2796 186.369 64.2787 185.818 64.2713C185.806 64.2711 185.794 64.2665 185.785 64.2583C185.776 64.25 185.771 64.2388 185.77 64.2269C185.754 64.027 186.201 63.9629 186.34 63.8852C186.364 63.8719 186.383 63.8508 186.394 63.8254C186.478 63.6238 186.519 63.4538 186.518 63.3154C186.51 62.3267 186.512 61.338 186.524 60.3493C186.524 60.3369 186.52 60.3248 186.513 60.3144C186.506 60.3041 186.496 60.296 186.484 60.2913C186.344 60.2332 185.772 60.0931 185.935 59.8539C185.942 59.8433 185.952 59.8347 185.963 59.8287C185.974 59.8228 185.987 59.8197 185.999 59.8197L187.232 59.8188C187.263 59.8189 187.293 59.8284 187.318 59.8461C187.343 59.8639 187.362 59.889 187.373 59.9179C187.704 60.8309 188.022 61.7011 188.328 62.5286C188.378 62.6653 188.399 62.8481 188.524 62.9899C188.528 62.9941 188.533 62.9974 188.538 62.9997C188.543 63.0021 188.548 63.0033 188.554 63.0034C188.559 63.0035 188.565 63.0024 188.57 63.0002C188.575 62.998 188.579 62.9948 188.583 62.9908C188.683 62.8774 188.747 62.7738 188.775 62.6798C189.054 61.7213 189.49 60.826 189.826 59.8863C189.83 59.8739 189.838 59.8632 189.849 59.8554C189.859 59.8477 189.872 59.8433 189.885 59.8428L190.146 59.8308Z" fill="black"/>
<path d="M184.043 60.1006C183.954 60.2749 183.912 60.4637 183.918 60.667C183.839 60.4221 183.88 60.2333 184.043 60.1006Z" fill="#04528F"/>
<path d="M183.203 60.1366C183.234 60.1327 183.262 60.1372 183.287 60.1503C183.299 60.1565 183.309 60.1658 183.315 60.1773C183.322 60.1887 183.325 60.2019 183.325 60.2152L183.271 62.1408C183.231 61.3463 183.325 60.7859 183.203 60.1366Z" fill="#04528F"/>
<path d="M189.998 60.7739C190.036 61.2087 190.051 61.6632 190.056 62.1092C190.06 62.4913 190.058 63.0056 190.052 63.652C190.051 63.8131 189.99 63.9347 189.871 64.0167C189.829 64.0449 189.784 64.103 189.796 64.1432C189.8 64.1555 189.807 64.1664 189.818 64.1745C189.828 64.1825 189.84 64.1874 189.853 64.1884C190.02 64.1978 190.144 64.2303 190.323 64.2098C190.448 64.1956 190.571 64.2135 190.692 64.2636C190.708 64.2699 190.708 64.2742 190.69 64.2764L190.66 64.2799C190.231 64.3123 189.799 64.31 189.363 64.273C189.351 64.272 189.34 64.2668 189.332 64.2582C189.323 64.2495 189.318 64.2382 189.317 64.226C189.293 63.851 189.934 64.2209 189.943 63.599C189.952 62.866 189.955 62.1334 189.95 61.401C189.95 61.2096 190.014 60.9926 189.998 60.7739Z" fill="#04528F"/>
<path d="M183.265 63.2085C183.307 63.4169 183.288 63.6163 183.207 63.8065L183.265 63.2085Z" fill="#04528F"/>
<path d="M75.7093 64.1235C77.2277 65.0393 78.4862 65.8466 79.4849 66.5454C82.8153 68.8758 85.3446 72.9345 85.2131 77.0743C85.1936 77.6928 85.1839 78.139 85.1839 78.4129C85.1833 78.4989 85.167 78.5975 85.1349 78.7085C85.0713 78.9263 85.1676 79.128 85.0421 79.3039C85.026 79.3267 85.0163 79.3521 85.0129 79.38C84.9624 79.7963 84.9063 80.1158 84.8444 80.3385C84.2583 82.4388 83.2138 84.2809 81.7109 85.8647C81.6169 85.871 81.5447 85.8565 81.4943 85.8212C80.3037 84.9891 79.2402 83.9646 78.304 82.7475C78.2826 82.7196 78.2722 82.6849 78.2745 82.6499C78.2769 82.6148 78.292 82.5818 78.3169 82.557C78.3381 82.5365 78.3344 82.4941 78.3057 82.4297C79.6087 78.934 78.0178 75.675 75.3621 73.3958C75.2361 73.2921 75.1693 73.2019 75.1619 73.125C74.9797 71.2746 75.1086 69.4166 75.2117 67.5662C75.2845 66.27 75.3996 65.1731 75.5572 64.2756C75.5669 64.2203 75.6177 64.1697 75.7093 64.1235Z" fill="#04528F"/>
<path d="M142.291 68.5905L142.213 68.8587C142.206 68.8853 142.19 68.909 142.169 68.9262C142.119 68.9655 142.061 68.9888 141.993 68.9962C141.915 68.863 141.904 68.4777 141.803 68.441C141.542 66.8794 140.636 66.012 139.086 65.8389C137.583 65.6714 136.095 67.3876 137.527 68.6152C138.463 69.4183 139.701 70.0051 140.811 70.6458C141.488 71.0365 141.947 71.3569 142.187 71.6069C142.831 72.2795 143.093 73.1101 142.971 74.0988C142.802 75.4622 141.651 76.4276 140.339 76.6744C139.842 76.7676 138.952 76.794 138.448 76.6454L138.477 76.636C138.497 76.6292 138.497 76.6243 138.476 76.6215L138.19 76.5813C137.725 76.4327 137.258 76.2906 136.789 76.155C136.457 76.0588 136.235 76.1641 136.124 76.4711C136.059 76.6312 135.945 76.6861 135.783 76.636C135.771 76.6322 135.76 76.6248 135.753 76.6147C135.745 76.6045 135.741 76.5923 135.741 76.5796L135.698 73.4564C135.725 73.2257 135.636 72.7798 136.066 73.0045C136.32 73.9869 136.446 74.6891 137.218 75.2982C138.353 76.1935 140.469 76.507 141.316 75.0043C141.821 74.1099 141.293 73.1207 140.489 72.6252C139.686 72.1303 138.872 71.651 138.047 71.1875C137.294 70.7646 136.421 70.1991 135.986 69.4746C135.009 67.8455 135.921 65.8987 137.653 65.2981C137.74 65.3129 137.812 65.2867 137.868 65.2195C139.104 64.9572 140.103 65.2451 141.224 65.7346C141.335 65.783 141.444 65.7785 141.552 65.721C141.838 65.5672 141.904 64.9291 142.23 65.1059C142.241 65.1124 142.251 65.1218 142.258 65.1332C142.265 65.1447 142.268 65.1576 142.268 65.1708L142.291 68.5905Z" fill="black"/>
<path d="M151.51 76.5354C151.412 76.5297 151.328 76.557 151.256 76.6174C146.969 77.3974 144.088 74.4142 144.553 70.2146C144.939 66.7343 148.216 64.3569 151.665 65.3453C152.069 65.4606 152.51 65.6631 152.915 65.8459C153.051 65.9068 153.174 65.8886 153.285 65.7912C153.49 65.613 153.637 65.394 153.727 65.1343C153.732 65.1203 153.74 65.1077 153.75 65.0976C153.761 65.0875 153.774 65.0801 153.789 65.0762C153.948 65.0352 154.034 65.1343 154.046 65.2855C154.133 66.4687 154.185 67.6578 154.346 68.8341C154.347 68.8414 154.346 68.8487 154.344 68.8557C154.342 68.8627 154.338 68.8692 154.333 68.8746C154.328 68.8801 154.322 68.8844 154.315 68.8873C154.309 68.8902 154.301 68.8916 154.294 68.8914L153.964 68.8845C153.949 68.8841 153.934 68.8786 153.922 68.8689C153.91 68.8591 153.902 68.8457 153.899 68.8307C153.741 68.1564 153.461 67.557 153.06 67.0325C151.957 65.5896 149.685 65.4059 148.241 66.3815C146.444 67.5963 146.256 70.4555 146.51 72.3495C146.651 73.3977 147.125 74.4305 147.959 75.0934C149.301 76.1612 151.45 76.3022 152.847 75.1856C153.269 74.8482 153.692 74.4347 153.984 73.976C154.053 73.8675 154.315 73.5044 154.464 73.7582C154.522 73.8567 154.522 73.9546 154.462 74.052C153.739 75.2437 152.89 76.127 151.51 76.5354Z" fill="black"/>
<path d="M137.867 65.2193C137.811 65.2865 137.739 65.3127 137.652 65.2979C137.711 65.2409 137.782 65.2147 137.867 65.2193Z" fill="#04528F"/>
<path d="M163.457 76.5318C163.265 76.4675 163.072 76.4675 162.877 76.5318L162.666 76.4883C162.652 76.4856 162.64 76.4799 162.629 76.4716C162.618 76.4633 162.61 76.4526 162.604 76.4404C162.413 76.0449 163.076 76.0876 163.238 76.0218C163.68 75.843 163.831 75.5249 163.689 75.0676C163.623 74.8546 163.43 74.3685 163.11 73.6094C163.074 73.4254 163.005 73.2546 162.902 73.0968L162.831 72.8832C162.74 72.6765 162.467 72.7278 162.19 72.7278C161.33 72.7272 160.471 72.7169 159.611 72.697C159.169 72.6862 158.788 72.7275 158.466 72.8209C158.213 73.4678 157.951 74.1 157.679 74.7174C157.453 75.2325 157.347 75.9714 158.148 76.0218C158.201 76.0252 158.297 76.044 158.436 76.0782C158.569 76.1836 158.616 76.31 158.577 76.4575C158.574 76.4691 158.567 76.4792 158.557 76.486C158.547 76.4927 158.535 76.4957 158.523 76.4942C158.363 76.4737 158.21 76.4863 158.064 76.5318H155.894L155.271 76.4959L155.203 76.4712L155.16 76.2363C155.203 76.189 155.24 76.1602 155.272 76.15C155.96 75.9304 156.236 75.7895 156.57 75.1804C156.846 74.6755 157.076 74.1382 157.307 73.6102C158.491 70.905 159.686 68.2041 160.892 65.5075C160.906 65.4741 161.041 65.3375 161.054 65.3323C161.168 65.2902 161.25 65.3246 161.298 65.4357C162.581 68.3829 163.839 71.2906 165.075 74.1587C165.29 74.6581 165.517 75.1009 165.755 75.4871C166.043 75.9526 166.483 75.9971 166.959 76.1235C166.974 76.1279 166.987 76.1374 166.996 76.1504C167.005 76.1633 167.009 76.1789 167.008 76.1944L166.983 76.4319C166.981 76.4472 166.974 76.4616 166.964 76.4728C166.953 76.4841 166.939 76.4916 166.924 76.4942C166.744 76.5256 166.606 76.5398 166.508 76.537C165.491 76.5039 164.474 76.5022 163.457 76.5318ZM159.092 71.4096C158.984 71.478 158.943 71.5776 158.97 71.7086L158.816 72.0512C158.808 72.0681 158.805 72.0867 158.807 72.1052C158.809 72.1238 158.815 72.1415 158.826 72.1569C158.837 72.1722 158.851 72.1845 158.868 72.1926C158.885 72.2007 158.904 72.2044 158.923 72.2032C160.044 72.1338 161.162 72.1266 162.278 72.1819C162.411 72.1887 162.444 72.1503 162.425 72.0187C162.415 71.9527 162.394 71.8789 162.36 71.7975L160.769 68.0011C160.726 67.8974 160.675 67.8937 160.617 67.99C160.587 68.0395 160.515 68.1121 160.488 68.1753C160.031 69.2569 159.565 70.3349 159.092 71.4096Z" fill="black"/>
<path d="M111.093 73.0968C111.095 72.855 110.961 72.7115 110.709 72.7081C109.06 72.687 107.757 72.6884 106.799 72.7123C106.731 72.714 106.689 72.7568 106.673 72.8405C106.2 73.8645 105.883 74.604 105.722 75.059C105.388 76.0013 106.36 75.9996 106.943 76.1644C106.955 76.168 106.966 76.1751 106.974 76.1848C106.983 76.1946 106.988 76.2065 106.989 76.2191C107.009 76.4179 106.917 76.5167 106.712 76.5156C105.635 76.5099 104.769 76.5153 104.113 76.5318C103.908 76.4726 103.7 76.4677 103.49 76.5173C103.347 76.482 103.285 76.3928 103.304 76.2499C103.306 76.2365 103.311 76.2237 103.32 76.2128C103.328 76.2019 103.338 76.1932 103.351 76.1875C103.454 76.1391 103.629 76.083 103.876 76.0192C104.416 75.88 104.735 75.2837 105.024 74.6601C105.282 74.1031 105.522 73.5384 105.743 72.9661C105.753 72.941 105.77 72.919 105.792 72.9028C105.846 72.8618 105.825 72.8396 105.846 72.7935C106.917 70.3748 107.987 67.9552 109.054 65.5347C109.33 64.9086 109.613 65.7637 109.685 65.9303C110.964 68.8906 112.252 71.8472 113.549 74.8002C113.714 75.1755 113.933 75.495 114.206 75.7587C114.439 75.9833 114.76 76.0406 115.068 76.1021C115.279 76.1439 115.409 76.2892 115.247 76.4797C115.229 76.5006 115.204 76.5143 115.177 76.5181C114.956 76.5477 114.735 76.5563 114.513 76.5437C113.37 76.4788 112.213 76.5053 111.07 76.5608C110.996 76.5641 110.924 76.5418 110.865 76.4976C110.759 76.419 110.738 76.3145 110.8 76.1841C110.806 76.1712 110.815 76.1599 110.826 76.1513C110.838 76.1426 110.851 76.1369 110.866 76.1345C111.133 76.085 111.46 76.0756 111.662 75.909C112.021 75.6117 111.942 75.1735 111.785 74.8079C111.544 74.2418 111.313 73.6714 111.093 73.0968ZM107.009 72.0315C107.003 72.0449 107.001 72.0594 107.002 72.0739C107.003 72.0884 107.008 72.1022 107.016 72.1143C107.024 72.1264 107.035 72.1364 107.048 72.1432C107.061 72.1501 107.076 72.1537 107.09 72.1536L110.567 72.1656C110.582 72.1657 110.596 72.1622 110.609 72.1555C110.622 72.1487 110.633 72.1389 110.641 72.1269C110.65 72.1149 110.655 72.1011 110.656 72.0867C110.658 72.0723 110.656 72.0577 110.65 72.0443L108.925 67.96C108.918 67.944 108.907 67.9304 108.892 67.9208C108.878 67.9112 108.861 67.906 108.843 67.906C108.826 67.906 108.809 67.9112 108.794 67.9208C108.78 67.9304 108.769 67.944 108.762 67.96L107.009 72.0315Z" fill="black"/>
<path d="M133.168 75.5312C133.16 75.681 133.231 75.7582 133.38 75.7627L133.405 75.7875C133.444 75.9316 133.543 75.9874 133.702 75.955L134.426 76.1318C134.442 76.1354 134.455 76.145 134.464 76.1585C134.472 76.1719 134.475 76.1881 134.471 76.2035L134.406 76.482C134.402 76.4973 134.394 76.5109 134.382 76.5207C134.37 76.5305 134.354 76.5358 134.339 76.5359L130.973 76.5171C130.757 76.4783 130.541 76.4772 130.325 76.5136C130.184 76.537 130.074 76.4968 129.996 76.3932C129.894 76.2582 129.926 76.1714 130.091 76.1326C130.331 76.0771 130.63 76.0532 130.816 75.9191C131.196 75.6448 131.089 75.2604 130.937 74.8316C130.639 73.9921 130.436 73.4707 130.329 73.2674C130.247 73.1108 130.196 72.9636 130.177 72.8258C130.149 72.8166 130.126 72.7987 130.107 72.7719C130.099 72.7613 130.09 72.7526 130.078 72.7465C130.067 72.7404 130.054 72.7371 130.042 72.7369C128.691 72.6848 127.303 72.672 125.951 72.7181C125.887 72.7204 125.857 72.7611 125.863 72.8403L125.835 72.883C125.745 72.9303 125.703 73.0074 125.709 73.1145C125.423 73.7541 125.153 74.4007 124.899 75.0545C124.789 75.3365 124.83 75.5466 124.985 75.7807C125.156 76.037 125.635 76.0754 125.922 76.0925C126.028 76.0988 126.098 76.152 126.13 76.2522C126.194 76.4504 125.95 76.5171 125.786 76.5154C124.748 76.5057 123.709 76.5117 122.672 76.5333C122.665 76.5334 122.659 76.5323 122.653 76.5299C122.647 76.5276 122.641 76.5241 122.636 76.5196C122.632 76.5152 122.628 76.5099 122.625 76.504C122.623 76.4982 122.621 76.4918 122.621 76.4855L122.613 76.1677C122.613 76.1527 122.617 76.1379 122.625 76.1253C122.634 76.1128 122.646 76.1031 122.66 76.0976C122.75 76.0629 122.842 76.0375 122.935 76.0216C123.44 75.9344 123.744 75.5534 123.971 75.0862C124.247 74.5212 124.512 73.9505 124.767 73.3742C124.832 73.3264 124.858 73.2623 124.846 73.182C125.971 70.6209 127.103 68.0629 128.244 65.5081C128.273 65.4437 128.307 65.3987 128.345 65.3731C128.36 65.3628 128.377 65.3543 128.393 65.3475C128.52 65.2922 128.61 65.3278 128.665 65.4542C129.939 68.4089 131.217 71.3624 132.498 74.3148C132.712 74.8097 132.936 75.2152 133.168 75.5312ZM126.184 71.9792L126.179 72.1013C126.179 72.1153 126.181 72.1292 126.186 72.1423C126.191 72.1553 126.199 72.1671 126.209 72.177C126.219 72.1869 126.231 72.1946 126.244 72.1996C126.257 72.2047 126.271 72.207 126.285 72.2064L128.03 72.1389C128.495 72.1483 129.303 72.2534 129.727 72.1321L129.773 72.1552C129.778 72.1577 129.783 72.1591 129.789 72.1592C129.795 72.1594 129.8 72.1584 129.805 72.1562C129.811 72.1539 129.815 72.1507 129.819 72.1465C129.822 72.1423 129.825 72.1374 129.827 72.1321C129.84 72.0888 129.829 72.0472 129.795 72.0074L128.115 68.0034C128.054 67.8604 127.976 67.8496 127.878 67.9709C127.836 68.023 127.788 68.3135 127.745 68.4143C127.231 69.6052 126.71 70.7934 126.184 71.9792Z" fill="black"/>
<path d="M93.0694 76.0406C93.1931 76.0742 93.3212 76.0429 93.4536 75.9466C93.5326 75.8891 93.5994 75.8193 93.6538 75.7373C93.6658 75.7191 93.6704 75.6718 93.6676 75.5955C93.7759 75.2481 93.814 74.8922 93.7819 74.5277C93.8352 73.8021 93.8395 73.076 93.7948 72.3493L93.8034 68.9963C93.8664 68.1836 93.8956 67.5161 93.891 66.9938C93.8893 66.782 93.8314 66.5525 93.7174 66.3053L93.6925 66.2805C93.5985 65.8802 93.3395 65.7247 92.9155 65.8141L92.5107 65.8107L92.2563 65.7714C92.2346 65.6489 92.2426 65.5245 92.2804 65.3981C92.2841 65.3863 92.2916 65.376 92.3016 65.3688C92.3117 65.3615 92.3238 65.3577 92.3363 65.3579C94.1365 65.3875 95.9348 65.3966 97.731 65.3853C98.1218 65.3824 98.7372 65.463 99.5771 65.627C103.069 66.3087 104.287 70.4442 102.934 73.4094C101.849 75.7894 99.5084 76.5198 97.0658 76.5232C95.4764 76.5261 93.887 76.5289 92.2976 76.5318C92.2832 76.5318 92.2694 76.5263 92.259 76.5164C92.2486 76.5066 92.2424 76.4931 92.2417 76.4788L92.2271 76.2234C92.2202 76.1044 92.2764 76.0523 92.3956 76.0671C92.6242 76.0961 92.8488 76.0873 93.0694 76.0406ZM95.4079 66.4975C95.3461 66.96 95.3403 67.4384 95.3908 67.9327C95.4057 68.0813 95.3756 68.2203 95.3005 68.3496C95.2518 68.4327 95.2269 68.5489 95.2257 68.6981C95.2183 69.9391 95.2166 71.1809 95.2206 72.4236C95.2212 72.5591 95.2446 72.7388 95.2911 72.9626C95.3575 73.2838 95.363 73.6102 95.3074 73.9416C95.2902 74.0424 95.2988 74.141 95.3332 74.2372C95.414 74.4636 95.3297 74.7096 95.3375 74.8848C95.3489 75.1279 95.3615 75.3723 95.3753 75.6177C95.3766 75.6382 95.3842 75.6579 95.3971 75.6739C95.41 75.69 95.4276 75.7017 95.4475 75.7074C95.6612 75.7684 95.8784 75.794 96.0989 75.7843L96.2708 75.7911C96.3851 75.8287 96.4719 75.8936 96.5923 75.8988C97.0037 75.9153 97.4122 75.8865 97.8178 75.8125L97.9682 75.8057C98.0811 75.8165 98.1814 75.7903 98.2691 75.7271C99.9501 75.3443 101.142 73.8024 101.422 72.1929C101.562 71.3882 101.568 70.5596 101.403 69.6438C101.174 68.3726 100.537 67.3962 99.4946 66.7145C98.3541 65.9696 96.9403 65.9585 95.6254 66.1994C95.4501 66.2313 95.3776 66.3306 95.4079 66.4975Z" fill="black"/>
<path d="M123.342 66.5403L123.234 65.5015C123.233 65.4888 123.229 65.4765 123.223 65.4654C123.216 65.4542 123.208 65.4444 123.198 65.4366L123.109 65.3691C123.152 65.3389 123.195 65.3321 123.237 65.3486C123.249 65.3535 123.26 65.3619 123.268 65.3728C123.276 65.3837 123.281 65.3967 123.281 65.4101L123.342 66.5403Z" fill="#04528F"/>
<path d="M177.507 76.6634L177.192 76.5993C177.137 76.5606 177.049 76.4686 176.929 76.3234C174.878 73.834 172.827 71.3447 170.777 68.8553C170.584 68.6213 170.272 68.0532 170.043 67.9131C169.966 67.8658 169.928 67.8872 169.928 67.9771C169.925 70.0468 169.925 72.1164 169.928 74.186C169.928 74.3927 169.904 75.4905 170.101 75.7023C170.107 75.8811 170.199 75.9654 170.377 75.9552C170.722 76.0742 171.079 76.1209 171.447 76.0953C171.454 76.0948 171.46 76.0957 171.467 76.098C171.473 76.1002 171.479 76.1038 171.483 76.1084C171.488 76.1129 171.492 76.1185 171.494 76.1246C171.497 76.1308 171.498 76.1374 171.498 76.144L171.485 76.4549C171.484 76.4708 171.477 76.4858 171.466 76.4968C171.454 76.5078 171.439 76.5139 171.423 76.5139L168.637 76.5182C168.324 76.476 168.009 76.4686 167.691 76.4959C167.559 76.4316 167.512 76.3339 167.551 76.2029C167.555 76.1909 167.561 76.1801 167.571 76.1716C167.58 76.1632 167.592 76.1574 167.604 76.1551L167.756 76.126C167.85 76.1619 167.943 76.1571 168.035 76.1115C168.639 76.0799 169.131 75.8552 169.139 75.1898C169.168 72.5415 169.171 69.8933 169.145 67.245C169.139 66.5881 168.757 66.319 168.171 65.9995C167.839 65.8184 167.481 65.7529 167.096 65.803C167.081 65.805 167.067 65.8038 167.053 65.7997C167.039 65.7955 167.026 65.7884 167.015 65.7788C167.004 65.7692 166.995 65.7575 166.989 65.7442C166.983 65.731 166.98 65.7167 166.98 65.7022L166.982 65.4058C166.982 65.4001 166.984 65.3944 166.986 65.3892C166.988 65.3839 166.991 65.3792 166.995 65.3752C166.999 65.3713 167.004 65.3682 167.01 65.3661C167.015 65.364 167.02 65.363 167.026 65.3631L169.994 65.393C170.019 65.3933 170.044 65.3991 170.067 65.41C170.089 65.4209 170.109 65.4367 170.125 65.4562C172.248 68.0916 174.421 70.6989 176.544 73.3403C176.725 73.5652 176.814 73.5339 176.813 73.2463C176.802 71.7935 176.795 70.2578 176.789 68.6392C176.786 67.5064 176.845 66.747 176.556 65.9816C176.551 65.9677 176.543 65.9551 176.533 65.9448C176.522 65.9345 176.509 65.9266 176.495 65.9218C176.15 65.8022 175.793 65.7538 175.425 65.7765C175.317 65.7828 175.253 65.733 175.233 65.627C175.191 65.4101 175.324 65.3802 175.505 65.3827C176.666 65.3992 177.827 65.3921 178.987 65.3614C179.002 65.3609 179.016 65.3648 179.028 65.3726C179.041 65.3804 179.05 65.3917 179.056 65.4049C179.103 65.5194 179.093 65.6279 179.024 65.7304C179.015 65.7433 179.004 65.754 178.991 65.7614C178.977 65.7689 178.962 65.7729 178.947 65.7731C178.634 65.7825 178.177 65.7569 177.93 65.9602C177.681 66.1641 177.557 66.4306 177.556 66.7598C177.553 70.0322 177.552 73.3052 177.554 76.5788C177.554 76.589 177.552 76.5991 177.548 76.6083C177.544 76.6176 177.538 76.6259 177.53 76.6326C177.519 76.6417 177.512 76.652 177.507 76.6634Z" fill="black"/>
<path d="M123.109 65.3691L123.197 65.4366C123.207 65.4445 123.216 65.4542 123.222 65.4654C123.228 65.4765 123.232 65.4888 123.233 65.5016L123.342 66.5403L123.367 66.9C123.322 67.0259 123.328 67.148 123.385 67.2665L123.451 67.9277C123.452 67.9407 123.449 67.9538 123.443 67.9653C123.437 67.9767 123.427 67.986 123.415 67.9918C123.257 68.0732 123.119 68.0461 123.001 67.9106C123.039 67.828 123.033 67.7486 122.983 67.6723C122.808 66.7958 122.305 66.2345 121.39 66.173C120.772 66.132 120.162 66.1209 119.559 66.1397C119.539 66.1401 119.519 66.1485 119.505 66.1631C119.491 66.1776 119.483 66.1971 119.483 66.2174C119.469 69.0616 119.473 71.9029 119.495 74.7414C119.496 74.9327 119.527 75.2032 119.588 75.5529C119.551 75.746 119.629 75.8659 119.821 75.9126C120.197 76.0874 120.597 76.1498 121.021 76.0996C121.027 76.0989 121.033 76.0994 121.038 76.1012C121.044 76.1029 121.049 76.1058 121.054 76.1097C121.058 76.1136 121.062 76.1183 121.064 76.1237C121.066 76.129 121.068 76.1348 121.067 76.1407V76.3551C121.067 76.4616 121.013 76.5151 120.905 76.5157L117.416 76.5242C117.099 76.4832 116.78 76.4707 116.459 76.4866C116.447 76.4872 116.434 76.4845 116.423 76.4788C116.412 76.4731 116.402 76.4646 116.396 76.4542L116.322 76.3431C116.301 76.2776 116.309 76.2207 116.347 76.1723C116.356 76.1617 116.366 76.1534 116.378 76.1479C116.39 76.1423 116.404 76.1399 116.417 76.1407C116.946 76.1731 117.716 76.0339 117.804 75.3983C117.943 74.3826 117.848 73.3344 117.862 72.3118C117.889 70.2952 117.893 68.2919 117.874 66.302C117.873 66.1915 117.816 66.1366 117.705 66.1371C117.07 66.1406 116.438 66.1502 115.807 66.1662C115.652 66.1702 115.515 66.2046 115.394 66.2695C114.754 66.613 114.5 67.1281 114.403 67.8645C114.344 67.9533 114.262 67.9881 114.158 67.9687C114.145 67.9664 114.133 67.9604 114.124 67.9514C114.115 67.9424 114.109 67.9308 114.107 67.9183C114.035 67.533 114.143 67.1922 114.066 66.8821L114.146 65.5699C114.154 65.44 114.223 65.3751 114.354 65.3751L123.109 65.3691Z" fill="black"/>
<path d="M92.2578 65.7715L92.5122 65.8108C92.4177 65.8364 92.3329 65.8233 92.2578 65.7715Z" fill="#04528F"/>
<path d="M93.6949 66.2805L93.4122 65.9806C93.3931 65.96 93.369 65.9452 93.3425 65.9379L92.918 65.814C93.342 65.7246 93.6009 65.8801 93.6949 66.2805Z" fill="#04528F"/>
<path d="M93.7188 66.3052C93.8328 66.5523 93.8906 66.7819 93.8924 66.9937C93.8969 67.516 93.8677 68.1834 93.8047 68.9961L93.7188 66.3052Z" fill="#04528F"/>
<path d="M95.4082 66.4976C95.4349 66.5591 95.4692 66.6112 95.4684 66.6795C95.4649 67.1744 95.4793 67.9253 95.5113 68.9322C95.548 70.0992 95.5366 71.6297 95.477 73.5239C95.4701 73.7369 95.4804 74.4206 95.5079 75.575C95.5082 75.5872 95.5123 75.5989 95.5198 75.6085C95.5272 75.618 95.5375 75.6249 95.5492 75.628L96.0992 75.7843C95.8786 75.794 95.6615 75.7684 95.4477 75.7075C95.4279 75.7017 95.4103 75.69 95.3974 75.6739C95.3845 75.6579 95.3768 75.6383 95.3756 75.6178C95.3618 75.3723 95.3492 75.128 95.3377 74.8848C95.33 74.7097 95.4142 74.4636 95.3334 74.2373C95.2991 74.141 95.2905 74.0425 95.3077 73.9417C95.3632 73.6102 95.3578 73.2839 95.2913 72.9627C95.2449 72.7389 95.2214 72.5592 95.2209 72.4236C95.2168 71.181 95.2186 69.9391 95.226 68.6982C95.2272 68.5489 95.2521 68.4328 95.3008 68.3496C95.3758 68.2203 95.4059 68.0814 95.391 67.9327C95.3406 67.4384 95.3463 66.96 95.4082 66.4976Z" fill="#04528F"/>
<path d="M114.068 66.8818C114.144 67.1919 114.036 67.5328 114.108 67.9181C114.11 67.9306 114.116 67.9422 114.125 67.9512C114.134 67.9602 114.146 67.9662 114.159 67.9685C114.264 67.9878 114.345 67.9531 114.404 67.8642L114.386 67.9437C114.384 67.957 114.377 67.9694 114.368 67.9797C114.359 67.99 114.348 67.9979 114.335 68.0026C113.762 68.2196 113.99 67.1501 114.068 66.8818Z" fill="#04528F"/>
<path d="M123.365 66.8999L123.383 67.2664C123.327 67.1479 123.321 67.0258 123.365 66.8999Z" fill="#04528F"/>
<path d="M122.984 67.6719C123.034 67.7482 123.04 67.8276 123.002 67.9102L122.984 67.6719Z" fill="#04528F"/>
<path d="M141.805 68.4409C141.905 68.4777 141.916 68.8629 141.995 68.9962C141.848 69.0483 141.821 68.5827 141.805 68.4409Z" fill="#04528F"/>
<path d="M142.293 68.5903C142.367 68.809 142.317 69.1439 141.996 68.9961C142.064 68.9887 142.122 68.9654 142.171 68.9261C142.193 68.9088 142.209 68.8852 142.216 68.8586L142.293 68.5903Z" fill="#04528F"/>
<path d="M159.095 71.4097C159.083 71.5202 159.042 71.6198 158.973 71.7087C158.946 71.5777 158.987 71.478 159.095 71.4097Z" fill="#04528F"/>
<path d="M126.185 71.9795L126.212 72.0863C126.214 72.0973 126.22 72.1076 126.227 72.1161C126.235 72.1246 126.245 72.1311 126.255 72.135C126.314 72.1566 126.371 72.1558 126.428 72.1324C126.458 72.1205 126.489 72.1145 126.521 72.1145L128.03 72.1392L126.285 72.2067C126.271 72.2073 126.257 72.205 126.244 72.2C126.231 72.1949 126.219 72.1872 126.209 72.1773C126.199 72.1674 126.192 72.1556 126.187 72.1426C126.181 72.1296 126.179 72.1156 126.18 72.1017L126.185 71.9795Z" fill="#04528F"/>
<path d="M129.794 72.0073C129.829 72.0472 129.839 72.0888 129.826 72.132C129.825 72.1374 129.822 72.1423 129.818 72.1465C129.815 72.1506 129.81 72.1539 129.805 72.1561C129.8 72.1583 129.794 72.1594 129.788 72.1592C129.783 72.159 129.777 72.1576 129.772 72.1551L129.727 72.132C129.779 72.1098 129.801 72.0683 129.794 72.0073Z" fill="#04528F"/>
<path d="M93.7941 72.3491C93.8388 73.0758 93.8345 73.802 93.7812 74.5275L93.7941 72.3491Z" fill="#2CA1D9"/>
<path d="M111.095 73.0969C111.062 73.0126 111.013 72.9419 110.946 72.885C110.925 72.8663 110.897 72.856 110.869 72.856L106.676 72.8406C106.691 72.7569 106.733 72.7141 106.801 72.7124C107.759 72.6885 109.063 72.6871 110.712 72.7082C110.964 72.7116 111.098 72.8551 111.095 73.0969Z" fill="#04528F"/>
<path d="M130.175 72.826L125.86 72.8405C125.854 72.7613 125.884 72.7206 125.949 72.7183C127.301 72.6722 128.689 72.685 130.039 72.7371C130.052 72.7374 130.064 72.7407 130.075 72.7467C130.087 72.7528 130.097 72.7615 130.104 72.7721C130.123 72.7989 130.146 72.8169 130.175 72.826Z" fill="#04528F"/>
<path d="M162.834 72.8832C162.777 72.8516 162.724 72.8243 162.656 72.8251C161.266 72.8508 159.87 72.8493 158.469 72.8209C158.791 72.7275 159.173 72.6862 159.614 72.697C160.474 72.7169 161.333 72.7272 162.193 72.7278C162.47 72.7278 162.744 72.6765 162.834 72.8832Z" fill="#04528F"/>
<path d="M136.066 73.0047C135.636 72.78 135.725 73.2259 135.698 73.4566C135.649 73.3512 135.634 73.2385 135.652 73.1183C135.635 72.8364 135.951 72.7766 136.066 73.0047Z" fill="#04528F"/>
<path d="M125.833 72.8831C125.808 72.9691 125.767 73.0462 125.708 73.1146C125.701 73.0075 125.743 72.9303 125.833 72.8831Z" fill="#04528F"/>
<path d="M162.902 73.0967C163.005 73.2544 163.074 73.4253 163.11 73.6092C162.999 73.4549 162.93 73.284 162.902 73.0967Z" fill="#04528F"/>
<path d="M135.654 73.1182C135.636 73.2383 135.651 73.3511 135.7 73.4565L135.743 76.5797C135.743 76.5924 135.748 76.6046 135.755 76.6147C135.763 76.6248 135.773 76.6323 135.785 76.6361C135.947 76.6862 136.061 76.6312 136.126 76.4712L136.091 76.6395C136.088 76.6551 136.079 76.6693 136.067 76.6801C136.055 76.6908 136.04 76.6975 136.024 76.6993L135.722 76.7343C135.715 76.7353 135.707 76.7346 135.699 76.7323C135.692 76.7301 135.685 76.7263 135.679 76.7212C135.673 76.7162 135.668 76.7099 135.665 76.7029C135.662 76.6959 135.66 76.6882 135.66 76.6805C135.636 76.0802 135.632 75.4805 135.647 74.8814C135.66 74.3739 135.578 73.7136 135.654 73.1182Z" fill="#04528F"/>
<path d="M124.844 73.1821C124.856 73.2624 124.829 73.3265 124.765 73.3743C124.753 73.294 124.779 73.23 124.844 73.1821Z" fill="#04528F"/>
<path d="M55.8582 78.8466C56.112 79.9703 56.5767 80.9974 57.2522 81.928C60.4038 86.4574 66.2988 88.511 71.6532 87.5636C72.645 87.3885 73.8628 87.0306 74.7205 86.4411L74.8176 86.4445C74.8461 86.4462 74.873 86.4574 74.8941 86.4761C75.7897 87.2923 76.7626 88.0033 77.8128 88.6093C77.8256 88.6166 77.8366 88.6263 77.8452 88.638C77.8538 88.6496 77.8597 88.6628 77.8627 88.6767C77.8753 88.7365 77.8604 88.7898 77.818 88.8365C76.2065 89.6686 74.4919 90.1777 72.7008 90.457C72.2768 90.5231 71.7981 90.5653 71.2647 90.5835C69.3576 90.6493 67.906 90.6091 66.0246 90.346C65.5594 90.2811 64.6681 90.0484 63.3509 89.6481C61.5684 89.1064 59.7438 88.488 57.9888 88.06C55.7026 87.503 54.9936 88.3983 54.716 90.5143C54.7129 90.5388 54.7008 90.5614 54.6822 90.5777C54.6635 90.5941 54.6395 90.6031 54.6146 90.6031L53.3366 90.5971C53.3235 90.5972 53.3109 90.592 53.3016 90.5829C53.2923 90.5738 53.2869 90.5614 53.2867 90.5485C53.2776 90.2426 53.2761 89.8144 53.2824 89.2636C53.3025 87.4902 53.3068 85.3616 53.2953 82.878C53.3417 81.4633 53.3555 80.0483 53.3366 78.6331C53.336 78.6177 53.3234 78.5935 53.2988 78.5605L53.2695 74.0943C53.2693 74.0693 53.2791 74.0453 53.2968 74.0273C53.3145 74.0094 53.3387 73.9991 53.3641 73.9987L54.6541 73.979C54.6656 73.9788 54.6768 73.9827 54.6857 73.9899C54.6945 73.9971 54.7004 74.0072 54.7022 74.0183C54.971 75.6579 55.3563 77.2674 55.8582 78.8466Z" fill="#04528F"/>
<path d="M133.169 75.5312L133.38 75.7628C133.231 75.7582 133.161 75.681 133.169 75.5312Z" fill="#04528F"/>
<path d="M119.587 75.5527L119.82 75.9124C119.628 75.8657 119.55 75.7458 119.587 75.5527Z" fill="#04528F"/>
<path d="M93.6685 75.5955C93.6714 75.6718 93.6668 75.719 93.6547 75.7373C93.6003 75.8193 93.5336 75.889 93.4545 75.9466C93.3221 76.0428 93.1941 76.0741 93.0703 76.0405C93.3167 75.9562 93.5161 75.8079 93.6685 75.5955Z" fill="#04528F"/>
<path d="M170.102 75.7021L170.377 75.955C170.2 75.9653 170.108 75.881 170.102 75.7021Z" fill="#04528F"/>
<path d="M98.2696 75.727C98.1819 75.7902 98.0816 75.8164 97.9688 75.8056C98.0581 75.7424 98.1584 75.7162 98.2696 75.727Z" fill="#04528F"/>
<path d="M96.2734 75.791L97.8204 75.8124C97.4148 75.8864 97.0063 75.9152 96.5949 75.8987C96.4745 75.8935 96.3877 75.8286 96.2734 75.791Z" fill="#04528F"/>
<path d="M133.402 75.7876L133.7 75.955C133.54 75.9875 133.441 75.9317 133.402 75.7876Z" fill="#04528F"/>
<path d="M158.438 76.0783C158.702 76.0321 158.821 76.2209 158.727 76.4516C158.722 76.4641 158.714 76.4749 158.703 76.4828C158.692 76.4906 158.68 76.4952 158.666 76.496L158.066 76.5319C158.212 76.4863 158.365 76.4738 158.525 76.4943C158.537 76.4957 158.549 76.4928 158.559 76.486C158.569 76.4793 158.576 76.4692 158.579 76.4576C158.618 76.3101 158.571 76.1836 158.438 76.0783Z" fill="#04528F"/>
<path d="M168.037 76.1113C167.945 76.1569 167.852 76.1617 167.758 76.1259L168.037 76.1113Z" fill="#04528F"/>
<path d="M155.161 76.2363L155.204 76.4713C155.115 76.4798 155.066 76.3081 155.161 76.2363Z" fill="#04528F"/>
<path d="M116.323 76.3428L116.396 76.4538C116.403 76.4643 116.412 76.4727 116.423 76.4784C116.434 76.4841 116.447 76.4868 116.459 76.4863C116.78 76.4703 117.099 76.4829 117.416 76.5239C117.081 76.5603 116.746 76.56 116.412 76.523C116.399 76.5214 116.386 76.517 116.374 76.5101C116.362 76.5032 116.352 76.4939 116.344 76.4829C116.317 76.4436 116.31 76.3969 116.323 76.3428Z" fill="#04528F"/>
<path d="M104.115 76.5318L103.492 76.5173C103.702 76.4677 103.91 76.4725 104.115 76.5318Z" fill="#04528F"/>
<path d="M130.972 76.5172C130.756 76.5491 130.54 76.548 130.324 76.5138C130.54 76.4774 130.756 76.4785 130.972 76.5172Z" fill="#04528F"/>
<path d="M163.459 76.5317H162.879C163.074 76.4673 163.267 76.4673 163.459 76.5317Z" fill="#04528F"/>
<path d="M168.638 76.5183C168.32 76.5776 168.004 76.5702 167.691 76.4961C168.009 76.4688 168.324 76.4762 168.638 76.5183Z" fill="#04528F"/>
<path d="M155.273 76.4961L155.897 76.532C155.686 76.5548 155.479 76.5428 155.273 76.4961Z" fill="#04528F"/>
<path d="M151.508 76.5354C151.443 76.6134 151.358 76.6408 151.254 76.6174C151.326 76.557 151.41 76.5297 151.508 76.5354Z" fill="#04528F"/>
<path d="M138.191 76.5813L138.478 76.6215C138.498 76.6243 138.499 76.6291 138.478 76.636L138.449 76.6454L138.191 76.5813Z" fill="#04528F"/>
<path d="M177.191 76.5991L177.507 76.6632C177.386 76.7463 177.281 76.725 177.191 76.5991Z" fill="#04528F"/>
</g>
<defs>
<clipPath id="clip0_370_5273">
<rect width="181" height="85" fill="white" transform="translate(27 19)"/>
</clipPath>
</defs>
</svg>
