<svg width="230" height="129" viewBox="0 0 230 129" fill="none" xmlns="http://www.w3.org/2000/svg">
<rect width="230" height="129" rx="26" fill="white"/>
<path d="M86.5609 54.3643L86.5559 72.4021C86.5559 72.443 86.5395 72.4823 86.5105 72.5113C86.4814 72.5402 86.4421 72.5565 86.401 72.5565H84.3215C84.3013 72.5565 84.2812 72.5525 84.2626 72.5447C84.2439 72.5369 84.227 72.5255 84.2129 72.5111C84.1987 72.4967 84.1875 72.4797 84.18 72.461C84.1725 72.4423 84.1688 72.4222 84.1691 72.4021C84.3012 65.8528 84.0473 60.3516 84.2072 54.3264C84.2079 54.31 84.2053 54.2936 84.1994 54.2783C84.1936 54.263 84.1848 54.249 84.1734 54.2372C84.162 54.2253 84.1483 54.2159 84.1332 54.2095C84.1181 54.2031 84.1018 54.1998 84.0854 54.1998L80.2895 54.2049C80.2531 54.2049 80.2182 54.1905 80.1925 54.1648C80.1668 54.1392 80.1523 54.1044 80.1523 54.0682V52.2631C80.1523 52.233 80.1583 52.2031 80.17 52.1753C80.1816 52.1475 80.1987 52.1223 80.2202 52.1011C80.2417 52.0799 80.2672 52.0632 80.2952 52.0519C80.3232 52.0406 80.3532 52.0349 80.3834 52.0353L84.0371 52.0859C84.0753 52.0859 84.112 52.0714 84.1395 52.0455C84.167 52.0195 84.1831 51.9841 84.1844 51.9467C84.2301 50.3998 84.0701 48.8784 84.5754 47.3543C85.685 44.0126 88.6176 43.724 91.6797 44.0404C91.7217 44.0448 91.7605 44.0646 91.7886 44.096C91.8168 44.1273 91.8323 44.168 91.832 44.2101V45.9619C91.832 45.9791 91.8287 45.9961 91.8221 46.0119C91.8156 46.0278 91.806 46.0421 91.7939 46.0541C91.7819 46.0662 91.7676 46.0756 91.7519 46.082C91.7362 46.0883 91.7194 46.0914 91.7025 46.091C89.0111 46.0581 86.6676 46.5164 86.5711 49.7087C86.5474 50.4598 86.5339 51.2117 86.5305 51.9644C86.5305 51.9782 86.5332 51.9919 86.5386 52.0047C86.544 52.0175 86.5519 52.029 86.5619 52.0387C86.5718 52.0484 86.5836 52.056 86.5965 52.061C86.6094 52.0661 86.6232 52.0685 86.6371 52.0682L91.0957 52.0429C91.1173 52.0425 91.1387 52.0465 91.1587 52.0545C91.1787 52.0625 91.1969 52.0743 91.2123 52.0894C91.2276 52.1045 91.2398 52.1225 91.2481 52.1423C91.2565 52.1621 91.2607 52.1834 91.2607 52.2049V54.053C91.2607 54.0748 91.2564 54.0964 91.2479 54.1165C91.2395 54.1367 91.2271 54.1549 91.2115 54.1702C91.1959 54.1855 91.1774 54.1976 91.1571 54.2057C91.1368 54.2138 91.115 54.2179 91.0932 54.2175L86.7336 54.1947C86.6878 54.1947 86.6439 54.2126 86.6115 54.2444C86.5791 54.2762 86.5609 54.3194 86.5609 54.3643Z" fill="#104575"/>
<path d="M71.5714 71.9867C70.2765 72.0491 69.497 72.0778 69.2329 72.0728C62.6059 71.9513 57.1681 71.9808 52.9194 72.1614C52.8517 72.1648 52.6816 72.2415 52.4091 72.3918C52.3464 72.4255 52.3481 72.4576 52.4141 72.488L52.5386 72.5462L51.4036 72.5487C51.3699 72.5487 51.3376 72.5351 51.3138 72.5109C51.29 72.4867 51.2766 72.4538 51.2766 72.4196C51.2462 60.2603 51.4975 52.8325 51.2462 44.3744C51.2455 44.3539 51.2489 44.3335 51.2562 44.3144C51.2636 44.2952 51.2746 44.2777 51.2888 44.2628C51.303 44.248 51.32 44.2361 51.3388 44.2279C51.3577 44.2197 51.378 44.2153 51.3985 44.2149L53.605 44.1719C53.6222 44.1716 53.6393 44.1747 53.6553 44.181C53.6713 44.1873 53.6859 44.1968 53.6982 44.2088C53.7105 44.2208 53.7202 44.2352 53.7269 44.251C53.7336 44.2668 53.737 44.2838 53.737 44.301C53.7353 52.2638 53.7632 60.2248 53.8208 68.1842C53.8259 68.6956 53.6532 69.6095 53.7929 70.3437C53.7988 70.3743 53.8152 70.4019 53.8393 70.4218C53.8633 70.4416 53.8936 70.4525 53.9249 70.4525L71.3886 70.5006C71.4281 70.5006 71.4661 70.5159 71.4945 70.5433C71.523 70.5707 71.5396 70.6081 71.5409 70.6475L71.5714 71.9867Z" fill="#104575"/>
<path d="M76.8635 44.2254L74.6724 44.1186C74.6289 44.1165 74.592 44.1498 74.5899 44.1931L74.4197 47.6624C74.4176 47.7056 74.4511 47.7425 74.4945 47.7446L76.6856 47.8514C76.7291 47.8535 76.766 47.8202 76.7681 47.7769L76.9383 44.3076C76.9404 44.2644 76.9069 44.2275 76.8635 44.2254Z" fill="#104575"/>
<path d="M122.435 57.6833H137.713C137.75 57.6833 137.785 57.6979 137.811 57.724C137.837 57.7501 137.852 57.7856 137.852 57.8225V59.6326C137.852 59.6695 137.837 59.7049 137.811 59.731C137.785 59.7572 137.75 59.7718 137.713 59.7718H122.44C122.403 59.7718 122.367 59.7865 122.341 59.8126C122.315 59.8387 122.3 59.8741 122.3 59.9111V73.1767C122.3 73.195 122.297 73.2131 122.29 73.23C122.283 73.2469 122.272 73.2622 122.259 73.2752C122.247 73.2881 122.231 73.2983 122.214 73.3053C122.197 73.3123 122.179 73.3159 122.161 73.3159H120.094C120.076 73.3159 120.057 73.3123 120.041 73.3053C120.024 73.2983 120.008 73.2881 119.995 73.2752C119.982 73.2622 119.972 73.2469 119.965 73.23C119.958 73.2131 119.954 73.195 119.954 73.1767L119.949 45.1012C119.949 45.0829 119.953 45.0648 119.96 45.0479C119.967 45.031 119.977 45.0156 119.99 45.0027C120.003 44.9898 120.018 44.9795 120.035 44.9725C120.052 44.9655 120.071 44.9619 120.089 44.9619L139.98 44.9644C140.016 44.9644 140.05 44.978 140.076 45.0025C140.102 45.027 140.118 45.0605 140.12 45.0961L140.206 46.9594C140.207 46.9778 140.204 46.9963 140.197 47.0136C140.19 47.0309 140.18 47.0468 140.168 47.0602C140.155 47.0736 140.14 47.0844 140.123 47.0919C140.106 47.0993 140.087 47.1033 140.069 47.1037L122.453 47.1923C122.416 47.1923 122.38 47.2069 122.354 47.233C122.328 47.2592 122.313 47.2946 122.313 47.3315L122.295 57.544C122.295 57.5809 122.31 57.6164 122.336 57.6425C122.362 57.6686 122.398 57.6833 122.435 57.6833Z" fill="#9CC1DB"/>
<path d="M145.449 44.9933L143.448 44.9968C143.371 44.997 143.309 45.0594 143.309 45.1363L143.314 48.1034C143.314 48.1803 143.377 48.2425 143.454 48.2423L145.455 48.2389C145.532 48.2387 145.594 48.1763 145.594 48.0994L145.589 45.1323C145.589 45.0554 145.526 44.9932 145.449 44.9933Z" fill="#9CC1DB"/>
<path d="M153.082 45.0254H150.807C150.769 45.0254 150.738 45.056 150.738 45.0937V73.2452C150.738 73.283 150.769 73.3136 150.807 73.3136H153.082C153.12 73.3136 153.15 73.283 153.15 73.2452V45.0937C153.15 45.056 153.12 45.0254 153.082 45.0254Z" fill="#9CC1DB"/>
<path d="M161.717 67.6555C163.589 70.4605 166.295 71.1972 169.578 70.8327C172.564 70.5002 174.4 68.9019 175.085 66.0378C175.096 65.9931 175.122 65.9532 175.158 65.9248C175.194 65.8963 175.238 65.8808 175.284 65.8808L177.091 65.8657C177.143 65.8651 177.194 65.8763 177.24 65.8983C177.287 65.9203 177.328 65.9525 177.361 65.9927C177.393 66.0328 177.416 66.0798 177.428 66.1301C177.44 66.1804 177.44 66.2328 177.429 66.2834C176.474 70.5491 173.529 72.6326 169.368 73.0326C164.297 73.5187 159.75 71.1896 158.335 66.177C157.541 63.3594 157.744 59.805 158.988 57.1898C161.301 52.3342 167.115 50.8507 171.922 52.7519C175.954 54.3468 177.891 58.767 177.543 62.9062C177.54 62.9476 177.521 62.9864 177.49 63.0145C177.459 63.0427 177.418 63.0583 177.376 63.0581L160.316 63.0454C160.301 63.0454 160.287 63.0483 160.274 63.0541C160.261 63.0599 160.249 63.0685 160.239 63.0791C160.23 63.0898 160.222 63.1025 160.217 63.1163C160.213 63.1301 160.211 63.1448 160.212 63.1594C160.318 64.8117 160.82 66.3104 161.717 67.6555ZM169.946 54.4937C165.3 53.3089 161.029 55.8101 160.328 60.6354C160.323 60.6705 160.326 60.7064 160.336 60.7405C160.346 60.7746 160.364 60.806 160.388 60.8326C160.411 60.8591 160.441 60.8802 160.473 60.8942C160.506 60.9083 160.542 60.915 160.577 60.9138C165.419 60.7898 170.221 61.0303 174.979 60.8328C174.995 60.8323 175.011 60.8283 175.026 60.8212C175.04 60.8141 175.053 60.804 175.063 60.7915C175.074 60.7791 175.081 60.7646 175.085 60.749C175.09 60.7334 175.091 60.7171 175.088 60.7012C174.608 57.6784 173.049 55.2861 169.946 54.4937Z" fill="#9CC1DB"/>
<path d="M76.7576 52.0479H74.7213C74.6357 52.0479 74.5664 52.117 74.5664 52.2023V72.3995C74.5664 72.4848 74.6357 72.5539 74.7213 72.5539H76.7576C76.8432 72.5539 76.9125 72.4848 76.9125 72.3995V52.2023C76.9125 52.117 76.8432 52.0479 76.7576 52.0479Z" fill="#104575"/>
<path d="M112.592 65.8603C112.61 65.8605 112.629 65.8646 112.646 65.8725C112.663 65.8803 112.678 65.8917 112.69 65.9058C112.702 65.9199 112.711 65.9365 112.717 65.9544C112.722 65.9723 112.724 65.9911 112.721 66.0096C111.827 72.1944 105.782 74.0272 100.338 72.6678C96.4711 71.7032 94.2138 69.0147 93.4369 65.1489C91.9718 57.8477 96.0953 51.663 103.961 52.0478C109.966 52.3415 113.282 57.273 112.84 62.9287C112.838 62.9625 112.823 62.994 112.798 63.0171C112.773 63.0401 112.74 63.0528 112.706 63.0527C107.379 63.0409 102.057 63.0477 96.7402 63.073C96.5091 63.0755 96.08 62.9337 95.7601 63.0299C95.7247 63.0408 95.694 63.0631 95.6732 63.093C95.6525 63.123 95.6428 63.1588 95.6459 63.1945C96.0623 68.4526 99.5966 71.5007 104.921 70.8425C107.813 70.483 109.804 68.9033 110.469 65.9666C110.477 65.9313 110.498 65.8999 110.526 65.8775C110.555 65.855 110.59 65.8427 110.626 65.8425L112.592 65.8603ZM110.405 60.7591C109.88 56.4807 106.424 53.7085 102.093 54.2376C98.3779 54.6908 96.2629 57.2325 95.6763 60.8021C95.6745 60.8141 95.6752 60.8264 95.6784 60.8381C95.6817 60.8498 95.6874 60.8606 95.6951 60.8697C95.7029 60.8789 95.7125 60.8862 95.7232 60.8911C95.734 60.8961 95.7458 60.8985 95.7576 60.8983L110.319 60.8603C110.331 60.8605 110.343 60.858 110.355 60.8528C110.366 60.8476 110.376 60.84 110.384 60.8304C110.392 60.8209 110.398 60.8095 110.402 60.7972C110.406 60.7849 110.407 60.7719 110.405 60.7591Z" fill="#104575"/>
<path d="M145.255 53.2832H143.493C143.421 53.2832 143.363 53.341 143.363 53.4123V73.1842C143.363 73.2555 143.421 73.3133 143.493 73.3133H145.255C145.326 73.3133 145.384 73.2555 145.384 73.1842V53.4123C145.384 53.341 145.326 53.2832 145.255 53.2832Z" fill="#9CC1DB"/>
<path d="M71.5713 71.9868C71.6052 72.1185 71.6035 72.2459 71.5662 72.3691C71.5558 72.4048 71.5341 72.4361 71.5044 72.4585C71.4747 72.4808 71.4385 72.493 71.4012 72.4931L52.5385 72.5463L52.4141 72.4881C52.3481 72.4577 52.3464 72.4256 52.409 72.3919C52.6815 72.2417 52.8517 72.1649 52.9194 72.1615C57.1681 71.9809 62.6059 71.9514 69.2328 72.0729C69.4969 72.078 70.2764 72.0493 71.5713 71.9868Z" fill="#0A3467"/>
<path d="M64.2143 76.0981H60.3498C60.3119 76.0981 60.2812 76.1287 60.2812 76.1665V85.2094C60.2812 85.2472 60.3119 85.2778 60.3498 85.2778H64.2143C64.2521 85.2778 64.2828 85.2472 64.2828 85.2094V76.1665C64.2828 76.1287 64.2521 76.0981 64.2143 76.0981Z" fill="#104575"/>
<path d="M112.378 76.0851L110.092 76.0811C110.007 76.0809 109.937 76.15 109.937 76.2352L109.922 85.1313C109.922 85.2166 109.991 85.2859 110.076 85.286L112.361 85.29C112.447 85.2901 112.516 85.2211 112.517 85.1358L112.532 76.2398C112.532 76.1545 112.463 76.0852 112.378 76.0851Z" fill="#104575"/>
<path d="M116.602 76.0953L113.992 76.0862C113.955 76.086 113.926 76.1154 113.926 76.1518L113.894 85.149C113.894 85.1854 113.923 85.215 113.96 85.2151L116.57 85.2242C116.606 85.2243 116.636 85.1949 116.636 85.1586L116.668 76.1613C116.668 76.125 116.638 76.0954 116.602 76.0953Z" fill="#104575"/>
<path d="M121.875 76.085L119.265 76.0759C119.229 76.0758 119.199 76.1052 119.199 76.1415L119.167 85.2046C119.167 85.241 119.197 85.2705 119.233 85.2707L121.843 85.2797C121.88 85.2799 121.909 85.2505 121.909 85.2142L121.941 76.151C121.941 76.1147 121.912 76.0851 121.875 76.085Z" fill="#9CC1DB"/>
<path d="M125.122 76.0436L124.061 76.0418C123.967 76.0416 123.89 76.1174 123.89 76.2111L123.875 85.1021C123.875 85.1958 123.951 85.2719 124.045 85.272L125.106 85.2739C125.2 85.274 125.276 85.1982 125.276 85.1046L125.292 76.2136C125.292 76.1199 125.216 76.0438 125.122 76.0436Z" fill="#9CC1DB"/>
<path d="M131.338 76.0913L128.885 76.0956C128.847 76.0956 128.816 76.1263 128.817 76.1641L128.832 85.2171C128.832 85.2548 128.863 85.2854 128.901 85.2853L131.354 85.281C131.392 85.281 131.422 85.2503 131.422 85.2126L131.406 76.1595C131.406 76.1218 131.376 76.0912 131.338 76.0913Z" fill="#9CC1DB"/>
<path d="M136.968 76.0447L135.82 76.0507C135.755 76.051 135.703 76.1034 135.704 76.1677L135.751 85.1498C135.751 85.2141 135.804 85.2659 135.868 85.2656L137.016 85.2596C137.08 85.2593 137.132 85.2069 137.132 85.1425L137.085 76.1605C137.085 76.0962 137.032 76.0443 136.968 76.0447Z" fill="#9CC1DB"/>
<path d="M147.569 76.083H145.203C145.138 76.083 145.086 76.1351 145.086 76.1995V85.1614C145.086 85.2257 145.138 85.2778 145.203 85.2778H147.569C147.634 85.2778 147.686 85.2257 147.686 85.1614V76.1995C147.686 76.1351 147.634 76.083 147.569 76.083Z" fill="#9CC1DB"/>
<path d="M155.642 76.0701L153.316 76.066C153.28 76.066 153.25 76.0954 153.25 76.1317L153.234 85.2202C153.234 85.2566 153.263 85.2861 153.3 85.2861L155.626 85.2902C155.662 85.2903 155.692 85.2608 155.692 85.2245L155.708 76.136C155.708 76.0997 155.678 76.0701 155.642 76.0701Z" fill="#9CC1DB"/>
<path d="M159.475 76.0435L158.216 76.0522C158.176 76.0525 158.145 76.0845 158.145 76.1236L158.208 85.1866C158.209 85.2257 158.241 85.2572 158.28 85.257L159.539 85.2482C159.579 85.2479 159.61 85.216 159.61 85.1768L159.547 76.1139C159.546 76.0747 159.514 76.0432 159.475 76.0435Z" fill="#9CC1DB"/>
<path d="M162.06 76.0723L160.918 76.0683C160.853 76.0681 160.801 76.12 160.8 76.1843L160.769 85.0854C160.769 85.1497 160.821 85.202 160.886 85.2023L162.028 85.2062C162.093 85.2065 162.145 85.1545 162.145 85.0902L162.177 76.1891C162.177 76.1248 162.125 76.0725 162.06 76.0723Z" fill="#9CC1DB"/>
<path d="M52.665 76.106H51.4006C51.3627 76.106 51.332 76.1366 51.332 76.1743V85.1413C51.332 85.179 51.3627 85.2096 51.4006 85.2096H52.665C52.7029 85.2096 52.7336 85.179 52.7336 85.1413V76.1743C52.7336 76.1366 52.7029 76.106 52.665 76.106Z" fill="#0A3467"/>
<path d="M58.9381 76.1181L56.5158 76.1139C56.4639 76.1138 56.4218 76.1557 56.4217 76.2074L56.406 85.1744C56.4059 85.2261 56.4479 85.2681 56.4998 85.2682L58.9221 85.2724C58.9739 85.2725 59.0161 85.2307 59.0162 85.1789L59.0319 76.212C59.032 76.1602 58.99 76.1182 58.9381 76.1181Z" fill="#104575"/>
<path d="M67.5535 76.1006H65.7762C65.7229 76.1006 65.6797 76.1437 65.6797 76.1968V85.1688C65.6797 85.2219 65.7229 85.265 65.7762 85.265H67.5535C67.6068 85.265 67.65 85.2219 67.65 85.1688V76.1968C67.65 76.1437 67.6068 76.1006 67.5535 76.1006Z" fill="#104575"/>
<path d="M75.1588 76.1075L72.7619 76.0991C72.682 76.0989 72.617 76.1632 72.6167 76.2429L72.5855 85.139C72.5853 85.2187 72.6498 85.2835 72.7298 85.2838L75.1266 85.2921C75.2065 85.2924 75.2716 85.228 75.2718 85.1483L75.303 76.2523C75.3033 76.1726 75.2387 76.1078 75.1588 76.1075Z" fill="#104575"/>
<path d="M78.1795 76.1035H76.4123C76.3744 76.1035 76.3438 76.1341 76.3438 76.1719V85.1945C76.3438 85.2323 76.3744 85.2629 76.4123 85.2629H78.1795C78.2174 85.2629 78.248 85.2323 78.248 85.1945V76.1719C78.248 76.1341 78.2174 76.1035 78.1795 76.1035Z" fill="#104575"/>
<path d="M81.9221 76.1035H80.226C80.1853 76.1035 80.1523 76.1364 80.1523 76.1769V85.1692C80.1523 85.2098 80.1853 85.2426 80.226 85.2426H81.9221C81.9627 85.2426 81.9957 85.2098 81.9957 85.1692V76.1769C81.9957 76.1364 81.9627 76.1035 81.9221 76.1035Z" fill="#104575"/>
<path d="M85.7402 76.1352L83.2113 76.122C83.1636 76.1218 83.1248 76.1601 83.1245 76.2077L83.0774 85.1846C83.0772 85.2322 83.1156 85.2709 83.1633 85.2711L85.6922 85.2843C85.7398 85.2846 85.7787 85.2463 85.7789 85.1987L85.8261 76.2218C85.8263 76.1742 85.7879 76.1355 85.7402 76.1352Z" fill="#104575"/>
<path d="M92.4789 76.1035H91.0621C91.0256 76.1035 90.9961 76.133 90.9961 76.1693V85.1616C90.9961 85.198 91.0256 85.2274 91.0621 85.2274H92.4789C92.5154 85.2274 92.5449 85.198 92.5449 85.1616V76.1693C92.5449 76.133 92.5154 76.1035 92.4789 76.1035Z" fill="#104575"/>
<path d="M96.6523 76.106H95.1949C95.1585 76.106 95.1289 76.1354 95.1289 76.1718V85.1641C95.1289 85.2004 95.1585 85.2299 95.1949 85.2299H96.6523C96.6888 85.2299 96.7184 85.2004 96.7184 85.1641V76.1718C96.7184 76.1354 96.6888 76.106 96.6523 76.106Z" fill="#104575"/>
<path d="M100.328 76.1256L98.0582 76.1217C98.0217 76.1216 97.9921 76.1511 97.9921 76.1874L97.9764 85.1594C97.9763 85.1958 98.0058 85.2253 98.0423 85.2254L100.312 85.2293C100.349 85.2294 100.378 85.1999 100.378 85.1636L100.394 76.1916C100.394 76.1552 100.365 76.1257 100.328 76.1256Z" fill="#104575"/>
<path d="M104.606 76.11L103.057 76.1019C103.019 76.1017 102.988 76.1322 102.988 76.1699L102.941 85.1621C102.941 85.1998 102.971 85.2306 103.009 85.2308L104.558 85.2389C104.596 85.2391 104.626 85.2086 104.627 85.1709L104.674 76.1787C104.674 76.141 104.644 76.1102 104.606 76.11Z" fill="#0A3467"/>
<path d="M139.546 76.1361L138.546 76.1413C138.464 76.1417 138.399 76.2078 138.399 76.2889L138.445 85.0684C138.446 85.1495 138.512 85.2149 138.593 85.2145L139.594 85.2093C139.675 85.2088 139.741 85.1428 139.74 85.0617L139.694 76.2822C139.694 76.2011 139.627 76.1357 139.546 76.1361Z" fill="#9CC1DB"/>
<path d="M150.077 76.1041L148.995 76.1022C148.942 76.1021 148.898 76.1451 148.898 76.1983L148.883 85.1601C148.882 85.2133 148.926 85.2564 148.979 85.2565L150.061 85.2584C150.114 85.2585 150.157 85.2155 150.157 85.1624L150.173 76.2005C150.173 76.1473 150.13 76.1042 150.077 76.1041Z" fill="#9CC1DB"/>
<path d="M169.022 76.1362H167.819C167.781 76.1362 167.75 76.1668 167.75 76.2046V85.1817C167.75 85.2194 167.781 85.25 167.819 85.25H169.022C169.06 85.25 169.091 85.2194 169.091 85.1817V76.2046C169.091 76.1668 169.06 76.1362 169.022 76.1362Z" fill="#9CC1DB"/>
<path d="M176.773 76.1006H175.732C175.634 76.1006 175.555 76.1799 175.555 76.2778V85.027C175.555 85.1249 175.634 85.2043 175.732 85.2043H176.773C176.872 85.2043 176.951 85.1249 176.951 85.027V76.2778C176.951 76.1799 176.872 76.1006 176.773 76.1006Z" fill="#9CC1DB"/>
<path d="M172.732 76.174L170.462 76.1542C170.375 76.1534 170.304 76.2231 170.303 76.3098L170.226 85.1043C170.226 85.1909 170.295 85.2618 170.382 85.2626L172.652 85.2823C172.739 85.2831 172.81 85.2134 172.811 85.1268L172.888 76.3323C172.889 76.2456 172.819 76.1747 172.732 76.174Z" fill="#9CC1DB"/>
</svg>
