<svg width="230" height="129" viewBox="0 0 230 129" fill="none" xmlns="http://www.w3.org/2000/svg">
<rect width="230" height="129" rx="26" fill="white"/>
<path d="M50.6413 67.6117V74.3955H45.9258V51.0742H54.481C59.9712 51.0742 62.7668 53.7405 62.7668 59.1742C62.7668 64.608 59.9712 67.6117 54.481 67.6117H50.6413ZM54.4473 63.5617C56.8051 63.5617 57.9839 62.1105 57.9839 59.1742C57.9839 56.238 56.8051 55.1242 54.4473 55.1242H50.6413V63.5617H54.4473Z" fill="#005198"/>
<path d="M74.7861 60.759C68.8918 47.7315 56.261 38.619 46.628 40.4077C36.9949 42.1965 33.593 54.8865 39.4874 67.914C45.3817 80.9415 58.0125 90.054 67.6119 88.2652C77.2449 86.4765 80.6805 73.7527 74.7861 60.759ZM68.4202 83.574C60.4713 85.5315 49.1541 77.904 43.1924 66.5302C37.1633 55.1565 40.6326 44.3902 48.5815 42.4327C56.5305 40.4752 67.6119 49.3177 73.6073 60.6915C79.569 72.0315 76.3692 81.5827 68.4202 83.574Z" fill="#F15D2A"/>
<path d="M71.2865 52.0869C71.4212 53.8757 70.1076 55.4282 68.3225 55.5632C66.5374 55.6982 64.988 54.3819 64.8533 52.5932C64.7185 50.8044 66.0321 49.2519 67.8173 49.1169C69.6024 48.9819 71.1518 50.2982 71.2865 52.0869Z" fill="#F15D2A"/>
<path opacity="0.5" d="M67.9508 49.9951C68.2203 50.4001 67.9508 51.0076 67.4119 51.3789C66.873 51.7501 66.1994 51.7501 65.9299 51.3451C65.6605 50.9401 65.9299 50.3326 66.4688 49.9614C67.0414 49.5901 67.7151 49.6239 67.9508 49.9951Z" fill="#F15D2A"/>
<path d="M65.6953 57.25H70.2761V74.4288H65.6953V57.25Z" fill="#005198"/>
<path d="M89.4038 65.79C89.4038 71.0888 87.4839 74.835 81.5222 74.835C75.5605 74.835 73.6406 71.0888 73.6406 65.79C73.6406 60.4913 75.5605 56.8125 81.5222 56.8125C87.4839 56.8463 89.4038 60.4913 89.4038 65.79ZM84.7557 65.79C84.7557 62.4488 84.0821 60.7275 81.5222 60.7275C78.9961 60.7275 78.2887 62.4488 78.2887 65.79C78.2887 69.1313 78.9624 70.92 81.5222 70.92C84.0484 70.92 84.7557 69.1313 84.7557 65.79Z" fill="#005198"/>
<path d="M92.7773 74.43V57.2512H97.3244V58.1962C97.3244 58.1962 99.6485 56.8125 101.602 56.8125C106.385 56.8125 107.631 59.85 107.631 65.0812V74.3963H103.05V65.25C103.05 62.6512 102.714 60.9637 100.491 60.9637C98.8738 60.9637 97.3581 61.5713 97.3581 61.5713V74.43H92.7773Z" fill="#005198"/>
<path d="M125.313 70.4821L125.38 73.8909C125.38 73.8909 121.439 74.8696 118.24 74.8696C113.053 74.8696 110.863 72.3046 110.863 66.1284C110.863 60.0196 113.423 56.8809 118.442 56.8809C123.494 56.8809 125.919 59.4459 125.919 64.6434L125.582 67.8496H115.511C115.545 69.9084 116.488 70.8534 118.981 70.8534C121.776 70.7859 125.313 70.4821 125.313 70.4821ZM121.406 64.2721C121.406 61.5046 120.631 60.5934 118.442 60.5934C116.252 60.5934 115.478 61.6734 115.444 64.2721H121.406Z" fill="#005198"/>
<path d="M142.793 70.4802L142.861 73.8889C142.861 73.8889 138.92 74.8677 135.72 74.8677C130.533 74.8677 128.344 72.3027 128.344 66.1264C128.344 60.0177 130.904 56.8789 135.922 56.8789C140.975 56.8789 143.4 59.4439 143.4 64.6414L143.063 67.8477H132.992C133.026 69.9064 134.002 70.8514 136.461 70.8514C139.257 70.7839 142.793 70.4802 142.793 70.4802ZM138.886 64.2702C138.886 61.5027 138.112 60.5914 135.922 60.5914C133.733 60.5914 132.958 61.6714 132.925 64.2702H138.886Z" fill="#005198"/>
<path d="M146.699 57.2527H151.246V59.0752C151.246 59.0752 154.109 57.3539 156.736 56.8477V61.4714C153.705 62.0452 151.28 62.9227 151.28 62.9227V74.4314H146.699V57.2527Z" fill="#005198"/>
<path d="M164.281 66.1261V74.4286H162.395V53.4023H170.108C174.419 53.4023 176.642 55.2923 176.642 59.6461C176.642 62.8186 175.396 65.0461 172.6 65.7886L176.911 74.4623H174.823L170.68 66.1598L164.281 66.1261ZM170.108 55.0561H164.281V64.4723H170.108C173.51 64.4723 174.688 62.4811 174.688 59.6461C174.688 56.5073 173.24 55.0561 170.108 55.0561Z" fill="#F15D2A"/>
<path d="M181.091 59.2754L185.066 65.5191L189.074 59.2754H191.095L186.177 66.8016L191.061 74.3954H189.074L185.099 68.1854L181.125 74.3954H179.104L183.954 66.8354L179.07 59.2754H181.091Z" fill="#F15D2A"/>
</svg>
