<svg width="232" height="129" viewBox="0 0 232 129" fill="none" xmlns="http://www.w3.org/2000/svg">
<rect width="232" height="129" rx="26" fill="white"/>
<g clip-path="url(#clip0_370_5279)">
<path d="M35 50.6001H39.1021C41.5289 50.6001 43.1181 50.697 43.8631 50.8865C44.6082 51.0781 45.293 51.4119 45.9131 51.8899C46.5333 52.368 47.0178 52.9666 47.3623 53.6815C47.7069 54.3986 47.8791 55.1975 47.8791 56.076C47.8791 57.4908 47.4958 58.6471 46.7314 59.5472C45.967 60.4452 45.0066 61.0158 43.8481 61.2527C42.6917 61.4917 40.9174 61.6123 38.5272 61.6123H37.0651V71.1903H35V50.6001ZM37.0651 52.607V59.6334H40.5362C42.6207 59.6721 44.0074 59.3319 44.6943 58.6148C45.3834 57.8978 45.7258 57.0515 45.7258 56.076C45.7258 53.7634 44.0526 52.6049 40.7063 52.6049H37.0651V52.607Z" fill="#1D1D1B"/>
<path d="M51.9805 50.6001H54.1037V58.3155L62.3036 50.6001H65.0857L55.1911 59.8358L65.8609 71.1925H63.1369L54.1037 61.5843V71.1925H51.9805V50.6001Z" fill="#1D1D1B"/>
<path d="M67.6076 75.3031L70.7795 73.4318C72.9974 77.5232 75.5793 79.5667 78.5272 79.5667C80.4329 79.5667 82.063 78.9595 83.4153 77.7471C84.7676 76.5348 85.4437 75.0275 85.4437 73.223C85.4437 71.8018 84.8709 70.3633 83.7275 68.9077C82.5841 67.452 80.6848 65.7272 78.0341 63.7332C75.3812 61.7392 73.5961 60.2491 72.6787 59.2607C71.7593 58.2723 71.0831 57.215 70.6503 56.0888C70.2175 54.9626 70 53.8278 70 52.6823C70 50.2554 70.857 48.2033 72.5732 46.5216C74.2894 44.8398 76.4471 44 79.0462 44C81.0918 44 82.8769 44.5125 84.4015 45.5332C85.9261 46.556 87.399 48.0741 88.8223 50.0832L85.8055 52.4239C84.8343 51.106 83.8287 50.0143 82.7887 49.1486C81.7486 48.283 80.4738 47.848 78.9665 47.848C77.4591 47.848 76.2274 48.2981 75.2735 49.2003C74.3196 50.1026 73.8437 51.246 73.8437 52.6327C73.8437 54.0195 74.2679 55.2254 75.1185 56.246C75.9669 57.2689 77.892 58.8903 80.8894 61.1083C83.8869 63.3262 86.0725 65.3719 87.442 67.2453C88.8116 69.1165 89.4963 71.0933 89.4963 73.1734C89.4963 75.878 88.4476 78.2252 86.3503 80.2192C84.2529 82.2132 81.8175 83.208 79.044 83.208C74.1559 83.208 70.3424 80.5745 67.6055 75.3031H67.6076Z" fill="#1D1D1B"/>
<path d="M115.562 50.486V52.4067C114.817 52.0816 114.151 51.9201 113.568 51.9201C112.984 51.9201 112.607 52.1074 112.435 52.48C112.263 52.8525 112.177 53.4597 112.177 54.3017V55.9662H115.359V57.6286H112.177V71.1946H110.198V57.6286H108.219V55.9662H110.198V53.9873C110.198 52.6501 110.445 51.6638 110.943 51.0329C111.44 50.402 112.213 50.0854 113.266 50.0854C113.878 50.0854 114.642 50.219 115.559 50.486H115.562Z" fill="#1D1D1B"/>
<path d="M128.527 55.9639H130.564L135.211 67.5208L140.117 55.9639H140.461L145.336 67.5208L150.069 55.9639H152.134L145.509 71.7091H145.136L140.289 60.2942L135.414 71.7091H135.041L128.532 55.9639H128.527Z" fill="#1D1D1B"/>
<path d="M169.166 55.964V71.1924H167.245V68.5826C165.505 70.667 163.518 71.7092 161.28 71.7092C159.043 71.7092 157.154 70.9103 155.617 69.3147C154.077 67.7191 153.309 65.8155 153.309 63.6083C153.309 61.4012 154.084 59.5062 155.632 57.93C157.18 56.3538 159.034 55.5635 161.196 55.5635C163.681 55.5635 165.699 56.6251 167.247 58.7461V55.964H169.168H169.166ZM167.359 63.6493C167.359 61.9094 166.776 60.4429 165.611 59.2478C164.444 58.0527 163.016 57.4563 161.323 57.4563C159.631 57.4563 158.201 58.0721 157.036 59.306C155.869 60.5398 155.288 61.9977 155.288 63.6794C155.288 65.3612 155.88 66.819 157.066 68.0528C158.251 69.2867 159.672 69.9026 161.325 69.9026C162.979 69.9026 164.398 69.3104 165.585 68.1239C166.769 66.9396 167.363 65.4473 167.363 63.6493H167.359Z" fill="#1D1D1B"/>
<path d="M172.836 55.9637H174.843V58.1709C175.379 57.2729 175.9 56.6119 176.406 56.192C176.912 55.7721 177.476 55.561 178.099 55.561C178.721 55.561 179.345 55.7333 179.976 56.0778L178.945 57.7424C178.659 57.5701 178.361 57.484 178.056 57.484C177.463 57.484 176.904 57.7897 176.378 58.4013C175.853 59.0128 175.465 59.8031 175.218 60.7678C174.968 61.7325 174.845 63.4875 174.845 66.0306V71.1921H172.838V55.9637H172.836Z" fill="#1D1D1B"/>
<path d="M194.819 66.2611L196.482 67.1224C194.837 70.1823 192.41 71.7112 189.197 71.7112C186.901 71.7112 185.009 70.923 183.519 69.3446C182.028 67.7662 181.281 65.8692 181.281 63.6512C181.281 61.4333 182.031 59.5319 183.534 57.9449C185.035 56.3579 186.889 55.5654 189.098 55.5654C191.307 55.5654 193.161 56.3019 194.662 57.7748C196.163 59.2476 196.942 61.2546 196.998 63.7976H183.29C183.348 65.6323 183.926 67.1095 185.026 68.2292C186.124 69.3468 187.459 69.9067 189.027 69.9067C191.609 69.9067 193.54 68.6922 194.819 66.2632V66.2611ZM194.819 62.103C194.552 60.6495 193.883 59.5125 192.812 58.6899C191.742 57.8673 190.508 57.4561 189.113 57.4561C186.245 57.4561 184.371 59.0043 183.491 62.103H194.819Z" fill="#1D1D1B"/>
<path d="M93.9404 80.6543L91.8711 85.2151H92.5709L93.2234 83.7896H94.8922L95.549 85.2151H96.2294L94.1838 80.6543H93.9404ZM94.6058 83.1522H93.5098L94.0589 81.9441L94.6037 83.1522H94.6058Z" fill="#1D1D1B"/>
<path d="M107.98 81.1065C107.842 81.001 107.689 80.9256 107.525 80.8847C107.364 80.8438 107.039 80.8223 106.533 80.8223H105.594V85.2151H106.227V83.2706H106.416C106.905 83.2706 107.278 83.2448 107.519 83.1952C107.777 83.1414 107.993 83.0144 108.163 82.8141C108.335 82.6117 108.421 82.3533 108.421 82.0411C108.421 81.8473 108.382 81.6685 108.305 81.5092C108.227 81.3498 108.12 81.2142 107.98 81.1065ZM107.771 82.0411C107.771 82.2112 107.713 82.3554 107.592 82.4825C107.51 82.5665 107.31 82.6655 106.825 82.6569H106.227V81.4446H106.86C107.678 81.4446 107.773 81.7848 107.773 82.0432L107.771 82.0411Z" fill="#1D1D1B"/>
<path d="M116.397 84.0629C116.022 84.5 115.568 84.7132 115.006 84.7132C114.502 84.7132 114.095 84.556 113.761 84.233C113.429 83.9121 113.266 83.5224 113.266 83.04C113.266 82.5577 113.432 82.1636 113.772 81.832C114.114 81.5004 114.508 81.3389 114.982 81.3389C115.563 81.3389 116.024 81.5629 116.395 82.0215L116.459 82.1033L116.95 81.7265L116.89 81.6425C116.679 81.3454 116.401 81.115 116.069 80.9556C115.738 80.7984 115.361 80.7188 114.947 80.7188C114.534 80.7188 114.138 80.82 113.776 81.0181C113.412 81.2162 113.126 81.4961 112.921 81.8471C112.717 82.1981 112.613 82.5857 112.613 82.9991C112.613 83.6667 112.837 84.2265 113.279 84.6637C113.72 85.1008 114.293 85.3226 114.984 85.3226C115.378 85.3226 115.744 85.2472 116.069 85.1008C116.399 84.9522 116.674 84.7326 116.89 84.4483L116.954 84.3644L116.463 83.9875L116.397 84.065V84.0629Z" fill="#1D1D1B"/>
<path d="M124.897 84.0631C124.522 84.5003 124.068 84.7134 123.506 84.7134C123.002 84.7134 122.595 84.5562 122.261 84.2332C121.929 83.9124 121.766 83.5226 121.766 83.0403C121.766 82.5579 121.932 82.1639 122.272 81.8323C122.614 81.5007 123.008 81.3392 123.482 81.3392C124.063 81.3392 124.524 81.5631 124.895 82.0218L124.959 82.1036L125.45 81.7268L125.39 81.6428C125.179 81.3456 124.901 81.1152 124.569 80.9559C124.238 80.7987 123.861 80.719 123.447 80.719C123.034 80.719 122.638 80.8202 122.276 81.0183C121.912 81.2164 121.626 81.4963 121.421 81.8473C121.217 82.1983 121.113 82.5859 121.113 82.9994C121.113 83.6669 121.337 84.2268 121.779 84.6639C122.22 85.101 122.793 85.3228 123.484 85.3228C123.878 85.3228 124.244 85.2475 124.569 85.101C124.899 84.9525 125.174 84.7328 125.39 84.4486L125.454 84.3646L124.963 83.9878L124.897 84.0653V84.0631Z" fill="#1D1D1B"/>
<path d="M131.448 80.6543L129.379 85.2151H130.079L130.731 83.7896H132.4L133.057 85.2151H133.737L131.692 80.6543H131.448ZM132.114 83.1522H131.018L131.567 81.9441L132.111 83.1522H132.114Z" fill="#1D1D1B"/>
<path d="M146.69 84.0629C146.315 84.5 145.861 84.7132 145.299 84.7132C144.801 84.7132 144.383 84.5517 144.054 84.233C143.722 83.9121 143.559 83.5224 143.559 83.04C143.559 82.5577 143.725 82.1636 144.065 81.832C144.401 81.5047 144.808 81.3389 145.275 81.3389C145.856 81.3389 146.317 81.5629 146.688 82.0215L146.752 82.1033L147.243 81.7265L147.183 81.6425C146.972 81.3454 146.694 81.115 146.362 80.9556C146.031 80.7984 145.654 80.7188 145.24 80.7188C144.827 80.7188 144.431 80.82 144.069 81.0181C143.707 81.2162 143.419 81.4961 143.214 81.8471C143.01 82.1981 142.906 82.5857 142.906 82.9991C142.906 83.6667 143.13 84.2265 143.572 84.6637C144.013 85.1008 144.586 85.3226 145.277 85.3226C145.671 85.3226 146.037 85.2472 146.362 85.1008C146.692 84.9522 146.967 84.7326 147.183 84.4483L147.247 84.3644L146.756 83.9875L146.69 84.065V84.0629Z" fill="#1D1D1B"/>
<path d="M154.877 81.0202C154.519 80.82 154.127 80.7188 153.714 80.7188C153.3 80.7188 152.911 80.8221 152.557 81.0245C152.204 81.2269 151.922 81.5112 151.72 81.8686C151.517 82.2239 151.414 82.618 151.414 83.04C151.414 83.4621 151.517 83.8346 151.722 84.1878C151.927 84.5409 152.211 84.8209 152.568 85.0211C152.924 85.2214 153.315 85.3226 153.729 85.3226C154.142 85.3226 154.534 85.2192 154.887 85.0168C155.243 84.8144 155.525 84.5323 155.727 84.177C155.93 83.8217 156.033 83.432 156.033 83.0185C156.033 82.6051 155.93 82.2132 155.725 81.86C155.52 81.5047 155.234 81.2226 154.877 81.0224V81.0202ZM155.385 83.0207C155.385 83.5116 155.228 83.9057 154.902 84.2244C154.577 84.5452 154.192 84.7003 153.729 84.7003C153.266 84.7003 152.88 84.5409 152.553 84.2136C152.226 83.8863 152.067 83.4966 152.067 83.0228C152.067 82.5491 152.226 82.1529 152.54 81.8277C152.859 81.4983 153.244 81.3389 153.718 81.3389C154.192 81.3389 154.569 81.4983 154.898 81.8256C155.228 82.1529 155.387 82.5426 155.387 83.0185L155.385 83.0207Z" fill="#1D1D1B"/>
<path d="M164.321 80.8242L162.699 84.1188L161.067 80.8242H160.843L160.219 85.217H160.837L161.211 82.4543L162.581 85.217H162.818L164.172 82.478L164.545 85.217H165.174L164.545 80.8242H164.321Z" fill="#1D1D1B"/>
<path d="M171.925 81.1065C171.787 81.001 171.634 80.9256 171.471 80.8847C171.309 80.8438 170.984 80.8223 170.478 80.8223H169.539V85.2151H170.172V83.2706H170.362C170.85 83.2706 171.221 83.2448 171.462 83.1952C171.72 83.1414 171.936 83.0144 172.106 82.8141C172.278 82.6117 172.364 82.3533 172.364 82.0411C172.364 81.8473 172.325 81.6685 172.25 81.5092C172.173 81.3498 172.065 81.2142 171.925 81.1065ZM171.716 82.0411C171.716 82.2112 171.658 82.3554 171.537 82.4825C171.456 82.5665 171.26 82.6677 170.771 82.6569H170.172V81.4446H170.805C171.623 81.4446 171.718 81.7848 171.718 82.0432L171.716 82.0411Z" fill="#1D1D1B"/>
<path d="M178.394 80.6543L176.324 85.2151H177.024L177.677 83.7896H179.345L180.002 85.2151H180.683L178.637 80.6543H178.394ZM179.059 83.1522H177.963L178.512 81.9441L179.057 83.1522H179.059Z" fill="#1D1D1B"/>
<path d="M187.7 83.8454L185.08 80.8242H184.832V85.217H185.476V82.2325L188.079 85.217H188.327V80.8242H187.7V83.8454Z" fill="#1D1D1B"/>
<path d="M195.221 80.8242L194.226 82.45L193.22 80.8242H192.488L193.922 83.1434V85.217H194.543V83.1434L195.953 80.8242H195.221Z" fill="#1D1D1B"/>
<path d="M126.592 57.6286V55.9641H123.495V50.0854H121.516V55.9641H118.82V57.6286H121.516V68.785V69.0994V71.2743H123.504L123.495 68.785V57.6286H126.592Z" fill="#1D1D1B"/>
<path d="M195.76 75.9663H92.2344V76.6123H195.76V75.9663Z" fill="#1D1D1B"/>
<path d="M65.8595 75.9663H35V76.6123H65.8595V75.9663Z" fill="#1D1D1B"/>
<path d="M107.227 61.6661C106.544 54.4352 98.534 52.2173 98.534 52.2173C99.9918 53.1088 101.071 53.8947 102.025 54.9951C100.956 54.5278 99.7915 54.291 98.534 54.291C96.0856 54.291 93.9797 55.1824 92.2742 56.9417C90.9499 58.3091 90.1338 59.9112 89.8345 61.72L89.8108 61.6618C89.7871 61.8815 89.7699 62.0968 89.7548 62.31C89.7204 62.6438 89.7031 62.9818 89.7031 63.3264C89.7031 63.7398 89.729 64.1425 89.7785 64.5365C90.4826 71.9139 97.3647 73.699 97.3647 73.699C96.0059 72.969 94.9939 71.9935 94.1821 71.143C95.4741 71.8902 96.934 72.2692 98.549 72.2692C101.028 72.2692 103.14 71.382 104.826 69.6335C106.51 67.885 107.365 65.7532 107.365 63.2962C107.365 62.7363 107.317 62.1937 107.227 61.6661ZM103.093 68.0637C101.846 69.3514 100.302 70.0017 98.5017 70.0017C96.7015 70.0017 95.1705 69.3557 93.9581 68.0788C92.7436 66.8019 92.1256 65.2256 92.1256 63.3888C92.1256 61.552 92.763 59.9499 94.0206 58.6213C95.276 57.2927 96.7941 56.6209 98.5318 56.6209C100.27 56.6209 101.794 57.2949 103.06 58.6213C104.329 59.9499 104.97 61.5434 104.97 63.3587C104.97 65.1739 104.337 66.776 103.093 68.0637Z" fill="#921B6E"/>
</g>
<defs>
<clipPath id="clip0_370_5279">
<rect width="162" height="41.3204" fill="white" transform="translate(35 44)"/>
</clipPath>
</defs>
</svg>
