<svg width="232" height="129" viewBox="0 0 232 129" fill="none" xmlns="http://www.w3.org/2000/svg">
<rect width="232" height="129" rx="26" fill="white"/>
<path d="M46.5935 56.8374L44.7969 57.4611" stroke="#83876C" stroke-width="2"/>
<path d="M43.7129 58.417L43.0078 60.2543" stroke="#83876C" stroke-width="2"/>
<path d="M51.1975 60.4237L50.5195 58.5593" stroke="#83876C" stroke-width="2"/>
<path d="M49.6162 57.5425L47.6094 56.8374" stroke="#83876C" stroke-width="2"/>
<path d="M51.1973 61.6104L50.4922 63.4476" stroke="#83876C" stroke-width="2"/>
<path d="M49.4753 64.3491L47.4414 65.0271" stroke="#83876C" stroke-width="2"/>
<path d="M46.4232 65.0274L44.5859 64.3223" stroke="#83876C" stroke-width="2"/>
<path d="M43.5434 63.278L43.0078 61.4407" stroke="#83876C" stroke-width="2"/>
<path d="M49.5856 60.9457C49.5856 60.6189 49.5213 60.2954 49.3962 59.9935C49.2712 59.6916 49.0879 59.4173 48.8569 59.1863C48.6258 58.9552 48.3516 58.772 48.0497 58.6469C47.7478 58.5219 47.4243 58.4575 47.0975 58.4575C46.4376 58.4575 45.8047 58.7197 45.3381 59.1863C44.8715 59.6529 44.6094 60.2858 44.6094 60.9457C44.6094 61.6056 44.8715 62.2384 45.3381 62.705C45.8047 63.1716 46.4376 63.4338 47.0975 63.4338C47.4243 63.4338 47.7478 63.3694 48.0497 63.2444C48.3516 63.1194 48.6258 62.9361 48.8569 62.705C49.0879 62.474 49.2712 62.1997 49.3962 61.8978C49.5213 61.5959 49.5856 61.2724 49.5856 60.9457Z" stroke="#FBCA8E" stroke-width="2"/>
<path d="M33.7544 45H35.6188C41.3996 46.9797 45.0583 50.9254 46.5951 56.8373L44.7984 57.461C43.5329 52.1412 40.3194 48.5141 35.1578 46.5797C33.9103 46.1141 33.2595 46.5458 33.2052 47.8746C33.1826 48.5164 33.3047 49.1401 33.5713 49.7458C35.273 53.6373 39.1849 58.139 43.7137 58.417L43.0086 60.2542C38.1951 58.939 34.6018 55.9311 32.229 51.2305C30.8097 48.4147 31.3182 46.3379 33.7544 45Z" fill="#0F79BA"/>
<path d="M45.3675 49.1196C45.3567 51.1865 46.1462 52.8661 47.1309 52.8713C48.1156 52.8765 48.9227 51.2051 48.9335 49.1383C48.9444 47.0715 48.1548 45.3918 47.1701 45.3867C46.1854 45.3815 45.3783 47.0528 45.3675 49.1196Z" fill="#F7941D"/>
<path d="M51.1958 60.4237L50.5179 58.5593C55.3517 57.7728 61.8738 52.661 61.1077 47.6915C61.0918 47.5911 61.0445 47.4984 60.9726 47.4265C60.9008 47.3547 60.808 47.3074 60.7077 47.2915C55.9958 46.539 49.8195 53.2576 49.6162 57.5423L47.6094 56.8373C48.8749 52.5841 51.3924 49.2825 55.1619 46.9322C59.2907 44.3491 65.6094 45.0339 62.2263 51.644C59.8489 56.2813 56.1721 59.2079 51.1958 60.4237Z" fill="#0F79BA"/>
<path d="M68.3492 48.9797C73.1628 48.8102 84.8645 47.2102 86.3967 53.8882C87.5537 58.9368 85.7684 62.1503 81.0407 63.5288C79.8475 63.8769 76.5278 63.956 71.0814 63.7661C71.0269 63.7643 70.9725 63.7733 70.9215 63.7926C70.8706 63.8119 70.8241 63.8411 70.7849 63.8784C70.7457 63.9157 70.7145 63.9604 70.6932 64.0099C70.672 64.0593 70.661 64.1124 70.6611 64.1661V72.539C70.6611 72.6523 70.6161 72.7609 70.536 72.841C70.4559 72.9211 70.3472 72.9661 70.234 72.9661H68.3763C68.2631 72.9661 68.1544 72.9211 68.0743 72.841C67.9942 72.7609 67.9492 72.6523 67.9492 72.539V49.3933C67.9492 49.2859 67.9909 49.1827 68.0655 49.1055C68.1402 49.0283 68.2419 48.9832 68.3492 48.9797ZM81.8814 52.2407C81.1718 51.73 80.3786 51.4701 79.5018 51.4611L71.0272 51.3933C70.9301 51.3933 70.837 51.4311 70.7683 51.4985C70.6997 51.5659 70.6611 51.6573 70.6611 51.7526V61.0543C70.6609 61.1444 70.6953 61.2311 70.757 61.2966C70.8188 61.3622 70.9034 61.4016 70.9933 61.4068C73.8498 61.5605 76.6905 61.4746 79.5153 61.1492C84.3153 60.5933 85.5424 54.8712 81.8814 52.2407Z" fill="#0F79BA"/>
<path d="M160.48 63.8203L160.527 72.6067C160.527 72.6539 160.518 72.7006 160.5 72.7442C160.482 72.7878 160.456 72.8274 160.424 72.8608C160.391 72.8941 160.352 72.9206 160.309 72.9387C160.267 72.9567 160.221 72.966 160.174 72.966H158.29C158.223 72.9669 158.157 72.9544 158.096 72.9293C158.034 72.9041 157.978 72.8668 157.931 72.8195C157.883 72.7722 157.846 72.7158 157.82 72.6537C157.794 72.5916 157.781 72.5249 157.781 72.4575V49.3592C157.781 49.2692 157.816 49.1824 157.879 49.1169C157.942 49.0513 158.029 49.0119 158.12 49.0067C164.852 48.7355 176.785 46.844 176.758 56.1457C176.744 59.9084 174.941 62.5457 171.137 63.1355C171.099 63.1418 171.062 63.1576 171.031 63.1814C171 63.2051 170.976 63.2361 170.96 63.2714C170.944 63.3067 170.938 63.3451 170.942 63.383C170.946 63.4209 170.959 63.457 170.981 63.4881L177.191 72.505C177.39 72.7943 177.313 72.9412 176.961 72.9457L174.69 72.9796C174.561 72.9815 174.435 72.9507 174.322 72.8902C174.209 72.8296 174.114 72.7414 174.046 72.6338L168.269 63.766C168.211 63.6765 168.13 63.6029 168.036 63.552C167.941 63.5012 167.835 63.4745 167.727 63.4745H160.825C160.779 63.4745 160.734 63.4835 160.691 63.501C160.649 63.5184 160.611 63.544 160.578 63.5762C160.546 63.6084 160.521 63.6466 160.504 63.6885C160.487 63.7304 160.479 63.7752 160.48 63.8203ZM172.378 52.4372C169.598 50.7694 163.937 51.3186 160.69 51.3389C160.665 51.3389 160.64 51.3438 160.617 51.3533C160.594 51.3629 160.573 51.3769 160.555 51.3945C160.538 51.4121 160.524 51.4331 160.514 51.4561C160.505 51.4791 160.5 51.5038 160.5 51.5287L160.493 60.5864C160.493 60.6998 160.536 60.8089 160.613 60.891C160.69 60.9731 160.795 61.0218 160.907 61.027C166.547 61.3457 175.693 62.3287 173.835 54.4304C173.632 53.5581 173.146 52.8937 172.378 52.4372Z" fill="#F7941D"/>
<path d="M102.798 52.3967C103.715 52.3967 104.459 51.6531 104.459 50.7357C104.459 49.8184 103.715 49.0747 102.798 49.0747C101.88 49.0747 101.137 49.8184 101.137 50.7357C101.137 51.6531 101.88 52.3967 102.798 52.3967Z" fill="#0F79BA"/>
<path d="M91.8672 58.3494C93.6299 55.8454 96.0842 55.1132 99.2299 56.1528C99.3427 56.1905 99.4411 56.2623 99.5115 56.3582C99.5819 56.4541 99.6209 56.5694 99.6231 56.6884L99.6503 58.3494C99.6505 58.4013 99.638 58.4524 99.6139 58.4984C99.5898 58.5444 99.5549 58.5838 99.5121 58.6132C99.4694 58.6426 99.4201 58.6611 99.3685 58.6671C99.317 58.6731 99.2648 58.6665 99.2164 58.6477C90.4164 55.0409 91.7587 66.9934 91.8604 72.4917C91.8623 72.5974 91.8231 72.6996 91.7509 72.7768C91.6788 72.8539 91.5795 72.9 91.474 72.9053L89.7723 72.9867C89.7128 72.9894 89.6533 72.9799 89.5975 72.9586C89.5417 72.9374 89.4907 72.9049 89.4476 72.863C89.4045 72.8212 89.3702 72.7709 89.3467 72.7153C89.3233 72.6596 89.3113 72.5997 89.3113 72.5392C89.3113 70.4714 88.8842 57.0884 89.5689 56.2545C89.8898 55.8658 90.4209 55.7889 91.1621 56.024C91.2625 56.0578 91.3498 56.1218 91.4118 56.2069C91.4738 56.292 91.5074 56.3939 91.5079 56.4985V58.2341C91.5079 58.6545 91.6277 58.6929 91.8672 58.3494Z" fill="#0F79BA"/>
<path d="M110.673 58.2544C112.707 54.8306 120.212 54.6883 121.46 58.973C121.6 59.4521 121.78 59.4679 122.002 59.0205C124.124 54.695 131.222 54.6001 133.487 58.451C135.29 61.5289 134.585 68.5459 134.544 72.5391C134.543 72.653 134.496 72.7616 134.415 72.8415C134.334 72.9215 134.224 72.9662 134.11 72.9662H132.402C132.359 72.9663 132.316 72.9576 132.277 72.9407C132.237 72.9239 132.201 72.8992 132.172 72.8682C132.142 72.8371 132.119 72.8004 132.104 72.7601C132.088 72.7199 132.081 72.677 132.083 72.634C132.28 68.79 133.988 57.9561 127.622 57.9086C121.188 57.8611 122.395 66.7561 122.531 72.6069C122.532 72.6538 122.523 72.7003 122.505 72.7439C122.488 72.7874 122.461 72.8271 122.428 72.8605C122.394 72.894 122.355 72.9206 122.311 72.9387C122.266 72.9569 122.219 72.9662 122.171 72.9662H120.517C120.422 72.9662 120.33 72.9291 120.263 72.863C120.196 72.7969 120.158 72.7072 120.158 72.6137C120.158 69.2826 120.142 65.9538 120.11 62.6272C120.049 56.5459 112.036 56.173 110.673 62.1188C110.361 63.5018 110.321 66.973 110.551 72.5323C110.553 72.5887 110.543 72.6448 110.523 72.6973C110.503 72.7499 110.472 72.7979 110.433 72.8384C110.394 72.8788 110.347 72.911 110.295 72.933C110.243 72.9549 110.187 72.9663 110.131 72.9662H108.456C108.366 72.9662 108.28 72.9305 108.216 72.8669C108.153 72.8034 108.117 72.7171 108.117 72.6272V56.4239C108.117 56.3663 108.129 56.3093 108.152 56.2565C108.174 56.2036 108.208 56.156 108.25 56.1166C108.292 56.0772 108.341 56.0468 108.395 56.0274C108.45 56.0079 108.507 55.9998 108.565 56.0035L109.941 56.0781C110.005 56.082 110.068 56.0994 110.126 56.1291C110.183 56.1589 110.233 56.2003 110.274 56.2508C110.314 56.3013 110.343 56.3597 110.359 56.4222C110.376 56.4847 110.379 56.55 110.368 56.6137L110.138 58.0984C110.129 58.1661 110.145 58.2348 110.184 58.292C110.222 58.3492 110.281 58.3912 110.348 58.4103C110.463 58.4374 110.599 58.3696 110.673 58.2544Z" fill="#0F79BA"/>
<path d="M139.562 65.7864C140.952 72.0102 148.552 72.4508 152.809 69.1085C152.842 69.0833 152.879 69.0657 152.919 69.0572C152.959 69.0486 153.001 69.0492 153.041 69.059C153.08 69.0688 153.118 69.0875 153.149 69.1137C153.181 69.1399 153.206 69.1728 153.223 69.2102C153.828 70.4847 153.557 71.4203 152.409 72.0169C148.226 74.1864 141.894 73.8068 138.857 69.9356C134.897 64.8983 137.697 56.9729 144.063 55.8881C150.152 54.8508 154.708 58.3288 154.504 64.8034C154.501 64.9467 154.44 65.0829 154.337 65.183C154.233 65.2831 154.093 65.3391 153.948 65.339H139.921C139.867 65.3386 139.813 65.3507 139.763 65.3742C139.714 65.3978 139.671 65.4323 139.636 65.4751C139.602 65.518 139.577 65.5682 139.564 65.6221C139.552 65.6759 139.551 65.7321 139.562 65.7864ZM152.138 62.7966C151.609 56.3424 141.033 56.2542 139.718 62.7898C139.71 62.8319 139.711 62.8753 139.721 62.9168C139.731 62.9583 139.75 62.9969 139.777 63.0299C139.804 63.0629 139.837 63.0895 139.875 63.1078C139.912 63.126 139.954 63.1355 139.996 63.1356H151.826C151.87 63.1357 151.912 63.1269 151.952 63.1095C151.992 63.0922 152.028 63.0668 152.057 63.0349C152.086 63.003 152.109 62.9653 152.123 62.9243C152.137 62.8833 152.142 62.8398 152.138 62.7966Z" fill="#0F79BA"/>
<path d="M103.611 56.0171H101.956C101.713 56.0171 101.516 56.2144 101.516 56.4578V72.5256C101.516 72.7689 101.713 72.9662 101.956 72.9662H103.611C103.854 72.9662 104.051 72.7689 104.051 72.5256V56.4578C104.051 56.2144 103.854 56.0171 103.611 56.0171Z" fill="#0F79BA"/>
<path d="M187.725 62.5323L192.41 56.3695C192.473 56.2868 192.554 56.219 192.647 56.171C192.739 56.123 192.841 56.0959 192.945 56.0916L195.013 55.9899C195.456 55.9673 195.538 56.1277 195.257 56.4712L189.203 64.017C189.14 64.0957 189.106 64.1932 189.106 64.2931C189.106 64.393 189.14 64.4894 189.203 64.5662L195.596 72.4848C195.858 72.8102 195.782 72.9729 195.366 72.9729L193.264 72.9662C193.144 72.966 193.026 72.9384 192.919 72.8854C192.811 72.8325 192.719 72.7557 192.647 72.6611L187.603 66.0712C187.574 66.0328 187.536 66.0015 187.493 65.9797C187.45 65.958 187.402 65.9463 187.354 65.9457C187.306 65.945 187.258 65.9554 187.214 65.976C187.17 65.9965 187.132 66.0268 187.101 66.0645C185.592 68.0034 184.114 69.9334 182.668 71.8543C181.705 73.1289 180.79 73.2712 179.339 72.878C179.304 72.869 179.271 72.8513 179.245 72.8266C179.218 72.8019 179.198 72.7709 179.187 72.7365C179.175 72.7021 179.173 72.6654 179.179 72.6297C179.186 72.5941 179.201 72.5605 179.223 72.5323L185.603 64.5662C185.667 64.4853 185.702 64.3856 185.702 64.2833C185.702 64.1811 185.667 64.0824 185.603 64.0034L179.515 56.4102C179.303 56.1436 179.366 56.0125 179.705 56.017H181.867C181.99 56.0193 182.111 56.0485 182.22 56.1025C182.329 56.1565 182.424 56.2338 182.498 56.3289L187.257 62.5323C187.284 62.5681 187.319 62.5972 187.359 62.6172C187.399 62.6372 187.443 62.6476 187.489 62.6476C187.534 62.6476 187.579 62.6372 187.62 62.6172C187.661 62.5972 187.697 62.5681 187.725 62.5323Z" fill="#F7941D"/>
<path d="M46.5943 56.8374H47.6112L49.618 57.5425L50.5197 58.5594L51.1976 60.4238V61.6103L50.4926 63.4476L49.4756 64.3493L47.4417 65.0272H46.4248L44.5875 64.3221L43.5434 63.2781L43.0078 61.4408V60.2544L43.7129 58.4171C44.0293 58.2905 44.3909 57.9719 44.7976 57.4611L46.5943 56.8374ZM49.5841 60.9459C49.5841 60.6191 49.5197 60.2956 49.3947 59.9937C49.2696 59.6918 49.0864 59.4175 48.8553 59.1865C48.6243 58.9555 48.35 58.7722 48.0481 58.6471C47.7462 58.5221 47.4227 58.4577 47.0959 58.4577C46.4361 58.4577 45.8032 58.7199 45.3366 59.1865C44.87 59.6531 44.6078 60.286 44.6078 60.9459C44.6078 61.6058 44.87 62.2386 45.3366 62.7053C45.8032 63.1719 46.4361 63.434 47.0959 63.434C47.4227 63.434 47.7462 63.3697 48.0481 63.2446C48.35 63.1196 48.6243 62.9363 48.8553 62.7053C49.0864 62.4742 49.2696 62.1999 49.3947 61.898C49.5197 61.5962 49.5841 61.2726 49.5841 60.9459Z" fill="#F7941D"/>
<path d="M47.0936 63.4338C48.4678 63.4338 49.5817 62.3198 49.5817 60.9457C49.5817 59.5715 48.4678 58.4575 47.0936 58.4575C45.7194 58.4575 44.6055 59.5715 44.6055 60.9457C44.6055 62.3198 45.7194 63.4338 47.0936 63.4338Z" fill="white"/>
<path d="M35.0317 62.9866C37.1173 62.9903 38.8094 62.1919 38.8111 61.2034C38.8129 60.2149 37.1236 59.4106 35.038 59.407C32.9524 59.4033 31.2603 60.2017 31.2586 61.1902C31.2569 62.1787 32.9462 62.983 35.0317 62.9866Z" fill="#F7941D"/>
<path d="M59.2981 62.9998C61.3948 62.9852 63.089 62.172 63.0821 61.1836C63.0752 60.1951 61.3698 59.4056 59.2731 59.4203C57.1763 59.4349 55.4822 60.2481 55.4891 61.2366C55.496 62.225 57.2013 63.0145 59.2981 62.9998Z" fill="#F7941D"/>
<path d="M43.0068 61.4407L43.5424 63.278C40.3107 63.8113 37.696 65.3073 35.6983 67.7661C34.4305 69.3322 32.6746 71.5627 32.7831 73.0814C32.8915 74.6542 33.6847 75.1672 35.1627 74.6203C40.261 72.722 43.4023 69.2893 44.5864 64.322L46.4237 65.0271C44.8102 70.5322 41.3932 74.2136 36.1729 76.0712C33.7932 76.9186 31.7593 76.5593 31 73.9424V72.5864C32.9571 66.6791 36.9593 62.9638 43.0068 61.4407Z" fill="#0F79BA"/>
<path d="M51.1973 61.6104C56.7341 63.1878 60.481 66.6861 62.438 72.1053C63.4143 74.7968 61.3262 77.8273 58.438 76.9256C52.838 75.1629 49.1725 71.1968 47.4414 65.0273L49.4753 64.3493C49.699 69.1561 54.2143 73.2442 58.4109 75.0815C59.8979 75.7324 60.7341 75.251 60.9194 73.6375C61.3601 69.8205 54.1939 63.5629 50.4923 63.4476L51.1973 61.6104Z" fill="#0F79BA"/>
<path d="M45.3647 73.3311C45.3792 75.4091 46.1922 77.0881 47.1807 77.0812C48.1692 77.0743 48.9587 75.3841 48.9442 73.3061C48.9297 71.228 48.1167 69.5491 47.1282 69.556C46.1397 69.5629 45.3502 71.253 45.3647 73.3311Z" fill="#F7941D"/>
<path d="M67.6094 80.8396V75.5802H69.4249C69.8464 75.5802 70.191 75.6547 70.4586 75.8036C70.7279 75.9509 70.9273 76.1503 71.0567 76.402C71.1862 76.6537 71.2509 76.9344 71.2509 77.2443C71.2509 77.5542 71.1862 77.8358 71.0567 78.0892C70.929 78.3426 70.7314 78.5446 70.4638 78.6953C70.1962 78.8442 69.8534 78.9187 69.4354 78.9187H68.1341V78.3537H69.4144C69.703 78.3537 69.9347 78.3049 70.1096 78.2073C70.2845 78.1097 70.4113 77.9779 70.49 77.8118C70.5705 77.6441 70.6107 77.4549 70.6107 77.2443C70.6107 77.0337 70.5705 76.8454 70.49 76.6793C70.4113 76.5133 70.2837 76.3832 70.107 76.289C69.9303 76.1931 69.696 76.1452 69.4039 76.1452H68.26V80.8396H67.6094Z" fill="#61636C"/>
<path d="M72.299 80.8396V75.5802H72.9496V77.9223H75.8145V75.5802H76.4652V80.8396H75.8145V78.4872H72.9496V80.8396H72.299Z" fill="#61636C"/>
<path d="M77.9882 80.8396H77.306L79.279 75.5802H79.9506L81.9235 80.8396H81.2414L79.6358 76.4123H79.5938L77.9882 80.8396ZM78.24 78.7851H80.9895V79.3501H78.24V78.7851Z" fill="#61636C"/>
<path d="M82.7604 80.8396V75.5802H84.5759C84.9957 75.5802 85.3402 75.6504 85.6096 75.7908C85.879 75.9295 86.0783 76.1204 86.2078 76.3635C86.3372 76.6066 86.4019 76.8831 86.4019 77.1929C86.4019 77.5028 86.3372 77.7776 86.2078 78.0173C86.0783 78.257 85.8798 78.4453 85.6122 78.5823C85.3446 78.7175 85.0027 78.7851 84.5864 78.7851H83.1172V78.2099H84.5654C84.8523 78.2099 85.0831 78.1688 85.258 78.0866C85.4347 78.0044 85.5624 77.888 85.6411 77.7374C85.7215 77.585 85.7618 77.4035 85.7618 77.1929C85.7618 76.9824 85.7215 76.7983 85.6411 76.6408C85.5606 76.4833 85.4321 76.3618 85.2554 76.2761C85.0788 76.1888 84.8453 76.1452 84.5549 76.1452H83.4111V80.8396H82.7604ZM85.2895 78.477L86.6118 80.8396H85.8562L84.5549 78.477H85.2895Z" fill="#61636C"/>
<path d="M87.4861 75.5802H88.2627L90.0887 79.9459H90.1516L91.9776 75.5802H92.7542V80.8396H92.1455V76.8437H92.0931L90.414 80.8396H89.8263L88.1472 76.8437H88.0948V80.8396H87.4861V75.5802Z" fill="#61636C"/>
<path d="M94.2791 80.8396H93.597L95.5699 75.5802H96.2416L98.2145 80.8396H97.5324L95.9267 76.4123H95.8848L94.2791 80.8396ZM94.531 78.7851H97.2805V79.3501H94.531V78.7851Z" fill="#61636C"/>
<path d="M103.122 77.2238H102.472C102.433 77.0406 102.366 76.8796 102.27 76.741C102.175 76.6023 102.06 76.4859 101.924 76.3917C101.789 76.2958 101.639 76.2239 101.475 76.176C101.31 76.1281 101.139 76.1041 100.961 76.1041C100.635 76.1041 100.341 76.1846 100.077 76.3455C99.8142 76.5064 99.6052 76.7435 99.4495 77.0568C99.2956 77.3701 99.2186 77.7545 99.2186 78.2099C99.2186 78.6653 99.2956 79.0496 99.4495 79.3629C99.6052 79.6763 99.8142 79.9134 100.077 80.0743C100.341 80.2352 100.635 80.3157 100.961 80.3157C101.139 80.3157 101.31 80.2917 101.475 80.2438C101.639 80.1959 101.789 80.1248 101.924 80.0306C102.06 79.9348 102.175 79.8175 102.27 79.6788C102.366 79.5384 102.433 79.3775 102.472 79.196H103.122C103.074 79.4648 102.984 79.7054 102.855 79.9176C102.725 80.1299 102.565 80.3106 102.372 80.4595C102.18 80.6067 101.964 80.7189 101.724 80.7959C101.486 80.873 101.232 80.9115 100.961 80.9115C100.502 80.9115 100.095 80.8019 99.7381 80.5828C99.3813 80.3636 99.1006 80.052 98.8959 79.648C98.6913 79.244 98.589 78.7646 98.589 78.2099C98.589 77.6552 98.6913 77.1758 98.8959 76.7718C99.1006 76.3677 99.3813 76.0562 99.7381 75.837C100.095 75.6179 100.502 75.5083 100.961 75.5083C101.232 75.5083 101.486 75.5468 101.724 75.6239C101.964 75.7009 102.18 75.8139 102.372 75.9628C102.565 76.1101 102.725 76.2898 102.855 76.5021C102.984 76.7127 103.074 76.9533 103.122 77.2238Z" fill="#61636C"/>
<path d="M103.712 75.5802H104.457L105.947 78.0353H106.01L107.501 75.5802H108.246L106.304 78.6721V80.8396H105.654V78.6721L103.712 75.5802Z" fill="#61636C"/>
<path d="M111.165 75.5802H111.942L113.768 79.9459H113.831L115.657 75.5802H116.433V80.8396H115.824V76.8437H115.772L114.093 80.8396H113.505L111.826 76.8437H111.774V80.8396H111.165V75.5802Z" fill="#61636C"/>
<path d="M117.958 80.8396H117.276L119.249 75.5802H119.92L121.893 80.8396H121.211L119.606 76.4123H119.564L117.958 80.8396ZM118.21 78.7851H120.959V79.3501H118.21V78.7851Z" fill="#61636C"/>
<path d="M126.991 75.5802V80.8396H126.361L123.433 76.7101H123.381V80.8396H122.73V75.5802H123.36L126.298 79.7199H126.351V75.5802H126.991Z" fill="#61636C"/>
<path d="M128.513 80.8396H127.831L129.804 75.5802H130.476L132.449 80.8396H131.766L130.161 76.4123H130.119L128.513 80.8396ZM128.765 78.7851H131.515V79.3501H128.765V78.7851Z" fill="#61636C"/>
<path d="M136.706 77.2238C136.648 77.0508 136.572 76.8959 136.478 76.7589C136.385 76.6203 136.274 76.5021 136.145 76.4046C136.017 76.307 135.872 76.2325 135.709 76.1811C135.546 76.1298 135.368 76.1041 135.174 76.1041C134.856 76.1041 134.566 76.1846 134.305 76.3455C134.045 76.5064 133.838 76.7435 133.684 77.0568C133.53 77.3701 133.453 77.7545 133.453 78.2099C133.453 78.6653 133.531 79.0496 133.686 79.3629C133.842 79.6763 134.053 79.9134 134.319 80.0743C134.584 80.2352 134.883 80.3157 135.216 80.3157C135.524 80.3157 135.795 80.2515 136.029 80.1231C136.265 79.993 136.449 79.8098 136.58 79.5735C136.713 79.3356 136.779 79.0556 136.779 78.7338L136.979 78.7749H135.363V78.2099H137.409V78.7749C137.409 79.208 137.315 79.5847 137.126 79.9048C136.939 80.225 136.68 80.4732 136.349 80.6495C136.02 80.8242 135.643 80.9115 135.216 80.9115C134.74 80.9115 134.322 80.8019 133.962 80.5828C133.603 80.3636 133.323 80.052 133.122 79.648C132.923 79.244 132.823 78.7646 132.823 78.2099C132.823 77.7939 132.88 77.4198 132.994 77.0877C133.109 76.7538 133.272 76.4696 133.482 76.2351C133.692 76.0005 133.94 75.8207 134.227 75.6958C134.514 75.5708 134.829 75.5083 135.174 75.5083C135.457 75.5083 135.721 75.5502 135.966 75.6341C136.213 75.7163 136.432 75.8336 136.625 75.986C136.819 76.1366 136.981 76.3172 137.11 76.5278C137.239 76.7367 137.329 76.9687 137.378 77.2238H136.706Z" fill="#61636C"/>
<path d="M138.523 80.8396V75.5802H141.766V76.1452H139.174V77.9223H141.598V78.4872H139.174V80.2746H141.808V80.8396H138.523Z" fill="#61636C"/>
<path d="M142.939 75.5802H143.715L145.541 79.9459H145.604L147.43 75.5802H148.207V80.8396H147.598V76.8437H147.546L145.867 80.8396H145.279L143.6 76.8437H143.548V80.8396H142.939V75.5802Z" fill="#61636C"/>
<path d="M149.512 80.8396V75.5802H152.754V76.1452H150.162V77.9223H152.586V78.4872H150.162V80.2746H152.796V80.8396H149.512Z" fill="#61636C"/>
<path d="M158.188 75.5802V80.8396H157.558L154.63 76.7101H154.578V80.8396H153.927V75.5802H154.557L157.495 79.7199H157.548V75.5802H158.188Z" fill="#61636C"/>
<path d="M159.196 76.1452V75.5802H163.226V76.1452H161.536V80.8396H160.885V76.1452H159.196Z" fill="#61636C"/>
<path d="M169.246 76.895C169.214 76.6348 169.087 76.4328 168.863 76.289C168.639 76.1452 168.364 76.0733 168.039 76.0733C167.801 76.0733 167.593 76.1109 167.415 76.1863C167.238 76.2616 167.1 76.3652 167 76.497C166.902 76.6288 166.853 76.7786 166.853 76.9464C166.853 77.0868 166.887 77.2075 166.956 77.3085C167.026 77.4078 167.115 77.4908 167.223 77.5576C167.332 77.6227 167.445 77.6766 167.564 77.7194C167.683 77.7605 167.793 77.7939 167.892 77.8195L168.438 77.9634C168.578 77.9993 168.733 78.049 168.905 78.1123C169.078 78.1757 169.243 78.2621 169.401 78.3717C169.56 78.4795 169.691 78.6182 169.794 78.7877C169.897 78.9572 169.949 79.1652 169.949 79.4117C169.949 79.6959 169.873 79.9527 169.721 80.1822C169.57 80.4116 169.35 80.5939 169.06 80.7292C168.771 80.8644 168.42 80.932 168.008 80.932C167.623 80.932 167.29 80.8713 167.008 80.7497C166.728 80.6281 166.508 80.4587 166.347 80.2412C166.188 80.0238 166.098 79.7713 166.077 79.4836H166.748C166.766 79.6822 166.834 79.8466 166.953 79.9767C167.074 80.1051 167.226 80.201 167.409 80.2643C167.595 80.326 167.794 80.3568 168.008 80.3568C168.256 80.3568 168.479 80.3174 168.677 80.2387C168.874 80.1582 169.031 80.0469 169.146 79.9048C169.262 79.761 169.319 79.5932 169.319 79.4015C169.319 79.2268 169.27 79.0847 169.17 78.9752C169.07 78.8656 168.939 78.7766 168.776 78.7081C168.614 78.6396 168.438 78.5797 168.249 78.5283L167.588 78.3434C167.168 78.2253 166.836 78.0567 166.591 77.8375C166.346 77.6184 166.224 77.3316 166.224 76.9772C166.224 76.6828 166.305 76.426 166.468 76.2068C166.632 75.986 166.852 75.8148 167.129 75.6932C167.407 75.5699 167.717 75.5083 168.06 75.5083C168.406 75.5083 168.714 75.5691 168.984 75.6906C169.253 75.8105 169.466 75.9748 169.624 76.1837C169.783 76.3926 169.867 76.6297 169.876 76.895H169.246Z" fill="#61636C"/>
<path d="M170.557 75.5802H171.302L172.792 78.0353H172.855L174.346 75.5802H175.091L173.149 78.6721V80.8396H172.499V78.6721L170.557 75.5802Z" fill="#61636C"/>
<path d="M178.87 76.895C178.839 76.6348 178.711 76.4328 178.487 76.289C178.264 76.1452 177.989 76.0733 177.664 76.0733C177.426 76.0733 177.218 76.1109 177.039 76.1863C176.863 76.2616 176.724 76.3652 176.625 76.497C176.527 76.6288 176.478 76.7786 176.478 76.9464C176.478 77.0868 176.512 77.2075 176.58 77.3085C176.65 77.4078 176.739 77.4908 176.848 77.5576C176.956 77.6227 177.07 77.6766 177.189 77.7194C177.308 77.7605 177.417 77.7939 177.517 77.8195L178.062 77.9634C178.202 77.9993 178.358 78.049 178.529 78.1123C178.703 78.1757 178.868 78.2621 179.025 78.3717C179.184 78.4795 179.316 78.6182 179.419 78.7877C179.522 78.9572 179.574 79.1652 179.574 79.4117C179.574 79.6959 179.498 79.9527 179.345 80.1822C179.195 80.4116 178.975 80.5939 178.684 80.7292C178.396 80.8644 178.045 80.932 177.632 80.932C177.247 80.932 176.914 80.8713 176.633 80.7497C176.353 80.6281 176.132 80.4587 175.971 80.2412C175.812 80.0238 175.722 79.7713 175.701 79.4836H176.373C176.39 79.6822 176.459 79.8466 176.577 79.9767C176.698 80.1051 176.85 80.201 177.034 80.2643C177.219 80.326 177.419 80.3568 177.632 80.3568C177.881 80.3568 178.104 80.3174 178.301 80.2387C178.499 80.1582 178.655 80.0469 178.771 79.9048C178.886 79.761 178.944 79.5932 178.944 79.4015C178.944 79.2268 178.894 79.0847 178.794 78.9752C178.695 78.8656 178.564 78.7766 178.401 78.7081C178.238 78.6396 178.062 78.5797 177.874 78.5283L177.212 78.3434C176.793 78.2253 176.46 78.0567 176.215 77.8375C175.971 77.6184 175.848 77.3316 175.848 76.9772C175.848 76.6828 175.929 76.426 176.092 76.2068C176.257 75.986 176.477 75.8148 176.753 75.6932C177.031 75.5699 177.342 75.5083 177.685 75.5083C178.031 75.5083 178.339 75.5691 178.608 75.6906C178.877 75.8105 179.091 75.9748 179.248 76.1837C179.407 76.3926 179.491 76.6297 179.5 76.895H178.87Z" fill="#61636C"/>
<path d="M180.35 76.1452V75.5802H184.379V76.1452H182.69V80.8396H182.039V76.1452H180.35Z" fill="#61636C"/>
<path d="M185.383 80.8396V75.5802H188.626V76.1452H186.034V77.9223H188.458V78.4872H186.034V80.2746H188.668V80.8396H185.383Z" fill="#61636C"/>
<path d="M189.799 75.5802H190.575L192.401 79.9459H192.464L194.29 75.5802H195.067V80.8396H194.458V76.8437H194.406L192.727 80.8396H192.139L190.46 76.8437H190.408V80.8396H189.799V75.5802Z" fill="#61636C"/>
</svg>
