<svg width="230" height="129" viewBox="0 0 230 129" fill="none" xmlns="http://www.w3.org/2000/svg">
<rect width="230" height="129" rx="26" fill="white"/>
<path d="M189.809 44.9889C189.122 44.6153 188.344 44.4105 187.561 44.3984H187.392C185.876 44.4225 184.483 45.1359 183.57 46.3579C183.463 46.5049 170.574 64.8362 170.574 64.8362L170.765 64.9422C171.497 65.3471 172.324 65.5592 173.155 65.5592C174.84 65.5592 176.397 64.7132 177.315 63.3033L190 45.095L189.809 44.9889Z" fill="#97A3AE"/>
<path d="M164.612 67.7572C163.925 67.3837 163.146 67.1788 162.363 67.1667H162.194C160.676 67.1908 159.285 67.9042 158.372 69.1262C158.259 69.2852 145.379 87.6021 145.379 87.6021L145.569 87.7081C146.3 88.113 147.126 88.3251 147.96 88.3251C149.647 88.3251 151.202 87.4791 152.12 86.0668L164.807 67.8585L164.612 67.7572Z" fill="#97A3AE"/>
<path d="M176.496 74.8818L176.303 74.9855C175.619 75.359 174.84 75.5639 174.057 75.576H173.886C172.368 75.5543 170.977 74.8385 170.064 73.6189C170.023 73.5611 165.441 67.0538 161.725 61.7781C160.481 60.0115 159.336 58.3871 158.493 57.1868C157.613 55.9384 157.059 55.1503 157.059 55.1503L157.249 55.0442C157.982 54.6393 158.808 54.4272 159.642 54.4272C161.096 54.4272 162.45 55.0515 163.383 56.1312C163.535 56.3023 163.674 56.4879 163.8 56.6807L166.198 60.1175L176.496 74.8818Z" fill="#97A3AE"/>
<path d="M52.0361 53.5111L51.8047 53.4701C48.5101 52.8772 45.6662 52.3663 45.6662 49.597C45.6662 46.9483 47.8136 45.2347 51.1371 45.2347C54.3233 45.2347 56.3863 46.8616 56.5189 49.4765L56.5358 49.7874H61.4813L61.4668 49.45C61.2837 44.0008 57.0973 40.3374 51.0455 40.3374C44.8395 40.3374 40.6676 44.1116 40.6676 49.732C40.6676 56.608 46.1916 57.601 50.631 58.3988L50.8359 58.4349C54.2534 59.0519 56.9551 59.5387 56.9551 62.3152C56.9551 65.1037 54.7282 66.7667 50.9973 66.7667C47.4087 66.7667 45.2155 65.0989 45.1287 62.3055L45.1191 61.9874H40L40.0072 62.3248C40.1422 67.9982 44.4587 71.664 51.0021 71.664C57.7095 71.664 62.0429 67.9404 62.0429 62.1802C62.0453 55.2945 56.7262 54.3474 52.0361 53.5111Z" fill="#004876"/>
<path d="M82.2901 48.1414V60.1051C82.2901 64.5108 80.0343 67.0366 76.1034 67.0366C72.1725 67.0366 69.9166 64.5108 69.9166 60.1051V48.1414H65.1133V60.1051C65.1133 67.3427 69.2225 71.664 76.1034 71.664C82.9867 71.664 87.0959 67.3427 87.0959 60.1051V48.1414H82.2901Z" fill="#004876"/>
<path d="M96.1331 48.1414H91.2695V71.0784H96.1331V48.1414Z" fill="#004876"/>
<path d="M143.347 59.6064C143.347 52.6219 138.293 47.5535 131.33 47.5535C124.317 47.5535 119.227 52.6219 119.227 59.6064C119.227 66.5933 124.317 71.6642 131.33 71.6642C135.89 71.6642 139.674 69.6108 141.713 66.0342L141.751 65.9667L137.276 64.1832L137.167 64.3447C135.95 66.1836 134.097 67.0416 131.33 67.0416C127.722 67.0416 125.066 64.9279 124.375 61.5176H143.347V59.6064ZM131.33 52.1785C134.728 52.1785 137.276 53.9885 138.163 57.0252H124.543C125.437 53.9885 127.968 52.1785 131.33 52.1785Z" fill="#004876"/>
<path d="M40.5742 80.6581V75.9255H43.4304V76.4339H41.1473V78.033H43.2825V78.5413H41.1473V80.1497H43.4674V80.6581H40.5742Z" fill="#004876"/>
<path d="M44.3894 80.6581V77.1086H44.9163V77.6632H44.9625C45.0364 77.4737 45.1558 77.3266 45.3207 77.2219C45.4855 77.1156 45.6835 77.0624 45.9145 77.0624C46.1487 77.0624 46.3436 77.1156 46.4992 77.2219C46.6563 77.3266 46.7788 77.4737 46.8666 77.6632H46.9036C46.9945 77.4799 47.1308 77.3343 47.3126 77.2265C47.4944 77.1171 47.7124 77.0624 47.9666 77.0624C48.2839 77.0624 48.5435 77.1618 48.7453 77.3605C48.9471 77.5577 49.048 77.865 49.048 78.2825V80.6581H48.5027V78.2825C48.5027 78.0206 48.431 77.8335 48.2878 77.721C48.1445 77.6085 47.9758 77.5523 47.7817 77.5523C47.5321 77.5523 47.3388 77.6278 47.2017 77.7788C47.0646 77.9282 46.996 78.1177 46.996 78.3472V80.6581H46.4414V78.2271C46.4414 78.0253 46.3759 77.8627 46.245 77.7395C46.114 77.6147 45.9454 77.5523 45.7389 77.5523C45.5972 77.5523 45.4647 77.59 45.3415 77.6655C45.2198 77.741 45.1212 77.8458 45.0457 77.9798C44.9717 78.1123 44.9348 78.2656 44.9348 78.4397V80.6581H44.3894Z" fill="#004876"/>
<path d="M50.0452 81.9891V77.1086H50.572V77.6725H50.6367C50.6768 77.6108 50.7322 77.5323 50.8031 77.4368C50.8755 77.3397 50.9787 77.2534 51.1128 77.178C51.2483 77.1009 51.4316 77.0624 51.6627 77.0624C51.9616 77.0624 52.225 77.1371 52.453 77.2866C52.681 77.436 52.859 77.6478 52.9868 77.922C53.1147 78.1963 53.1786 78.5198 53.1786 78.8926C53.1786 79.2685 53.1147 79.5943 52.9868 79.8701C52.859 80.1443 52.6818 80.3569 52.4553 80.5079C52.2289 80.6573 51.9678 80.732 51.672 80.732C51.444 80.732 51.2614 80.6943 51.1243 80.6188C50.9872 80.5417 50.8817 80.4547 50.8077 80.3577C50.7338 80.2591 50.6768 80.1774 50.6367 80.1127H50.5905V81.9891H50.0452ZM50.5813 78.8833C50.5813 79.1514 50.6205 79.3879 50.6991 79.5928C50.7777 79.7961 50.8925 79.9556 51.0434 80.0711C51.1944 80.1851 51.3793 80.2421 51.598 80.2421C51.826 80.2421 52.0163 80.182 52.1688 80.0619C52.3229 79.9402 52.4384 79.7769 52.5154 79.572C52.594 79.3655 52.6333 79.136 52.6333 78.8833C52.6333 78.6338 52.5948 78.4089 52.5177 78.2086C52.4423 78.0068 52.3275 77.8473 52.1734 77.7302C52.0209 77.6116 51.8291 77.5523 51.598 77.5523C51.3762 77.5523 51.1898 77.6085 51.0388 77.721C50.8878 77.8319 50.7738 77.9875 50.6968 78.1878C50.6198 78.3865 50.5813 78.6184 50.5813 78.8833Z" fill="#004876"/>
<path d="M55.4525 80.732C55.1321 80.732 54.8509 80.6557 54.609 80.5032C54.3687 80.3507 54.1808 80.1374 54.0452 79.8631C53.9112 79.5889 53.8442 79.2685 53.8442 78.9018C53.8442 78.5321 53.9112 78.2094 54.0452 77.9336C54.1808 77.6578 54.3687 77.4437 54.609 77.2912C54.8509 77.1387 55.1321 77.0624 55.4525 77.0624C55.7729 77.0624 56.0533 77.1387 56.2936 77.2912C56.5355 77.4437 56.7234 77.6578 56.8575 77.9336C56.993 78.2094 57.0608 78.5321 57.0608 78.9018C57.0608 79.2685 56.993 79.5889 56.8575 79.8631C56.7234 80.1374 56.5355 80.3507 56.2936 80.5032C56.0533 80.6557 55.7729 80.732 55.4525 80.732ZM55.4525 80.2421C55.6959 80.2421 55.8962 80.1797 56.0533 80.0549C56.2104 79.9301 56.3268 79.7661 56.4022 79.5627C56.4777 79.3594 56.5155 79.1391 56.5155 78.9018C56.5155 78.6646 56.4777 78.4435 56.4022 78.2386C56.3268 78.0337 56.2104 77.8681 56.0533 77.7418C55.8962 77.6155 55.6959 77.5523 55.4525 77.5523C55.2091 77.5523 55.0088 77.6155 54.8517 77.7418C54.6945 77.8681 54.5782 78.0337 54.5027 78.2386C54.4273 78.4435 54.3895 78.6646 54.3895 78.9018C54.3895 79.1391 54.4273 79.3594 54.5027 79.5627C54.5782 79.7661 54.6945 79.9301 54.8517 80.0549C55.0088 80.1797 55.2091 80.2421 55.4525 80.2421Z" fill="#004876"/>
<path d="M58.5767 80.6581L57.4953 77.1086H58.0684L58.8355 79.8262H58.8725L59.6305 77.1086H60.2128L60.9615 79.8169H60.9985L61.7657 77.1086H62.3388L61.2573 80.6581H60.7212L59.9447 77.9313H59.8893L59.1128 80.6581H58.5767Z" fill="#004876"/>
<path d="M64.4272 80.732C64.0852 80.732 63.7902 80.6565 63.5421 80.5055C63.2956 80.353 63.1054 80.1404 62.9714 79.8678C62.8389 79.5935 62.7726 79.2746 62.7726 78.9111C62.7726 78.5475 62.8389 78.2271 62.9714 77.9498C63.1054 77.6709 63.2918 77.4537 63.5306 77.2981C63.7709 77.141 64.0513 77.0624 64.3717 77.0624C64.5566 77.0624 64.7391 77.0932 64.9194 77.1548C65.0996 77.2165 65.2637 77.3166 65.4116 77.4552C65.5595 77.5924 65.6773 77.7741 65.7651 78.0006C65.853 78.2271 65.8969 78.5059 65.8969 78.8371V79.0682H63.1608V78.5968H65.3423C65.3423 78.3965 65.3022 78.2178 65.2221 78.0607C65.1435 77.9036 65.0311 77.7795 64.8847 77.6886C64.7399 77.5978 64.5689 77.5523 64.3717 77.5523C64.1545 77.5523 63.9666 77.6062 63.8079 77.7141C63.6507 77.8204 63.5298 77.959 63.4451 78.13C63.3603 78.301 63.318 78.4843 63.318 78.68V78.9943C63.318 79.2623 63.3642 79.4896 63.4566 79.676C63.5506 79.8608 63.6808 80.0018 63.8472 80.0988C64.0135 80.1944 64.2069 80.2421 64.4272 80.2421C64.5704 80.2421 64.6999 80.2221 64.8154 80.182C64.9325 80.1404 65.0334 80.0788 65.1181 79.9972C65.2028 79.914 65.2683 79.8108 65.3145 79.6875L65.8414 79.8354C65.7859 80.0141 65.6927 80.1712 65.5618 80.3068C65.4308 80.4408 65.2691 80.5456 65.0765 80.6211C64.884 80.695 64.6675 80.732 64.4272 80.732Z" fill="#004876"/>
<path d="M66.7265 80.6581V77.1086H67.2533V77.6447H67.2903C67.355 77.4691 67.4721 77.3266 67.6415 77.2172C67.811 77.1079 68.002 77.0532 68.2146 77.0532C68.2547 77.0532 68.3047 77.0539 68.3648 77.0555C68.4249 77.057 68.4704 77.0593 68.5012 77.0624V77.617C68.4827 77.6124 68.4403 77.6055 68.3741 77.5962C68.3094 77.5854 68.2408 77.58 68.1684 77.58C67.9959 77.58 67.8418 77.6162 67.7062 77.6886C67.5722 77.7595 67.4659 77.8581 67.3873 77.9844C67.3103 78.1092 67.2718 78.2517 67.2718 78.4119V80.6581H66.7265Z" fill="#004876"/>
<path d="M69.1476 80.6581V77.1086H69.693V80.6581H69.1476ZM69.4249 76.5171C69.3186 76.5171 69.227 76.4809 69.1499 76.4084C69.0744 76.336 69.0367 76.249 69.0367 76.1473C69.0367 76.0456 69.0744 75.9586 69.1499 75.8862C69.227 75.8138 69.3186 75.7776 69.4249 75.7776C69.5312 75.7776 69.6221 75.8138 69.6976 75.8862C69.7746 75.9586 69.8131 76.0456 69.8131 76.1473C69.8131 76.249 69.7746 76.336 69.6976 76.4084C69.6221 76.4809 69.5312 76.5171 69.4249 76.5171Z" fill="#004876"/>
<path d="M71.2372 78.5229V80.6581H70.6918V77.1086H71.2187V77.6632H71.2649C71.3481 77.483 71.4744 77.3382 71.6439 77.2288C71.8134 77.1179 72.0321 77.0624 72.3002 77.0624C72.5405 77.0624 72.7508 77.1117 72.931 77.2103C73.1113 77.3074 73.2515 77.4553 73.3516 77.654C73.4517 77.8512 73.5018 78.1007 73.5018 78.4027V80.6581H72.9564V78.4397C72.9564 78.1608 72.884 77.9436 72.7392 77.788C72.5944 77.6309 72.3957 77.5523 72.143 77.5523C71.969 77.5523 71.8134 77.59 71.6762 77.6655C71.5407 77.741 71.4336 77.8512 71.355 77.996C71.2765 78.1408 71.2372 78.3164 71.2372 78.5229Z" fill="#004876"/>
<path d="M75.9311 82.063C75.6676 82.063 75.4412 82.0292 75.2517 81.9614C75.0622 81.8951 74.9043 81.8073 74.778 81.6979C74.6532 81.5901 74.5538 81.4746 74.4799 81.3513L74.9143 81.0463C74.9636 81.111 75.026 81.1849 75.1015 81.2681C75.177 81.3528 75.2802 81.426 75.4111 81.4876C75.5436 81.5508 75.7169 81.5824 75.9311 81.5824C76.2176 81.5824 76.4541 81.5131 76.6405 81.3744C76.8269 81.2358 76.9201 81.0185 76.9201 80.7228V80.0018H76.8739C76.8338 80.0665 76.7768 80.1466 76.7029 80.2421C76.6305 80.3361 76.5257 80.42 76.3886 80.494C76.253 80.5664 76.0697 80.6026 75.8386 80.6026C75.5521 80.6026 75.2948 80.5348 75.0668 80.3992C74.8404 80.2637 74.6609 80.0665 74.5284 79.8077C74.3974 79.5489 74.332 79.2346 74.332 78.8649C74.332 78.5013 74.3959 78.1847 74.5238 77.9151C74.6516 77.644 74.8296 77.4345 75.0576 77.2866C75.2856 77.1371 75.549 77.0624 75.8479 77.0624C76.079 77.0624 76.2623 77.1009 76.3979 77.178C76.535 77.2534 76.6397 77.3397 76.7121 77.4368C76.7861 77.5323 76.8431 77.6108 76.8831 77.6725H76.9386V77.1086H77.4655V80.7597C77.4655 81.0648 77.3961 81.3128 77.2575 81.5038C77.1204 81.6964 76.9355 81.8374 76.7029 81.9267C76.4718 82.0176 76.2145 82.063 75.9311 82.063ZM75.9126 80.1127C76.1313 80.1127 76.3162 80.0626 76.4672 79.9625C76.6181 79.8624 76.7329 79.7183 76.8115 79.5304C76.8901 79.3424 76.9293 79.1175 76.9293 78.8556C76.9293 78.5999 76.8908 78.3742 76.8138 78.1785C76.7368 77.9829 76.6228 77.8296 76.4718 77.7187C76.3208 77.6078 76.1344 77.5523 75.9126 77.5523C75.6815 77.5523 75.4889 77.6108 75.3349 77.7279C75.1824 77.845 75.0676 78.0021 74.9906 78.1993C74.9151 78.3965 74.8773 78.6153 74.8773 78.8556C74.8773 79.1021 74.9158 79.3201 74.9929 79.5096C75.0714 79.6975 75.187 79.8454 75.3395 79.9533C75.4935 80.0596 75.6846 80.1127 75.9126 80.1127Z" fill="#004876"/>
<path d="M80.3679 80.6581V75.9255H81.9669C82.3382 75.9255 82.6417 75.9925 82.8774 76.1265C83.1147 76.259 83.2903 76.4385 83.4043 76.6649C83.5183 76.8914 83.5753 77.1441 83.5753 77.4229C83.5753 77.7017 83.5183 77.9552 83.4043 78.1832C83.2918 78.4112 83.1177 78.5929 82.882 78.7285C82.6463 78.8625 82.3444 78.9296 81.9762 78.9296H80.83V78.4212H81.9577C82.2119 78.4212 82.416 78.3773 82.5701 78.2895C82.7241 78.2016 82.8358 78.083 82.9051 77.9336C82.976 77.7826 83.0114 77.6124 83.0114 77.4229C83.0114 77.2334 82.976 77.0639 82.9051 76.9145C82.8358 76.7651 82.7234 76.648 82.5678 76.5633C82.4122 76.477 82.2057 76.4339 81.9485 76.4339H80.9409V80.6581H80.3679Z" fill="#004876"/>
<path d="M84.9699 78.5229V80.6581H84.4245V75.9255H84.9699V77.6632H85.0161C85.0993 77.4799 85.2241 77.3343 85.3904 77.2265C85.5584 77.1171 85.7817 77.0624 86.0606 77.0624C86.3024 77.0624 86.5143 77.1109 86.6961 77.208C86.8778 77.3035 87.0188 77.4506 87.1189 77.6494C87.2206 77.8466 87.2715 78.0977 87.2715 78.4027V80.6581H86.7261V78.4397C86.7261 78.1577 86.6529 77.9398 86.5066 77.7857C86.3618 77.6301 86.1607 77.5523 85.9034 77.5523C85.7247 77.5523 85.5645 77.59 85.4228 77.6655C85.2826 77.741 85.1717 77.8512 85.09 77.996C85.0099 78.1408 84.9699 78.3164 84.9699 78.5229Z" fill="#004876"/>
<path d="M89.3137 80.7412C89.0887 80.7412 88.8846 80.6989 88.7013 80.6142C88.518 80.5279 88.3724 80.4039 88.2645 80.2421C88.1567 80.0788 88.1028 79.8816 88.1028 79.6505C88.1028 79.4472 88.1428 79.2823 88.2229 79.156C88.303 79.0282 88.4101 78.928 88.5441 78.8556C88.6782 78.7832 88.8261 78.7293 88.9878 78.6939C89.1511 78.6569 89.3152 78.6276 89.48 78.606C89.6957 78.5783 89.8706 78.5575 90.0046 78.5437C90.1402 78.5282 90.2388 78.5028 90.3004 78.4674C90.3635 78.432 90.3951 78.3703 90.3951 78.2825V78.264C90.3951 78.036 90.3327 77.8589 90.2079 77.7325C90.0847 77.6062 89.8975 77.5431 89.6464 77.5431C89.3861 77.5431 89.1819 77.6001 89.034 77.7141C88.8862 77.8281 88.7822 77.9498 88.7221 78.0792L88.2045 77.8943C88.2969 77.6786 88.4201 77.5107 88.5742 77.3905C88.7298 77.2688 88.8992 77.1841 89.0826 77.1364C89.2674 77.0871 89.4492 77.0624 89.6279 77.0624C89.7419 77.0624 89.8729 77.0763 90.0208 77.104C90.1702 77.1302 90.3142 77.1849 90.4529 77.2681C90.5931 77.3513 90.7094 77.4768 90.8018 77.6447C90.8943 77.8127 90.9405 78.0376 90.9405 78.3195V80.6581H90.3951V80.1774H90.3674C90.3304 80.2544 90.2688 80.3369 90.1825 80.4247C90.0963 80.5125 89.9815 80.5872 89.8382 80.6488C89.6949 80.7104 89.5201 80.7412 89.3137 80.7412ZM89.3968 80.2514C89.6125 80.2514 89.7943 80.209 89.9422 80.1243C90.0916 80.0395 90.2041 79.9301 90.2796 79.7961C90.3566 79.6621 90.3951 79.5211 90.3951 79.3732V78.8741C90.372 78.9018 90.3212 78.9272 90.2426 78.9504C90.1656 78.9719 90.0762 78.9912 89.9745 79.0081C89.8744 79.0235 89.7766 79.0374 89.6811 79.0497C89.5871 79.0605 89.5108 79.0697 89.4523 79.0775C89.3106 79.0959 89.1781 79.126 89.0548 79.1676C88.9331 79.2076 88.8345 79.2685 88.7591 79.3501C88.6851 79.4302 88.6481 79.5396 88.6481 79.6783C88.6481 79.8678 88.7182 80.011 88.8584 80.1081C89.0001 80.2036 89.1796 80.2514 89.3968 80.2514Z" fill="#004876"/>
<path d="M91.9359 80.6581V77.1086H92.4627V77.6447H92.4997C92.5644 77.4691 92.6815 77.3266 92.851 77.2172C93.0204 77.1079 93.2114 77.0532 93.424 77.0532C93.4641 77.0532 93.5142 77.0539 93.5742 77.0555C93.6343 77.057 93.6798 77.0593 93.7106 77.0624V77.617C93.6921 77.6124 93.6497 77.6055 93.5835 77.5962C93.5188 77.5854 93.4502 77.58 93.3778 77.58C93.2053 77.58 93.0512 77.6162 92.9157 77.6886C92.7816 77.7595 92.6753 77.8581 92.5968 77.9844C92.5197 78.1092 92.4812 78.2517 92.4812 78.4119V80.6581H91.9359Z" fill="#004876"/>
<path d="M94.357 80.6581V77.1086H94.8839V77.6632H94.9301C95.0041 77.4737 95.1235 77.3266 95.2883 77.2219C95.4531 77.1156 95.6511 77.0624 95.8822 77.0624C96.1164 77.0624 96.3112 77.1156 96.4668 77.2219C96.624 77.3266 96.7464 77.4737 96.8342 77.6632H96.8712C96.9621 77.4799 97.0985 77.3343 97.2802 77.2265C97.462 77.1171 97.68 77.0624 97.9342 77.0624C98.2516 77.0624 98.5111 77.1618 98.713 77.3605C98.9148 77.5577 99.0157 77.865 99.0157 78.2825V80.6581H98.4703V78.2825C98.4703 78.0206 98.3987 77.8335 98.2554 77.721C98.1121 77.6085 97.9434 77.5523 97.7493 77.5523C97.4998 77.5523 97.3064 77.6278 97.1693 77.7788C97.0322 77.9282 96.9637 78.1177 96.9637 78.3472V80.6581H96.4091V78.2271C96.4091 78.0253 96.3436 77.8627 96.2126 77.7395C96.0817 77.6147 95.913 77.5523 95.7066 77.5523C95.5648 77.5523 95.4323 77.59 95.3091 77.6655C95.1874 77.741 95.0888 77.8458 95.0133 77.9798C94.9394 78.1123 94.9024 78.2656 94.9024 78.4397V80.6581H94.357Z" fill="#004876"/>
<path d="M101.057 80.7412C100.832 80.7412 100.628 80.6989 100.445 80.6142C100.262 80.5279 100.116 80.4039 100.008 80.2421C99.9003 80.0788 99.8464 79.8816 99.8464 79.6505C99.8464 79.4472 99.8865 79.2823 99.9666 79.156C100.047 79.0282 100.154 78.928 100.288 78.8556C100.422 78.7832 100.57 78.7293 100.731 78.6939C100.895 78.6569 101.059 78.6276 101.224 78.606C101.439 78.5783 101.614 78.5575 101.748 78.5437C101.884 78.5282 101.982 78.5028 102.044 78.4674C102.107 78.432 102.139 78.3703 102.139 78.2825V78.264C102.139 78.036 102.076 77.8589 101.952 77.7325C101.828 77.6062 101.641 77.5431 101.39 77.5431C101.13 77.5431 100.926 77.6001 100.778 77.7141C100.63 77.8281 100.526 77.9498 100.466 78.0792L99.9481 77.8943C100.041 77.6786 100.164 77.5107 100.318 77.3905C100.473 77.2688 100.643 77.1841 100.826 77.1364C101.011 77.0871 101.193 77.0624 101.372 77.0624C101.486 77.0624 101.617 77.0763 101.764 77.104C101.914 77.1302 102.058 77.1849 102.197 77.2681C102.337 77.3513 102.453 77.4768 102.545 77.6447C102.638 77.8127 102.684 78.0376 102.684 78.3195V80.6581H102.139V80.1774H102.111C102.074 80.2544 102.012 80.3369 101.926 80.4247C101.84 80.5125 101.725 80.5872 101.582 80.6488C101.439 80.7104 101.264 80.7412 101.057 80.7412ZM101.14 80.2514C101.356 80.2514 101.538 80.209 101.686 80.1243C101.835 80.0395 101.948 79.9301 102.023 79.7961C102.1 79.6621 102.139 79.5211 102.139 79.3732V78.8741C102.116 78.9018 102.065 78.9272 101.986 78.9504C101.909 78.9719 101.82 78.9912 101.718 79.0081C101.618 79.0235 101.52 79.0374 101.425 79.0497C101.331 79.0605 101.254 79.0697 101.196 79.0775C101.054 79.0959 100.922 79.126 100.798 79.1676C100.677 79.2076 100.578 79.2685 100.503 79.3501C100.429 79.4302 100.392 79.5396 100.392 79.6783C100.392 79.8678 100.462 80.011 100.602 80.1081C100.744 80.2036 100.923 80.2514 101.14 80.2514Z" fill="#004876"/>
<path d="M105.121 80.732C104.789 80.732 104.502 80.6534 104.262 80.4963C104.022 80.3392 103.837 80.1227 103.707 79.847C103.578 79.5712 103.513 79.2562 103.513 78.9018C103.513 78.5413 103.579 78.2232 103.712 77.9475C103.846 77.6702 104.032 77.4537 104.271 77.2981C104.511 77.141 104.792 77.0624 105.112 77.0624C105.362 77.0624 105.587 77.1086 105.787 77.2011C105.987 77.2935 106.151 77.4229 106.279 77.5893C106.407 77.7557 106.486 77.9498 106.517 78.1716H105.972C105.93 78.0098 105.838 77.8666 105.695 77.7418C105.553 77.6155 105.362 77.5523 105.121 77.5523C104.909 77.5523 104.722 77.6078 104.562 77.7187C104.404 77.8281 104.28 77.9829 104.19 78.1832C104.102 78.3819 104.058 78.6153 104.058 78.8833C104.058 79.1576 104.102 79.3963 104.188 79.5997C104.276 79.8031 104.399 79.961 104.558 80.0734C104.718 80.1859 104.906 80.2421 105.121 80.2421C105.263 80.2421 105.392 80.2175 105.507 80.1682C105.623 80.1189 105.721 80.048 105.801 79.9556C105.881 79.8631 105.938 79.7522 105.972 79.6228H106.517C106.486 79.8323 106.41 80.021 106.288 80.189C106.168 80.3553 106.009 80.4878 105.81 80.5864C105.613 80.6835 105.383 80.732 105.121 80.732Z" fill="#004876"/>
<path d="M107.666 81.9891C107.573 81.9891 107.491 81.9814 107.418 81.966C107.346 81.9521 107.296 81.9383 107.268 81.9244L107.407 81.4437C107.539 81.4776 107.656 81.49 107.758 81.4807C107.86 81.4715 107.95 81.426 108.028 81.3444C108.109 81.2643 108.182 81.1341 108.248 80.9538L108.35 80.6765L107.037 77.1086H107.629L108.608 79.9371H108.645L109.625 77.1086H110.217L108.71 81.1757C108.642 81.359 108.558 81.5108 108.458 81.6309C108.358 81.7526 108.242 81.8427 108.109 81.9013C107.978 81.9598 107.831 81.9891 107.666 81.9891Z" fill="#004876"/>
<path d="M113.414 75.9255V80.6581H112.841V75.9255H113.414Z" fill="#004876"/>
<path d="M115.034 78.5229V80.6581H114.489V77.1086H115.016V77.6632H115.062C115.145 77.483 115.272 77.3382 115.441 77.2288C115.611 77.1179 115.829 77.0624 116.097 77.0624C116.338 77.0624 116.548 77.1117 116.728 77.2103C116.908 77.3074 117.049 77.4553 117.149 77.654C117.249 77.8512 117.299 78.1007 117.299 78.4027V80.6581H116.754V78.4397C116.754 78.1608 116.681 77.9436 116.536 77.788C116.392 77.6309 116.193 77.5523 115.94 77.5523C115.766 77.5523 115.611 77.59 115.473 77.6655C115.338 77.741 115.231 77.8512 115.152 77.996C115.074 78.1408 115.034 78.3164 115.034 78.5229Z" fill="#004876"/>
<path d="M118.841 78.5229V80.6581H118.295V77.1086H118.822V77.6632H118.869C118.952 77.483 119.078 77.3382 119.248 77.2288C119.417 77.1179 119.636 77.0624 119.904 77.0624C120.144 77.0624 120.354 77.1117 120.535 77.2103C120.715 77.3074 120.855 77.4553 120.955 77.654C121.055 77.8512 121.105 78.1007 121.105 78.4027V80.6581H120.56V78.4397C120.56 78.1608 120.488 77.9436 120.343 77.788C120.198 77.6309 119.999 77.5523 119.747 77.5523C119.573 77.5523 119.417 77.59 119.28 77.6655C119.144 77.741 119.037 77.8512 118.959 77.996C118.88 78.1408 118.841 78.3164 118.841 78.5229Z" fill="#004876"/>
<path d="M123.544 80.732C123.224 80.732 122.942 80.6557 122.701 80.5032C122.46 80.3507 122.272 80.1374 122.137 79.8631C122.003 79.5889 121.936 79.2685 121.936 78.9018C121.936 78.5321 122.003 78.2094 122.137 77.9336C122.272 77.6578 122.46 77.4437 122.701 77.2912C122.942 77.1387 123.224 77.0624 123.544 77.0624C123.864 77.0624 124.145 77.1387 124.385 77.2912C124.627 77.4437 124.815 77.6578 124.949 77.9336C125.085 78.2094 125.152 78.5321 125.152 78.9018C125.152 79.2685 125.085 79.5889 124.949 79.8631C124.815 80.1374 124.627 80.3507 124.385 80.5032C124.145 80.6557 123.864 80.732 123.544 80.732ZM123.544 80.2421C123.787 80.2421 123.988 80.1797 124.145 80.0549C124.302 79.9301 124.418 79.7661 124.494 79.5627C124.569 79.3594 124.607 79.1391 124.607 78.9018C124.607 78.6646 124.569 78.4435 124.494 78.2386C124.418 78.0337 124.302 77.8681 124.145 77.7418C123.988 77.6155 123.787 77.5523 123.544 77.5523C123.301 77.5523 123.1 77.6155 122.943 77.7418C122.786 77.8681 122.67 78.0337 122.594 78.2386C122.519 78.4435 122.481 78.6646 122.481 78.9018C122.481 79.1391 122.519 79.3594 122.594 79.5627C122.67 79.7661 122.786 79.9301 122.943 80.0549C123.1 80.1797 123.301 80.2421 123.544 80.2421Z" fill="#004876"/>
<path d="M128.76 77.1086L127.448 80.6581H126.893L125.58 77.1086H126.172L127.152 79.9371H127.189L128.169 77.1086H128.76Z" fill="#004876"/>
<path d="M130.416 80.7412C130.191 80.7412 129.987 80.6989 129.804 80.6142C129.621 80.5279 129.475 80.4039 129.367 80.2421C129.259 80.0788 129.205 79.8816 129.205 79.6505C129.205 79.4472 129.246 79.2823 129.326 79.156C129.406 79.0282 129.513 78.928 129.647 78.8556C129.781 78.7832 129.929 78.7293 130.091 78.6939C130.254 78.6569 130.418 78.6276 130.583 78.606C130.798 78.5783 130.973 78.5575 131.107 78.5437C131.243 78.5282 131.341 78.5028 131.403 78.4674C131.466 78.432 131.498 78.3703 131.498 78.2825V78.264C131.498 78.036 131.435 77.8589 131.311 77.7325C131.187 77.6062 131 77.5431 130.749 77.5431C130.489 77.5431 130.285 77.6001 130.137 77.7141C129.989 77.8281 129.885 77.9498 129.825 78.0792L129.307 77.8943C129.4 77.6786 129.523 77.5107 129.677 77.3905C129.833 77.2688 130.002 77.1841 130.185 77.1364C130.37 77.0871 130.552 77.0624 130.731 77.0624C130.845 77.0624 130.976 77.0763 131.123 77.104C131.273 77.1302 131.417 77.1849 131.556 77.2681C131.696 77.3513 131.812 77.4768 131.905 77.6447C131.997 77.8127 132.043 78.0376 132.043 78.3195V80.6581H131.498V80.1774H131.47C131.433 80.2544 131.372 80.3369 131.285 80.4247C131.199 80.5125 131.084 80.5872 130.941 80.6488C130.798 80.7104 130.623 80.7412 130.416 80.7412ZM130.5 80.2514C130.715 80.2514 130.897 80.209 131.045 80.1243C131.194 80.0395 131.307 79.9301 131.382 79.7961C131.459 79.6621 131.498 79.5211 131.498 79.3732V78.8741C131.475 78.9018 131.424 78.9272 131.345 78.9504C131.268 78.9719 131.179 78.9912 131.077 79.0081C130.977 79.0235 130.879 79.0374 130.784 79.0497C130.69 79.0605 130.614 79.0697 130.555 79.0775C130.413 79.0959 130.281 79.126 130.158 79.1676C130.036 79.2076 129.937 79.2685 129.862 79.3501C129.788 79.4302 129.751 79.5396 129.751 79.6783C129.751 79.8678 129.821 80.011 129.961 80.1081C130.103 80.2036 130.282 80.2514 130.5 80.2514Z" fill="#004876"/>
<path d="M134.582 77.1086V77.5708H132.743V77.1086H134.582ZM133.279 76.2582H133.824V79.6413C133.824 79.7953 133.847 79.9109 133.891 79.9879C133.938 80.0634 133.996 80.1142 134.067 80.1404C134.139 80.1651 134.216 80.1774 134.296 80.1774C134.356 80.1774 134.405 80.1743 134.444 80.1682C134.482 80.1605 134.513 80.1543 134.536 80.1497L134.647 80.6396C134.61 80.6534 134.558 80.6673 134.492 80.6812C134.426 80.6966 134.342 80.7043 134.24 80.7043C134.086 80.7043 133.935 80.6712 133.787 80.6049C133.641 80.5387 133.519 80.4378 133.422 80.3022C133.327 80.1666 133.279 79.9956 133.279 79.7892V76.2582Z" fill="#004876"/>
<path d="M135.403 80.6581V77.1086H135.948V80.6581H135.403ZM135.68 76.5171C135.574 76.5171 135.482 76.4809 135.405 76.4084C135.329 76.336 135.292 76.249 135.292 76.1473C135.292 76.0456 135.329 75.9586 135.405 75.8862C135.482 75.8138 135.574 75.7776 135.68 75.7776C135.786 75.7776 135.877 75.8138 135.953 75.8862C136.03 75.9586 136.068 76.0456 136.068 76.1473C136.068 76.249 136.03 76.336 135.953 76.4084C135.877 76.4809 135.786 76.5171 135.68 76.5171Z" fill="#004876"/>
<path d="M138.389 80.732C138.068 80.732 137.787 80.6557 137.545 80.5032C137.305 80.3507 137.117 80.1374 136.981 79.8631C136.847 79.5889 136.78 79.2685 136.78 78.9018C136.78 78.5321 136.847 78.2094 136.981 77.9336C137.117 77.6578 137.305 77.4437 137.545 77.2912C137.787 77.1387 138.068 77.0624 138.389 77.0624C138.709 77.0624 138.99 77.1387 139.23 77.2912C139.472 77.4437 139.66 77.6578 139.794 77.9336C139.929 78.2094 139.997 78.5321 139.997 78.9018C139.997 79.2685 139.929 79.5889 139.794 79.8631C139.66 80.1374 139.472 80.3507 139.23 80.5032C138.99 80.6557 138.709 80.732 138.389 80.732ZM138.389 80.2421C138.632 80.2421 138.832 80.1797 138.99 80.0549C139.147 79.9301 139.263 79.7661 139.338 79.5627C139.414 79.3594 139.452 79.1391 139.452 78.9018C139.452 78.6646 139.414 78.4435 139.338 78.2386C139.263 78.0337 139.147 77.8681 138.99 77.7418C138.832 77.6155 138.632 77.5523 138.389 77.5523C138.145 77.5523 137.945 77.6155 137.788 77.7418C137.631 77.8681 137.514 78.0337 137.439 78.2386C137.363 78.4435 137.326 78.6646 137.326 78.9018C137.326 79.1391 137.363 79.3594 137.439 79.5627C137.514 79.7661 137.631 79.9301 137.788 80.0549C137.945 80.1797 138.145 80.2421 138.389 80.2421Z" fill="#004876"/>
<path d="M141.375 78.5229V80.6581H140.83V77.1086H141.356V77.6632H141.403C141.486 77.483 141.612 77.3382 141.782 77.2288C141.951 77.1179 142.17 77.0624 142.438 77.0624C142.678 77.0624 142.888 77.1117 143.069 77.2103C143.249 77.3074 143.389 77.4553 143.489 77.654C143.589 77.8512 143.64 78.1007 143.64 78.4027V80.6581H143.094V78.4397C143.094 78.1608 143.022 77.9436 142.877 77.788C142.732 77.6309 142.533 77.5523 142.281 77.5523C142.107 77.5523 141.951 77.59 141.814 77.6655C141.678 77.741 141.571 77.8512 141.493 77.996C141.414 78.1408 141.375 78.3164 141.375 78.5229Z" fill="#004876"/>
<path d="M91.2695 40.3374V40.4049C91.2695 43.0488 93.4193 45.1986 96.0632 45.1986H96.1307V40.3374H91.2695Z" fill="#004876"/>
<path d="M113.424 64.0961L113.405 64.1708C112.896 66.0748 111.532 67.0389 109.351 67.0389C106.584 67.0389 105.121 65.4048 105.121 62.315V52.718H113.398C114.603 52.718 115.736 52.248 116.589 51.3972C117.442 50.5465 117.909 49.4113 117.909 48.2063V48.1388H105.121V40.2505H100.258V62.315C100.258 68.256 103.572 71.6639 109.349 71.6639C113.769 71.6639 116.825 69.6273 117.948 65.9326L117.967 65.8724L113.424 64.0961Z" fill="#004876"/>
<path d="M169.755 46.2904C168.253 42.468 164.744 40.2169 159.743 40.0193C159.724 40.0193 159.707 40.0193 159.688 40.0169C159.471 40.0072 159.256 40 159.037 40L146.934 40.0024V71.558H151.751V44.8226L159.476 44.8202C163.6 44.9696 165.952 47.2038 165.952 50.9973C165.952 53.3496 165.05 55.0993 163.38 56.1285C162.257 56.8202 160.792 57.1865 159.018 57.1865H158.492C159.336 58.3867 160.483 60.0111 161.724 61.7777C162.727 61.6139 163.653 61.3536 164.496 61.0041C165.106 60.7535 165.672 60.457 166.195 60.1148C169.015 58.2734 170.577 55.1355 170.577 50.9973C170.577 49.2404 170.295 47.6641 169.755 46.2904Z" fill="#97A3AE"/>
</svg>
