<svg width="12" height="12" viewBox="0 0 12 12" fill="none" xmlns="http://www.w3.org/2000/svg">
<path d="M6.0013 0.166016C4.84758 0.166016 3.71976 0.508135 2.76048 1.14911C1.80119 1.79008 1.05352 2.70113 0.612007 3.76703C0.170496 4.83293 0.0549768 6.00582 0.280057 7.13738C0.505138 8.26893 1.06071 9.30833 1.87652 10.1241C2.69232 10.9399 3.73172 11.4955 4.86328 11.7206C5.99483 11.9457 7.16772 11.8302 8.23362 11.3886C9.29953 10.9471 10.2106 10.1995 10.8515 9.24018C11.4925 8.28089 11.8346 7.15307 11.8346 5.99935C11.8346 5.2333 11.6838 4.47476 11.3906 3.76703C11.0974 3.0593 10.6678 2.41623 10.1261 1.87456C9.58442 1.33288 8.94136 0.903204 8.23362 0.610052C7.52589 0.316899 6.76735 0.166016 6.0013 0.166016ZM8.7488 5.24685L5.83214 8.16352C5.77791 8.21819 5.71339 8.26159 5.64231 8.2912C5.57122 8.32082 5.49498 8.33607 5.41797 8.33607C5.34096 8.33607 5.26472 8.32082 5.19363 8.2912C5.12255 8.26159 5.05803 8.21819 5.0038 8.16352L3.2538 6.41352C3.19942 6.35913 3.15627 6.29456 3.12684 6.2235C3.0974 6.15243 3.08225 6.07627 3.08225 5.99935C3.08225 5.84401 3.14396 5.69503 3.2538 5.58518C3.36365 5.47534 3.51263 5.41363 3.66797 5.41363C3.82331 5.41363 3.97229 5.47534 4.08214 5.58518L5.41797 6.92685L7.92047 4.41852C8.03031 4.30867 8.1793 4.24696 8.33464 4.24696C8.48998 4.24696 8.63896 4.30867 8.7488 4.41852C8.85865 4.52836 8.92036 4.67734 8.92036 4.83268C8.92036 4.98803 8.85865 5.13701 8.7488 5.24685Z" fill="white"/>
</svg>
