<svg width="56" height="56" viewBox="0 0 56 56" fill="none" xmlns="http://www.w3.org/2000/svg">
<path d="M23.4374 20.4961C26.8526 9.91609 41.3484 5.96133 49.6764 13.4188C57.9969 19.9356 57.1903 34.1941 48.2541 39.7394C48.6428 33.918 46.1977 28.1469 41.966 24.4204C37.1048 19.961 29.7181 18.4027 23.4372 20.4937L23.4374 20.4961ZM45.7605 37.1545C45.2289 30.8574 41.1736 25.5308 35.4268 23.2231C38.9232 35.5881 27.7866 48.5053 14.9382 46.7904C18.0886 52.2207 24.0149 55.498 30.5085 55.0223C39.5816 54.4695 46.6437 46.0713 45.758 37.1547L45.7605 37.1545ZM25.4277 35.4673C14.8994 34.5566 6.81431 24.1747 8.62292 13.6832C-1.04966 18.8919 -2.2518 33.8568 6.34757 40.5459C14.173 47.538 27.7387 44.5578 31.9407 35.019C29.8569 35.5377 27.5529 35.6904 25.4301 35.4671L25.4277 35.4673ZM10.9313 17.9923C11.4557 24.1472 15.3303 29.373 20.8857 31.7672C16.557 19.248 27.7488 5.44289 40.9956 7.16739C31.4563 -6.5994 9.47432 1.31556 10.9316 17.9947L10.9313 17.9923Z" fill="#3C3C3B"/>
</svg>
