<svg width="88" height="89" viewBox="0 0 88 89" fill="none" xmlns="http://www.w3.org/2000/svg">
<path d="M40.5603 24.9573L54.5104 27.6849C54.4667 26.3444 54.3802 25.0712 54.2484 23.878C53.6318 18.285 52.138 14.6056 49.908 14.1696C47.6779 13.7336 44.9114 16.58 42.2305 21.5282C41.6597 22.5808 41.0993 23.7308 40.5539 24.9561L40.5603 24.9573Z" fill="#3C3C3B"/>
<path d="M33.3333 59.6638L48.1419 62.5592C49.883 58.2461 51.4281 53.1021 52.5857 47.4844L34.8945 44.0254C33.851 49.6654 33.3449 55.0125 33.3333 59.6638Z" fill="#3C3C3B"/>
<path d="M33.3232 20.0781C32.3883 20.974 31.4925 21.9564 30.6406 23.0166L38.4805 24.5494C39.1079 23.1067 39.7547 21.7664 40.4173 20.5476C41.9621 17.6925 43.6102 15.4528 45.2706 13.9917C41.0436 14.4676 36.9095 16.6388 33.3258 20.0818L33.3232 20.0781Z" fill="#3C3C3B"/>
<path d="M22.5625 41.6143C21.59 47.278 21.7509 52.7621 22.8542 57.6149L31.2611 59.2587C31.2998 54.57 31.8173 49.2316 32.8572 43.6271L22.5657 41.6149L22.5625 41.6143Z" fill="#3C3C3B"/>
<path d="M29.2591 24.8614C26.4093 28.9413 24.1946 33.9609 22.9623 39.5739L33.2539 41.5861C34.4015 36.0026 35.9327 30.8625 37.6628 26.5045L29.256 24.8608L29.2591 24.8614Z" fill="#3C3C3B"/>
<path d="M54.5467 29.8056L39.7382 26.9102C37.997 31.2233 36.4519 36.3673 35.2943 41.985L52.9855 45.444C54.029 39.804 54.5351 34.4569 54.5467 29.8056Z" fill="#3C3C3B"/>
<path d="M56.6021 28.0943L64.4419 29.6272C64.0521 28.3243 63.5916 27.0799 63.0637 25.8947C61.0369 21.3579 58.0255 17.7863 54.2891 15.7534C55.2768 17.7323 55.9601 20.4278 56.3158 23.6545C56.4667 25.0357 56.5643 26.5215 56.6027 28.0911L56.6021 28.0943Z" fill="#3C3C3B"/>
<path d="M67.348 48.2532L74.6811 49.687C75.5997 44.0127 74.9135 38.4226 72.9479 33.4045L67.2305 32.2866C68.2182 37.1925 68.3195 42.6452 67.348 48.2532Z" fill="#3C3C3B"/>
<path d="M50.2084 62.964L58.6153 64.6077C61.4651 60.5279 63.6798 55.5082 64.9121 49.8952L54.6205 47.883C53.4729 53.4665 51.9417 58.6066 50.2116 62.9646L50.2084 62.964Z" fill="#3C3C3B"/>
<path d="M64.9494 25.0491C65.6512 26.6235 66.2401 28.3041 66.7104 30.07L71.9275 31.09C71.2933 29.792 70.5739 28.543 69.7718 27.347C67.4784 23.9387 64.5109 20.984 61.0195 18.6899C62.565 20.5246 63.8827 22.6667 64.9494 25.0491Z" fill="#3C3C3B"/>
<path d="M65.024 31.8551L56.6172 30.2114C56.5779 34.9033 56.0609 40.2385 55.021 45.843L65.3126 47.8552C66.2858 42.1883 66.1242 36.7073 65.0209 31.8545L65.024 31.8551Z" fill="#3C3C3B"/>
<path d="M54.5613 69.3899C55.493 68.4934 56.3921 67.5116 57.2433 66.4546L49.4035 64.9217C48.7761 66.3645 48.1292 67.7048 47.4667 68.9236C45.9218 71.7787 44.2736 74.0184 42.6133 75.4795C46.8402 75.0037 50.9745 72.8324 54.5613 69.3899Z" fill="#3C3C3B"/>
<path d="M55.9894 70.8856C54.1064 72.6945 52.0758 74.1819 49.9538 75.2963C54.0514 74.4893 57.9107 72.8661 61.3221 70.5733C62.5157 69.7674 63.6557 68.882 64.7282 67.9209L59.5112 66.9009C58.4104 68.3596 57.2319 69.6946 55.9888 70.8887L55.9894 70.8856Z" fill="#3C3C3B"/>
<path d="M47.3096 64.5113L33.3594 61.7837C33.4031 63.1242 33.4897 64.3974 33.622 65.5875C34.238 71.1836 35.7325 74.8599 37.9625 75.2959C40.1925 75.7319 42.959 72.8855 45.6399 67.9373C46.2108 66.8847 46.7705 65.7378 47.3159 64.5125L47.3096 64.5113Z" fill="#3C3C3B"/>
<path d="M60.8256 65.0402L66.5431 66.1581C70.2545 62.2467 72.9951 57.3298 74.2813 51.7274L66.9482 50.2936C65.7328 55.854 63.5877 60.8708 60.8256 65.0402Z" fill="#3C3C3B"/>
<path d="M20.5283 41.2179L13.1953 39.7842C12.2766 45.4585 12.9628 51.0486 14.9283 56.0667L20.6459 57.1846C19.6576 52.2819 19.5568 46.826 20.5283 41.2179Z" fill="#3C3C3B"/>
<path d="M31.8802 18.5827C33.7632 16.7737 35.7937 15.2863 37.9157 14.1719C33.8181 14.9789 29.9588 16.6021 26.5473 18.8949C25.3538 19.7008 24.2138 20.5862 23.1407 21.5504L28.3577 22.5705C29.4585 21.1117 30.6371 19.7768 31.8802 18.5827Z" fill="#3C3C3B"/>
<path d="M31.2773 61.3786L23.4375 59.8457C23.8273 61.1486 24.2878 62.393 24.8164 63.575C26.8425 68.115 29.8507 71.686 33.5877 73.7157C32.5999 71.7368 31.9168 69.0413 31.561 65.8146C31.4101 64.4334 31.3126 62.9476 31.2742 61.3779L31.2773 61.3786Z" fill="#3C3C3B"/>
<path d="M27.0508 24.4305L21.3332 23.3126C17.6186 27.2234 14.8813 32.1409 13.5951 37.7433L20.9281 39.1771C22.1435 33.6167 24.2887 28.5999 27.0508 24.4305Z" fill="#3C3C3B"/>
<path d="M22.9196 64.4203C22.2178 62.8459 21.6288 61.1654 21.1585 59.3994L15.9414 58.3794C16.5756 59.6775 17.295 60.9264 18.0977 62.1193C20.3911 65.5276 23.358 68.4854 26.85 70.7763C25.3039 68.9448 23.9863 66.8027 22.9202 64.4171L22.9196 64.4203Z" fill="#3C3C3B"/>
<path d="M78.4101 51.475L76.291 51.0607C74.5426 60.0029 69.3465 67.3698 62.3406 72.0841C55.3322 76.7946 46.5507 78.8333 37.6079 77.0881C28.6657 75.3397 21.2988 70.1437 16.5813 63.1372C11.8708 56.1288 9.83206 47.3473 11.5767 38.4076C13.325 29.4655 18.5211 22.0985 25.5276 17.381C32.5366 12.6673 41.3175 10.6317 50.2603 12.3769C59.2025 14.1253 66.5695 19.3215 71.2869 26.328C75.9975 33.3364 78.0362 42.1179 76.291 51.0607L80.5261 51.8887C84.4774 31.6794 71.3009 12.0939 51.0884 8.14188C30.879 4.19051 11.2967 17.3677 7.34152 37.5796C3.39015 57.789 16.5673 77.3713 36.7798 81.3233C56.9892 85.2746 76.5715 72.0975 80.5261 51.8887L78.407 51.4744L78.4101 51.475Z" fill="#3C3C3B"/>
</svg>
