<svg width="38" height="31" viewBox="0 0 38 31" fill="none" xmlns="http://www.w3.org/2000/svg">
<path d="M31.8774 30.6933C30.4133 30.9524 28.2634 30.7866 24.8784 29.6098C20.7626 28.173 17.5232 26.7461 13.1406 23.6897C8.91323 20.7362 6.75476 18.722 3.52234 14.7046C-0.130445 10.1676 -0.126047 7.45049 0.201072 6.23084C0.589926 4.77253 1.37239 3.80401 2.42801 2.79375C3.02908 2.22847 3.68097 1.7198 4.37541 1.27419L4.56729 1.14618C4.9072 0.912756 5.42571 0.560269 6.18562 0.704698C6.69258 0.799822 7.18117 1.08962 7.96292 1.6279C9.56407 2.73078 11.9545 5.39376 12.9031 6.74415C13.5392 7.65309 13.9606 8.25347 14.0919 8.98605C14.2439 9.84533 13.9288 10.5826 13.5305 11.3908L13.3078 11.8295C12.871 12.6808 12.7828 12.9192 12.9345 13.2917C13.2385 14.0399 14.8963 16.1345 17.3082 17.8184C19.7199 19.5007 22.1748 20.2709 22.9851 20.2992C23.4052 20.314 23.6015 20.1456 24.2728 19.4162C24.3682 19.3118 24.4665 19.2053 24.571 19.0961C25.2657 18.3593 25.8217 17.8269 26.6602 17.6785L26.665 17.6777C27.3946 17.5486 28.0764 17.7547 29.2024 18.0934C30.6735 18.5361 34.0823 19.8291 35.6756 20.9531C36.4524 21.5005 36.892 21.8584 37.1569 22.3017C37.5539 22.9691 37.3986 23.5742 37.2984 23.978L37.2437 24.2006C37.0608 25.0048 36.8043 25.7904 36.4774 26.5475C35.8899 27.8809 35.2452 28.9472 34.0088 29.8128C33.3741 30.2636 32.6454 30.5657 31.8774 30.6933Z" fill="#171717"/>
</svg>
